<?xml version="1.0" standalone="no"?>
<!DOCTYPE svg PUBLIC "-//W3C//DTD SVG 1.1//EN" "http://www.w3.org/Graphics/SVG/1.1/DTD/svg11.dtd" >
<svg xmlns="http://www.w3.org/2000/svg" xmlns:xlink="http://www.w3.org/1999/xlink" version="1.1">
<metadata>
Created by FontForge 20170731 at Tue Nov 10 11:53:43 2020
 By Aleksey,,,
(c) Copyright OH no Type Company, LLC. 2015. All rights reserved.
</metadata>
<defs>
<font id="ObviouslyDemo-CompLghtItalic" horiz-adv-x="348" >
  <font-face 
    font-family="Obviously Demo Comp Lght"
    font-weight="230"
    font-style="italic"
    font-stretch="extra-condensed"
    units-per-em="2048"
    panose-1="4 13 4 3 5 4 3 11 3 6"
    ascent="1638"
    descent="-410"
    x-height="1292"
    cap-height="1536"
    bbox="-231 -229 756 1593"
    underline-thickness="102"
    underline-position="-307"
    slope="-14"
    unicode-range="U+0020-00A0"
  />
<missing-glyph horiz-adv-x="0" 
 />
    <glyph glyph-name=".notdef" horiz-adv-x="0" 
 />
    <glyph glyph-name=".null" horiz-adv-x="0" 
 />
    <glyph glyph-name="nonmarkingreturn" horiz-adv-x="682" 
 />
    <glyph glyph-name="space" unicode=" " horiz-adv-x="163" 
 />
    <glyph glyph-name="comma" unicode="," horiz-adv-x="104" 
d="M-39 322h66q-86 -203 -215 -529q-26 4 -43 10q155 401 192 519z" />
    <glyph glyph-name="period" unicode="." horiz-adv-x="141" 
d="M-61 109q52 0 34 -66q-10 -49 -55 -49q-53 0 -37 67q13 48 58 48z" />
    <glyph glyph-name="zero" unicode="0" horiz-adv-x="342" 
d="M338 766q-45 -178 -76 -296t-59.5 -209t-48.5 -141t-41.5 -81.5t-40 -41t-43.5 -9.5q-57 0 -72 51q-28 92 53 457q27 118 66 276q84 339 138.5 506t91 217.5t85.5 50.5q29 0 46 -9.5t26.5 -39.5t6.5 -82t-18 -140.5t-42.5 -210.5t-71.5 -298zM387 1495q-27 0 -52.5 -44
t-75 -206t-128.5 -477q-143 -569 -135 -681q6 -47 35 -48q28 0 53.5 46t72.5 205.5t126 477.5q141 556 139 669q-6 55 -35 58z" />
    <glyph glyph-name="one" unicode="1" horiz-adv-x="157" 
d="M-78 0h-28q41 149 192 768q126 488 178 719q23 15 47 49h15h10q-11 -43 -41 -160.5t-75.5 -294.5t-80.5 -313q-95 -389 -186 -768h-31z" />
    <glyph glyph-name="two" unicode="2" horiz-adv-x="296" 
d="M143 905h-28q25 134 55 254q59 237 98.5 313t110.5 76q65 0 79 -60t-20 -196q-97 -386 -272 -700q-76 -139 -105.5 -197t-65.5 -149t-61 -193h39q105 0 154 2q-2 -10 -8 -28q-1 -5 -2 -14t-2 -13h-246q0 5 8 33q4 20 6 28q36 144 87.5 259.5t156.5 304.5q165 303 256 669
q29 116 26 158.5t-38 42.5q-24 0 -42.5 -25.5t-43.5 -99.5t-62 -219q-21 -83 -53 -246h-27z" />
    <glyph glyph-name="three" unicode="3" horiz-adv-x="313" 
d="M170 1040h-29q17 85 43 189q47 187 86 253t101 66q72 0 80.5 -85t-39.5 -277q-42 -171 -74.5 -251t-71.5 -122q-26 -26 -57 -35l-2 -6q27 -8 39 -20q23 -23 24.5 -78.5t-10 -116.5t-37.5 -166q-59 -234 -103 -318.5t-110 -84.5q-48 0 -68.5 27t-17 98.5t34.5 201.5
q36 135 55 197h27h27q-8 -29 -26.5 -95.5t-23.5 -88.5q-12 -47 -20.5 -84.5t-13.5 -66.5t-7.5 -51t-2 -37.5t3 -25.5t8 -16t12 -8t16.5 -2q25 0 44.5 26.5t45 104t62.5 227.5q37 146 45.5 225t-4.5 104.5t-49 25.5q-29 0 -45 -2q1 2 4 13t4 17q3 16 6 23h43q48 0 90.5 90
t93.5 291q22 90 33.5 149.5t12.5 97t-7.5 53t-27.5 15.5q-35 0 -60 -52.5t-67 -221.5q-24 -99 -39 -183h-29z" />
    <glyph glyph-name="four" unicode="4" horiz-adv-x="346" 
d="M451 1536h59q-74 -285 -195 -768q-73 -296 -82 -328q44 0 60 2l-4 -28q-3 -12 -4.5 -16t-3.5 -11l-60 2q-66 -258 -94 -389h-59q41 175 100 389h-43q-99 0 -154 -2q268 897 330 1149h61q-273 -924 -319 -1094q31 -2 137 -2q22 91 131.5 532t139.5 564z" />
    <glyph glyph-name="five" unicode="5" horiz-adv-x="309" 
d="M272 1536h236q0 -9 -6 -27q-1 -4 -4.5 -15.5t-3.5 -14.5q-8 0 -44 1t-44 1h-93q-8 -31 -41 -162.5t-49 -194.5q-31 -112 -57 -237q50 92 100 92q42 0 52 -40q20 -81 -66 -439q-51 -209 -89 -319t-72 -151.5t-79 -41.5q-47 0 -67.5 27t-16.5 99t37 203q17 73 55 199h54
q-34 -112 -51 -182q-23 -93 -34 -149.5t-11 -90t9 -45.5t29 -12q37 0 75.5 95.5t103.5 363.5q86 350 73 411q-5 23 -24 23q-53 0 -113 -166q-27 10 -47 10q2 8 80 322q99 391 108 440z" />
    <glyph glyph-name="six" unicode="6" horiz-adv-x="339" 
d="M233 848q-44 0 -82.5 -76.5t-89.5 -277.5q-115 -457 -24 -457q28 0 51 36t53.5 130t75.5 276q74 293 48 349q-9 20 -32 20zM133 795h6q49 104 119 104q33 0 50 -20t19 -68.5t-11.5 -128t-43.5 -201.5q-72 -293 -119 -393t-118 -100q-60 0 -77 51q-29 87 45 426
q30 135 79 330q42 169 71.5 279t57 199.5t48 138t44 81.5t44.5 43t50 10q49 0 69.5 -28.5t15.5 -110t-42 -229.5q-8 -32 -16 -66t-11.5 -49.5t-6.5 -24.5h-31h-29q18 52 37 138q21 83 32.5 141t15 93t-1.5 54.5t-14 26t-24 6.5q-27 0 -49 -28.5t-56 -129.5t-83 -295
q-20 -72 -70 -249z" />
    <glyph glyph-name="seven" unicode="7" horiz-adv-x="276" 
d="M236 1536h258q-1 -4 -3.5 -14.5t-3.5 -14.5q-2 -4 -6 -26q-84 -196 -237.5 -653t-251.5 -828h-27h-28q101 367 253 816t242 663q-133 0 -211 -2q2 6 4 16t4 16q0 2 3 11.5t4 15.5z" />
    <glyph glyph-name="eight" unicode="8" horiz-adv-x="360" 
d="M393 1182q24 92 35 150.5t11.5 97t-11 54t-35.5 15.5q-41 0 -72.5 -68.5t-76.5 -248.5q-30 -119 -44.5 -191t-16.5 -115.5t8 -59t32 -15.5q29 0 52 30.5t51 112.5t67 238zM205 391q20 79 32 132t19 95.5t7 66t-6 39.5t-17 21t-29 5q-22 0 -38 -9t-31.5 -29.5t-31 -63
t-32.5 -101t-41 -152.5q-26 -106 -38 -171t-12.5 -109t12.5 -61t40 -17q45 0 80.5 76t85.5 278zM176 774l2 4q-24 12 -35 37q-17 39 -8 115.5t53 255.5q50 201 93.5 281.5t115.5 80.5q85 0 94.5 -86t-40.5 -276q-44 -179 -73.5 -259t-64.5 -118q-22 -22 -55 -33l-2 -6
q27 -8 37 -20q19 -24 18.5 -78.5t-12 -117t-37.5 -167.5q-59 -226 -108 -312.5t-119 -86.5q-45 0 -69.5 22.5t-29 74.5t7 126.5t40.5 187.5q29 115 42.5 163.5t41.5 108.5t61 85q15 11 47 18z" />
    <glyph glyph-name="nine" unicode="9" horiz-adv-x="339" 
d="M358 1040q118 457 25 457q-28 0 -51 -36t-53 -130t-74 -276q-72 -284 -52 -343q10 -25 35 -26q44 0 81.5 76t88.5 278zM289 739l-6 2q-51 -104 -115 -104q-35 0 -53 19.5t-21 68t10 128.5t43 202q73 291 120.5 391t117.5 100q60 0 77 -51q29 -87 -44 -425
q-29 -135 -78 -331q-50 -202 -84.5 -326t-64.5 -214t-56 -132.5t-51.5 -60.5t-60.5 -18q-48 0 -68.5 28.5t-15.5 110t41 229.5q29 119 36 140h31h27q-18 -52 -37 -138q-35 -135 -43.5 -207.5t1 -93t34.5 -20.5q27 0 49 28.5t56.5 129t84.5 294.5q9 39 20 78.5t26.5 92
t23.5 79.5z" />
    <glyph glyph-name="A" unicode="A" horiz-adv-x="339" 
d="M389 1485h-6q-6 -22 -36 -117t-62 -199q-27 -88 -224 -702h76h66q102 578 127 702q20 103 59 316zM356 1536h82q-26 -145 -126.5 -728.5t-135.5 -807.5h-63q18 68 82 418h-70h-80q-109 -343 -125 -418h-67q81 235 281.5 849.5t221.5 686.5z" />
    <glyph glyph-name="B" unicode="B" horiz-adv-x="352" 
d="M381 1145q28 114 40.5 178.5t10 102.5t-17 49.5t-45.5 11.5q-22 0 -45 -2q-70 -279 -174 -688h36q46 0 75.5 29t55.5 99.5t64 219.5zM207 393q19 74 29 117t17.5 89t5.5 69.5t-10.5 44t-27 28t-47.5 7.5q-18 0 -39 -3q-16 -67 -83 -335t-87 -361h43q27 0 43 3t33.5 16
t29.5 34t27.5 61.5t30.5 93.5t35 136zM279 1536h88q68 0 94.5 -24.5t22.5 -109t-48 -259.5q-44 -173 -72 -242.5t-73 -103.5q-25 -16 -62 -19l-2 -10q37 -3 54 -20q20 -21 25.5 -54.5t-4.5 -105.5t-40 -195q-23 -94 -39 -150.5t-34.5 -105.5t-34.5 -72t-40.5 -40t-50.5 -21
t-67 -4h-102q69 255 194 768q155 616 191 768z" />
    <glyph glyph-name="C" unicode="C" horiz-adv-x="350" 
d="M334 870h-29q51 186 80 299q65 255 39 306q-10 20 -37 20q-30 0 -56 -47t-72 -201.5t-126 -472.5q-40 -162 -66 -272t-43 -195.5t-23 -134.5t-2.5 -80.5t14.5 -42t32 -10.5q40 0 74 81.5t80 272.5q14 58 34 144t31 133h27h26q-9 -38 -27 -120.5t-34 -148.5
q-57 -227 -101 -319t-112 -92q-34 0 -54 11.5t-31 44.5t-9 86.5t17 143.5t42 209t70 289q44 177 75.5 296.5t59.5 209t48.5 139t43 79.5t42 39t46.5 9q77 0 86.5 -93t-41.5 -290q-48 -193 -80 -293h-24z" />
    <glyph glyph-name="D" unicode="D" horiz-adv-x="352" 
d="M301 803q129 511 120 624q-4 52 -38 59q-7 1 -18 1q-31 0 -41 -2q-16 -59 -185 -725q-156 -624 -174 -711h33q28 0 44 4.5t37.5 31t38.5 69t45.5 133t59 208t78.5 308.5zM276 1536h89q37 0 57.5 -7t36 -33t15.5 -73.5t-11 -131t-37.5 -203t-69.5 -291.5
q-124 -492 -173 -623q-46 -124 -100 -156q-32 -18 -91 -18h-98q28 97 192 766q177 703 190 770z" />
    <glyph glyph-name="E" unicode="E" horiz-adv-x="296" 
d="M281 1536h219l-6 -27q-4 -20 -9 -30q-51 4 -155 8q-152 -596 -174 -688q98 0 153 2q-10 -41 -12 -53q-55 2 -154 2q-140 -557 -172 -701q71 0 160 6q-1 -4 -4 -13t-4 -13q0 -4 -1 -8.5t-2.5 -11t-2.5 -9.5h-223q46 153 196 768q24 96 77.5 304.5t80 315.5t33.5 148z" />
    <glyph glyph-name="F" unicode="F" horiz-adv-x="278" 
d="M279 1536h210q-6 -12 -6 -27q-2 -6 -8 -30q-54 4 -149 8q-160 -627 -179 -705l-18 -71q92 0 145 2q-1 -7 -5 -27t-5 -27q-80 3 -147 3q-118 -469 -162 -662h-59q44 162 192 768q182 722 191 768z" />
    <glyph glyph-name="G" unicode="G" horiz-adv-x="356" 
d="M291 782h55q-32 -138 -54.5 -231t-45.5 -180.5t-38.5 -140.5t-33 -100t-31 -70.5t-30.5 -41t-33 -23t-37 -5.5q-61 0 -79 50q-33 93 47 461q26 119 65 275q66 263 108 410.5t79 230.5t64.5 106t69.5 23q75 0 85.5 -92.5t-40.5 -284.5q-56 -218 -75 -280q-3 0 -12 1t-13 1
q-19 0 -29 -2q9 35 26.5 98t30.5 111.5t19 70.5q64 256 37 305q-10 19 -35 19q-31 0 -58.5 -46.5t-75.5 -203t-126 -467.5q-134 -537 -131 -664q5 -71 45 -73q14 0 25 6t23.5 23.5t23.5 40.5t25 65t27.5 90t32 122t37 153t44.5 192q-4 0 -90 -4q0 1 3.5 13t4.5 18q1 5 3 12
t3 12h84z" />
    <glyph glyph-name="H" unicode="H" horiz-adv-x="368" 
d="M489 1536h58q-25 -93 -195 -768q-30 -123 -70 -283t-68 -274t-50 -211h-58q182 716 189 745h-80h-80q-8 -34 -81.5 -328t-102.5 -417h-57q40 146 192 768q174 690 190 768h58q-120 -467 -187 -739q27 -2 80 -2t80 2q19 79 91.5 369.5t90.5 369.5z" />
    <glyph glyph-name="I" unicode="I" horiz-adv-x="159" 
d="M-47 0h-57q13 48 192 768q184 735 191 768h57q-14 -52 -195 -768q-160 -652 -188 -768z" />
    <glyph glyph-name="J" unicode="J" horiz-adv-x="192" 
d="M311 1536h60q-19 -65 -166 -655q-12 -45 -73.5 -295t-117.5 -473q-14 -64 -37.5 -93.5t-68.5 -29.5q-46 0 -66 10q10 20 21 53q15 -10 41 -10q18 0 32 15t25 61q229 912 350 1417z" />
    <glyph glyph-name="K" unicode="K" horiz-adv-x="342" 
d="M485 1536h66q-297 -685 -346 -788q0 -72 -6 -158q-13 -429 -9 -590h-47q-10 0 -13 7.5t-3 29.5q25 516 29 684h-25q-130 -523 -178 -721h-57q13 48 192 768q184 735 191 768h57q-48 -179 -193 -766v-2h23q42 108 104 244q150 329 215 524z" />
    <glyph glyph-name="L" unicode="L" horiz-adv-x="251" 
d="M276 1536h66q-31 -111 -197 -768q-32 -126 -94.5 -388.5t-79.5 -330.5q78 4 131 8q-6 -24 -8 -30q0 -15 -6 -27h-188q21 73 192 768q166 671 184 768z" />
    <glyph glyph-name="M" unicode="M" horiz-adv-x="493" 
d="M594 1536h76q-20 -80 -191 -766q-47 -187 -109.5 -443t-80.5 -327h-58q102 393 265 1053q9 35 52 189t62 231h-6q-180 -558 -184 -570l-309 -903h-35l141 907q10 69 27.5 170.5t40 226.5t30.5 171h-8q-20 -81 -52 -227.5t-42 -190.5q-149 -589 -262 -1057h-55
q13 50 194 770q153 611 189 766h83q-11 -61 -67.5 -443.5t-89.5 -590.5q-7 -39 -29 -141t-29 -136h9q72 244 82 273q72 215 204.5 595.5t151.5 442.5z" />
    <glyph glyph-name="N" unicode="N" horiz-adv-x="370" 
d="M496 1536h53q-17 -72 -82 -330t-109 -436q-173 -693 -192 -770h-62q16 102 146 1106q14 122 59 358h-8q-67 -307 -151 -651q-189 -763 -201 -813h-53q84 327 192 768q163 648 191 768h77q-12 -58 -33 -225.5t-53 -421t-57 -434.5q-6 -37 -25 -143.5t-28 -166.5h8
q60 289 70 330q238 974 258 1061z" />
    <glyph glyph-name="O" unicode="O" horiz-adv-x="350" 
d="M348 772q-86 -345 -138 -510.5t-89 -219.5t-86 -54q-59 0 -76 48q-30 83 40 409q29 132 77 327q84 337 139 505.5t91.5 218.5t84.5 50q30 0 47.5 -9.5t28.5 -39t8.5 -81.5t-16.5 -139.5t-41 -209.5t-70 -295zM37 39q29 0 55 47.5t73 206t126 477.5q137 547 137 663
q-7 58 -39 62q-28 0 -54 -45t-75 -204.5t-129 -475.5q-138 -555 -133 -672q7 -56 39 -59z" />
    <glyph glyph-name="P" unicode="P" horiz-adv-x="333" 
d="M338 997q32 130 50 221.5t22.5 142.5t-2.5 79t-18.5 35.5t-31.5 7.5h-41q-171 -680 -231 -926q6 -2 33 -2q45 0 74 29.5t63 123.5t82 289zM276 1536h82q50 0 74.5 -20t30.5 -79.5t-12 -163t-62 -274.5q-52 -213 -92.5 -318.5t-80 -141t-101.5 -35.5q-13 0 -41 4
q-27 -110 -121 -508h-59q84 315 194 768q136 541 188 768z" />
    <glyph glyph-name="Q" unicode="Q" 
d="M129 772q-134 -544 -133 -659q1 -59 32 -63q4 -1 9 -1q29 0 54.5 44.5t73 202.5t126.5 476q136 540 136 657q-8 62 -40 66q-28 0 -54.5 -46.5t-75.5 -205.5t-128 -471zM76 45l-2 -8q7 1 23 4t26 4q27 4 63 8q-1 -2 -3 -10.5t-5 -19.5t-6 -23q-24 0 -68.5 -1t-64.5 -1
q-33 0 -52 10.5t-30 42.5t-8 85.5t18 146t43.5 217.5t73.5 305q80 325 131.5 483t88.5 208t89 50q30 0 46.5 -9.5t27 -39.5t7.5 -83.5t-17.5 -144t-43 -218t-73.5 -308.5q-69 -279 -113 -422t-84 -208q-34 -52 -67 -68z" />
    <glyph glyph-name="R" unicode="R" horiz-adv-x="362" 
d="M319 1487l-196 -782q1 0 17.5 -1.5t33.5 -1.5q52 0 99 88t100 295q26 105 39.5 178.5t16 117t-6.5 67.5t-22.5 31.5t-37.5 7.5h-43zM274 1536h93q45 0 69 -15t35.5 -61t0 -136t-45.5 -234q-48 -206 -96.5 -300t-120.5 -112l-2 -8q33 -8 45 -37t10 -94t-20 -197
q-39 -271 -41 -342h-51q-16 0 -13 23q71 456 73 541q3 71 -22 81q-10 4 -26 4h-51q-117 -470 -156 -649h-64q141 548 195 768q82 326 188 768z" />
    <glyph glyph-name="S" unicode="S" horiz-adv-x="305" 
d="M43 532h31q-61 -221 -68 -247q-23 -92 -28.5 -146.5t4.5 -76t34 -21.5q34 0 57 42t44 132q59 224 45 541q-6 158 1.5 287.5t41.5 263.5q31 129 68 184t94 55q72 0 84 -70t-35 -268q-32 -121 -58 -207h-26h-27q26 86 55 209q57 230 34 270q-9 15 -29 15q-34 0 -56 -41.5
t-49 -150.5q-58 -224 -45 -506q2 -95 3.5 -181.5t-9.5 -195t-37 -209.5q-30 -109 -66 -165t-94 -56q-75 0 -88 75t25 211q29 120 69 256h25z" />
    <glyph glyph-name="T" unicode="T" horiz-adv-x="290" 
d="M238 1536h270q-2 -4 -6 -27l-6 -22h-107q-19 -76 -369 -1487h-30h-27q14 53 77 303t154 615.5t142 568.5h-111l6 24z" />
    <glyph glyph-name="U" unicode="U" horiz-adv-x="368" 
d="M483 1536h60q-36 -134 -172 -680q-12 -48 -41 -171t-58.5 -243.5t-54.5 -220.5q-14 -59 -26 -95.5t-31 -71t-46 -50.5t-63 -16q-60 0 -89.5 29.5t-29.5 83t17 126.5q30 121 90 342t76 287q132 530 166 680h61q-54 -194 -336 -1315q-24 -97 -13.5 -140.5t60.5 -43.5
q36 0 60.5 42.5t48.5 139.5q67 265 184.5 748t136.5 569z" />
    <glyph glyph-name="V" unicode="V" horiz-adv-x="356" 
d="M498 1536h61q-69 -209 -270.5 -840t-222.5 -696h-41h-41q12 78 132.5 741.5t139.5 794.5h63q-62 -281 -213 -1130q-12 -69 -25.5 -136.5t-26.5 -127.5t-17 -79h8q41 160 100 340q43 137 128.5 410t145 463t79.5 260z" />
    <glyph glyph-name="W" unicode="W" horiz-adv-x="550" 
d="M698 1536h58q-38 -118 -238 -771t-237 -765h-37h-43q7 36 86.5 443.5t122.5 635.5q15 75 82 371h-11q-86 -304 -108 -371q-152 -484 -334 -1079h-41h-35q15 87 141.5 748t147.5 788h59q-49 -221 -215 -1087q-26 -125 -82 -367h13q51 177 104 367q41 132 125 397.5
t139 443t74 246.5h43h41q-16 -67 -51.5 -246t-87.5 -445.5t-78 -398.5q-16 -76 -42.5 -200.5t-35.5 -165.5h10q86 302 105 366q41 139 120 399t133 440.5t72 250.5z" />
    <glyph glyph-name="X" unicode="X" horiz-adv-x="354" 
d="M492 1536h63q-173 -428 -305 -760q-53 -518 -74 -776h-59q8 60 21 205t28 256q24 203 39 284h-6q-14 -46 -51.5 -146t-51.5 -140q-27 -76 -63.5 -173.5t-60 -163t-42.5 -122.5h-65q22 54 128.5 332.5t174.5 445.5q11 101 29.5 267t31.5 285t21 206h61q-20 -147 -61 -485
q-29 -190 -39 -246h6q32 93 88 239q153 392 187 492z" />
    <glyph glyph-name="Y" unicode="Y" horiz-adv-x="346" 
d="M485 1536h60q-366 -1022 -385 -1077q-89 -358 -113 -459q-12 2 -29 2q-18 0 -28 -2q4 16 110 432q144 1000 154 1104h63q-17 -83 -118 -750q-16 -107 -41 -215h8q62 210 65 220q32 95 93 272t104 302.5t57 170.5z" />
    <glyph glyph-name="Z" unicode="Z" horiz-adv-x="301" 
d="M258 1536h246q-2 -5 -6 -23q-1 -4 -3.5 -13.5t-2.5 -12.5q-49 -112 -377 -981q-33 -80 -95.5 -238.5t-87.5 -218.5q23 2 60 2q89 0 139 4q-2 -6 -4.5 -16t-3.5 -12q-3 -12 -6 -27h-248q1 3 3 11.5t3 11.5q6 15 6 28q15 27 86.5 211t173.5 452t138 361q128 337 159 414
q-27 -4 -94 -4q-73 0 -98 -2q6 24 8 28q1 4 2 12t2 13z" />
    <glyph glyph-name="a" unicode="a" 
d="M147 246l238 950q-20 51 -59 51q-30 0 -56.5 -41t-70.5 -176.5t-109 -392.5q-62 -247 -85 -384t-16 -176.5t34 -39.5q30 0 64.5 54t59.5 155zM410 1292h57q-27 -81 -186 -731q-22 -90 -56.5 -227.5t-54 -217.5t-27.5 -116h-57q3 17 16 59l7 31l-5 2q-54 -106 -106 -106
q-49 0 -59 58q-21 117 101 606l1 5q68 274 115.5 415.5t82 187t78.5 45.5q54 0 74 -68h6q2 10 6.5 28.5t6.5 28.5z" />
    <glyph glyph-name="b" unicode="b" horiz-adv-x="350" 
d="M209 1047l-238 -949q9 -23 27.5 -38t38.5 -15q29 0 53 38t67 176.5t111 414.5q33 130 53.5 216.5t34 154.5t18.5 106t2.5 62t-10.5 32t-24 8q-36 0 -72 -52.5t-61 -153.5zM246 1202l2 -2q54 107 114 107q25 0 39.5 -10t22 -38t4.5 -73t-15 -119.5t-34.5 -172.5
t-56.5 -237q-58 -228 -96.5 -359.5t-70.5 -200.5t-55 -88t-57 -19q-26 0 -47.5 18.5t-32.5 46.5l-6 -2q-2 -9 -5 -26.5t-5 -26.5h-56q5 17 191 758q201 819 203 827h59q-39 -147 -84 -325z" />
    <glyph glyph-name="c" unicode="c" horiz-adv-x="335" 
d="M244 518h22q-10 -47 -39 -168q-48 -199 -89.5 -280.5t-106.5 -81.5q-29 0 -47 9t-29.5 35t-11 71.5t11 120t33.5 180t59 251.5q41 165 69.5 268t56 183.5t52.5 120.5t51 59t60 19q47 0 66.5 -32t14 -104.5t-37.5 -197.5q-25 -104 -47 -172h-23h-28q35 117 45 168
q60 231 33 273q-9 15 -29 15q-32 0 -59 -43.5t-68.5 -175t-104.5 -385.5q-118 -482 -102 -573q10 -35 39 -37q35 0 65.5 66.5t75.5 246.5q1 3 16 66.5t21 97.5h31z" />
    <glyph glyph-name="d" unicode="d" 
d="M147 246l238 950q-10 23 -29 37t-39 14q-29 0 -54 -42t-66 -174.5t-107 -393.5q-33 -135 -54 -224t-35 -160t-18 -109.5t-0.5 -63.5t13 -33t27.5 -8q32 0 65.5 52.5t58.5 154.5zM483 1585h56q-83 -306 -265 -1050q-116 -465 -131 -535h-57q2 9 4.5 18.5t6 22t5.5 20.5
l9 29l-7 2q-52 -106 -102 -106q-26 0 -41.5 9.5t-24 37.5t-6.5 72t14.5 118.5t34 173t56.5 238.5q73 292 118 432.5t77.5 188t76.5 47.5q28 0 51 -19t35 -51l4 2q1 4 3 11t3 11q56 236 80 328z" />
    <glyph glyph-name="e" unicode="e" horiz-adv-x="333" 
d="M324 961q17 69 26.5 120t12.5 84t0 53.5t-10.5 28.5t-20.5 8q-28 0 -55 -41.5t-69.5 -169t-101.5 -356.5q109 0 148 2q8 34 32.5 126.5t37.5 144.5zM236 504h24q-62 -277 -113 -396.5t-120 -119.5q-29 0 -45.5 10.5t-27.5 49t-5.5 108t29 194t67.5 301.5q67 266 115 406
t88 194t90 54q72 0 76.5 -87.5t-39.5 -248.5l-86 -330h-96h-99q-38 -153 -60.5 -262.5t-31.5 -174t-7 -101t11 -48.5t25 -12q40 0 80 103.5t98 359.5h27z" />
    <glyph glyph-name="f" unicode="f" horiz-adv-x="229" 
d="M236 1292l40 170q19 70 50.5 100.5t83.5 30.5q29 0 53 -6q-3 -12 -17 -55q-16 8 -36 8q-31 0 -50.5 -20t-31.5 -68l-41 -160h104q-4 -12 -14 -55h-103q-304 -1224 -307 -1237h-28h-29q18 62 40 148t65.5 260t76.5 303q107 437 129 526h-61q13 52 14 55h62z" />
    <glyph glyph-name="g" unicode="g" horiz-adv-x="346" 
d="M199 446l186 748q-19 53 -59 53q-30 0 -54.5 -35t-62.5 -149t-92 -332q-28 -110 -46 -184t-29 -131t-14.5 -89.5t0.5 -53t13 -27t25 -6.5q34 0 70.5 52.5t62.5 153.5zM412 1292h55q-8 -29 -172 -674q-29 -116 -60 -241t-59 -239t-37 -150q-29 -115 -69 -165t-101 -50
q-138 0 -84 217q11 47 31 114h25h24q-4 -16 -8.5 -37t-10 -42.5t-7.5 -28.5q-24 -103 -14.5 -139.5t48.5 -36.5t64 42.5t47 131.5q60 236 78 297l-8 2q-55 -107 -115 -107q-36 0 -52 20.5t-14 82.5t23 165t65 277q61 244 104.5 369t76.5 164t77 39q56 0 68 -68l12 2
q10 45 13 55z" />
    <glyph glyph-name="h" unicode="h" horiz-adv-x="364" 
d="M244 1192h6q54 111 129 111q48 0 67.5 -40.5t-0.5 -117.5q-44 -176 -100 -393t-80 -318q-42 -165 -104 -434h-60q158 614 291 1149q27 104 -39 104q-42 0 -80.5 -51t-62.5 -145q-225 -902 -262 -1057h-55q26 97 78 306t81 323q39 158 91.5 368.5t88 354t56.5 233.5h53
q-9 -30 -59 -242q-5 -21 -18.5 -71.5t-20.5 -79.5z" />
    <glyph glyph-name="i" unicode="i" horiz-adv-x="149" 
d="M330 1450q-5 -19 -19.5 -31t-34.5 -12q-54 0 -40 63q12 43 55 43q26 0 35.5 -17t3.5 -46zM-51 0h-58q26 101 85 335.5t85 338.5q29 120 80.5 327t71.5 291h57q-96 -375 -155 -620q-131 -520 -166 -672z" />
    <glyph glyph-name="j" unicode="j" horiz-adv-x="172" 
d="M-111 -106q291 1167 347 1398h57q-32 -107 -170 -671q-15 -55 -39 -153t-63.5 -258.5t-75.5 -305.5q-15 -68 -42 -100.5t-73 -32.5q-37 0 -57 10q4 5 8 15t8 21.5t6 16.5q15 -10 39 -10q17 0 30 14t25 56zM352 1450q-5 -19 -19.5 -31t-35.5 -12q-26 0 -35.5 17.5
t-3.5 45.5q12 43 55 43q26 0 35.5 -17t3.5 -46z" />
    <glyph glyph-name="k" unicode="k" horiz-adv-x="335" 
d="M438 1292h62q-204 -394 -336 -659q3 -84 5.5 -233t5.5 -256t7 -144h-45q-19 0 -16 18q-2 111 -4.5 334.5t-3.5 257.5h-11q-59 -242 -149 -610h-57q94 366 225 901l170 684h59q-46 -170 -198 -782l-37 -150h8q12 25 45 93.5t51 107.5q31 62 79.5 157.5t82 162t57.5 118.5z
" />
    <glyph glyph-name="l" unicode="l" horiz-adv-x="155" 
d="M-49 0h-57q54 205 212 848q104 411 183 737h57q-29 -115 -186 -739q-138 -551 -209 -846z" />
    <glyph glyph-name="m" unicode="m" horiz-adv-x="550" 
d="M438 1202l8 -2q53 103 125 103q44 0 64 -35.5t2 -106.5q-10 -41 -188 -735q-47 -185 -101 -426h-59q216 843 293 1151q13 53 4.5 77.5t-41.5 24.5q-39 0 -75 -51.5t-60 -148.5q-72 -289 -132 -528t-86.5 -344t-44.5 -181h-59q120 457 293 1151q26 102 -33 102
q-41 0 -77 -51t-62 -149q-248 -1000 -260 -1053h-55q26 97 78 306t81 323q25 101 63 252.5t61.5 248.5t39.5 162h51l-22 -88h6q51 99 119 99q75 0 67 -101z" />
    <glyph glyph-name="n" unicode="n" horiz-adv-x="364" 
d="M244 1192h6q54 111 129 111q48 0 67.5 -40.5t-0.5 -117.5q-44 -176 -100 -393t-80 -318q-42 -165 -104 -434h-60q158 614 291 1149q27 104 -39 104q-42 0 -80.5 -51t-62.5 -145q-225 -902 -262 -1057h-55q26 97 78 306t81 323q25 101 63 254t62 249.5t39 159.5h51
q-5 -20 -12.5 -52.5t-11.5 -47.5z" />
    <glyph glyph-name="o" unicode="o" horiz-adv-x="339" 
d="M252 647q119 475 106 569q-8 40 -39 41q-22 0 -38 -18t-41 -82.5t-57.5 -183t-84.5 -326.5q-116 -465 -107 -563q10 -46 42 -49q22 0 38.5 18t41 85.5t56 182.5t83.5 326zM307 651q-38 -153 -63.5 -251.5t-50 -177.5t-42 -121t-38.5 -69.5t-39.5 -35.5t-44.5 -8
q-46 0 -66 21.5t-21 93t24 200t79 348.5q72 289 117.5 428.5t79 182.5t80.5 43q29 0 46.5 -8.5t29.5 -33.5t11.5 -69t-11 -118t-33 -177t-58.5 -248z" />
    <glyph glyph-name="p" unicode="p" 
d="M209 1047l-238 -949q19 -53 62 -53q28 0 54 40.5t70 177t107 392.5q113 454 110 548q-4 49 -34 50q-34 0 -70 -52.5t-61 -153.5zM244 1198h4q53 109 112 109q50 0 62 -53q19 -93 -68 -463q-14 -61 -32 -134q-71 -283 -121 -430t-84 -192t-76 -45q-56 0 -80 65l-4 -2
l-2 -12q-11 -45 -31.5 -130t-32.5 -130h-55q28 106 242 956q42 174 135 555h57q-14 -48 -18 -63z" />
    <glyph glyph-name="q" unicode="q" 
d="M147 246l238 952q-21 49 -63 49q-27 0 -52.5 -40t-70.5 -177.5t-109 -392.5q-114 -463 -105 -555q4 -43 33 -43q33 0 68.5 53.5t60.5 153.5zM410 1292h57q-20 -70 -193 -757q-131 -526 -186 -754h-57q13 49 35 138.5t30 119.5l15 51l-7 2q-52 -106 -108 -106
q-49 0 -60 55q-19 99 78 506q10 42 21 88q72 284 120.5 429.5t82 192t75.5 46.5q24 0 45 -17.5t33 -48.5l8 2z" />
    <glyph glyph-name="r" unicode="r" horiz-adv-x="243" 
d="M209 1114h10q37 103 73 143.5t81 40.5q16 0 37 -6q-16 -25 -31 -69q-13 8 -33 8q-47 0 -86.5 -70.5t-77.5 -224.5q-206 -833 -229 -936h-59q23 83 48 181t63 252.5t63 252.5q26 108 76 309.5t73 296.5h49q-24 -68 -57 -178z" />
    <glyph glyph-name="s" unicode="s" horiz-adv-x="305" 
d="M4 422h27q-7 -26 -23 -83t-20 -75q-22 -86 -24 -137.5t11 -70.5t41 -19q37 0 64.5 44t54.5 152q26 121 26 206.5t-22 207.5q-13 75 -18 133t1 140t28 167q28 114 62.5 166t94.5 52q68 0 83 -60t-21 -209q-7 -30 -41 -159h-27h-25q29 110 41 159q21 87 26 135t-5 67
t-35 19q-33 0 -55.5 -39t-46.5 -131q-30 -120 -32.5 -213.5t17.5 -191.5q15 -82 21.5 -140.5t2 -142t-25.5 -166.5q-32 -131 -68 -188t-104 -57q-74 0 -92 67t17 205q6 26 45 162h22z" />
    <glyph glyph-name="t" unicode="t" horiz-adv-x="251" 
d="M305 1503h37q-7 -28 -26.5 -99t-30.5 -114q86 0 129 2q-10 -30 -15 -55q-37 2 -127 2q-34 -131 -280 -1112q-10 -47 -1.5 -65.5t36.5 -18.5q27 0 57 18q0 -31 10 -51q-44 -18 -82 -18q-106 0 -71 141q39 153 135 537.5t143 570.5h-57q3 15 12 51l57 -2l54 213h20z" />
    <glyph glyph-name="u" unicode="u" horiz-adv-x="364" 
d="M426 1292h57q-32 -117 -159 -628q-107 -422 -164 -664h-54l23 86l-6 2q-53 -96 -121 -96q-113 0 -70 168q51 209 108.5 427t70.5 271q21 87 54.5 228t49.5 206h59q-116 -440 -288 -1134q-15 -56 -6.5 -85.5t43.5 -29.5q44 0 81.5 49t61.5 144q165 664 260 1056z" />
    <glyph glyph-name="v" unicode="v" horiz-adv-x="299" 
d="M401 1292h58q-50 -141 -224.5 -660t-209.5 -632q-5 0 -13.5 1t-15.5 1q-10 0 -20 -1t-13 -1q9 54 103.5 624.5t109.5 667.5h60q-12 -54 -36.5 -193.5t-58.5 -336.5t-55 -313q-13 -63 -36 -177t-32 -157h9q62 210 100 331q43 136 101.5 316.5t110 338t62.5 191.5z" />
    <glyph glyph-name="w" unicode="w" horiz-adv-x="493" 
d="M600 1292h53q-32 -97 -119.5 -375t-178.5 -569t-109 -348h-37h-41q9 54 73 398t95 520q11 62 37.5 172.5t32.5 138.5h-9q-15 -43 -46.5 -152t-47.5 -159q-272 -843 -295 -918h-35h-34q2 10 109 591.5t126 700.5h57q-57 -259 -172 -897q-14 -67 -39 -179.5t-32 -147.5h8
q7 25 24.5 85t36.5 123t37 119q59 186 170 528.5t119 368.5h37h39q-13 -54 -42 -205.5t-68 -360t-64 -333.5q-12 -69 -66 -325h10q23 91 93 325q34 109 102 328.5t113.5 366t62.5 204.5z" />
    <glyph glyph-name="x" unicode="x" horiz-adv-x="313" 
d="M399 1292h62q-29 -68 -118.5 -292t-137.5 -341q-9 -116 -33 -344t-29 -315h-61q9 61 25.5 203.5t21.5 185.5q10 109 29 240h-4q-14 -35 -43 -115t-45 -123q-89 -234 -142 -391h-61q24 58 112.5 289t141.5 362q8 78 35 312t34 329h62q-40 -249 -60 -415q-5 -49 -13 -111
t-11 -86h6q22 72 70 190q93 230 159 422z" />
    <glyph glyph-name="y" unicode="y" 
d="M426 1292h57q-47 -173 -153 -606q-30 -120 -84 -344t-86 -354q-29 -115 -70 -165t-104 -50q-151 0 -97 217q11 47 31 114h25h24q-1 -3 -26 -108q-45 -176 45 -176q42 0 68 42.5t50 131.5q18 74 42.5 172t33.5 137l-6 2q-59 -98 -129 -98q-48 0 -65.5 38.5t0.5 112.5
q39 157 83.5 326.5t51.5 196.5q42 181 98 411h59q-168 -647 -233 -911q-18 -63 -9 -91t48 -28q90 0 139 191q181 727 207 839z" />
    <glyph glyph-name="z" unicode="z" horiz-adv-x="294" 
d="M199 1292h237q-1 -3 -3 -9.5t-3 -12.5q-5 -24 -8 -29q-32 -71 -318 -786q-33 -81 -91.5 -221.5t-75.5 -182.5h61q79 0 125 4q-5 -25 -6 -28q-1 -2 -6 -27h-240q0 5 6 23q4 20 6 28q11 21 70.5 165.5t149 365t116.5 286.5q98 246 156 377q-54 -4 -94 -4q-70 0 -95 -2
q6 22 9 29q0 4 4 24z" />
    <glyph glyph-name="uni00A0" unicode="&#xa0;" horiz-adv-x="163" 
 />
  </font>
</defs>
</svg>
