<?xml version="1.0" standalone="no"?>
<!DOCTYPE svg PUBLIC "-//W3C//DTD SVG 1.1//EN" "http://www.w3.org/Graphics/SVG/1.1/DTD/svg11.dtd" >
<svg xmlns="http://www.w3.org/2000/svg" xmlns:xlink="http://www.w3.org/1999/xlink" version="1.1">
<metadata>
Created by FontForge 20170731 at Tue Nov 10 11:53:44 2020
 By Aleksey,,,
(c) Copyright OH no Type Company, LLC. 2015. All rights reserved.
</metadata>
<defs>
<font id="ObviouslyDemo-CompSupr" horiz-adv-x="442" >
  <font-face 
    font-family="Obviously Demo Comp Supr"
    font-weight="290"
    font-stretch="extra-condensed"
    units-per-em="2048"
    panose-1="4 13 10 3 5 4 3 4 3 6"
    ascent="1638"
    descent="-410"
    x-height="1352"
    cap-height="1536"
    bbox="-4 -221 596 1667"
    underline-thickness="102"
    underline-position="-307"
    unicode-range="U+0020-00A0"
  />
<missing-glyph horiz-adv-x="0" 
 />
    <glyph glyph-name=".notdef" horiz-adv-x="0" 
 />
    <glyph glyph-name=".null" horiz-adv-x="0" 
 />
    <glyph glyph-name="nonmarkingreturn" horiz-adv-x="682" 
 />
    <glyph glyph-name="space" unicode=" " horiz-adv-x="122" 
 />
    <glyph glyph-name="comma" unicode="," horiz-adv-x="204" 
d="M31 481h178q-53 -453 -59 -618q-90 4 -146 4q12 103 21 313t6 301z" />
    <glyph glyph-name="period" unicode="." horiz-adv-x="194" 
d="M94 500q52 0 72 -59t20 -199q0 -141 -20 -201.5t-72 -60.5t-69 58.5t-17 203.5q0 143 17 200.5t69 57.5z" />
    <glyph glyph-name="zero" unicode="0" horiz-adv-x="395" 
d="M383 809q0 -334 -18 -510t-56.5 -244.5t-111.5 -68.5t-111.5 69t-56 244t-17.5 510q0 308 20.5 470.5t58 216.5t106.5 54q52 0 84 -28t56.5 -107.5t35 -226t10.5 -379.5zM197 1102q-10 0 -14 -5t-7.5 -34.5t-4.5 -82.5t-1 -159q0 -115 1 -173t4.5 -89.5t7.5 -37t14 -5.5
q9 0 13 6t7.5 36t4.5 90.5t1 172.5q0 102 -1 158t-4.5 83.5t-7.5 33.5t-13 6z" />
    <glyph glyph-name="one" unicode="1" horiz-adv-x="253" 
d="M129 0h-98v768q0 523 -8 635q28 27 43 42t34.5 39.5t36.5 51.5h51h48q0 -86 -2.5 -337t-2.5 -431q0 -176 2.5 -423.5t2.5 -344.5h-107z" />
    <glyph glyph-name="two" unicode="2" horiz-adv-x="325" 
d="M70 922h-58q-8 112 -8 223q0 223 36 314t124 91t119.5 -89t31.5 -333q0 -242 -19.5 -361.5t-70.5 -199.5q-18 -28 -26 -42t-16 -34.5t-11 -41.5q21 1 135 12q-2 -80 -2 -223q0 -150 2 -238h-301q2 33 2 158q0 33 -1 95.5t-1 108.5q0 193 17.5 264.5t87.5 178.5
q45 68 55 123.5t10 187.5q0 70 -18 70q-23 0 -23 -99q0 -60 6 -165h-71z" />
    <glyph glyph-name="three" unicode="3" horiz-adv-x="368" 
d="M242 764v-6q34 -6 55 -21q59 -48 59 -309q0 -251 -39 -346.5t-143 -95.5q-94 0 -129 80.5t-37 289.5q0 87 10 240h74h66q-8 -81 -8 -145q0 -80 24 -80q12 0 17.5 6t9.5 30.5t4 73.5q3 94 -13.5 121t-70.5 27q-5 0 -16 -1t-13 -1v139v108h35q48 0 64 23.5t16 103.5
q0 70 -4 106t-10 45t-17 9q-24 0 -24 -82q0 -28 8 -172h-66h-74q-8 123 -8 242q0 220 41.5 310.5t134.5 90.5q66 0 101 -37.5t50 -123t15 -244.5q0 -155 -12 -239.5t-45 -117.5q-17 -17 -55 -24z" />
    <glyph glyph-name="four" unicode="4" horiz-adv-x="423" 
d="M219 1536h164q-1 -69 -6.5 -325t-5.5 -445q0 -119 2 -174q8 1 22 2t21 2v-164v-188l-35 2q0 -12 3 -105.5t3 -140.5h-209q0 164 2 250q-96 0 -176 -6q6 157 16.5 681t10.5 611h162q-7 -114 -17 -440t-12 -504h55v944z" />
    <glyph glyph-name="five" unicode="5" horiz-adv-x="387" 
d="M156 1100v-133q23 54 47.5 80t56.5 26q67 0 90 -133.5t23 -429.5q0 -299 -40 -411.5t-151 -112.5q-97 0 -133.5 83.5t-36.5 295.5q0 61 8 253q20 -2 68 -2q45 0 72 2q-2 -43 -2 -108q0 -80 5.5 -109.5t20.5 -29.5q10 0 15.5 8t9.5 43t4 104q0 139 -5 185.5t-20 46.5
q-10 0 -15.5 -23t-10.5 -84q-50 18 -144 29q0 47 1 238.5t1 240.5q0 262 -2 377q57 -2 168 -2q117 0 174 2q-4 -102 -4 -233q0 -113 4 -195q-29 2 -204 2v-10z" />
    <glyph glyph-name="six" unicode="6" horiz-adv-x="401" 
d="M197 377q9 0 13.5 10.5t7.5 53.5t3 130q0 51 -1 81.5t-4 46.5t-6.5 21t-10.5 5q-10 0 -15 -10.5t-7.5 -44t-2.5 -99.5q0 -88 2.5 -130.5t7 -53t13.5 -10.5zM168 848h10q10 80 35 113.5t68 33.5q68 0 86 -80t18 -292q0 -262 -16.5 -395.5t-54.5 -187.5t-113 -54
q-27 0 -48.5 5.5t-39.5 20.5t-31.5 32.5t-24 51t-18 65.5t-12.5 86.5t-8 104.5t-4.5 127.5t-2 147.5t-0.5 174q0 316 18.5 474t58.5 215.5t120 57.5q90 0 129 -69t39 -230q0 -131 -4 -205h-74h-72q2 23 2 72q0 127 -22 127q-9 0 -14.5 -8.5t-9.5 -32.5t-6 -65t-3 -109
q-1 -43 -6 -180z" />
    <glyph glyph-name="seven" unicode="7" horiz-adv-x="362" 
d="M10 1536h342q-4 -59 -4 -199q0 -54 4 -186q-15 -46 -30.5 -157t-31.5 -375.5t-22 -618.5h-118h-144q13 238 52.5 555t84.5 555q-47 0 -133 -4q2 72 2 215q0 145 -2 215z" />
    <glyph glyph-name="eight" unicode="8" horiz-adv-x="419" 
d="M209 924q22 0 22 139q0 77 -4.5 104t-17.5 27q-16 0 -20.5 -25.5t-4.5 -105.5q0 -77 4.5 -108t20.5 -31zM209 352q13 0 17.5 27.5t4.5 91.5q0 83 -4.5 111t-17.5 28q-17 0 -21 -26.5t-4 -112.5q0 -67 4.5 -93t20.5 -26zM301 764v-8q37 -13 55 -31q27 -30 37 -98t10 -199
q0 -239 -41.5 -340.5t-152.5 -101.5q-106 0 -149.5 103.5t-43.5 338.5q0 128 11.5 197.5t38.5 99.5q15 18 53 31v8q-41 18 -53 37q-28 38 -38 116t-10 228q0 216 42.5 310.5t150.5 94.5t150 -94t42 -311q0 -152 -9.5 -229t-37.5 -115q-14 -23 -55 -37z" />
    <glyph glyph-name="nine" unicode="9" horiz-adv-x="401" 
d="M201 836q15 0 19.5 26.5t4.5 126.5q0 65 -1 101.5t-3.5 58t-6.5 27.5t-11 6q-9 0 -13.5 -13t-7 -55.5t-2.5 -124.5q0 -53 1 -83t3.5 -45.5t6 -20t10.5 -4.5zM236 664l-13 2q-22 -156 -94 -156q-74 0 -93.5 92.5t-19.5 335.5q0 250 17.5 379t57.5 180t118 51
q31 0 54.5 -7.5t42 -27.5t31.5 -46t22.5 -73t15 -97.5t9 -130.5t4.5 -161.5t1 -199.5q0 -212 -6 -352.5t-18.5 -235t-36.5 -144t-54 -68.5t-77 -19q-83 0 -123.5 93t-40.5 310q0 22 4 72h59h76v-47q0 -68 27 -68q18 0 23 39t7 176q0 38 7 103z" />
    <glyph glyph-name="A" unicode="A" horiz-adv-x="419" 
d="M203 639h26q-8 345 -14 487q-2 31 -2 195h-12q-5 -177 -6 -195q-13 -252 -19 -487h27zM420 0h-191q2 43 2 252h-30h-33q-2 -111 -2 -252h-166q15 256 32.5 786t22.5 750h305q4 -202 23.5 -737t36.5 -799z" />
    <glyph glyph-name="B" unicode="B" horiz-adv-x="444" 
d="M213 311h12q14 0 21 12t10.5 49.5t3.5 114.5q0 82 -3.5 124t-10 54.5t-19.5 12.5h-16q0 -250 2 -367zM211 885h4q17 1 26 15t14 58t5 127q0 71 -5 107t-12 44.5t-20 8.5h-12v-360zM311 756v-8q48 -7 64 -23q57 -52 57 -317q0 -85 -2.5 -140.5t-11.5 -105t-23.5 -77.5
t-39.5 -49t-59.5 -28.5t-84.5 -7.5h-191q3 164 3 768q0 602 -3 768h181q61 0 101 -14.5t71 -53t45 -110t14 -182.5q0 -207 -11.5 -278t-45.5 -110q-17 -21 -64 -32z" />
    <glyph glyph-name="C" unicode="C" horiz-adv-x="413" 
d="M301 809h-74q6 194 6 289q0 106 -20 106q-9 0 -13 -8.5t-8 -47t-5 -117.5t-1 -220q0 -195 3.5 -287.5t8 -111.5t15.5 -19q20 0 20 127q0 113 -6 242h74h92q4 -156 4 -359q0 -234 -41 -325.5t-143 -91.5q-80 0 -121 64.5t-60.5 239.5t-19.5 515q0 243 10 389.5t36 225.5
t60.5 104.5t94.5 25.5q34 0 59.5 -8.5t50.5 -35t41 -72t25.5 -122.5t9.5 -184q0 -167 -4 -319h-94z" />
    <glyph glyph-name="D" unicode="D" horiz-adv-x="454" 
d="M207 397h10q11 0 17 9t10.5 49t6 117.5t1.5 218.5q0 96 -0.5 163t-3 111.5t-4.5 69.5t-7 37t-9 15t-11 3h-10q0 -63 -1 -205.5t-1 -224.5q0 -267 2 -363zM20 1536h203q61 0 98.5 -24.5t66.5 -96.5t41.5 -209t12.5 -358q0 -273 -11.5 -439t-40 -257.5t-67.5 -121.5
t-104 -30h-199q5 548 5 766q0 227 -5 770z" />
    <glyph glyph-name="E" unicode="E" horiz-adv-x="350" 
d="M20 1536h314q-2 -59 -2 -231q0 -191 2 -254q-90 4 -146 4v-51q88 0 138 6q-2 -102 -2 -426q-16 2 -136 2v-47q44 0 146 4q0 -31 -1 -122.5t-1 -141.5q0 -51 1 -148t1 -131h-314q0 97 1.5 344t1.5 424q0 176 -1.5 423.5t-1.5 344.5z" />
    <glyph glyph-name="F" unicode="F" horiz-adv-x="350" 
d="M20 1536h318q-2 -88 -2 -338v-315q-90 4 -148 4v-64q99 4 144 11q-2 -131 -2 -558q-44 5 -127 9q3 -138 6 -285h-186q2 217 2 768q0 225 -5 768z" />
    <glyph glyph-name="G" unicode="G" horiz-adv-x="425" 
d="M223 866h66q82 0 125 2q0 -202 -1.5 -317.5t-8.5 -228.5t-19 -166.5t-35 -98.5t-54.5 -58t-78.5 -13q-36 0 -62 6.5t-47.5 25.5t-36 44.5t-26 74.5t-17.5 103t-10 141.5t-5 179.5t-1 227q0 171 2.5 282t11.5 202t22.5 140.5t38 83t55 44t77.5 10.5q56 0 89 -15t59 -62.5
t36.5 -139t10.5 -241.5q0 -78 -6 -170h-175q7 96 7 143q0 75 -4 98t-19 23q-11 0 -17 -13t-10 -57t-5 -118t-1 -207q0 -109 2 -183t5 -116.5t9 -64.5t12 -28t15 -6q16 0 24 25.5t11 99.5q-29 0 -39 -2q0 21 1 92.5t1 100.5q0 118 -2 157z" />
    <glyph glyph-name="H" unicode="H" horiz-adv-x="448" 
d="M242 1536h186q-4 -442 -4 -768t4 -768h-186q2 162 2 586h-21h-20q0 -424 2 -586h-185q3 331 3 768q0 436 -3 768h185q-2 -164 -2 -590h20h21q0 426 -2 590z" />
    <glyph glyph-name="I" unicode="I" horiz-adv-x="237" 
d="M217 0h-197v768v768h197q-4 -442 -4 -768t4 -768z" />
    <glyph glyph-name="J" unicode="J" horiz-adv-x="305" 
d="M72 1536h213q-6 -387 -6 -647q0 -17 1 -205t1 -365q0 -173 -33 -252t-123 -79q-59 0 -123 22q2 46 3.5 215t0.5 213q25 -10 43 -10q20 0 29.5 14.5t9.5 53.5q0 817 -16 1040z" />
    <glyph glyph-name="K" unicode="K" horiz-adv-x="450" 
d="M326 752v-13q30 0 49 -12t29 -38.5t14 -56t6 -77.5q13 -458 25 -555h-164q-19 0 -26 9t-7 34q-1 47 -1.5 122.5t-1 117t-1.5 100.5t-2.5 95t-4 76t-5.5 67.5t-7 48.5h-22v-670h-187q0 97 1.5 344t1.5 424q0 176 -1.5 423.5t-1.5 344.5h187v-672h12q18 52 25 178
q16 335 20 494h187q-8 -63 -12 -175.5t-7 -208.5t-12 -190t-32 -150.5t-62 -59.5z" />
    <glyph glyph-name="L" unicode="L" horiz-adv-x="270" 
d="M18 1536h209q-6 -327 -6 -752q0 -235 2 -356q7 0 21.5 1t21.5 1q-2 -41 -2 -188q0 -185 2 -242h-248q0 33 1 305.5t1 462.5q0 694 -2 768z" />
    <glyph glyph-name="M" unicode="M" horiz-adv-x="616" 
d="M356 1536h240q-4 -402 -4 -766q0 -549 2 -770h-197q0 73 2 191.5t2 193.5q0 55 6 184t7 174h-17q-18 -318 -22 -352l-39 -391h-78l-41 387q-8 69 -24 356h-17q1 -41 4.5 -121.5t5 -136.5t0.5 -102q0 -79 5 -197t6 -186h-177q0 97 1.5 345.5t1.5 424.5q0 185 -1.5 433.5
t-1.5 332.5h259q5 -48 20 -362q8 -178 14 -359h13q3 66 6.5 195.5t5.5 165.5q5 144 18 360z" />
    <glyph glyph-name="N" unicode="N" horiz-adv-x="475" 
d="M301 1536h154q1 -11 0 -128.5t-2.5 -309t-1.5 -328.5q0 -577 4 -770h-209q-7 125 -25 291q-33 291 -45 424h-14q13 -270 10 -432q0 -217 4 -283h-153q0 91 -1.5 340t-1.5 428q0 176 1.5 423.5t1.5 344.5h219q2 -18 12 -171.5t22 -274.5l14 -142q13 -143 19 -223h13
q-15 268 -15 369q0 222 -6 442z" />
    <glyph glyph-name="O" unicode="O" horiz-adv-x="413" 
d="M401 809q0 -170 -3.5 -289t-12 -215t-22 -154t-35.5 -96.5t-50.5 -53.5t-68.5 -15q-41 0 -70 15t-52 53.5t-36.5 96.5t-22.5 154t-12.5 215t-3.5 289q0 231 10.5 376.5t36 226t59.5 109.5t89 29q74 0 113.5 -56t60 -217t20.5 -468zM207 393q17 0 20.5 60t3.5 368
q0 269 -3.5 323t-20.5 54q-8 0 -12 -7.5t-7 -48t-3.5 -110.5t-0.5 -211q0 -162 0.5 -241.5t3.5 -125t6.5 -53.5t12.5 -8z" />
    <glyph glyph-name="P" unicode="P" horiz-adv-x="432" 
d="M195 618h8q28 0 32.5 43t4.5 236q0 141 -4.5 208.5t-12.5 84t-24 16.5h-6q0 -402 2 -588zM18 1536h162q55 0 90.5 -8t64 -33.5t44 -63.5t26 -108.5t14 -157.5t3.5 -221q0 -151 -2.5 -247t-11.5 -175.5t-22.5 -120.5t-39 -69.5t-57 -36.5t-80.5 -8h-10q3 -137 10 -287
h-191v768v768z" />
    <glyph glyph-name="Q" unicode="Q" horiz-adv-x="409" 
d="M180 821q0 -154 1 -240t5 -128t8 -51t13 -9q10 0 14 7.5t7.5 54t4 125t0.5 241.5q0 143 -0.5 211.5t-4 110t-7.5 48.5t-14 7q-9 0 -13 -8.5t-8 -45.5t-5 -113t-1 -210zM276 354v-8q36 3 78 16q29 10 49 23v-385q-27 0 -75.5 -2t-112.5 -2q-36 0 -63.5 10.5t-48.5 36.5
t-36 57t-25 87t-16 110t-9 142t-4 168t-1 202q0 309 20.5 469.5t60 216t114.5 55.5q73 0 112 -55.5t59.5 -224t20.5 -492.5q-4 -280 -41 -358q-29 -52 -82 -66z" />
    <glyph glyph-name="R" unicode="R" 
d="M193 784h6q18 0 27 5t15 29t7.5 62t1.5 115q0 67 -1.5 105t-6 59t-11 27t-18.5 6h-20v-408zM309 590v-8q59 -12 84 -60.5t31 -167.5q4 -66 10 -205t6 -149h-168q-11 0 -14.5 6t-3.5 23q0 169 -2 261t-7.5 138.5t-12.5 56t-21 9.5h-16q3 -256 10 -494h-185v768v768h179
q50 0 82 -5.5t60 -23t43.5 -47t26.5 -82.5t15 -123.5t4 -175.5q0 -187 -11.5 -287.5t-36.5 -145t-73 -56.5z" />
    <glyph glyph-name="S" unicode="S" horiz-adv-x="389" 
d="M301 952h-72q2 36 2 183q0 73 -22 73q-21 0 -21 -69q0 -95 12.5 -147t53.5 -111q46 -69 69.5 -119t40.5 -147t17 -238q0 -206 -46 -299.5t-140 -93.5q-103 0 -143 78t-40 251q0 171 6 271q18 -2 66 -2q58 0 72 2q-2 -68 -2 -168q0 -42 3.5 -60t14.5 -18q21 0 21 82
q0 104 -13 145.5t-57 96.5q-64 77 -89.5 185t-25.5 322q0 207 45.5 295t149.5 88q100 0 137 -78.5t37 -269.5q0 -60 -4 -252h-72z" />
    <glyph glyph-name="T" unicode="T" horiz-adv-x="321" 
d="M8 1536h305v-211v-219h-51q0 -292 1 -695.5t1 -410.5q-54 4 -102 4q-47 0 -105 -4q6 164 6 1106h-55q2 59 2 219q0 158 -2 211z" />
    <glyph glyph-name="U" unicode="U" horiz-adv-x="448" 
d="M248 1536h180v-578v-583q0 -217 -42.5 -304t-160.5 -87q-120 0 -162.5 87t-42.5 304q0 109 1.5 313.5t1.5 269.5q0 133 -1.5 319t-1.5 259h191q0 -179 -1 -555t-1 -512q0 -43 20 -43q21 0 21 43q0 135 -1 511.5t-1 555.5z" />
    <glyph glyph-name="V" unicode="V" horiz-adv-x="419" 
d="M240 1536h180q-16 -233 -41 -868t-27 -668q-12 0 -60.5 1t-80.5 1q-48 0 -96 -1t-49 -1q-32 989 -66 1536h188q0 -569 7 -856q1 -44 3.5 -146.5t2.5 -113.5h16q1 29 2 84.5t2 98.5t2 75q21 589 17 858z" />
    <glyph glyph-name="W" unicode="W" horiz-adv-x="587" 
d="M459 1536h129q-50 -1227 -64 -1536q-7 0 -41 2t-57 2q-83 0 -107 -4q-8 136 -8 455q-2 178 -2 579h-14q-1 -53 -3 -174t-4.5 -222.5t-6.5 -184.5q-16 -402 -23 -453q-8 0 -40 2t-54 2q-74 0 -98 -4q-47 1165 -66 1536h184q0 -28 -2 -158t-2 -268t4 -256q2 -64 5.5 -217
t5.5 -211h12q0 368 2 430q25 633 24 680q25 -2 89 -2q69 0 94 2q-3 -106 6 -678q4 -238 4 -432h14q4 269 9 430q10 423 10 680z" />
    <glyph glyph-name="X" unicode="X" horiz-adv-x="440" 
d="M260 1536h178q-10 -90 -20 -209.5t-23 -293t-20 -265.5q6 -76 16 -208t16 -210.5t15 -177.5t18 -172h-200q-1 47 -7 145t-8 142q-4 90 -8 372h-10q-3 -75 -6.5 -205t-5.5 -169q-1 -36 -6.5 -135.5t-6.5 -149.5h-180q11 92 21 212t23 293.5t20 264.5q-6 80 -19.5 262.5
t-23.5 297t-21 206.5h199q6 -144 12 -317q4 -87 8 -359h10q2 74 9 204t8 155q3 68 7 179.5t5 137.5z" />
    <glyph glyph-name="Y" unicode="Y" horiz-adv-x="432" 
d="M256 1536h180q-43 -499 -88 -979q0 -431 4 -557q-41 2 -131 2t-135 -2q4 122 4 530q-62 608 -94 1006h209q-2 -84 10 -653q1 -29 2 -110t2 -116h12q4 134 7 226q18 509 18 653z" />
    <glyph glyph-name="Z" unicode="Z" horiz-adv-x="342" 
d="M260 430h64q-5 -180 -5 -215q0 -92 3 -215h-302q5 170 5 223q0 150 -2 203q5 22 19 122t30.5 221t23.5 165q4 29 14 87t13 79h-43q-44 0 -62 -2q2 78 2 225v213h295q-1 -33 -1 -68t0.5 -77t0.5 -64v-225q-8 -34 -23 -137t-32.5 -229.5t-26.5 -180.5q-6 -43 -22 -129
q40 4 49 4z" />
    <glyph glyph-name="a" unicode="a" horiz-adv-x="409" 
d="M190 328q10 0 15 14t8.5 78.5t3.5 197.5h-10q-16 0 -22.5 -9t-9.5 -37.5t-3 -92.5q0 -52 1 -81.5t3 -45.5t5 -20t9 -4zM389 1106v-662q0 -394 17 -444h-142q-23 0 -31 10t-8 31q0 18 1 45.5t2.5 64t2.5 56.5h-12q-11 -213 -104 -213q-28 0 -45 14t-32.5 57.5t-22.5 134.5
t-7 236q0 157 15.5 241t44 112t79.5 28q40 0 72 -16v127q0 94 -3 106q-6 16 -17 17q-19 0 -22.5 -47.5t1.5 -163.5q-10 2 -82 2q-68 0 -86 -2q-11 298 29 412t168 114q105 0 143.5 -59t38.5 -201z" />
    <glyph glyph-name="b" unicode="b" horiz-adv-x="436" 
d="M203 391h8q13 0 19.5 8t11.5 40t6.5 90.5t1.5 164.5q0 112 -1 173t-4 94.5t-7.5 42t-12.5 8.5q-6 0 -10 -6.5t-7 -25.5t-4 -54.5t-1 -94.5v-440zM199 1194l8 2q13 85 43 125.5t69 40.5q24 0 37.5 -9t28.5 -45.5t22 -108t12 -196.5t5 -311q0 -209 -6 -341t-20 -214.5
t-36 -114.5t-57 -32q-43 0 -66 65t-28 156h-14q0 -15 1 -42t1 -40q0 -88 2 -129h-181q5 582 5 809q0 219 -5 776h181v-211q-2 -68 -2 -180z" />
    <glyph glyph-name="c" unicode="c" horiz-adv-x="382" 
d="M289 713h-72q2 59 2 254q0 86 -18 86q-9 0 -12.5 -7t-7 -41.5t-4.5 -101t-1 -190.5q0 -129 1 -201t5 -107.5t8 -43t13 -7.5q12 0 16 26.5t4 94.5q0 67 -4 193q20 -2 64 -2q26 0 84 4q4 -55 4 -160q0 -198 -20 -314t-57.5 -163t-100.5 -47q-69 0 -106 57t-56 214t-19 452
q0 281 19 422t57.5 188t114.5 47q65 0 99.5 -35t52.5 -138t18 -300q0 -48 -4 -180h-80z" />
    <glyph glyph-name="d" unicode="d" horiz-adv-x="436" 
d="M233 512v498h-8q-10 0 -15 -8.5t-9.5 -41.5t-6 -98.5t-1.5 -177.5q0 -197 3.5 -250t20.5 -53q16 0 16 131zM236 1585h180q-2 -97 -2 -211.5t1 -281.5t1 -283v-809h-180v129q0 47 2 74h-13q-26 -213 -94 -213q-35 0 -57.5 32t-36.5 114t-19.5 211t-5.5 335q0 175 6 300
t16 198t25.5 114.5t31.5 54.5t38 13q76 0 98 -168h11q-2 61 -2 180v211z" />
    <glyph glyph-name="e" unicode="e" horiz-adv-x="376" 
d="M172 756h51q4 72 4 151q0 60 -3 92t-7 41t-12 9q-7 0 -11 -5t-8 -21.5t-6.5 -48.5t-4.5 -85t-3 -133zM172 588v-53q0 -65 0.5 -100.5t3 -54t5.5 -22.5t9 -4q7 0 11 5t7 25t4 56t1 101q25 -2 72 -2q53 0 71 2q7 -287 -33 -421t-126 -134q-70 0 -108.5 52t-57.5 188
t-19 388q0 320 19 481t57.5 216t114.5 55q94 0 128 -94t34 -336q0 -216 -5 -348h-188z" />
    <glyph glyph-name="f" unicode="f" horiz-adv-x="292" 
d="M8 979l31 2q0 55 -1 153t-1 136q0 182 33 253.5t118 71.5q55 0 101 -20q-5 -90 -7.5 -275t-0.5 -249q-8 1 -17 2.5t-14 1.5q-24 0 -31.5 -9t-7.5 -34v-15l63 7q0 -334 5 -578q-11 1 -33.5 2t-32.5 2q0 -216 6 -430h-92h-92q4 282 6 428l-33 -2v553z" />
    <glyph glyph-name="g" unicode="g" 
d="M217 754q21 0 28 35t7 106q0 68 -7.5 100.5t-27.5 32.5t-26.5 -32t-6.5 -101q0 -73 6 -107t27 -34zM231 102h-73q-4 -10 -4 -22q0 -35 77 -35q40 0 55 6.5t15 22.5q0 28 -70 28zM92 489v11q-45 36 -63.5 135.5t-18.5 300.5q0 129 13.5 211.5t44.5 128.5t74 63t110 17
q2 0 68.5 -2t109.5 -2q-3 -195 0 -383q-28 20 -82 37v-13q46 -41 62 -99.5t16 -152.5q0 -140 -45.5 -207t-165.5 -67q-53 0 -82 10v-14q0 -18 17.5 -23.5t56.5 -5.5q15 0 38.5 2t35.5 2q31 0 51.5 -5.5t40.5 -23.5t31.5 -50.5t18.5 -88.5t7 -135q0 -197 -42 -275.5
t-169 -78.5q-123 0 -168 38.5t-45 123.5q0 60 21 95.5t71 53.5v8q-50 3 -68 48.5t-18 140.5q0 144 80 200z" />
    <glyph glyph-name="h" unicode="h" 
d="M203 1155h12q15 107 43.5 157t73.5 50q43 0 66.5 -37t23.5 -135v-780v-410h-178q2 246 2 936q0 23 -3.5 32t-13.5 9q-15 0 -20.5 -17.5t-5.5 -66.5q0 -723 4 -893h-184q0 88 -1.5 309t-1.5 379q0 205 1.5 494.5t1.5 402.5h180v-303v-127z" />
    <glyph glyph-name="i" unicode="i" horiz-adv-x="221" 
d="M217 1536q0 -139 -104 -139q-109 0 -109 139q0 131 109 131q104 0 104 -131zM201 0h-181q5 241 5 692q0 167 -5 660h181q-4 -348 -4 -639q0 -299 4 -713z" />
    <glyph glyph-name="j" unicode="j" horiz-adv-x="229" 
d="M43 371q0 746 -14 981h182q0 -150 -1 -308t-1 -233q0 -17 2 -260t2 -483q0 -73 -6 -122t-22 -89t-47 -59t-79 -19q-29 0 -57 8q0 379 4 547q8 -2 19 -2q18 0 18 39zM233 1536q0 -139 -108 -139q-115 0 -115 139q0 131 115 131q108 0 108 -131z" />
    <glyph glyph-name="k" unicode="k" horiz-adv-x="419" 
d="M291 715v-8q27 -9 45.5 -27.5t30 -53t17.5 -72.5t10 -101t6.5 -122.5t7.5 -153t12 -177.5h-144q-18 0 -25 13t-9 46q-14 356 -39 533h-8q0 -414 4 -592h-181v956v629h181q-4 -231 -4 -807h8q15 145 20 236q13 205 10 338h187q-3 -40 -7 -122.5t-7 -135.5t-11.5 -125
t-20 -117t-33 -84t-50.5 -53z" />
    <glyph glyph-name="l" unicode="l" horiz-adv-x="221" 
d="M201 0h-181q5 332 5 803q0 312 -5 782h181q-1 -100 -1 -216t0.5 -283t0.5 -283v-803z" />
    <glyph glyph-name="m" unicode="m" horiz-adv-x="591" 
d="M571 0h-163q6 200 6 930q0 43 -21 43q-22 0 -22 -72q0 -634 6 -901h-162q4 179 4 928q0 45 -18 45q-23 0 -23 -72q0 -715 4 -901h-162v688v664h160q-2 -74 -2 -197h10q12 119 33.5 163t61.5 44q38 0 57 -46.5t25 -160.5h8q22 207 112 207q50 0 67 -40t17 -142
q0 -183 -1 -420t-1 -342q0 -289 4 -418z" />
    <glyph glyph-name="n" unicode="n" 
d="M203 1155h12q15 107 43.5 157t73.5 50q43 0 66.5 -37t23.5 -135v-780v-410h-178q2 246 2 936q0 23 -3.5 32t-13.5 9q-15 0 -20.5 -17.5t-5.5 -66.5q0 -723 4 -893h-184q0 88 -1.5 309t-1.5 379q0 153 1.5 367t1.5 297h180v-197z" />
    <glyph glyph-name="o" unicode="o" horiz-adv-x="425" 
d="M236 709q0 125 -1 192.5t-4 102t-6.5 42t-11.5 7.5q-7 0 -10 -7t-6 -42t-3.5 -102.5t-0.5 -192.5q0 -130 0.5 -199.5t3.5 -106t6 -44t10 -7.5q8 0 11.5 7.5t6.5 43.5t4 106.5t1 199.5zM414 711q0 -158 -3 -263.5t-11.5 -191.5t-22 -134t-37 -81t-53.5 -44t-74 -11t-74 11
t-53.5 44t-37 81t-22 134t-11.5 191.5t-3 263.5q0 171 6 282.5t18.5 188t37.5 115t57 54t82 15.5t82 -15.5t57 -54t37.5 -115t18.5 -188t6 -282.5z" />
    <glyph glyph-name="p" unicode="p" horiz-adv-x="436" 
d="M203 383h6q14 0 20.5 9t12 44t7 97.5t1.5 175.5q0 117 -3 177.5t-7.5 75.5t-12.5 15q-14 0 -19 -33t-5 -113v-448zM199 1155h10q12 207 104 207q35 0 56 -26.5t35 -104.5t19 -208.5t5 -350.5q0 -686 -131 -686q-34 0 -52.5 45.5t-33.5 173.5h-12q0 -39 1 -109.5t1 -115.5
v-193h-181q3 302 3 733v832h178q0 -28 -1 -83t-1 -85v-29z" />
    <glyph glyph-name="q" unicode="q" horiz-adv-x="436" 
d="M233 512v498h-8q-10 0 -15 -8.5t-9.5 -41.5t-6 -98.5t-1.5 -177.5q0 -197 3.5 -250t20.5 -53q16 0 16 131zM236 1352h180q-2 -69 -2 -148.5t1 -195.5t1 -199q0 -155 -0.5 -374t-0.5 -368.5t1 -279.5h-180v342q0 29 2 43h-15q-9 -78 -31.5 -130t-60.5 -52q-35 0 -57.5 32
t-36.5 114t-19.5 211t-5.5 335q0 175 6 300t16 198t25.5 114.5t31.5 54.5t38 13q76 0 98 -168h11q-2 25 -2 80v78z" />
    <glyph glyph-name="r" unicode="r" horiz-adv-x="276" 
d="M119 1032h12q12 175 41.5 249.5t79.5 74.5q6 0 22 -4q-10 -503 -10 -584q-12 8 -33 8q-17 0 -24.5 -13.5t-7.5 -45.5q0 -309 20 -717h-201q5 232 5 686q0 191 -5 666h105q-4 -222 -4 -320z" />
    <glyph glyph-name="s" unicode="s" horiz-adv-x="344" 
d="M68 463h63q-4 -86 -4 -111q0 -61 18 -61q7 0 11 3.5t7 19t3 44.5q0 15 -1 28.5t-3.5 26.5t-4.5 22.5t-7.5 21.5t-8.5 18t-10.5 18.5t-10.5 17t-13 19t-13 19.5q-48 68 -66 169t-18 279q0 152 19 234t52.5 108.5t94.5 26.5q89 0 123.5 -58.5t34.5 -211.5q0 -133 -2 -211
h-62h-55q2 49 2 129q0 55 -18 55q-23 0 -23 -59q0 -61 8 -96.5t33 -77.5q70 -120 93.5 -208t23.5 -253q0 -158 -20.5 -245t-54.5 -115.5t-93 -28.5q-88 0 -121 71.5t-33 223.5q0 25 1 85.5t1 96.5h54z" />
    <glyph glyph-name="t" unicode="t" horiz-adv-x="286" 
d="M262 723l-72 6q0 -38 8.5 -51.5t30.5 -13.5q24 0 39 10q-2 -98 0 -341t6 -323q-50 -24 -86 -24q-92 0 -126.5 74.5t-34.5 252.5q0 14 4 424l-25 2q0 509 -2 613h27l-2 184h86h96q-8 -100 -10 -184h69q-8 -221 -8 -629z" />
    <glyph glyph-name="u" unicode="u" 
d="M242 1352h182q-2 -199 -2 -688q0 -474 2 -664h-174q-2 71 2 209h-14q-25 -219 -123 -219q-97 0 -97 192q0 195 2.5 426.5t2.5 325.5q0 224 -3 418h183q-2 -246 -2 -934q0 -23 3 -32t13 -9q27 0 27 72q0 743 -2 903z" />
    <glyph glyph-name="v" unicode="v" horiz-adv-x="409" 
d="M236 1352h174q-10 -177 -45 -727t-39 -625h-127h-121q-4 72 -18.5 323t-33.5 582.5t-26 446.5h188q-3 -97 5 -609q2 -63 4 -188t4 -182h12q0 21 2 155.5t4 214.5q3 117 6.5 249t7 238t3.5 122z" />
    <glyph glyph-name="w" unicode="w" horiz-adv-x="571" 
d="M436 1352h135q-11 -157 -22.5 -458t-20.5 -582.5t-10 -311.5h-108h-105q0 54 -6 256.5t-8 329.5q-1 56 -1 117.5t0.5 131.5t0.5 103h-15q0 -225 -4 -352q-5 -140 -13.5 -339t-10.5 -247h-90h-105q-2 51 -10.5 327.5t-20 572t-22.5 452.5h168q-2 -27 -3 -85.5t-1 -148.5
t0.5 -169.5t2 -200t1.5 -189.5v-190h12q1 35 3.5 107.5t2.5 82.5q27 604 27 793h84h94q0 -324 12 -793q0 -102 3 -188h12q1 24 4 88t4 100q10 215 12 469.5t-2 323.5z" />
    <glyph glyph-name="x" unicode="x" horiz-adv-x="425" 
d="M250 1352h176q-6 -65 -29.5 -301t-36.5 -381q13 -137 36 -364.5t30 -305.5h-197q-1 65 -5.5 157t-6.5 140l-4 223h-14q-1 -28 -4.5 -102.5t-4.5 -118.5q-13 -249 -14 -299h-176q37 351 70 688q-16 175 -68 664h195q0 -79 16 -383l4 -158h12l7 160q14 273 14 381z" />
    <glyph glyph-name="y" unicode="y" horiz-adv-x="403" 
d="M244 1352h168q-14 -160 -48.5 -676t-37.5 -553q-13 -181 -68 -262.5t-190 -81.5q-48 0 -68 2q3 12 4.5 54.5t2 105t0.5 117t-0.5 115.5t-0.5 75q163 -12 164 -12q20 0 27.5 10t7.5 33q-66 0 -139 -5q-6 68 -31 504.5t-35 573.5h186q-4 -102 7 -482q3 -130 6 -229h12
q2 58 10 229q15 267 23 482z" />
    <glyph glyph-name="z" unicode="z" horiz-adv-x="317" 
d="M20 1352h277q-4 -90 -4 -260q0 -197 2 -283q-26 -111 -43 -199q-4 -17 -8.5 -41.5t-5.5 -29.5q51 0 57 2q0 -45 -1 -139t-1 -130q0 -39 1 -126.5t1 -145.5h-275q5 185 5 279q0 68 -5 258q5 20 22.5 101t29.5 132l10 39q-42 0 -62 -2q3 123 3 237q0 144 -3 308z" />
    <glyph glyph-name="uni00A0" unicode="&#xa0;" horiz-adv-x="122" 
 />
  </font>
</defs>
</svg>
