<?xml version="1.0" standalone="no"?>
<!DOCTYPE svg PUBLIC "-//W3C//DTD SVG 1.1//EN" "http://www.w3.org/Graphics/SVG/1.1/DTD/svg11.dtd" >
<svg xmlns="http://www.w3.org/2000/svg" xmlns:xlink="http://www.w3.org/1999/xlink" version="1.1">
<metadata>
Created by FontForge 20170731 at Tue Nov 10 11:53:44 2020
 By Aleksey,,,
(c) Copyright OH no Type Company, LLC. 2015. All rights reserved.
</metadata>
<defs>
<font id="ObviouslyDemo-CompSuprItalic" horiz-adv-x="436" >
  <font-face 
    font-family="Obviously Demo Comp Supr"
    font-weight="290"
    font-style="italic"
    font-stretch="extra-condensed"
    units-per-em="2048"
    panose-1="4 13 10 3 5 4 3 11 3 6"
    ascent="1638"
    descent="-410"
    x-height="1352"
    cap-height="1536"
    bbox="-207 -227 823 1667"
    underline-thickness="102"
    underline-position="-307"
    slope="-14"
    unicode-range="U+0020-00A0"
  />
<missing-glyph horiz-adv-x="0" 
 />
    <glyph glyph-name=".notdef" horiz-adv-x="0" 
 />
    <glyph glyph-name=".null" horiz-adv-x="0" 
 />
    <glyph glyph-name="nonmarkingreturn" horiz-adv-x="682" 
 />
    <glyph glyph-name="space" unicode=" " horiz-adv-x="122" 
 />
    <glyph glyph-name="comma" unicode="," horiz-adv-x="204" 
d="M-4 481h178q-153 -414 -215 -618q-86 4 -143 4q36 99 97 309t83 305z" />
    <glyph glyph-name="period" unicode="." horiz-adv-x="194" 
d="M53 500q52 0 59.5 -66t-30.5 -229q-29 -114 -60.5 -169.5t-72.5 -55.5q-57 0 -63 68.5t36 232.5q28 113 57.5 166t73.5 53z" />
    <glyph glyph-name="zero" unicode="0" horiz-adv-x="395" 
d="M428 809q-84 -338 -141 -511t-107.5 -242.5t-116.5 -69.5q-43 0 -70 14.5t-42 52.5t-15.5 96t13 153t40 215.5t68.5 291.5q81 319 134.5 473.5t100.5 211t116 56.5q44 0 70.5 -17t41.5 -63.5t9.5 -129.5t-30 -214t-71.5 -317zM313 1102q-8 0 -14 -7.5t-16.5 -38t-25 -84
t-38.5 -151.5q-27 -109 -40.5 -166t-18.5 -90.5t-1.5 -41t13.5 -7.5q7 0 13 8t17 40t27 91.5t43 165.5q63 251 52 275q-3 6 -11 6z" />
    <glyph glyph-name="one" unicode="1" horiz-adv-x="253" 
d="M-27 0h-98q68 263 191 768q136 542 151 635q103 80 148 133h51h47q-20 -80 -85.5 -332.5t-111.5 -435.5q-39 -159 -98.5 -407t-87.5 -361h-107z" />
    <glyph glyph-name="two" unicode="2" horiz-adv-x="325" 
d="M143 922h-57q8 46 47 223q58 232 107 318.5t135 86.5q67 0 93.5 -36.5t20 -126.5t-48.5 -259q-60 -241 -109 -361t-120 -200q-4 -4 -14 -15.5t-13.5 -15.5t-11.5 -13.5t-11.5 -14.5t-9.5 -13.5t-9 -14.5t-7.5 -14.5t-7.5 -16.5q18 1 139 12q-10 -33 -57 -223
q-5 -21 -25 -104t-32 -134h-302q13 43 41 158q8 31 23 93.5t27 110.5q34 137 59.5 205.5t56.5 115t99 122.5q62 67 85.5 122t57.5 189q17 70 -4 70q-20 0 -45 -99q-2 -12 -14.5 -68.5t-20.5 -96.5h-72z" />
    <glyph glyph-name="three" unicode="3" horiz-adv-x="368" 
d="M164 907h-74q27 138 53 242q57 231 109.5 316t146.5 85q67 0 97 -36t28 -125t-41 -244q-39 -156 -71 -240t-74 -117q-20 -17 -62 -24l-2 -6q30 -10 43 -23q54 -54 -14 -325q-33 -133 -58 -209t-56.5 -127.5t-67 -69.5t-88.5 -18q-97 0 -118.5 81.5t26.5 288.5
q32 124 71 240h74h66q-34 -91 -46 -145q-10 -44 -8 -62t17 -18q27 0 55 110q24 97 15 122.5t-62 25.5q-5 0 -17 -1t-14 -1q21 83 35 139q4 15 10 39t10.5 41.5t6.5 27.5h34q48 0 70 23.5t43 103.5q11 42 17 72t7.5 47t-1 26.5t-6 12t-9.5 2.5q-13 0 -23 -18.5t-22 -63.5
q-8 -31 -35 -172h-65z" />
    <glyph glyph-name="four" unicode="4" horiz-adv-x="423" 
d="M446 1536h164q-19 -73 -88 -327.5t-116 -442.5q-6 -25 -20 -84.5t-21 -89.5q8 1 23 2t22 2q-37 -144 -41 -164q-7 -29 -23.5 -93t-23.5 -95l-35 2q-11 -50 -31.5 -139t-24.5 -107h-208q39 160 63 250q-93 0 -176 -6q43 153 183.5 675.5t164.5 616.5h162
q-33 -107 -122.5 -428t-141.5 -514l55 -2q27 108 118 473.5t117 470.5z" />
    <glyph glyph-name="five" unicode="5" horiz-adv-x="387" 
d="M276 1110l-2 -10q-4 -20 -34 -133q73 106 133 106q23 0 36.5 -15.5t17.5 -50t1 -78.5t-15.5 -111.5t-28.5 -138.5t-40 -169q-26 -106 -46 -175.5t-42.5 -133.5t-43 -100.5t-46.5 -64.5t-55.5 -39t-67.5 -11q-73 0 -105 36.5t-29.5 117t38.5 225.5q22 92 71 253
q20 -2 68 -2q45 0 72 2q-15 -54 -29 -108q-21 -81 -21.5 -109.5t19.5 -29.5q9 0 15.5 8.5t17.5 42.5t28 104q55 219 35 231q-2 1 -4 1q-11 0 -20 -19.5t-31 -87.5q-59 19 -135 29q28 115 121 479q36 139 92 377q57 -2 168 -2q117 0 174 2q-42 -153 -62 -233
q-32 -127 -45 -195q-29 2 -205 2z" />
    <glyph glyph-name="six" unicode="6" horiz-adv-x="401" 
d="M209 571q16 65 21 99.5t2.5 44.5t-11.5 10q-13 0 -23.5 -27t-35.5 -127q-21 -86 -29 -130t-6 -54t10 -10q9 0 16 10.5t20.5 53.5t35.5 130zM223 848h10q30 80 63.5 113.5t76.5 33.5q36 0 52.5 -20t12.5 -74.5t-15 -110t-38 -167.5q-34 -136 -59 -225.5t-51 -166
t-48 -119.5t-49.5 -73.5t-56 -41.5t-66.5 -11q-34 0 -57.5 9t-39 32t-22.5 53.5t-5 82t9.5 108.5t24.5 142t38 175t52 213q49 194 84.5 318t68.5 213t65.5 133.5t66 63.5t78.5 19q191 0 114 -299q-27 -115 -55 -205h-74h-71q1 2 20 72q9 35 13.5 59t5 39t-3 22t-11.5 7
q-10 0 -19.5 -16.5t-24.5 -63.5t-38 -135q-11 -43 -30 -108.5t-21 -71.5z" />
    <glyph glyph-name="seven" unicode="7" horiz-adv-x="362" 
d="M238 1536h342q-24 -77 -54 -199q-22 -85 -43 -186q-26 -47 -69 -157.5t-125.5 -375t-175.5 -618.5h-119h-144q76 244 194.5 561t221.5 549q-49 0 -135 -4q7 30 26 102t29 113q51 208 52 215z" />
    <glyph glyph-name="eight" unicode="8" horiz-adv-x="419" 
d="M340 1063q10 39 15.5 63t6 40t-3 22t-12.5 6q-13 0 -21.5 -23.5t-31.5 -107.5q-10 -40 -14.5 -61.5t-7.5 -41.5t0.5 -28t11.5 -8q22 0 57 139zM193 471q11 43 16 68t6.5 42t-1.5 23t-11 6q-15 0 -26 -27.5t-32 -111.5q-8 -32 -12 -52.5t-5 -36.5t2.5 -23t12.5 -7
q12 0 22 25t28 94zM152 756l2 10q-33 25 -39 41q-18 42 -10.5 118.5t42.5 219.5q58 227 113 316t162 89q112 0 138 -97t-28 -308q-38 -152 -66.5 -229t-66.5 -115q-20 -23 -63 -37l-2 -8q34 -15 43 -29q36 -56 -23 -299q-21 -85 -36.5 -140.5t-35.5 -110t-39.5 -86.5
t-45.5 -58t-57 -36.5t-70 -10.5q-115 0 -138.5 103.5t35.5 338.5q33 130 61 198.5t62 98.5q21 18 62 31z" />
    <glyph glyph-name="nine" unicode="9" horiz-adv-x="401" 
d="M315 989q45 178 31 191q-2 2 -6 2q-12 0 -25.5 -35.5t-44.5 -157.5q-17 -66 -22 -101t-2 -43.5t12 -8.5q12 0 22.5 27t34.5 126zM246 664l-10 2q-59 -156 -127 -156q-72 0 -72 105.5t57 322.5q40 158 67 253.5t55.5 172t57 113t61 54t77.5 17.5q55 0 83.5 -34.5
t34.5 -118.5t-18 -228.5t-78 -361.5q-40 -158 -68.5 -264.5t-56 -200.5t-50 -149.5t-45.5 -99.5t-48 -64.5t-51 -30.5t-60 -10q-96 0 -115.5 88t33.5 315q0 1 23 72h59h76q-1 -2 -3 -11t-4.5 -18.5t-4.5 -17.5q-16 -68 10 -68q19 0 34.5 40.5t49.5 174.5q2 8 33 103z" />
    <glyph glyph-name="A" unicode="A" horiz-adv-x="419" 
d="M207 639h29q61 260 108 487q2 9 47 195h-12q-45 -162 -55 -195q-57 -183 -140 -487h23zM283 1536h305q-49 -213 -162 -743.5t-162 -792.5h-186q5 19 14 54.5t24 92.5t27 105h-30h-33q-51 -196 -66 -252h-170q80 258 232 795t207 741z" />
    <glyph glyph-name="B" unicode="B" horiz-adv-x="444" 
d="M274 885h7q25 2 44 40.5t50 159.5q18 71 22.5 107t-0.5 44.5t-18 8.5h-12q-78 -299 -93 -360zM242 678h-19q-39 -155 -88 -367h12q21 0 36 32.5t42 143.5q42 166 30 185q-4 6 -13 6zM248 1536h139q54 0 90.5 -8t66.5 -31t42 -62.5t8.5 -104t-25.5 -154.5
q-52 -207 -81 -278.5t-72 -109.5q-22 -22 -72 -32l-2 -8q45 -7 57 -23q44 -51 -20 -317q-22 -87 -37.5 -140t-36 -104t-40 -78t-48 -49t-62.5 -29.5t-81 -7.5h-209q49 184 192 768q167 663 191 768z" />
    <glyph glyph-name="C" unicode="C" horiz-adv-x="413" 
d="M346 809h-74q45 158 80 289q23 103 2 106q-8 0 -14 -8.5t-18.5 -47t-33.5 -118t-55 -219.5q-93 -374 -86 -409q2 -9 11 -9q18 0 49 127q27 107 55 242h74h92q-51 -221 -86 -359q-58 -236 -115.5 -326.5t-146.5 -90.5q-69 0 -102 32t-37.5 125t24 248t92.5 414
q43 170 73 280t60.5 199t54.5 136.5t54.5 79t60.5 41t72 9.5q31 0 54 -8t44 -34.5t28.5 -71t0 -123.5t-34.5 -185q-56 -226 -84 -319h-94z" />
    <glyph glyph-name="D" unicode="D" horiz-adv-x="454" 
d="M150 397h10q12 0 19.5 9t22.5 49t35.5 118t55.5 218q86 347 80 386q-2 13 -15 13h-10q-30 -114 -108 -430q-56 -222 -90 -363zM248 1536h178q34 0 58.5 -6t47 -23.5t33.5 -48.5t15.5 -82.5t-3.5 -123.5t-27 -173.5t-52 -230.5q-69 -277 -118.5 -440t-99 -256
t-93.5 -122.5t-109 -29.5h-213q105 405 194 766q122 486 189 770z" />
    <glyph glyph-name="E" unicode="E" horiz-adv-x="350" 
d="M248 1536h313q-16 -59 -59 -231q-50 -200 -62 -254q-90 4 -143 4l-14 -51q87 0 139 6q-17 -59 -59 -226.5t-50 -199.5q-14 2 -135 2l-10 -47q43 0 145 4q-8 -35 -32 -127t-35 -137q-2 -8 -68 -279h-313q9 37 77 305.5t115 462.5q49 195 119.5 480.5t71.5 287.5z" />
    <glyph glyph-name="F" unicode="F" horiz-adv-x="350" 
d="M248 1536h317q-7 -24 -86 -338q-13 -54 -41.5 -164t-38.5 -151q-86 4 -145 4l-16 -64q100 4 145 11l-139 -558q-44 5 -127 9q-36 -167 -64 -285h-186q124 490 192 768q130 515 189 768z" />
    <glyph glyph-name="G" unicode="G" horiz-adv-x="425" 
d="M283 866h65q82 0 127 2q-143 -571 -208.5 -726.5t-186.5 -155.5q-38 0 -64 6.5t-45 25t-28.5 45.5t-10.5 74t5.5 103.5t22.5 141t38 180t55 226.5q33 134 55.5 219.5t47.5 171.5t42.5 135.5t39.5 96.5t40 69.5t43 40.5t50 23.5t59 5.5q37 0 62 -6t46.5 -23t30.5 -49
t9.5 -82t-11.5 -124t-37 -174q-17 -73 -49 -170h-80h-94q25 76 43 143q10 38 14.5 60.5t5 36.5t-2.5 19t-11 5q-11 0 -19.5 -12.5t-24 -58t-34.5 -117.5t-53 -207q-44 -176 -60.5 -266.5t-13.5 -111t19 -20.5t30.5 25.5t35.5 99.5q-29 0 -39 -2q5 21 24 92.5t25 100.5
q34 140 37 157z" />
    <glyph glyph-name="H" unicode="H" horiz-adv-x="448" 
d="M469 1536h186q-114 -442 -196 -768q-168 -690 -187 -768h-186q114 449 147 586h-20h-20q-21 -85 -72 -292t-72 -294h-184q86 334 192 768q146 582 191 768h184q-51 -204 -149 -590h20h21q18 73 70.5 285.5t74.5 304.5z" />
    <glyph glyph-name="I" unicode="I" horiz-adv-x="237" 
d="M61 0h-196q49 191 190 768q189 753 193 768h196q-130 -505 -196 -768q-124 -505 -187 -768z" />
    <glyph glyph-name="J" unicode="J" horiz-adv-x="305" 
d="M299 1536h213q-125 -475 -168 -647q-8 -30 -54.5 -225t-96.5 -394q-34 -137 -84 -209.5t-132 -72.5q-70 0 -129 22q14 47 58.5 216t52.5 212q25 -10 41 -10q20 0 33.5 14.5t21.5 53.5q201 799 244 1040z" />
    <glyph glyph-name="K" unicode="K" horiz-adv-x="450" 
d="M358 752l-4 -13q57 0 67 -49.5t-13 -134.5q-103 -459 -115 -555h-164q-19 0 -24 9t1 34q12 48 30 122.5t28 117t24 100.5t22 94.5t15.5 76t11.5 68t5 48.5h-23q-16 -62 -78.5 -309t-89.5 -361h-186q9 37 77 305.5t115 462.5q49 195 119.5 480.5t71.5 287.5h186
q-88 -348 -168 -672h13q22 36 69 178q85 283 144 494h186q-24 -63 -56 -175t-59 -208.5t-59 -190.5t-69.5 -150.5t-76.5 -59.5z" />
    <glyph glyph-name="L" unicode="L" horiz-adv-x="270" 
d="M246 1536h209q-88 -332 -195 -752l-86 -356q7 0 21.5 1t21.5 1q-5 -18 -49 -188q-8 -37 -29.5 -124.5t-27.5 -117.5h-248q8 34 77 306t115 462q173 687 191 768z" />
    <glyph glyph-name="M" unicode="M" horiz-adv-x="616" 
d="M582 1536h241q-170 -670 -194 -766q-136 -541 -191 -770h-192q17 67 48.5 186t51.5 199q14 54 51.5 182t51.5 176h-17q-103 -332 -110 -352l-138 -391h-78l56 387q14 104 63 356h-16q-61 -295 -78 -360q-21 -84 -47.5 -207.5t-38.5 -175.5h-180q31 125 98 389t96 381
q91 364 189 766h256q-8 -55 -20.5 -115t-28.5 -132.5t-25 -114.5q-8 -44 -74 -359h11q16 52 102 361q10 38 113 360z" />
    <glyph glyph-name="N" unicode="N" horiz-adv-x="475" 
d="M524 1536h158q-2 -11 -32.5 -129t-79.5 -308.5t-83 -328.5q-151 -605 -188 -770h-205q36 202 47 291l62 424h-15q-65 -311 -98 -432q-51 -204 -65 -283h-158q24 94 188 768q40 159 103.5 407t91.5 361h215q-5 -31 -31.5 -180t-44.5 -266q-37 -237 -59 -365h12
q57 279 78 369q39 150 104 442z" />
    <glyph glyph-name="O" unicode="O" horiz-adv-x="413" 
d="M446 809q-43 -175 -73.5 -289.5t-62 -214t-57 -155t-55 -95.5t-59.5 -54.5t-69 -14.5q-66 0 -97 35.5t-33 131.5t26.5 250t90.5 406q78 310 136 469t108.5 215.5t120.5 56.5q60 0 90 -29t36.5 -110t-18.5 -225.5t-84 -376.5zM154 393q8 0 13 8t19 54t34.5 125t60.5 241
q35 139 52 210.5t23 111.5t3.5 47.5t-13.5 7.5q-7 0 -11.5 -7.5t-17.5 -48.5t-30.5 -110t-53.5 -211q-91 -367 -92 -408q1 -20 13 -20z" />
    <glyph glyph-name="P" unicode="P" horiz-adv-x="432" 
d="M193 618h8q28 0 43 42.5t63 236.5q65 262 56 296q-4 13 -19 13h-6q-59 -232 -145 -588zM246 1536h137q55 0 90 -8.5t61 -32.5t34.5 -64t5 -108t-21.5 -158.5t-50 -220.5q-41 -163 -63 -248t-50.5 -173t-48.5 -123t-51 -67t-63 -39t-81 -7h-30q-36 -157 -62 -287h-190
q49 191 190 768q189 753 193 768z" />
    <glyph glyph-name="Q" unicode="Q" horiz-adv-x="409" 
d="M229 821q-26 -104 -43 -174t-27.5 -119t-15 -75t-4 -40t3 -17t9.5 -3q9 0 15 8.5t20 52.5t35.5 126.5t60.5 240.5q23 91 38 152.5t24 104.5t13 66t3 35.5t-3.5 15.5t-9.5 3q-8 0 -14 -8t-19 -47t-32 -111.5t-54 -210.5zM209 354l-2 -8q36 3 82 16q31 9 55 23
q-33 -138 -96 -385q-29 0 -74 -2t-98 -2q-37 0 -63.5 10.5t-42.5 36t-24.5 58t-6.5 86t9 110.5t24 141.5t36.5 169t48.5 201.5q80 318 133.5 472t103.5 211.5t124 57.5q60 0 90 -28.5t37 -111.5t-19.5 -235t-87.5 -397q-73 -277 -131 -358q-40 -52 -98 -66z" />
    <glyph glyph-name="R" unicode="R" horiz-adv-x="442" 
d="M233 784h5q24 0 37.5 13.5t28 55.5t38.5 142q11 45 18.5 76t11 53.5t4.5 35.5t-2 20t-7.5 9.5t-12.5 2.5h-20q-18 -70 -51.5 -206.5t-49.5 -201.5zM248 1536h131q61 0 99 -8.5t68 -35.5t37.5 -77t-1.5 -132.5t-39 -203.5q-46 -186 -83 -287t-73 -145.5t-86 -56.5l-2 -8
q56 -12 68.5 -60t-11.5 -168q-11 -61 -37.5 -189.5t-33.5 -164.5h-168q-11 0 -13.5 6t0.5 23q99 389 95 443q-5 21 -21 22h-16q-103 -447 -113 -494h-184q49 191 190 768q189 753 193 768z" />
    <glyph glyph-name="S" unicode="S" horiz-adv-x="389" 
d="M383 952h-72q26 93 47 183q18 73 -6 73q-18 0 -35 -69q-17 -67 -23.5 -108t-2.5 -81t22 -76q32 -64 43.5 -114.5t5 -145.5t-42.5 -237q-53 -213 -112 -303t-150 -90q-105 0 -135 81t12 248t74 271q18 -2 66 -2q57 0 71 2q-19 -64 -43 -168q-6 -20 -8.5 -33.5t-3.5 -24
t1.5 -15.5t8.5 -5q21 0 41 82q26 107 25.5 151.5t-31.5 98.5q-46 74 -45.5 180t53.5 319q54 215 110.5 299t156.5 84q103 0 130 -81t-18 -267q-25 -102 -67 -252h-72z" />
    <glyph glyph-name="T" unicode="T" horiz-adv-x="321" 
d="M236 1536h305q-9 -42 -54 -211q-9 -42 -29.5 -123t-23.5 -96h-53q-72 -290 -170.5 -691t-101.5 -415q-54 4 -103 4q-46 0 -104 -4q49 171 280 1106h-53q35 129 55 219q43 164 52 211z" />
    <glyph glyph-name="U" unicode="U" horiz-adv-x="448" 
d="M475 1536h180q-82 -332 -143 -578q-79 -310 -145 -583q-29 -112 -53 -180.5t-56 -119t-71.5 -71t-94.5 -20.5q-127 0 -157 97t24 294l147 583q34 139 80.5 328.5t61.5 249.5h190q-50 -200 -149.5 -595t-118.5 -472q-10 -43 14 -43q17 0 27 43q38 152 131.5 531t132.5 536
z" />
    <glyph glyph-name="V" unicode="V" horiz-adv-x="419" 
d="M465 1536h182q-73 -229 -254 -859t-196 -677q-12 0 -61 1t-81 1q-48 0 -96 -1t-49 -1q211 969 317 1536h187q-132 -525 -207 -856q-7 -32 -28.5 -122.5t-31.5 -137.5h17q14 51 42 150t30 108q166 586 229 858z" />
    <glyph glyph-name="W" unicode="W" horiz-adv-x="587" 
d="M682 1536h133q-93 -319 -446 -1536q-7 0 -41.5 2t-57.5 2q-82 0 -106 -4q18 103 104 455q69 286 144 579h-17q-126 -478 -157 -581q-114 -401 -136 -453q-8 0 -40 2t-54 2q-74 0 -98 -4q272 1306 317 1536h181q-8 -35 -41.5 -159.5t-68.5 -264.5t-60 -258
q-24 -110 -99 -428h15q88 361 108 430q183 629 195 680q25 -2 88 -2q69 0 94 2q-22 -78 -164 -678q-12 -53 -102 -432h12q5 20 50.5 188.5t66.5 241.5q60 217 180 680z" />
    <glyph glyph-name="X" unicode="X" horiz-adv-x="440" 
d="M483 1536h183q-33 -92 -71 -205.5t-100 -305t-85 -261.5q-9 -54 -35 -203t-37.5 -217t-27 -169.5t-25.5 -174.5h-195l31 155t26 132q33 158 86 372h-12q-13 -46 -35 -126.5t-39 -141.5t-30 -106q-36 -117 -84 -285h-187q44 121 138.5 412.5t119.5 365.5q16 99 45 264
t48.5 284.5t31.5 209.5h195q-25 -124 -68 -317q-21 -95 -80 -359h9q81 277 106 359q22 68 53 179.5t39 137.5z" />
    <glyph glyph-name="Y" unicode="Y" horiz-adv-x="432" 
d="M477 1536h187q-44 -132 -328 -965q-123 -486 -139 -571q-41 2 -131 2q-91 0 -136 -2q63 231 136 520q63 448 157 1016h203q-10 -36 -154 -653q-35 -159 -51 -226h15l59 226q144 496 182 653z" />
    <glyph glyph-name="Z" unicode="Z" horiz-adv-x="342" 
d="M248 1536h295q-14 -52 -51 -209q-9 -35 -29 -112.5t-29 -112.5q-31 -66 -223 -547l-55 -129q46 4 55 4h63q-8 -34 -29 -109t-28 -106q-40 -166 -51 -215h-301q59 222 59 223q23 87 49 203q11 22 51 121t89 223t65 164q35 93 68 166h-47q-44 0 -62 -2q8 33 28.5 112
t29.5 113q16 62 53 213z" />
    <glyph glyph-name="a" unicode="a" 
d="M205 512l125 498h-8q-13 0 -23.5 -18t-32.5 -89.5t-59 -218.5q-61 -252 -62 -284q0 -19 11 -19q16 0 49 131zM418 1352h184q-79 -291 -164 -639q-161 -642 -178 -713h-180q15 62 33 129q2 10 8.5 35.5t9.5 38.5h-10q-72 -213 -148 -213q-34 0 -47.5 32.5t-8 113.5
t32 211.5t77.5 334.5q55 221 96 358t73 207t55.5 92.5t53.5 22.5q36 0 55 -41t11 -127h8l10 45q25 97 29 113z" />
    <glyph glyph-name="b" unicode="b" 
d="M145 391h9q13 0 21 8t21 41t29 90t43 164q28 112 42 173t19 94.5t3 42t-10 8.5q-9 0 -16.5 -12.5t-20 -52t-31.5 -116.5zM340 1194h10q65 168 144 168q41 0 53 -28q26 -61 -41 -364q-28 -128 -76 -317q-65 -266 -111.5 -409.5t-81.5 -198.5t-75 -55q-36 0 -53 34.5
t-15.5 83.5t8.5 103h-8q-3 -15 -18 -82q-29 -117 -31 -129h-180q19 75 57 222t74.5 290.5t73.5 296.5q113 452 190 776h180q-4 -17 -22.5 -92t-30.5 -119q-10 -39 -25.5 -98.5t-21.5 -81.5z" />
    <glyph glyph-name="c" unicode="c" horiz-adv-x="382" 
d="M311 713h-71q4 13 65 254q4 17 6.5 30t3.5 22.5t1 16t-1.5 10.5t-3.5 5.5t-6 1.5q-8 0 -13 -7t-16.5 -42t-28.5 -100.5t-48 -190.5q-80 -320 -73 -351q2 -8 11 -8q10 0 20.5 26.5t28.5 94.5q25 97 43 193q20 -2 64 -2q24 0 86 4q-2 -12 -37 -160q-50 -202 -94 -315
t-89 -161t-104 -48q-60 0 -89.5 29t-34 111t20.5 219.5t81 363.5q44 174 76.5 285t62 188.5t59.5 115.5t60.5 53t73.5 15q70 0 100.5 -34.5t26.5 -139t-52 -299.5q-1 -5 -49 -180h-80z" />
    <glyph glyph-name="d" unicode="d" 
d="M205 512l125 498h-8q-13 0 -23.5 -18t-32.5 -89.5t-59 -218.5q-61 -252 -62 -284q0 -19 11 -19q16 0 49 131zM475 1585h180q-34 -126 -101.5 -402t-92.5 -374q-40 -164 -106 -426.5t-95 -382.5h-180q15 62 33 129q2 10 8.5 35.5t9.5 38.5h-10q-75 -213 -146 -213
q-55 0 -58 94q-4 138 110 598q55 219 96.5 357.5t73.5 207.5t55.5 92t50.5 23q80 0 66 -168h10l43 180q4 16 24.5 96t28.5 115z" />
    <glyph glyph-name="e" unicode="e" horiz-adv-x="376" 
d="M205 756h53q29 103 39 151q16 60 21 92t3 41t-10 9q-11 0 -21 -17t-30.5 -81.5t-54.5 -194.5zM164 588l-14 -53q-42 -167 -34 -178q2 -3 7 -3q14 0 26.5 32t43.5 155q25 -2 71 -2q54 0 72 2q-46 -212 -91.5 -334.5t-90.5 -171.5t-103 -49q-73 0 -101.5 51.5t-15.5 189
t76 387.5q80 321 136.5 481t104 215.5t114.5 55.5q95 0 114.5 -96t-37.5 -334q-24 -97 -90 -348h-164h-24z" />
    <glyph glyph-name="f" unicode="f" horiz-adv-x="292" 
d="M96 979l33 2q33 139 70 289q46 188 90.5 256.5t132.5 68.5q54 0 104 -20q-30 -92 -78.5 -278t-60.5 -246q-8 1 -17 2.5t-14 1.5q-24 0 -33.5 -8.5t-15.5 -34.5l-4 -15l66 7q-76 -302 -140 -578q-11 1 -33 2t-32 2q-71 -292 -101 -430h-92h-92q89 337 113 428l-33 -2
q26 107 76 307t61 246z" />
    <glyph glyph-name="g" unicode="g" horiz-adv-x="442" 
d="M258 696l78 314h-8q-13 0 -22.5 -13.5t-27 -67t-45.5 -163.5q-32 -128 -36 -163t12 -38q16 0 49 131zM424 1352h180q-9 -26 -23.5 -84t-48.5 -197t-65 -262q-33 -133 -156 -625q-57 -229 -113.5 -320t-160.5 -91q-112 0 -146.5 75t3.5 236q14 54 20 70q32 -4 74 -4
q63 0 86 2q-1 -5 -5 -16t-6 -19q-7 -33 17 -33q13 0 24 21.5t27 84.5q15 61 53 197h-12q-70 -207 -145 -207q-59 0 -60 104q-2 130 86 480q48 192 85.5 314.5t68.5 182.5t53.5 80.5t50.5 20.5q80 0 64 -168h10q7 30 15.5 64t9.5 40q2 10 7.5 29.5t6.5 24.5z" />
    <glyph glyph-name="h" unicode="h" horiz-adv-x="442" 
d="M334 1155h12q81 207 166 207q25 0 40.5 -13.5t22.5 -51.5t-12 -107q-121 -483 -194 -780q-62 -240 -103 -410h-178q66 258 236 936q11 41 -11 41q-13 0 -22 -17t-21 -67q-175 -702 -219 -893h-184q146 594 170 688q48 192 121 481.5t104 415.5h180l-75 -303z" />
    <glyph glyph-name="i" unicode="i" horiz-adv-x="221" 
d="M440 1520q-13 -51 -43 -87t-82 -36q-117 0 -79 155q27 115 126 115q111 0 78 -147zM45 0h-180q84 317 176 692q91 362 162 660h180q-45 -166 -164 -639q-93 -370 -174 -713z" />
    <glyph glyph-name="j" unicode="j" horiz-adv-x="229" 
d="M-20 371q181 724 231 981h182q-101 -396 -137 -541q-8 -32 -34 -139.5t-64.5 -266t-83.5 -337.5q-37 -149 -85.5 -219t-140.5 -70q-27 0 -55 8q15 61 69.5 276t71.5 271q6 -2 17 -2q19 0 29 39zM440 1520q-13 -51 -43 -87t-82 -36q-117 0 -79 155q27 115 126 115
q111 0 78 -147z" />
    <glyph glyph-name="k" unicode="k" horiz-adv-x="419" 
d="M313 715l-2 -8q19 -7 31.5 -20.5t18 -35t6.5 -46.5t-3.5 -63t-11 -76t-17.5 -93l-21.5 -107.5t-24.5 -125t-25 -140.5h-143q-18 0 -22.5 13.5t1.5 45.5q83 402 95 533h-9q-57 -236 -143 -592h-180q24 95 237 956q75 292 158 629h180q-98 -370 -205 -807h9q35 101 77 236
q70 218 97 338h186q-13 -39 -32.5 -104t-35 -114.5t-35.5 -110.5t-40 -107t-43 -89t-49 -71.5t-54 -40.5z" />
    <glyph glyph-name="l" unicode="l" horiz-adv-x="221" 
d="M45 0h-180q31 118 70 271t80 315.5t55 216.5q70 283 190 782h180q-67 -264 -194 -782q-31 -126 -74.5 -295.5t-73 -287.5t-53.5 -220z" />
    <glyph glyph-name="m" unicode="m" horiz-adv-x="591" 
d="M496 1155h8q41 116 80.5 161.5t81.5 45.5q46 0 56.5 -42t-13.5 -140l-193 -762q-54 -213 -100 -418h-164q49 176 237 930q10 43 -10 43q-23 0 -39 -72q-149 -597 -219 -901h-162q65 237 236 928q10 45 -8 45q-23 0 -39 -72q-165 -659 -221 -901h-162q69 278 172 688
q123 497 166 664h159q-36 -133 -51 -197h8q41 117 73.5 162t68.5 45q38 0 47.5 -45t-12.5 -162z" />
    <glyph glyph-name="n" unicode="n" horiz-adv-x="442" 
d="M334 1155h12q81 205 164 205q95 0 53 -170q-121 -483 -194 -780q-62 -240 -103 -410h-178q66 258 236 936q11 41 -11 41q-13 0 -22 -17t-21 -67q-175 -702 -219 -893h-184q146 594 170 688q76 307 168 664h180z" />
    <glyph glyph-name="o" unicode="o" horiz-adv-x="425" 
d="M256 709q78 310 70 337q-1 7 -9 7q-7 0 -11.5 -6.5t-16 -44t-27.5 -100t-49 -193.5q-81 -326 -74 -351q2 -6 8 -6q8 0 13 7t17 45t29 104.5t50 200.5zM436 711q-41 -164 -68.5 -264t-57 -190t-51.5 -135.5t-51.5 -80t-59 -45t-70.5 -10.5q-47 0 -76.5 11.5t-48 43
t-21.5 81.5t7 134t33.5 192t62.5 263q43 175 74 282.5t60.5 186.5t59.5 116.5t62 53.5t78 16q42 0 69 -8.5t49 -32.5t28 -69t1.5 -117.5t-24.5 -178t-56 -249.5z" />
    <glyph glyph-name="p" unicode="p" 
d="M254 831l-111 -448h9q13 0 21.5 8t22.5 46t29 95t45 177q60 242 50 263q-3 5 -9 5q-21 0 -57 -146zM330 1155h14q30 94 64.5 150.5t80.5 56.5q26 0 40.5 -11t21.5 -41t4 -77.5t-17 -127t-37.5 -183t-60.5 -250.5q-42 -168 -79.5 -292.5t-66.5 -199t-56.5 -119t-48 -60
t-42.5 -15.5q-34 0 -44 43.5t3 175.5h-12q-36 -160 -53 -225q-7 -27 -24 -93.5t-25 -99.5h-180q41 155 184 733q43 174 111 442t98 390h178q-7 -27 -22.5 -82t-22.5 -86z" />
    <glyph glyph-name="q" unicode="q" 
d="M205 512l125 498h-8q-13 0 -23.5 -18t-32.5 -89.5t-59 -218.5q-61 -252 -62 -284q0 -19 11 -19q16 0 49 131zM418 1352h180q-24 -88 -70 -274t-67 -269q-59 -243 -142.5 -576.5t-111.5 -445.5h-180q60 242 86 342q0 1 4 18t8 25h-14q-67 -182 -138 -182q-55 0 -57 98
q-2 139 111 594q55 219 96.5 357.5t74 207.5t56 92t51.5 23q34 0 53 -41t11 -127h10q2 9 7.5 36t10.5 44q12 44 21 78z" />
    <glyph glyph-name="r" unicode="r" horiz-adv-x="276" 
d="M221 1032h10q56 175 105 249.5t98 74.5q7 0 23 -4q-138 -504 -158 -584q-8 8 -31 8q-17 0 -27.5 -13t-19.5 -46q-76 -313 -158 -717h-200q35 127 176 686q38 153 89.5 368t72.5 298h104q-34 -122 -84 -320z" />
    <glyph glyph-name="s" unicode="s" horiz-adv-x="344" 
d="M27 463h63q-4 -15 -11.5 -39.5t-12 -41.5t-7.5 -30q-16 -61 2 -61q11 0 19.5 12.5t19.5 54.5q12 39 10 74t-8 56t-19 52q-3 7 -5 11q-30 72 -24.5 172.5t48.5 273.5q39 154 75.5 234.5t75 107.5t97.5 27q91 0 114.5 -58t-13.5 -212q-1 -4 -54 -211h-61h-55q20 69 32 129
q14 55 -4 55q-23 0 -37 -59q-15 -61 -16 -98t12 -81q40 -121 42 -201t-38 -255q-41 -163 -77 -246t-75.5 -113t-101.5 -30q-89 0 -109.5 76t17.5 219q38 145 47 182h54z" />
    <glyph glyph-name="t" unicode="t" horiz-adv-x="286" 
d="M287 723l-70 6q-9 -38 -4 -51.5t27 -13.5q24 0 41 10q-25 -93 -84.5 -340t-75.5 -330q-49 -18 -92 -18q-161 0 -72 360q9 37 43 168t57 223l-22 2q15 63 69 277.5t82 335.5h25l45 184h182q-22 -63 -57 -184h72q-67 -237 -166 -629z" />
    <glyph glyph-name="u" unicode="u" horiz-adv-x="442" 
d="M424 1352h182q-64 -240 -174 -688q-98 -383 -164 -664h-174q15 69 53 209h-12q-79 -219 -170 -219q-50 0 -64 52t11 155q35 139 96 376.5t92 360.5q20 84 54 220.5t49 197.5h182q-137 -534 -235 -934q-4 -15 -5 -23.5t1.5 -13t9.5 -4.5q25 0 45 72q60 244 111 449
t73 295.5t39 158.5z" />
    <glyph glyph-name="v" unicode="v" horiz-adv-x="409" 
d="M414 1352h178q-300 -953 -422 -1352h-127h-121q18 86 123.5 639.5t136.5 712.5h185q-48 -172 -148 -609q-71 -305 -86 -370h12q18 63 54.5 199t46.5 171q41 151 101 367.5t67 241.5z" />
    <glyph glyph-name="w" unicode="w" horiz-adv-x="571" 
d="M614 1352h140q-51 -157 -136.5 -451t-170 -596t-85.5 -305h-108h-104q14 58 59.5 265.5t71.5 320.5q28 123 88 352h-15q-56 -228 -92 -352q-40 -141 -98.5 -340.5t-71.5 -245.5h-90h-104q7 34 126 588.5t158 763.5h164q-9 -27 -25 -86t-38 -147.5t-42 -170t-48 -199.5
t-46 -190l-47 -190h13l53 190q162 552 225 793h84h94q-104 -427 -186 -793l-45 -188h12q7 25 26.5 88.5t29.5 99.5q62 213 122.5 446t85.5 347z" />
    <glyph glyph-name="x" unicode="x" horiz-adv-x="425" 
d="M426 1352h182q-26 -77 -63.5 -185t-89 -256.5t-84.5 -242.5q-22 -140 -56.5 -372t-44.5 -296h-190q14 61 31 150t30 147q43 181 52 223h-15q-10 -36 -63 -221q-66 -222 -88 -299h-183q104 287 244 692q22 143 56 379.5t40 280.5h189q-26 -101 -80 -383q-21 -92 -37 -158
h14l45 160q87 290 111 381z" />
    <glyph glyph-name="y" unicode="y" horiz-adv-x="438" 
d="M422 1352h176l-119 -471q-35 -145 -170 -688q-25 -101 -42 -159t-40.5 -115.5t-49 -85t-61 -44t-83.5 -16.5q-109 0 -144.5 73.5t2.5 237.5q12 47 19 68q8 0 34 -1t42 -1h104l-10 -35q-9 -31 14 -31q10 0 18.5 9.5t20.5 42t27 91.5q22 83 26 95l-12 2
q-31 -81 -61.5 -111.5t-71.5 -30.5q-70 0 -85 62t19 202q63 248 148 590q50 199 80 316h180q-68 -247 -193 -752q-5 -23 -5.5 -35t3 -17t11.5 -5q22 0 43 90q10 41 56.5 224t83.5 331.5t40 163.5z" />
    <glyph glyph-name="z" unicode="z" horiz-adv-x="317" 
d="M203 1352h276q-34 -115 -69 -260q-32 -120 -70 -283q-63 -128 -94 -199l-33 -71q53 0 61 2q-56 -216 -69 -269q-34 -143 -66 -272h-274q64 235 74 279q30 119 59 258q96 196 113 233q3 6 9 19.5t9 19.5q-43 0 -63 -2q32 116 61 237q10 38 22.5 88.5t28 115.5t25.5 104z
" />
    <glyph glyph-name="uni00A0" unicode="&#xa0;" horiz-adv-x="122" 
 />
  </font>
</defs>
</svg>
