<?xml version="1.0" standalone="no"?>
<!DOCTYPE svg PUBLIC "-//W3C//DTD SVG 1.1//EN" "http://www.w3.org/Graphics/SVG/1.1/DTD/svg11.dtd" >
<svg xmlns="http://www.w3.org/2000/svg" xmlns:xlink="http://www.w3.org/1999/xlink" version="1.1">
<metadata>
Created by FontForge 20170731 at Tue Nov 10 11:53:43 2020
 By Aleksey,,,
(c) Copyright OH no Type Company, LLC. 2015. All rights reserved.
</metadata>
<defs>
<font id="ObviouslyDemo-CompMediItalic" horiz-adv-x="405" >
  <font-face 
    font-family="Obviously Demo Comp Medi"
    font-weight="250"
    font-style="italic"
    font-stretch="extra-condensed"
    units-per-em="2048"
    panose-1="4 13 6 3 5 4 3 11 3 6"
    ascent="1638"
    descent="-410"
    x-height="1309"
    cap-height="1536"
    bbox="-221 -229 774 1595"
    underline-thickness="102"
    underline-position="-307"
    slope="-14"
    unicode-range="U+0020-00A0"
  />
<missing-glyph horiz-adv-x="0" 
 />
    <glyph glyph-name=".notdef" horiz-adv-x="0" 
 />
    <glyph glyph-name=".null" horiz-adv-x="0" 
 />
    <glyph glyph-name="nonmarkingreturn" horiz-adv-x="682" 
 />
    <glyph glyph-name="space" unicode=" " horiz-adv-x="159" 
 />
    <glyph glyph-name="comma" unicode="," horiz-adv-x="153" 
d="M-31 319h111q-187 -440 -227 -534q-8 4 -21.5 8t-30 8t-22.5 6q137 347 190 512z" />
    <glyph glyph-name="period" unicode="." horiz-adv-x="157" 
d="M-41 170q39 0 49.5 -24.5t-2.5 -75.5q-21 -76 -76 -76q-40 0 -50.5 24.5t3.5 75.5q18 76 76 76z" />
    <glyph glyph-name="zero" unicode="0" horiz-adv-x="385" 
d="M385 768q-52 -211 -88.5 -342.5t-67.5 -224t-59 -136.5t-54.5 -61.5t-62.5 -17.5q-37 0 -59 12.5t-34.5 47t-11 89.5t16 147t41.5 212.5t70 291.5q43 174 74 290t60 205t50.5 138.5t46.5 80.5t47.5 40.5t53.5 9.5q34 0 54.5 -10t34 -40t12.5 -83t-13.5 -141t-40 -211.5
t-70.5 -296.5zM397 1460q-17 0 -31 -19.5t-39.5 -90t-62 -205t-96.5 -367.5q-135 -550 -133 -655q1 -48 28 -49q16 0 30.5 23t40 97.5t62.5 212.5t95 371q136 539 134 637q-4 43 -28 45z" />
    <glyph glyph-name="one" unicode="1" horiz-adv-x="190" 
d="M-61 0h-52q50 181 193 768q113 435 172 694q43 30 74 74h26h23q-34 -118 -199 -768q-126 -515 -184 -768h-53z" />
    <glyph glyph-name="two" unicode="2" horiz-adv-x="337" 
d="M147 887h-49q31 161 60 268q57 230 103 312.5t132 82.5q81 0 100 -71t-24 -254q-44 -179 -112 -332t-177 -342q-150 -265 -196 -453h41q110 0 157 2q-2 -8 -12 -53q-3 -11 -6.5 -26t-5.5 -21h-291q0 5 8 37q3 11 8 29.5t6 23.5q59 236 228 528q92 155 154.5 302
t105.5 319q46 180 27 209q-8 10 -23 10q-20 0 -36 -22.5t-39.5 -91t-55.5 -199.5q-19 -80 -55 -258h-48z" />
    <glyph glyph-name="three" unicode="3" horiz-adv-x="358" 
d="M168 1004h-47q12 60 43 182q54 213 100.5 288.5t130.5 75.5q90 0 107 -83t-33 -289q-40 -162 -76 -242.5t-84 -124.5q-31 -25 -65 -33l-2 -8q29 -7 47 -27q24 -29 29 -79.5t-4.5 -113.5t-32.5 -159q-61 -234 -109.5 -319.5t-132.5 -85.5q-66 0 -94.5 34.5t-25 119
t41.5 235.5q6 27 45 162h47h49q-6 -20 -39 -142q-65 -256 -48 -302q8 -19 32 -19q22 0 38.5 23.5t40 95.5t60.5 219q33 132 39 201t-8.5 91.5t-52.5 22.5h-51q3 10 12 49l10 45q12 -2 51 -2q52 0 93 75.5t92 276.5q22 87 32.5 143t11 89t-7.5 46t-26 13q-30 0 -56 -55.5
t-67 -218.5q-7 -28 -22.5 -95t-20.5 -89h-47z" />
    <glyph glyph-name="four" unicode="4" horiz-adv-x="401" 
d="M475 1536h94q-30 -119 -94 -371.5t-100 -396.5l-72 -293h57q-2 -7 -3.5 -14t-3.5 -16t-3 -15q-4 -11 -6 -19.5t-3.5 -16.5t-2.5 -13l-57 2q-64 -255 -93 -383h-96q51 214 98 383h-53q-113 0 -168 -2q34 110 164 560t166 595h98q-278 -964 -303 -1059q29 -2 117 -2
q176 703 264 1061z" />
    <glyph glyph-name="five" unicode="5" horiz-adv-x="370" 
d="M74 553h45q-20 -66 -35 -133q-26 -101 -39.5 -166t-17 -106.5t4 -58.5t25.5 -17q21 0 40.5 33.5t48.5 128.5t73 272q79 322 60 370q-6 15 -21 15q-25 0 -48.5 -32.5t-51.5 -98.5q-40 19 -72 22q9 38 34 139.5t38 153.5q97 394 112 461q53 -2 152 -2q102 0 145 2
q-10 -40 -12 -45q-1 -8 -3.5 -19l-5 -22t-3.5 -14q-12 0 -53.5 1t-49.5 1h-96q-84 -325 -86 -334q-8 -35 -49 -205q53 82 102 82q25 0 40 -12t23 -43t4.5 -83t-18 -133t-41.5 -192q-54 -217 -95 -330t-80.5 -157.5t-94.5 -44.5q-60 0 -87 33.5t-24 121.5t42 244
q11 43 47 168h47z" />
    <glyph glyph-name="six" unicode="6" horiz-adv-x="387" 
d="M250 813q-37 0 -73.5 -72.5t-80.5 -246.5q-90 -361 -49 -412q9 -10 23 -10q35 0 65 79.5t92 331.5q67 266 48 313q-7 17 -25 17zM164 786l6 -2q55 123 133 123q69 0 74.5 -94.5t-51.5 -323.5q-76 -301 -127 -402t-138 -101q-27 0 -45.5 6.5t-33.5 22.5t-22 44t-8.5 71.5
t6 103.5t22 142t38 185t56.5 234q50 200 85.5 325t67 215.5t60.5 134t58 62t69 18.5q93 0 108.5 -93t-37.5 -300q-16 -79 -30 -119h-47h-50q23 72 33 117q22 87 33 143.5t13 94t-6.5 53.5t-27.5 16q-22 0 -43.5 -34t-51.5 -124.5t-75 -259.5q-23 -101 -69 -258z" />
    <glyph glyph-name="seven" unicode="7" horiz-adv-x="294" 
d="M238 1536h276q-2 -7 -12 -47l-13 -47q-73 -160 -221.5 -613t-240.5 -829h-50h-47q89 347 236.5 789.5t234.5 646.5q-118 0 -188 -2q3 27 12 57q0 2 5.5 18.5t7.5 26.5z" />
    <glyph glyph-name="eight" unicode="8" horiz-adv-x="397" 
d="M399 1171q29 113 37 178t-1 89t-34 24q-35 0 -64.5 -61t-72.5 -230q-68 -278 -50 -330q7 -22 30 -22q25 0 45.5 26.5t47.5 104t62 221.5zM213 399q18 71 29 122t16 88t5 59.5t-5.5 36t-14 18t-22.5 4.5q-28 0 -48 -23t-44.5 -90.5t-58.5 -201.5q-18 -71 -29.5 -123.5
t-16.5 -90t-5 -61.5t6 -38t15.5 -19.5t25.5 -5.5q36 0 67 65.5t80 259.5zM176 774l2 6q-22 12 -37 37q-25 39 -18.5 119t47.5 242q51 210 101 291t139 81q99 0 120 -85t-30 -287q-42 -172 -73.5 -251.5t-76.5 -119.5q-25 -19 -57 -29l-2 -8q23 -10 37 -27q22 -27 24.5 -79
t-8.5 -116.5t-37 -168.5q-54 -216 -110.5 -304.5t-141.5 -88.5q-101 0 -120.5 96.5t40.5 339.5q31 130 63 209.5t83 118.5q24 18 55 24z" />
    <glyph glyph-name="nine" unicode="9" horiz-adv-x="387" 
d="M367 1042q90 356 52 410q-9 12 -24 12q-19 0 -34 -16.5t-33.5 -66t-38.5 -123t-53 -205.5q-65 -261 -48 -310q7 -20 27 -20q36 0 72 72.5t80 246.5zM299 750h-6q-55 -123 -131 -123q-71 0 -76 95t53 322q74 303 124.5 404.5t137.5 101.5q27 0 46 -6.5t34.5 -22.5
t22.5 -44t8.5 -71.5t-6 -103.5t-22.5 -142t-38.5 -185t-56.5 -234q-50 -200 -85.5 -326t-67 -215.5t-60.5 -133.5t-58 -62t-69 -18q-93 0 -109 92t37 301q22 94 31 119h47h49q-3 -12 -32 -117q-21 -89 -32 -144.5t-13 -93.5t6.5 -53.5t27.5 -15.5q32 0 68 87t100 331
q7 25 70 258z" />
    <glyph glyph-name="A" unicode="A" horiz-adv-x="387" 
d="M174 530h51q82 431 119 613q19 89 62 311h-9q-12 -45 -96 -311q-85 -284 -186 -613h59zM342 1536h156q-22 -112 -127.5 -698t-147.5 -838h-104q19 76 90 442h-57h-64q-103 -332 -131 -442h-104q96 290 280.5 869t208.5 667z" />
    <glyph glyph-name="B" unicode="B" horiz-adv-x="395" 
d="M393 1130q27 108 38 169t8 94t-16 42t-42 9h-33q-52 -199 -155 -623h30q54 1 90 68.5t80 240.5zM219 406q24 100 34.5 158.5t10 98.5t-14.5 55t-44 15q-23 0 -35 -2q-124 -490 -158 -637q12 -2 33 -2q41 0 65.5 22t48.5 86t60 206zM272 1536h131q75 0 104.5 -28
t26 -115.5t-48.5 -264.5q-36 -145 -65.5 -216t-71.5 -105q-27 -21 -65 -27l-2 -10q29 -3 47 -18q60 -50 -15 -353q-26 -106 -46.5 -172t-42.5 -114t-49.5 -70.5t-59.5 -32.5t-80 -10h-148q69 250 195 768q141 560 190 768z" />
    <glyph glyph-name="C" unicode="C" horiz-adv-x="391" 
d="M369 891h-50q45 154 68 250q66 259 46 301q-7 14 -25 14q-15 0 -26 -9.5t-29.5 -47t-41.5 -110t-57.5 -199.5t-81.5 -314q-135 -543 -134 -646q8 -48 34 -52q32 0 62.5 74.5t82.5 285.5q26 101 45 199h47h45q-16 -90 -41 -182q-23 -93 -39.5 -153.5t-35.5 -118.5t-36 -91
t-38.5 -59t-46 -36.5t-54.5 -10.5q-38 0 -61 11.5t-37 45t-13.5 87.5t14.5 144.5t40.5 210.5t69.5 291q52 211 90 344.5t69 222.5t60.5 132t56.5 59t66 16q86 0 101 -91t-44 -339q-27 -112 -61 -229h-45z" />
    <glyph glyph-name="D" unicode="D" horiz-adv-x="401" 
d="M12 92h31q22 0 36.5 5.5t33 30.5t34.5 66.5t41 122t53.5 188.5t69.5 275q130 519 113 622q-14 39 -45 42h-29q-12 -43 -172 -680q-139 -554 -166 -672zM270 1536h121q33 0 54 -6t40 -24t25.5 -51.5t6.5 -89t-12.5 -136.5t-36 -192.5t-60.5 -258.5q-46 -181 -77 -295.5
t-62 -208.5t-54 -142t-53 -81t-58 -42t-69 -9h-148q67 244 195 766q158 628 188 770z" />
    <glyph glyph-name="E" unicode="E" horiz-adv-x="331" 
d="M272 1536h263q-3 -16 -11 -45q-9 -39 -12 -49q-57 2 -158 2q-27 -108 -81 -318.5t-76 -300.5q104 0 155 2q-2 -10 -11.5 -44.5t-12.5 -49.5q-49 2 -154 2q-106 -419 -158 -643h160q-2 -5 -12 -45q-2 -7 -6 -23.5t-6 -23.5h-265q79 293 195 768q147 586 190 768z" />
    <glyph glyph-name="F" unicode="F" horiz-adv-x="317" 
d="M272 1536h254q-2 -7 -12 -47q-7 -33 -12 -47q-55 2 -152 2q-95 -366 -160 -631l-22 -90q102 0 149 2q-2 -13 -22 -96q-49 2 -150 2q-113 -455 -153 -631h-103q126 493 193 768q143 568 190 768z" />
    <glyph glyph-name="G" unicode="G" horiz-adv-x="401" 
d="M315 780h80q-40 -173 -66.5 -284t-54.5 -207.5t-49.5 -148.5t-47 -90t-51 -51t-58.5 -13q-58 0 -85 30t-30.5 117.5t25.5 242.5t92 408q84 335 141.5 499t103.5 215.5t113 51.5q57 0 83 -37t22.5 -128.5t-41.5 -243.5q-13 -59 -50 -180q-6 0 -21 1t-22 1q-33 0 -51 -2
q31 110 49 182q63 249 44 295q-7 18 -29 18q-28 0 -52.5 -40t-72.5 -190t-121 -440q-39 -156 -64.5 -265.5t-41 -190t-21.5 -128.5t-2.5 -76.5t12.5 -38t27 -9.5q14 0 25.5 9t25.5 37.5t27.5 67t33.5 113.5t41 160.5t54 222.5q-49 0 -78 -2q3 17 12 49q1 6 3 16t3.5 17
t3.5 12h88z" />
    <glyph glyph-name="H" unicode="H" horiz-adv-x="417" 
d="M500 1536h100q-24 -90 -194 -768q-37 -151 -99 -401t-90 -367h-100q30 116 100.5 398t81.5 325h-66h-67q-108 -428 -178 -723h-101q66 246 193 768q22 86 57.5 226t54.5 215t41.5 168t36.5 159h101q-24 -93 -95 -374.5t-88 -346.5h66h68q105 410 178 721z" />
    <glyph glyph-name="I" unicode="I" horiz-adv-x="190" 
d="M-8 0h-105q39 142 195 768q165 659 188 768h105q-65 -238 -197 -768q-100 -398 -186 -768z" />
    <glyph glyph-name="J" unicode="J" horiz-adv-x="229" 
d="M311 1536h103q-33 -125 -135 -535q-37 -148 -209 -851q-24 -91 -54 -126.5t-86 -35.5q-52 0 -84 14q12 31 31 96q18 -12 43 -12q38 0 60 88q278 1111 331 1362z" />
    <glyph glyph-name="K" unicode="K" horiz-adv-x="391" 
d="M504 1536h106q-34 -78 -157.5 -373t-178.5 -420q-5 -112 -8 -161q-27 -546 -26 -582h-88q-10 0 -13.5 7.5t-3.5 29.5q40 513 49 665h-22q-29 -122 -91 -371t-81 -331h-101q43 168 193 768q172 686 190 768h101q-21 -80 -89.5 -352t-101.5 -400h23q36 97 92 228
q150 353 207 524z" />
    <glyph glyph-name="L" unicode="L" horiz-adv-x="272" 
d="M270 1536h105q-35 -125 -195 -762q-21 -85 -59.5 -241t-66.5 -271.5t-42 -169.5q76 0 119 2q-2 -5 -5 -21t-5 -22q-1 -6 -6 -24.5t-6 -26.5h-220q74 281 193 768q161 640 188 768z" />
    <glyph glyph-name="M" unicode="M" horiz-adv-x="536" 
d="M592 1536h129q-102 -402 -193 -766q-47 -187 -109.5 -443t-80.5 -327h-98q37 142 70.5 273t73.5 293t69 276q24 94 82 300.5t79 287.5h-10q-123 -405 -168 -533l-301 -897h-49l147 909q12 81 50 281.5t45 241.5h-9q-25 -103 -67.5 -299t-65.5 -287q-48 -190 -116 -468
t-93 -378h-88q64 256 193 770q131 525 190 766h134q-30 -195 -134 -840q-8 -47 -61 -293h8q18 59 49.5 160t40.5 131q231 679 283 842z" />
    <glyph glyph-name="N" unicode="N" horiz-adv-x="417" 
d="M520 1536h82q-185 -744 -190 -766q-30 -121 -98 -390.5t-95 -379.5h-104q17 121 116 926q26 192 91 510h-11q-80 -374 -141 -619q-50 -206 -119 -483.5t-82 -333.5h-82q65 257 193 768q152 604 190 768h127q-11 -55 -29.5 -196.5t-45.5 -358.5t-48 -367q-10 -76 -73 -411
h12q9 46 30 151.5t36.5 178.5t33.5 145q125 495 207 858z" />
    <glyph glyph-name="O" unicode="O" 
d="M412 786q-52 -209 -88.5 -340t-69.5 -228t-63 -144t-60 -67.5t-70 -20.5q-54 0 -78.5 31t-26 119.5t27.5 243.5t92 406q63 252 107.5 401.5t84 231t72 106.5t78.5 25q70 0 92 -51q39 -88 -31 -422q-25 -123 -67 -291zM72 78q24 0 48 47.5t68.5 199.5t118.5 453
q134 529 132 631q-4 47 -31 49q-25 0 -47.5 -41.5t-67.5 -190.5t-119 -448q-135 -538 -133 -647q2 -52 31 -53z" />
    <glyph glyph-name="P" unicode="P" horiz-adv-x="380" 
d="M352 985q30 119 46.5 203.5t22 133.5t0.5 77t-15 36.5t-27 8.5q-23 0 -37 -2q-46 -180 -122 -489t-99 -400q6 -2 26 -2q39 0 65 27.5t59 121t81 285.5zM270 1536h123q71 0 99 -42.5t18.5 -163.5t-66.5 -347q-56 -225 -100 -336t-88 -149.5t-113 -38.5q-9 0 -24 1t-21 1
q-96 -406 -108 -461h-103q108 409 195 768q108 431 188 768z" />
    <glyph glyph-name="Q" unicode="Q" horiz-adv-x="399" 
d="M168 788q-135 -537 -135 -647q4 -55 33 -57q27 0 52.5 48t70.5 199t122 457q36 145 60 248t39 179t21.5 122.5t5 73.5t-9 37t-21.5 10q-27 0 -53.5 -47.5t-71 -194.5t-113.5 -428zM123 86l-2 -8q10 1 55 6q12 2 35.5 4t34.5 4q-9 -27 -23 -92q-28 0 -82.5 -2t-85.5 -2
q-37 0 -60 15t-34.5 53.5t-10 96t16.5 150.5t40.5 209t66.5 279q82 327 135.5 484.5t98 212t108.5 54.5q35 0 56.5 -10.5t35.5 -41t14 -84t-12 -139.5t-38.5 -207.5t-68.5 -289.5q-42 -176 -65 -267t-61 -206t-70 -158q-32 -45 -84 -61z" />
    <glyph glyph-name="R" unicode="R" 
d="M375 1444h-31q-35 -141 -98 -393.5t-86 -343.5q6 -2 39 -2q92 0 182 364q25 99 38 167t15.5 109t-5 63t-20 29t-34.5 7zM270 1536h127q39 0 64 -9.5t43.5 -37.5t21.5 -77.5t-8 -130.5t-39 -194q-54 -219 -104.5 -315.5t-126.5 -116.5l-2 -6q36 -9 51 -36.5t14 -89.5
t-20 -179q-5 -38 -18 -121.5t-20 -136.5t-9 -86h-92q-18 0 -11 35q72 421 75 501q2 65 -24 74q-7 2 -18 2q-23 0 -39 -4q-94 -389 -143 -608h-105q15 60 81 318.5t112 449.5q47 189 110.5 447t79.5 321z" />
    <glyph glyph-name="S" unicode="S" horiz-adv-x="352" 
d="M51 545h58q-47 -169 -54 -199q-26 -105 -33.5 -165t-0.5 -81.5t28 -21.5q29 0 48 37t44 139q53 214 29 475q-10 101 -13.5 171.5t4 178t32.5 207.5q38 149 82.5 206.5t117.5 57.5q40 0 64.5 -16t37.5 -54.5t6.5 -111t-32.5 -178.5q-27 -108 -55 -203h-43h-52
q35 117 62 230q24 97 30 151t-1.5 72t-28.5 18q-29 0 -48 -39.5t-46 -148.5q-53 -201 -33 -453q1 -7 4 -49t3.5 -53.5t3 -51t2.5 -56.5t0.5 -54.5t-1 -59.5t-4 -57.5t-7 -63.5t-10.5 -62t-14 -66q-34 -139 -75.5 -198.5t-116.5 -59.5q-93 0 -111 94.5t27 255.5q22 95 55 209
h41z" />
    <glyph glyph-name="T" unicode="T" horiz-adv-x="307" 
d="M238 1536h286q-2 -15 -10 -45q-11 -44 -12 -47h-96q-318 -1278 -355 -1444h-51h-51q18 60 362 1444h-96q7 26 10 47q3 9 7.5 25t5.5 20z" />
    <glyph glyph-name="U" unicode="U" horiz-adv-x="411" 
d="M496 1536h100q-33 -120 -141 -557q-20 -80 -84.5 -342t-100.5 -404q-34 -133 -73 -190t-119 -57q-101 0 -131 70t4 198q27 113 62 249.5t72.5 278.5t51.5 197q26 110 70.5 292t64.5 265h103q-61 -223 -332 -1307q-20 -85 -11 -121t48 -36q32 0 52.5 34.5t39.5 114.5
q281 1131 324 1315z" />
    <glyph glyph-name="V" unicode="V" horiz-adv-x="376" 
d="M492 1536h100q-53 -165 -158 -498.5t-206.5 -659t-118.5 -378.5q-20 2 -74 2q-58 0 -76 -2q10 53 75 399t126.5 679.5t81.5 457.5h104q-93 -404 -229 -1124q-13 -68 -35 -177t-29 -147h8q31 121 93 322q278 904 338 1126z" />
    <glyph glyph-name="W" unicode="W" horiz-adv-x="559" 
d="M690 1536h84q-47 -152 -242 -796t-225 -740q-12 2 -55 2q-50 0 -66 -2q90 449 189 928q49 230 104 450h-12q-66 -251 -125 -452q-230 -732 -283 -926q-23 2 -59 2q-43 0 -57 -2q11 57 139.5 715.5t157.5 820.5h98q-66 -283 -223 -1061q-55 -241 -84 -364h12
q9 31 27 100.5t36.5 135.5t36.5 128q43 144 118.5 393t128 425t71.5 243h55h57q-29 -119 -223 -1061q-55 -260 -82 -371h11q9 31 27.5 99.5t37 136.5t37.5 135q43 149 114.5 393t123.5 422.5t71 245.5z" />
    <glyph glyph-name="X" unicode="X" horiz-adv-x="380" 
d="M489 1536h105q-116 -282 -303 -766q-34 -291 -76 -770h-109q6 43 24.5 176t33.5 232q21 134 53 319h-8q-13 -44 -30 -95t-40.5 -118.5t-36.5 -107.5q-21 -62 -69.5 -201t-69.5 -205h-106q32 83 135.5 354.5t161.5 421.5q54 421 88 760h102q-6 -41 -27.5 -194.5
t-35.5 -237.5q-9 -68 -52 -287h9q67 209 94 281q28 80 81.5 226.5t75.5 211.5z" />
    <glyph glyph-name="Y" unicode="Y" horiz-adv-x="362" 
d="M479 1536h96q-27 -76 -182 -504t-198 -549q-31 -128 -71 -288t-48 -195q-14 2 -49 2q-36 0 -50 -2q5 21 44.5 176.5t72.5 290.5q23 148 76 538.5t70 530.5h104q-25 -113 -133 -729q-14 -87 -41 -219h8q10 38 34.5 118t31.5 103q235 725 235 727z" />
    <glyph glyph-name="Z" unicode="Z" horiz-adv-x="325" 
d="M256 1536h274q0 -1 -4 -18t-8 -25q-7 -28 -10 -49q-19 -44 -75.5 -189t-153.5 -397.5t-125 -325.5q-23 -59 -85 -217t-89 -225q20 2 55 2h133q-1 -8 -5 -24t-5 -21q-1 -3 -5 -19.5t-8 -27.5h-278q1 8 5 24.5t5 22.5q9 27 12 45q18 39 83.5 209t152 396t133.5 345
q67 175 162 404q-13 0 -41.5 -1t-44.5 -1h-101q10 40 11 47q3 9 12 45z" />
    <glyph glyph-name="a" unicode="a" horiz-adv-x="393" 
d="M164 270l233 936q-21 21 -47 21q-29 0 -53 -36.5t-65 -165.5t-105 -386q-113 -454 -102 -530q6 -28 28 -29q63 0 111 190zM424 1309h98q-25 -83 -172 -672q-40 -158 -155 -637h-101q2 7 8.5 25t8.5 32l12 43h-8q-56 -114 -115 -114q-26 0 -41 11.5t-23 50t-1 109.5
t31.5 194t68.5 298q71 291 120.5 437.5t83.5 189.5t80 43q31 0 52.5 -19.5t31.5 -50.5h7q6 20 14 60z" />
    <glyph glyph-name="b" unicode="b" horiz-adv-x="395" 
d="M244 1038l-234 -936q22 -22 51 -22q27 0 50 35t64 167t106 394q110 436 104 515q-7 34 -31 36q-62 0 -110 -189zM283 1208h6q51 115 117 115q53 0 67 -47q27 -87 -56 -444q-17 -75 -40 -166q-75 -298 -127 -447.5t-85.5 -190t-80.5 -40.5q-60 0 -80 69h-6l-4 -14
q-1 -7 -10 -43h-97q29 102 197 774q114 466 199 811h98q-8 -33 -16.5 -66.5t-20.5 -79t-20 -77.5q-1 -2 -41 -154z" />
    <glyph glyph-name="c" unicode="c" horiz-adv-x="372" 
d="M270 514h45q-3 -15 -41 -172q-24 -97 -42.5 -155.5t-44 -108t-57 -71t-73.5 -21.5q-55 0 -81.5 23.5t-32 96t18 203t77.5 346.5q35 141 60 233t51.5 173.5t48 127t47.5 79t52.5 45.5t61.5 12q83 0 100 -79.5t-34 -291.5q-17 -74 -47 -176h-43h-47q11 40 28.5 105.5
t18.5 70.5q55 225 36 265q-8 16 -28 16q-25 0 -46.5 -36.5t-60 -164t-100.5 -381.5q-112 -451 -104 -535q10 -35 35 -38q27 0 52.5 57.5t61.5 202.5q17 69 41 174h47z" />
    <glyph glyph-name="d" unicode="d" horiz-adv-x="393" 
d="M164 270l233 938q-21 21 -51 21q-28 0 -51 -36.5t-63.5 -165t-104.5 -386.5q-32 -129 -53 -218.5t-33 -153t-16.5 -99.5t-1.5 -56t10.5 -26t21.5 -6q62 0 109 188zM492 1585h98q-68 -260 -266 -1048q-33 -134 -76.5 -317t-52.5 -220h-101q1 6 8 25t9 34q7 28 12 43h-8
q-53 -114 -113 -114q-28 0 -43 11.5t-23.5 49.5t-1 108.5t31.5 191t67 294.5q75 299 122.5 444.5t80.5 189.5t79 44q63 0 88 -72l9 2q18 72 26 111z" />
    <glyph glyph-name="e" unicode="e" horiz-adv-x="368" 
d="M322 934q29 114 38.5 182.5t4 93.5t-24.5 25q-24 0 -46.5 -39.5t-59 -155.5t-93.5 -340q41 -2 121 2q2 8 22.5 86t37.5 146zM246 461h41q-61 -267 -111 -371t-129 -104q-25 0 -42 5t-32.5 21t-21.5 44.5t-6 77t9.5 117.5t29.5 166.5t51 223.5q71 285 121 429.5
t93.5 198.5t102.5 54q83 0 96 -86.5t-40 -292.5q-14 -60 -48.5 -187t-40.5 -149q-35 2 -106 2h-94q-105 -427 -91 -502q6 -28 29 -28q29 0 60 81.5t82 299.5h47z" />
    <glyph glyph-name="f" unicode="f" horiz-adv-x="266" 
d="M231 1309l33 133q21 81 56.5 117t101.5 36q47 0 78 -10q-27 -85 -33 -98q-28 8 -41 8q-28 0 -44.5 -16t-25.5 -52l-28 -118h96q-3 -10 -11.5 -43t-13.5 -52q-15 0 -47 1.5t-49 1.5q-259 -1048 -297 -1217q-20 2 -51 2q-33 0 -51 -2q42 155 190 748q5 19 115 466h-51
q16 62 24 95h49z" />
    <glyph glyph-name="g" unicode="g" horiz-adv-x="389" 
d="M213 461l184 747q-21 21 -49 21t-50 -32t-58.5 -144.5t-92.5 -337.5q-87 -348 -79 -412q9 -29 32 -31q65 0 113 189zM426 1309h98q-31 -104 -190 -744q-35 -139 -82 -334t-57 -237q-30 -119 -77.5 -171t-121.5 -52q-169 0 -113 233q23 81 27 98h47h47q-6 -18 -14.5 -54.5
t-9.5 -39.5q-21 -85 -14 -118t42 -33q32 0 51 33.5t39 111.5q45 180 76 289l-10 2q-56 -115 -123 -115q-52 0 -65 50q-24 96 75 489q68 264 114.5 395.5t80.5 170t82 38.5q64 0 75 -70h9v2q3 9 7 28t7 28z" />
    <glyph glyph-name="h" unicode="h" 
d="M289 1219l6 -2q51 104 123 104q118 0 71 -186q-116 -457 -165 -656q-60 -237 -117 -479h-98q10 40 111.5 445t174.5 700q23 86 -30 86q-74 0 -111 -152q-171 -688 -268 -1079h-99q138 541 164 645q152 608 232 940h96q-9 -36 -25.5 -103.5t-25.5 -103.5
q-38 -157 -39 -159z" />
    <glyph glyph-name="i" unicode="i" horiz-adv-x="186" 
d="M371 1475q-7 -26 -26 -44t-48 -18q-36 0 -47.5 23t-3.5 59q6 28 25 44.5t46 16.5q71 0 54 -81zM-14 0h-97q71 277 170 680q105 419 156 629h98q-31 -114 -159 -631q-138 -554 -168 -678z" />
    <glyph glyph-name="j" unicode="j" horiz-adv-x="204" 
d="M-106 -72q308 1249 339 1381h97q-31 -118 -150 -592q-92 -375 -198 -803q-18 -76 -47 -109.5t-87 -33.5q-45 0 -69 16q10 20 33 92q13 -10 34 -10q33 0 48 59zM385 1475q-7 -26 -26 -44t-48 -18q-36 0 -47.5 23t-3.5 59q6 28 25 44.5t47 16.5q70 0 53 -81z" />
    <glyph glyph-name="k" unicode="k" horiz-adv-x="374" 
d="M440 1309h105q-38 -78 -151.5 -324t-160.5 -346q2 -113 -7.5 -355.5t-6.5 -283.5h-82q-10 0 -13 5.5t-3 21.5q3 98 11.5 309t10.5 262h-8q-104 -416 -147 -598h-101q70 261 211 842q143 563 185 743h102q-56 -206 -199 -782l-32 -131h8q47 116 114 268q132 292 164 369z
" />
    <glyph glyph-name="l" unicode="l" horiz-adv-x="186" 
d="M-14 0h-99q27 104 207 821q151 602 189 764h100q-71 -270 -195 -766q-54 -213 -202 -819z" />
    <glyph glyph-name="m" unicode="m" horiz-adv-x="606" 
d="M485 1208h9q56 113 137 113q48 0 67.5 -38.5t1.5 -106.5q-178 -705 -184 -730q-16 -64 -108 -446h-99q84 315 291 1149q19 82 -31 82q-32 0 -60 -41t-48 -123q-218 -864 -264 -1067h-101q108 403 291 1149q11 44 4 63t-33 19q-32 0 -61.5 -41t-48.5 -123
q-215 -858 -264 -1067h-97q20 80 73 288t91 357l164 664h94l-24 -90h6q54 102 125 102q77 0 69 -113z" />
    <glyph glyph-name="n" unicode="n" 
d="M287 1219l8 -2q51 104 123 104q118 0 71 -186q-116 -457 -165 -656q-60 -237 -117 -479h-98q10 40 111.5 445t174.5 700q23 86 -30 86q-74 0 -111 -152q-171 -688 -268 -1079h-99q138 541 164 645q158 640 164 664h96z" />
    <glyph glyph-name="o" unicode="o" horiz-adv-x="385" 
d="M266 662q115 461 103 543q-6 31 -31 32q-18 0 -32 -16.5t-36.5 -77.5t-53 -172.5t-79.5 -308.5q-119 -468 -104 -554q6 -34 33 -34q12 0 21.5 7t22 31.5t25 61.5t32.5 107t42.5 158t56.5 223zM369 674q-56 -224 -93 -351.5t-73.5 -206.5t-68.5 -104.5t-77 -25.5
q-53 0 -79 26.5t-31 102t18.5 209.5t77.5 350q71 289 118.5 427t85.5 181t97 43q42 0 65.5 -13t38.5 -51.5t10.5 -110t-26 -188.5t-63.5 -288z" />
    <glyph glyph-name="p" unicode="p" horiz-adv-x="393" 
d="M244 1038l-234 -936q19 -22 49 -22q27 0 50.5 36t66 167t105.5 385q112 451 101 529q-6 29 -30 30q-60 0 -108 -189zM285 1206h6q52 117 117 117q26 0 41 -11t23.5 -50t1.5 -109t-30.5 -192t-66.5 -295q-74 -293 -126.5 -443t-87 -192.5t-79.5 -42.5q-58 0 -82 69h-6
q-14 -65 -19 -84q-4 -17 -49 -192h-96q198 772 234 917q35 140 85 348t64 263h98q-14 -47 -18 -66q-2 -6 -5 -18.5t-5 -18.5z" />
    <glyph glyph-name="q" unicode="q" horiz-adv-x="393" 
d="M164 270l235 938q-25 21 -51 21q-27 0 -50.5 -36t-65 -167t-105.5 -385q-111 -448 -103 -526q6 -32 29 -33q64 0 111 188zM424 1309h98q-24 -80 -198 -772q-31 -124 -91.5 -373.5t-93.5 -382.5h-100q34 120 51 196q12 49 33 125h-8q-56 -114 -117 -114q-26 0 -40.5 11
t-22 49.5t-0.5 108.5t31 191.5t67 294.5q74 297 123 444t81.5 190.5t77.5 43.5q63 0 88 -70l9 2l2 11q2 7 5 22t5 23z" />
    <glyph glyph-name="r" unicode="r" horiz-adv-x="264" 
d="M252 1147h10q34 93 67 131.5t70 38.5q15 0 35 -8q-15 -34 -43 -123q-12 6 -29 6q-40 0 -70.5 -46.5t-58.5 -160.5q-210 -841 -241 -985h-105q23 83 48 181t63 252.5t63 252.5q145 585 154 623h86q-44 -142 -49 -162z" />
    <glyph glyph-name="s" unicode="s" horiz-adv-x="329" 
d="M16 430h47q-32 -110 -40 -145q-20 -82 -25 -128.5t4 -64.5t31 -18q29 0 51 40.5t47 137.5q23 109 21 187.5t-21 187.5q-14 80 -20 141.5t-0.5 152t28.5 179.5q31 116 71.5 170.5t108.5 54.5q53 0 80.5 -26t33 -91.5t-24.5 -177.5q-13 -54 -39 -141h-43h-47q13 44 43 158
q27 114 24.5 154t-35.5 40q-25 0 -42.5 -31t-37.5 -110q-30 -117 -33.5 -212.5t13.5 -172.5q16 -86 23.5 -148t5.5 -155t-23 -174q-34 -133 -76 -192.5t-116 -59.5q-84 0 -107 71.5t14 225.5q8 34 16 62t16 51t11 34h41z" />
    <glyph glyph-name="t" unicode="t" horiz-adv-x="274" 
d="M330 1501h49q-32 -118 -51 -194q17 0 52 1t54 1q-15 -49 -26 -95q-13 0 -48.5 1.5t-56.5 1.5q-42 -162 -134 -528t-134 -531q-8 -41 -0.5 -57.5t31.5 -16.5q26 0 53 18q-5 -77 -4 -94q-47 -18 -92 -18q-122 0 -80 172q53 213 268 1057h-45q21 87 22 90h45l50 192h47z" />
    <glyph glyph-name="u" unicode="u" 
d="M436 1309h96q-21 -80 -73 -288.5t-90 -356.5q-42 -166 -98.5 -397t-65.5 -267h-96q4 16 11.5 44.5t10.5 43.5h-6q-48 -98 -121 -98q-50 0 -73 47t-1 137q49 204 103.5 410.5t64.5 244.5q65 267 115 480h100l-284 -1125q-9 -37 -10 -58.5t7.5 -33.5t28.5 -12q74 0 113 149
q101 407 176.5 711.5t91.5 368.5z" />
    <glyph glyph-name="v" unicode="v" horiz-adv-x="352" 
d="M420 1309h98q-79 -231 -238.5 -713.5t-193.5 -595.5q-6 0 -26.5 2t-36.5 2q-42 0 -66 -4q12 72 55.5 331.5t96.5 569.5t69 408h103q-10 -45 -34 -172t-57.5 -304.5t-56.5 -295.5q-87 -418 -90 -431h12q46 176 123 429q40 132 91.5 296.5t97 308t53.5 169.5z" />
    <glyph glyph-name="w" unicode="w" horiz-adv-x="528" 
d="M608 1309h86q-63 -192 -209 -666.5t-196 -642.5h-56h-67q9 51 69.5 357.5t92.5 473.5q12 62 27.5 130t34 143t26.5 110h-8q-10 -34 -31 -111.5t-40.5 -145.5t-37.5 -126q-59 -197 -156 -506t-102 -325h-55h-58q2 8 112 586t136 723h92q-8 -34 -174 -830
q-54 -254 -88 -391h10q73 260 113 389q37 123 96.5 313.5t102.5 330t57 188.5h53h58q-12 -48 -39 -181.5t-67.5 -341.5t-61.5 -311q-44 -222 -84 -385h10q11 38 46 168t60 217q32 109 92 309.5t100.5 335.5t55.5 189z" />
    <glyph glyph-name="x" unicode="x" horiz-adv-x="358" 
d="M414 1309h104q-25 -62 -64.5 -160.5t-97 -244t-94.5 -238.5q-63 -612 -67 -666h-105q9 63 25.5 194.5t21.5 167.5q8 61 23 155.5t16 98.5h-8q-48 -151 -84 -254q-78 -215 -125 -362h-104q29 73 118 306t138 358q60 536 69 645h105q-10 -61 -31.5 -204t-30.5 -198
q-14 -97 -35 -209h9q32 101 71 207q119 324 146 404z" />
    <glyph glyph-name="y" unicode="y" horiz-adv-x="393" 
d="M436 1309h96q-88 -344 -141 -559q-63 -255 -186 -756q-30 -118 -78 -170.5t-121 -52.5q-93 0 -121 57.5t2 175.5q12 51 27 98h45h47l-24 -94q-20 -86 -12 -118.5t42 -32.5q32 0 55 35.5t42 109.5q47 188 73 283h-8q-53 -101 -129 -101q-112 0 -65 185q27 106 56.5 220.5
t48 186t34.5 139.5q73 300 94 394h100q-19 -75 -61.5 -240.5t-87 -340.5t-88.5 -353q-14 -55 -8 -77t38 -22q72 0 111 150q169 684 219 883z" />
    <glyph glyph-name="z" unicode="z" horiz-adv-x="319" 
d="M201 1309h266q-2 -6 -12 -45q-1 -3 -6.5 -22.5t-6.5 -27.5q-15 -32 -74.5 -179.5t-135 -336.5t-109.5 -272q-29 -71 -78 -188.5t-61 -147.5q25 2 67 2h111q-5 -11 -15 -47l-10 -45h-268q4 12 14 47q1 4 5.5 20t5.5 23q12 26 138 345.5t185 457.5q110 261 141 326
q-13 0 -38.5 -1t-40.5 -1q-51 0 -103 -3q3 8 17 50l4 20t4 25z" />
    <glyph glyph-name="uni00A0" unicode="&#xa0;" horiz-adv-x="159" 
 />
  </font>
</defs>
</svg>
