<?xml version="1.0" standalone="no"?>
<!DOCTYPE svg PUBLIC "-//W3C//DTD SVG 1.1//EN" "http://www.w3.org/Graphics/SVG/1.1/DTD/svg11.dtd" >
<svg xmlns="http://www.w3.org/2000/svg" xmlns:xlink="http://www.w3.org/1999/xlink" version="1.1">
<metadata>
Created by FontForge 20170731 at Tue Nov 10 11:53:44 2020
 By Aleksey,,,
(c) Copyright OH no Type Company, LLC. 2015. All rights reserved.
</metadata>
<defs>
<font id="ObviouslyDemo-CondSupr" horiz-adv-x="692" >
  <font-face 
    font-family="Obviously Demo Cond Supr"
    font-weight="390"
    font-stretch="condensed"
    units-per-em="2048"
    panose-1="4 13 10 10 5 4 3 4 3 6"
    ascent="1638"
    descent="-410"
    x-height="1352"
    cap-height="1536"
    bbox="-2 -236 942 1665"
    underline-thickness="102"
    underline-position="-307"
    unicode-range="U+0020-00A0"
  />
<missing-glyph horiz-adv-x="0" 
 />
    <glyph glyph-name=".notdef" horiz-adv-x="0" 
 />
    <glyph glyph-name=".null" horiz-adv-x="0" 
 />
    <glyph glyph-name="nonmarkingreturn" horiz-adv-x="682" 
 />
    <glyph glyph-name="space" unicode=" " horiz-adv-x="194" 
 />
    <glyph glyph-name="comma" unicode="," horiz-adv-x="303" 
d="M33 512q11 0 56 -1t75 -1q13 0 60 1t81 1q-73 -573 -80 -680q-115 15 -223 18q14 109 24.5 338.5t6.5 323.5z" />
    <glyph glyph-name="period" unicode="." horiz-adv-x="292" 
d="M145 530q73 0 106.5 -64.5t33.5 -207.5q0 -145 -33.5 -211.5t-106.5 -66.5q-74 0 -105.5 65.5t-31.5 212.5q0 144 31.5 208t105.5 64z" />
    <glyph glyph-name="zero" unicode="0" horiz-adv-x="655" 
d="M643 809q0 -329 -29.5 -505t-96 -248t-189.5 -72q-75 0 -126.5 24t-89.5 78.5t-59 152.5t-31 234.5t-10 335.5q0 185 12 314.5t35 213.5t63 131.5t88 65.5t118 18q87 0 142.5 -29.5t96.5 -110t58.5 -226.5t17.5 -377zM328 1090q-13 0 -19 -5.5t-11 -34t-6 -79.5t-1 -150
q0 -107 1 -163t6 -87.5t11 -38t19 -6.5q11 0 16.5 7t10 37.5t6 88t1.5 162.5q0 97 -1.5 149.5t-6 80t-10 33.5t-16.5 6z" />
    <glyph glyph-name="one" unicode="1" horiz-adv-x="409" 
d="M303 1536h82q0 -86 -2 -337t-2 -431q0 -176 2 -423.5t2 -344.5q-78 2 -180 2q-96 0 -168 -2v768q0 452 -12 616q118 73 192 152h86z" />
    <glyph glyph-name="two" unicode="2" horiz-adv-x="573" 
d="M287 471h41q67 0 221 14q-2 -80 -2 -235q0 -164 2 -250h-539q2 35 2 170q0 33 -1 98t-1 111q0 140 14 213.5t47.5 121.5t110.5 113q80 64 100.5 112t20.5 157q0 39 -5 53t-19 14q-33 0 -33 -92q0 -49 6 -137q-23 2 -107 2q-61 0 -127 -4q-8 104 -8 205q0 228 62 321.5
t217 93.5q156 0 214 -92.5t58 -337.5q0 -252 -35.5 -365t-138.5 -177q-52 -30 -74 -53.5t-26 -55.5z" />
    <glyph glyph-name="three" unicode="3" horiz-adv-x="604" 
d="M422 764v-8q42 -3 74 -19q53 -27 74.5 -101.5t21.5 -207.5q0 -249 -65 -346.5t-234 -97.5q-86 0 -140 19.5t-86 69t-44 121t-13 187.5q0 47 8 203q39 -2 134 -2h114q-8 -68 -8 -123q0 -84 31 -84q20 0 27.5 19.5t7.5 86.5q1 89 -18 115.5t-79 26.5q-31 0 -94 -5
q0 20 1 72t1 78t-1 68t-1 53h96q58 0 77.5 23.5t19.5 99.5q0 65 -4 97.5t-10.5 42t-20.5 9.5q-31 0 -31 -88q0 -19 2.5 -69t3.5 -74h-112q-97 0 -134 -2q-8 109 -8 215q0 228 64.5 318.5t228.5 90.5q162 0 222.5 -87.5t60.5 -319.5q0 -154 -19 -238t-73 -119
q-26 -17 -74 -24z" />
    <glyph glyph-name="four" unicode="4" horiz-adv-x="673" 
d="M350 1536h275q-1 -65 -5 -209.5t-6 -279t-2 -279.5v-145q38 0 54 2v-176v-205h-43q4 -84 8 -244h-355q1 40 2.5 126t2.5 124q-142 0 -271 -6q7 164 21 681t14 611h272q-26 -511 -32 -915h67q0 727 -2 915z" />
    <glyph glyph-name="five" unicode="5" horiz-adv-x="612" 
d="M262 1073v-112q61 83 160 83q100 0 139 -126.5t39 -407.5q0 -297 -64.5 -411.5t-234.5 -114.5q-167 0 -227 87t-60 310q0 35 9 219q33 -4 127 -4q81 0 116 2q-2 -35 -2 -90q0 -75 7 -104t24 -29q13 0 19.5 10t10 43.5t3.5 99.5q0 123 -6 165t-23 42q-23 0 -31 -98
q-57 19 -245 33q4 204 4 465q0 286 -4 401q88 -2 266 -2q197 0 295 2q-4 -106 -4 -242q0 -109 4 -211q-51 4 -289 4h-33v-14z" />
    <glyph glyph-name="six" unicode="6" horiz-adv-x="647" 
d="M328 375q14 0 20.5 13t10 54t3.5 123q0 66 -3.5 99.5t-10 44t-18.5 10.5q-21 0 -28 -29.5t-7 -124.5q0 -63 1.5 -100t5.5 -57.5t10 -26.5t16 -6zM291 848l10 -4q17 74 52 104.5t96 30.5q108 0 145 -85.5t37 -285.5q0 -251 -28.5 -384t-92.5 -186.5t-184 -53.5
q-68 0 -116 16.5t-83.5 58t-57.5 100t-35 155t-17.5 208.5t-4.5 275q0 160 5.5 271t20.5 198.5t37.5 140t60.5 86.5t85 46.5t115 12.5q162 0 225.5 -79.5t63.5 -268.5q0 -50 -4 -176q-31 2 -132 2q-93 0 -124 -2q2 20 2 64q0 112 -29 112q-22 0 -31 -39.5t-10 -158.5
q-4 -138 -6 -158z" />
    <glyph glyph-name="seven" unicode="7" horiz-adv-x="538" 
d="M12 1536h516q-6 -72 -6 -240q0 -69 4 -221q-83 -166 -94 -1075q-34 0 -100.5 1t-100.5 1q-33 0 -107.5 -1t-107.5 -1q14 217 57.5 507.5t94.5 530.5q-26 -1 -78.5 -2t-77.5 -2q4 164 4 252q0 86 -4 250z" />
    <glyph glyph-name="eight" unicode="8" horiz-adv-x="663" 
d="M332 920q19 0 26 33.5t7 109.5q0 80 -6.5 108.5t-26.5 28.5q-21 0 -28 -28.5t-7 -108.5q0 -77 7 -110t28 -33zM332 344q19 0 26 29.5t7 97.5q0 85 -6.5 114t-26.5 29q-21 0 -28 -29t-7 -114q0 -69 7 -98t28 -29zM487 766v-12q45 -9 74 -25q50 -30 69 -99.5t19 -201.5
q0 -239 -69 -341.5t-248 -102.5q-176 0 -246 102.5t-70 341.5q0 132 19 201.5t69 99.5q24 15 72 25v12q-49 13 -72 31q-50 38 -68 117.5t-18 230.5q0 218 68.5 312.5t245.5 94.5q178 0 246.5 -94t68.5 -313q0 -151 -18 -230.5t-68 -117.5q-21 -16 -74 -31z" />
    <glyph glyph-name="nine" unicode="9" horiz-adv-x="647" 
d="M317 838q21 0 28 29t7 124q0 116 -7 153.5t-26 37.5t-25.5 -37t-6.5 -154q0 -99 5.5 -126t24.5 -27zM358 655h-12q-36 -137 -139 -137q-113 0 -152 98.5t-39 333.5q0 182 15 296t53 183.5t96 96t150 26.5q64 0 110 -14.5t81 -52t56.5 -91.5t34.5 -142t18 -194.5t5 -258.5
q0 -176 -5.5 -296.5t-20 -215.5t-37 -150.5t-60 -91.5t-84.5 -48.5t-115 -12.5q-157 0 -219.5 92t-62.5 319q0 22 4 72q12 0 54.5 -1t64.5 -1q29 0 71 1t56 1v-41q0 -72 34 -72q22 0 28.5 37.5t8.5 161.5q0 47 6 102z" />
    <glyph glyph-name="A" unicode="A" horiz-adv-x="698" 
d="M301 639h37h31q-7 294 -17 465q-5 102 -8 207h-10q-10 -188 -12 -207q-17 -307 -21 -465zM698 0h-329q4 94 4 254h-37h-43v-254h-293q23 273 54 825t34 711h514q8 -195 40.5 -733.5t55.5 -802.5z" />
    <glyph glyph-name="B" unicode="B" horiz-adv-x="702" 
d="M326 891h14q20 1 31 15t17.5 56t6.5 119q0 96 -11.5 126t-37.5 30h-20v-346zM350 674h-24q0 -239 2 -350h20q27 0 37 33t10 137q0 110 -10 145t-35 35zM522 770v-12q52 -3 78 -19q92 -55 92 -333q0 -123 -10.5 -196.5t-42 -123t-85 -68t-142.5 -18.5h-387q4 219 4 768
q0 547 -4 768h376q73 0 122.5 -15t88.5 -55t57.5 -114t18.5 -187q0 -191 -17.5 -259.5t-70.5 -106.5q-27 -19 -78 -29z" />
    <glyph glyph-name="C" unicode="C" horiz-adv-x="679" 
d="M508 764h149q5 -185 5 -307q0 -183 -33 -286t-101 -145t-186 -42q-131 0 -199 67.5t-98.5 243t-30.5 514.5q0 160 7.5 275t25 198.5t41.5 135.5t63.5 82t84.5 41t110 11q86 0 140.5 -16.5t97.5 -64t61.5 -136.5t18.5 -229q0 -154 -7 -287q-51 2 -149 2q-92 0 -137 -2
q6 156 6 238q0 67 -7 94t-22 27q-11 0 -16 -8.5t-9.5 -45.5t-6 -110.5t-1.5 -204.5q0 -137 1.5 -213.5t6 -115.5t10.5 -48.5t17 -9.5q27 0 27 135q0 96 -6 207h137z" />
    <glyph glyph-name="D" unicode="D" horiz-adv-x="716" 
d="M332 424h16q15 0 22.5 9.5t14 47t8.5 111.5t2 203q0 174 -5.5 256t-14 100t-27.5 18h-14q-4 -250 -4 -403q0 -250 2 -342zM25 1536h356q59 0 101 -9.5t81 -36t64 -75t44 -124.5t27.5 -185.5t8.5 -257.5q0 -183 -7.5 -315.5t-25.5 -227.5t-42 -154t-63.5 -93t-84.5 -46
t-109 -12h-350q6 328 6 766q0 444 -6 770z" />
    <glyph glyph-name="E" unicode="E" horiz-adv-x="567" 
d="M25 1536h522q-2 -59 -2 -231q0 -187 2 -248q-148 4 -225 4v-62q117 0 217 7q-5 -247 -2 -416q-57 4 -215 4v-59q77 0 225 4q0 -31 -1 -123t-1 -142t1 -145t1 -129h-522q4 442 4 768t-4 768z" />
    <glyph glyph-name="F" unicode="F" horiz-adv-x="546" 
d="M27 1536h505q-4 -176 -4 -338v-305q-136 4 -204 4v-10v-64q77 2 198 11q-2 -133 -2 -558q-69 5 -182 9q1 -44 4 -139t4 -146h-319q4 434 4 768t-4 768z" />
    <glyph glyph-name="G" unicode="G" horiz-adv-x="696" 
d="M362 870h130q122 0 188 2q4 -153 0 -274.5t-9.5 -214t-22 -161t-39 -114t-59.5 -73.5t-84 -39.5t-112 -11.5q-85 0 -140 20.5t-96.5 70t-63.5 144t-32 229.5t-10 340q0 198 11 328.5t33 219t64.5 134.5t97 64t138.5 18q78 0 128.5 -11t91 -39.5t62.5 -81.5t33 -133.5
t11 -199.5q0 -69 -6 -155q-39 2 -150 2q-108 0 -149 -2q6 73 6 127q0 74 -5.5 97.5t-23.5 23.5q-27 0 -35 -73.5t-8 -318.5q0 -170 6 -254.5t16.5 -109.5t31.5 -25q23 0 33.5 25.5t13.5 95.5q-36 0 -50 -2q0 22 1.5 96.5t1.5 100.5q0 97 -3 155z" />
    <glyph glyph-name="H" unicode="H" horiz-adv-x="718" 
d="M383 1536h309q-4 -442 -4 -768t4 -768h-309q4 312 4 557h-29h-28q0 -245 4 -557h-307q2 221 2 768t-2 768h307q-4 -312 -4 -561h28h29q0 249 -4 561z" />
    <glyph glyph-name="I" unicode="I" horiz-adv-x="374" 
d="M350 0h-323v768v768h323q-4 -438 -4 -768q0 -326 4 -768z" />
    <glyph glyph-name="J" unicode="J" horiz-adv-x="450" 
d="M90 1536h334q-4 -450 -4 -573q0 -19 1 -221.5t1 -387.5q0 -76 -5.5 -130t-20 -101t-39.5 -75t-66 -44t-98 -16q-81 0 -189 22q2 54 3.5 251.5t0.5 248.5q30 -10 47 -10q27 0 40.5 18t13.5 66q0 745 -19 952z" />
    <glyph glyph-name="K" unicode="K" horiz-adv-x="722" 
d="M530 748v-13q47 -1 78 -16t47.5 -45.5t24 -64.5t10.5 -85q22 -471 29 -524h-273q-27 0 -38 11.5t-11 41.5q-8 371 -18 468q-8 76 -21 118h-22q0 -127 1 -340t1 -299h-311q0 97 1 344t1 424q0 176 -1 423.5t-1 344.5h311q0 -88 -1 -304t-1 -335h14v-16q23 102 31 174
q24 281 33 481h309q-12 -64 -20.5 -179t-17 -210t-24 -189.5t-48.5 -150.5t-83 -59z" />
    <glyph glyph-name="L" unicode="L" horiz-adv-x="448" 
d="M25 1536h337q-4 -106 -8 -756q0 -188 2 -286q13 0 41.5 1t44.5 1q-2 -59 -2 -228q0 -196 2 -268h-417q0 33 2 305.5t2 462.5q0 621 -4 768z" />
    <glyph glyph-name="M" unicode="M" horiz-adv-x="911" 
d="M516 1536h369q-4 -402 -4 -766q0 -549 4 -770h-305q1 56 4.5 178.5t3.5 204.5q0 92 12 338l-14 2q-22 -240 -35 -336l-49 -387h-125l-53 385q-18 128 -37 338l-15 -2q14 -285 13 -340q0 -80 4.5 -199.5t5.5 -181.5h-268q0 97 1 345.5t1 424.5q0 185 -1 433.5t-1 332.5
h401q5 -55 9 -114.5t7.5 -132t6.5 -115.5q1 -25 4 -93t6 -130.5t6 -112.5h12q12 226 17 338q9 179 20 360z" />
    <glyph glyph-name="N" unicode="N" horiz-adv-x="733" 
d="M449 1536h260q0 -13 -1.5 -138.5t-3.5 -304.5t-2 -323q0 -529 5 -770h-322q-26 193 -43 293q-29 178 -55 397h-13q13 -257 13 -414q0 -206 4 -276h-264v768v768h342q12 -135 49 -432q27 -167 43 -338l10 2q-14 233 -14 342q-4 274 -8 426z" />
    <glyph glyph-name="O" unicode="O" horiz-adv-x="696" 
d="M684 809q0 -329 -31.5 -505t-102 -248t-202.5 -72q-80 0 -135 24t-95.5 78.5t-62.5 152.5t-32.5 234.5t-10.5 335.5q0 185 13 314.5t37 213.5t66 131.5t93 65.5t125 18q94 0 153.5 -29.5t103.5 -110t62.5 -226.5t18.5 -377zM346 422q12 0 18 9t10.5 51t5.5 118t1 221
q0 127 -1 193.5t-5.5 103.5t-10.5 45t-18 8q-11 0 -16.5 -8t-10 -44.5t-5.5 -103.5t-1 -194q0 -145 1 -221.5t5.5 -118t10 -50.5t16.5 -9z" />
    <glyph glyph-name="P" unicode="P" horiz-adv-x="679" 
d="M315 633h13q37 0 46 46t9 218q0 131 -6 194.5t-16.5 80t-32.5 16.5h-15q0 -379 2 -555zM25 1536h337q64 0 107 -8.5t80 -32.5t58 -64t36.5 -108t21 -158.5t5.5 -220.5q0 -147 -4 -242t-17 -174t-33 -121.5t-57 -71.5t-83.5 -38.5t-117.5 -9.5h-36q6 -177 12 -287h-309
q2 221 2 768t-2 768z" />
    <glyph glyph-name="Q" unicode="Q" horiz-adv-x="696" 
d="M346 422q12 0 18 9.5t11 50t6.5 118.5t1.5 221q0 125 -1.5 193.5t-6.5 104t-11 44t-18 8.5q-11 0 -17 -8.5t-10.5 -44t-6 -104.5t-1.5 -193q0 -142 1.5 -220.5t6 -119t10.5 -50t17 -9.5zM483 356v-8q73 10 123 23q48 13 80 30v-401q-51 0 -148.5 -3t-185.5 -3
q-86 0 -145 30t-97.5 87.5t-60 160.5t-29.5 227.5t-8 309.5t13 314.5t37 214t66.5 131.5t93.5 65t126 18q92 0 151 -29.5t103 -110t63 -227t19 -376.5q-4 -293 -80 -381q-39 -51 -121 -72z" />
    <glyph glyph-name="R" unicode="R" horiz-adv-x="702" 
d="M317 793h15q26 0 37 14t15.5 54t4.5 132q0 83 -5 123.5t-14.5 53t-29.5 12.5h-25q0 -262 2 -389zM508 608v-12q87 -14 125 -68t47 -184q2 -40 8.5 -168.5t9.5 -175.5h-264q-25 0 -34 12t-9 43q-2 157 -4.5 241t-9.5 130t-16 56t-27 10h-15q3 -277 13 -492h-305
q2 221 2 768t-2 768h352q60 0 101.5 -6.5t78 -24.5t59 -49t38.5 -82t23 -121t7 -168q0 -176 -17.5 -274.5t-54.5 -144t-106 -58.5z" />
    <glyph glyph-name="S" unicode="S" horiz-adv-x="624" 
d="M459 977h-92q2 29 2 147q0 78 -31 78q-29 0 -29 -69q0 -88 19 -135t82 -99q77 -55 118.5 -111.5t63.5 -150.5t22 -242q0 -221 -70 -317t-233 -96q-88 0 -145.5 19.5t-90.5 64.5t-46 107.5t-13 158.5q0 135 7 235q117 -6 145 -6q68 0 86 2q-2 -27 -2 -137q0 -45 5.5 -64.5
t21.5 -19.5q17 0 22.5 18.5t5.5 63.5q0 96 -18 136t-82 81q-117 70 -157 176.5t-40 327.5q0 223 71 316t236 93q88 0 143.5 -19.5t88 -65.5t45 -111.5t12.5 -167.5q0 -135 -4 -217q-37 4 -143 4z" />
    <glyph glyph-name="T" unicode="T" horiz-adv-x="520" 
d="M10 1536h502q-2 -61 -2 -244q0 -186 2 -254h-82q0 -279 1 -655t1 -383q-86 4 -170 4q-80 0 -174 -4q6 156 6 1038h-84q2 68 2 254q0 183 -2 244z" />
    <glyph glyph-name="U" unicode="U" horiz-adv-x="712" 
d="M389 1536h301q-2 -162 -2 -563v-561q0 -98 -9 -165.5t-31 -120.5t-60 -83.5t-94 -45.5t-136 -15q-101 0 -165 22.5t-102 76t-52 131t-14 200.5q0 100 1 298t1 263q0 239 -4 563h317q-4 -664 -4 -1028q0 -55 29 -55q15 0 21.5 12.5t6.5 42.5q0 130 -2 492.5t-2 535.5z" />
    <glyph glyph-name="V" unicode="V" horiz-adv-x="669" 
d="M375 1536h295q-19 -226 -55 -854.5t-40 -681.5q-21 0 -101.5 1t-135.5 1q-79 0 -159.5 -1t-84.5 -1q-8 191 -40 732t-54 804h311q0 -545 11 -846q3 -112 10 -260h14l10 258q11 238 16.5 494t2.5 354z" />
    <glyph glyph-name="W" unicode="W" horiz-adv-x="942" 
d="M731 1536h211q-26 -351 -94 -1536q-16 0 -72.5 2t-95.5 2q-132 0 -178 -4q-8 90 -15 455q-3 132 -8 530h-10q-10 -405 -16 -532q-19 -394 -25 -453q-15 0 -71.5 2t-94.5 2q-120 0 -166 -4q-11 209 -43.5 742t-52.5 794h305q0 -525 6 -682q4 -109 13 -373h10l6 375
q33 593 31 680q39 -2 147 -2q113 0 152 2q-5 -197 10 -678q3 -84 8 -377h12q2 50 5.5 183t5.5 192q20 423 20 680z" />
    <glyph glyph-name="X" unicode="X" horiz-adv-x="704" 
d="M410 1536h295q-17 -91 -33 -209t-37.5 -299.5t-32.5 -265.5q10 -76 26 -206.5t26 -209t24 -176t27 -170.5h-330q-1 44 -8 139t-9 140q-11 128 -18 358h-6q-4 -65 -12 -188.5t-11 -172.5q-13 -215 -16 -276h-295q20 119 55 403.5t47 374.5q-9 66 -45.5 352.5t-56.5 405.5
h328q6 -142 18 -305q9 -128 19 -346h4q5 71 13.5 192.5t10.5 153.5q10 142 17 305z" />
    <glyph glyph-name="Y" unicode="Y" horiz-adv-x="657" 
d="M385 1536h277q-72 -616 -123 -1008q0 -406 4 -528q-59 2 -211 2q-150 0 -213 -2q3 76 6 514q-73 540 -127 1022h319q-2 -97 13 -604q3 -113 10 -250h14q1 59 13 250q18 393 18 604z" />
    <glyph glyph-name="Z" unicode="Z" horiz-adv-x="595" 
d="M27 1536h538q-1 -36 -1 -75t0.5 -84.5t0.5 -69.5v-256q-22 -41 -69.5 -222.5t-67.5 -236.5q-15 -38 -49 -117q74 4 100 4q67 0 94 2q-4 -78 -4 -237q0 -150 2 -244h-544q4 160 4 248q0 170 -2 227q15 25 65.5 201.5t77.5 234.5q37 104 53 144q-35 -4 -102 -4
q-65 0 -98 -2q4 168 4 247q0 158 -2 240z" />
    <glyph glyph-name="a" unicode="a" horiz-adv-x="647" 
d="M307 338q11 0 17 7t10.5 34t6 78.5t1.5 144.5q-6 2 -14 2q-32 0 -43 -22.5t-11 -102.5q0 -90 6.5 -115.5t26.5 -25.5zM344 782v121q0 65 -5.5 90t-27.5 25q-23 0 -30.5 -43t-1.5 -150q-15 2 -123 2q-104 0 -133 -2q-11 306 54.5 424.5t252.5 118.5q159 0 226 -72.5
t67 -240.5q0 -131 -1 -327t-1 -298q0 -374 20 -430h-227q-39 0 -51.5 13.5t-12.5 52.5q0 16 1 40t2.5 55.5t2.5 49.5h-8q-22 -219 -170 -219q-44 0 -71.5 14.5t-50.5 57.5t-33.5 129t-10.5 221q0 153 27 236.5t78 114t143 30.5q43 0 84 -13z" />
    <glyph glyph-name="b" unicode="b" 
d="M324 414h10q17 0 26 8.5t15.5 39t9 85.5t2.5 151q0 101 -1.5 158.5t-6 88.5t-10 39.5t-15.5 8.5q-11 0 -17.5 -12.5t-10.5 -54.5t-4 -119zM322 1192l8 -2q45 174 172 174q38 0 62.5 -11.5t48.5 -50.5t37.5 -112t21.5 -197t8 -303q0 -273 -19 -425.5t-58 -214.5t-109 -62
q-135 0 -164 223h-11q3 -43 3 -82q0 -47 4 -129h-299q4 472 4 813q0 330 -4 772h299v-207z" />
    <glyph glyph-name="c" unicode="c" horiz-adv-x="626" 
d="M608 672q4 -55 4 -156q0 -206 -32.5 -323t-95 -163t-169.5 -46q-119 0 -181.5 59.5t-91 214.5t-28.5 453q0 169 10.5 283t31.5 189t59.5 115t86 55t120.5 15q69 0 114.5 -11.5t81.5 -40.5t56 -83t30 -134.5t10 -199.5q0 -46 -4 -178q-25 2 -139 2q-98 0 -121 -2
q2 94 2 211q0 106 -24 106q-11 0 -16 -8t-9.5 -41t-6 -98t-1.5 -180q0 -119 1.5 -185t6 -101t10.5 -43.5t17 -8.5q26 0 26 129q0 58 -4 168q35 -2 115 -2q47 0 141 4z" />
    <glyph glyph-name="d" unicode="d" 
d="M369 549v442q-4 2 -13 2q-18 0 -27 -18t-14.5 -85t-5.5 -202q0 -172 6.5 -227t26.5 -55q27 0 27 143zM367 1585h299q-2 -97 -2 -211t1 -280t1 -281v-813h-299q2 41 2 129q0 49 2 76h-11q-33 -217 -161 -217q-70 0 -110 62.5t-58.5 212.5t-18.5 419q0 171 10 295.5
t25.5 198t41 116.5t51 57.5t59.5 14.5q119 0 161 -174h11q-4 126 -4 188v207z" />
    <glyph glyph-name="e" unicode="e" horiz-adv-x="618" 
d="M330 1044q-14 0 -21 -16.5t-12 -78t-6 -183.5h67q2 59 2 127q0 63 -3.5 96.5t-9.5 44t-17 10.5zM356 590h-67v-31q0 -74 0.5 -111t4 -61t8 -29.5t13.5 -5.5q10 0 15.5 6t9.5 26t5 54.5t1 96.5q78 -5 113 -5q37 0 135 5q11 -294 -50.5 -422.5t-230.5 -128.5
q-69 0 -117 18.5t-85 61.5t-58 118t-31 183.5t-10 263.5q0 158 7 272t23.5 197t39.5 135t60 82.5t80 41.5t104 11q85 0 138.5 -22.5t85 -78.5t43 -137t11.5 -210q0 -173 -6 -332q-113 2 -242 2z" />
    <glyph glyph-name="f" unicode="f" horiz-adv-x="468" 
d="M10 979l43 2q-4 192 -4 266q0 189 53 270.5t193 81.5q76 0 166 -20q-6 -92 -9 -269.5t-1 -250.5q-34 6 -56 6q-31 0 -41 -12t-10 -47v-11q18 1 51.5 4.5t50.5 4.5q0 -338 5 -584q-17 1 -52 2t-53 2q0 -212 6 -424q-59 2 -153 2q-95 0 -152 -2q4 132 8 422l-45 -2
q3 281 0 559z" />
    <glyph glyph-name="g" unicode="g" horiz-adv-x="673" 
d="M342 33q55 0 84.5 4t39 11.5t9.5 19.5q0 16 -13.5 23t-53.5 7q-35 0 -70.5 -1.5t-72 -3.5t-52.5 -3q-2 -6 -2 -16q0 -25 26.5 -33t104.5 -8zM330 1032q-24 0 -33.5 -33t-9.5 -104q0 -72 9 -105.5t34 -33.5q24 0 32.5 33.5t8.5 105.5q0 137 -41 137zM547 1014v-15
q58 -37 81 -90.5t23 -142.5q0 -158 -71 -227.5t-254 -69.5q-56 0 -99 6q-2 -6 -2 -16q0 -35 70 -35q40 0 100.5 7t83.5 7q69 0 107 -22t60 -90.5t22 -196.5q0 -104 -14.5 -170t-53 -110t-102.5 -62t-166 -18q-135 0 -206.5 18.5t-95.5 52t-24 94.5q0 64 27 100.5t88 53.5v10
q-59 16 -82 62.5t-23 124.5q0 150 127 207v8q-74 36 -104.5 133.5t-30.5 292.5q0 170 34.5 262.5t107.5 130t204 37.5q7 0 59.5 -1t123.5 -2t122 -1q-3 -182 0 -363q-60 18 -112 25z" />
    <glyph glyph-name="h" unicode="h" horiz-adv-x="700" 
d="M676 0h-297q2 231 2 889q0 26 -5 36.5t-18 10.5q-19 0 -26.5 -20.5t-7.5 -79.5q0 -674 4 -836h-301v696v889h299v-285q0 -98 -2 -151h14q24 112 68.5 163.5t113.5 51.5q74 0 114 -48t40 -165v-739q0 -285 2 -412z" />
    <glyph glyph-name="i" unicode="i" horiz-adv-x="352" 
d="M346 1536q0 -28 -6.5 -50t-23.5 -43t-52 -32.5t-86 -11.5q-174 0 -174 137q0 64 38 96.5t136 32.5q94 0 131 -33t37 -96zM326 0h-299q4 193 4 694q0 264 -4 658h299q-4 -182 -4 -660q0 -491 4 -692z" />
    <glyph glyph-name="j" unicode="j" horiz-adv-x="366" 
d="M59 389q0 728 -14 963h297q-2 -252 -2 -516q0 -22 2 -263.5t2 -463.5q0 -90 -9.5 -148.5t-35.5 -105t-75.5 -67.5t-127.5 -21q-50 0 -92 10q0 35 2 278t2 287q8 -2 25 -2q26 0 26 49zM367 1536q0 -137 -170 -137q-174 0 -174 137q0 64 37.5 96.5t136.5 32.5
q95 0 132.5 -32.5t37.5 -96.5z" />
    <glyph glyph-name="k" unicode="k" horiz-adv-x="679" 
d="M500 709v-4q34 -7 58.5 -24.5t40.5 -41t26.5 -61.5t16 -77.5t9.5 -98.5t7 -114.5t8.5 -135.5t13.5 -152h-252q-26 0 -36 13.5t-13 49.5q-30 418 -49 508h-11q0 -353 5 -571h-299v944v641h299q-5 -286 -5 -797h5q30 179 34 226q23 186 27 338h295q-5 -42 -10 -108.5
t-9 -117.5t-11 -113.5t-18.5 -109t-28 -89t-43 -69.5t-60.5 -36z" />
    <glyph glyph-name="l" unicode="l" horiz-adv-x="352" 
d="M326 0h-299q4 262 4 827q0 368 -4 758h299q-2 -223 -2 -782q0 -574 2 -803z" />
    <glyph glyph-name="m" unicode="m" horiz-adv-x="929" 
d="M905 0h-264q6 190 6 877q0 57 -26 57q-31 0 -31 -94q0 -591 6 -840h-258q4 169 4 877q0 57 -25 57q-9 0 -15 -6t-10.5 -27.5t-4.5 -60.5q0 -666 4 -840h-264v688v664h264l-2 -205h8q21 121 57.5 169t98.5 48q64 0 95.5 -52t39.5 -169l10 -2q22 123 65 173t105 50
q77 0 106 -52t29 -167q0 -176 -1 -401.5t-1 -325.5q0 -289 4 -418z" />
    <glyph glyph-name="n" unicode="n" horiz-adv-x="700" 
d="M324 1149l12 -2q26 113 71 165t113 52q74 0 114 -47.5t40 -163.5v-735v-418h-295q2 231 2 889q0 47 -23 47q-19 0 -26.5 -20.5t-7.5 -79.5q0 -674 4 -836h-301v688v664h297v-203z" />
    <glyph glyph-name="o" unicode="o" horiz-adv-x="677" 
d="M371 711q0 114 -1 174t-5.5 92.5t-10 39.5t-16.5 7q-10 0 -15 -7.5t-9 -38.5t-5.5 -93.5t-1.5 -173.5q0 -115 1.5 -180t5.5 -98t9 -41.5t15 -8.5q11 0 16.5 8t10 42.5t5.5 97t1 180.5zM666 711q0 -181 -10 -302.5t-31.5 -207.5t-61 -132t-92.5 -65.5t-133 -19.5
t-132.5 19.5t-92 65.5t-60.5 132t-31 207t-10 303q0 169 11.5 283.5t33.5 189t63 114.5t91 55t127 15t127 -15t91.5 -55t64 -114.5t34 -189t11.5 -283.5z" />
    <glyph glyph-name="p" unicode="p" 
d="M324 408h12q22 0 33 20t16.5 85.5t5.5 197.5q0 106 -4.5 162t-11 70.5t-17.5 14.5q-20 0 -27 -35t-7 -116v-399zM324 1161l18 -2q34 205 158 205q69 0 107 -56.5t56.5 -206t18.5 -429.5q0 -164 -10 -286.5t-26.5 -198t-42.5 -121.5t-54 -63t-64 -17q-69 0 -102 49
t-51 170h-10q2 -72 2 -209q0 -149 2 -219h-299q2 217 2 770v805h297q0 -26 -1 -77t-1 -79v-35z" />
    <glyph glyph-name="q" unicode="q" 
d="M367 545v440q-4 2 -13 2q-18 0 -27 -18t-14.5 -83.5t-5.5 -197.5q0 -176 6.5 -230.5t26.5 -54.5q27 0 27 142zM367 1352h299v-590v-985h-299q2 104 2 327q0 51 2 76h-13q-35 -192 -159 -192q-68 0 -108 62.5t-59.5 213.5t-19.5 416q0 210 12.5 348.5t38.5 210t57.5 98.5
t78.5 27q116 0 159 -172h11q-2 23 -2 72v88z" />
    <glyph glyph-name="r" unicode="r" horiz-adv-x="440" 
d="M225 1040h11q19 171 60.5 244.5t104.5 73.5q11 0 35 -4q-12 -446 -12 -652q-22 11 -45 11q-26 0 -36.5 -18t-10.5 -60q0 -319 18 -635h-325q4 186 4 686q0 476 -4 666h206q-6 -163 -6 -312z" />
    <glyph glyph-name="s" unicode="s" horiz-adv-x="585" 
d="M141 461h88q-4 -70 -4 -92q0 -72 29 -72q17 0 24 13.5t7 54.5q0 64 -23.5 99t-83.5 79q-97 65 -132.5 162.5t-35.5 283.5q0 94 11 160t31.5 109t56.5 67t79.5 33.5t106.5 9.5q160 0 217 -63t57 -230q0 -116 -2 -184q-70 4 -131 4h-82v104q0 66 -26 66q-17 0 -24 -14
t-7 -47q0 -59 16 -92t66 -74q117 -103 156.5 -191.5t39.5 -265.5q0 -121 -16 -198.5t-53 -121.5t-87.5 -60.5t-129.5 -16.5q-82 0 -135.5 18.5t-84 59.5t-42 96.5t-11.5 138.5q0 23 1 79.5t1 88.5q66 -4 123 -4z" />
    <glyph glyph-name="t" unicode="t" horiz-adv-x="491" 
d="M317 739v-6q0 -37 12.5 -52t41.5 -15q62 0 92 12q0 -123 4.5 -347t11.5 -315q-75 -32 -166 -32q-154 0 -213 90t-59 295q0 41 4 381l-37 2q0 502 -2 600h43v184q45 -2 139 -2q24 0 74 1t76 1q-8 -100 -10 -186l141 2q-8 -287 -8 -619q-37 2 -144 6z" />
    <glyph glyph-name="u" unicode="u" horiz-adv-x="700" 
d="M377 1352h299q-2 -199 -2 -688q0 -474 2 -664h-293q-2 75 2 215h-12q-46 -227 -195 -227q-153 0 -153 227q0 185 2 406.5t2 312.5q0 289 -2 418h297q-2 -231 -2 -889q0 -26 4.5 -36.5t17.5 -10.5q35 0 35 84q0 698 -2 852z" />
    <glyph glyph-name="v" unicode="v" horiz-adv-x="655" 
d="M371 1352h284q-80 -892 -114 -1352q-13 0 -83 1t-130 1q-182 0 -213 -2q-12 199 -115 1352h311q-7 -126 4 -596q7 -212 15 -359h12q5 129 12 359q17 548 17 596z" />
    <glyph glyph-name="w" unicode="w" horiz-adv-x="911" 
d="M692 1352h219q-13 -151 -29.5 -451t-30.5 -577.5t-17 -323.5q-45 2 -179 2q-58 0 -117 -1t-61 -1q-1 44 -8 240.5t-10 328.5q-4 222 -4 312h-13q-5 -209 -10 -312q-6 -144 -15.5 -341t-10.5 -228q-14 0 -66.5 1t-87.5 1q-55 0 -110.5 -1t-61.5 -1q-1 8 -31 576.5
t-49 775.5h272q-2 -128 -2 -166.5t4 -267t5 -297.5l4 -199h12q2 70 10 201q31 556 31 729q25 0 78 -1t69 -1q95 0 146 2q0 -265 16 -731q4 -136 4 -197h13q1 14 6.5 86t7.5 113q21 436 16 729z" />
    <glyph glyph-name="x" unicode="x" horiz-adv-x="686" 
d="M395 1352h291q-22 -151 -94 -684q17 -118 48.5 -344.5t45.5 -323.5h-324q-2 63 -8.5 153t-9.5 140q-1 45 -4 120t-4 97h-12q-12 -201 -13 -217q-19 -273 -20 -293h-291q28 156 104 684q-79 528 -104 668h324q1 -66 22 -371l6 -162h13q2 27 5 82.5t5 81.5q18 276 20 369z
" />
    <glyph glyph-name="y" unicode="y" horiz-adv-x="651" 
d="M375 1352h280q-12 -124 -48.5 -592.5t-47.5 -585.5q-21 -218 -100.5 -314t-261.5 -96q-117 0 -197 21q7 33 10.5 200t3.5 269q164 -27 238 -27q38 0 53.5 13t18.5 43v2q-160 0 -238 -4q-3 28 -36.5 469t-49.5 602h309q-5 -141 8 -471q1 -48 4.5 -133.5t4.5 -120.5h16
q11 209 14 254q19 325 19 471z" />
    <glyph glyph-name="z" unicode="z" horiz-adv-x="540" 
d="M27 1352h487q-2 -90 -2 -258q0 -197 2 -283q-32 -49 -113 -207q-7 -16 -34 -69q46 4 59 4q70 0 88 2q0 -45 -1 -139t-1 -130q0 -39 1 -126.5t1 -145.5h-487q4 152 4 279q0 104 -4 256q17 26 57.5 110.5t62.5 126.5q7 17 21 41q-14 -2 -45 -2q-63 0 -96 -2q2 84 2 244
q0 193 -2 299z" />
    <glyph glyph-name="uni00A0" unicode="&#xa0;" horiz-adv-x="194" 
 />
  </font>
</defs>
</svg>
