<?xml version="1.0" standalone="no"?>
<!DOCTYPE svg PUBLIC "-//W3C//DTD SVG 1.1//EN" "http://www.w3.org/Graphics/SVG/1.1/DTD/svg11.dtd" >
<svg xmlns="http://www.w3.org/2000/svg" xmlns:xlink="http://www.w3.org/1999/xlink" version="1.1">
<metadata>
Created by FontForge 20170731 at Tue Nov 10 11:53:44 2020
 By Aleksey,,,
(c) Copyright OH no Type Company, LLC. 2015. All rights reserved.
</metadata>
<defs>
<font id="ObviouslyDemo-CondLght" horiz-adv-x="608" >
  <font-face 
    font-family="Obviously Demo Cond Lght"
    font-weight="330"
    font-stretch="condensed"
    units-per-em="2048"
    panose-1="4 13 4 10 5 4 3 4 3 6"
    ascent="1638"
    descent="-410"
    x-height="1276"
    cap-height="1536"
    bbox="-25 -248 879 1595"
    underline-thickness="102"
    underline-position="-307"
    unicode-range="U+0020-00A0"
  />
<missing-glyph horiz-adv-x="0" 
 />
    <glyph glyph-name=".notdef" horiz-adv-x="0" 
 />
    <glyph glyph-name=".null" horiz-adv-x="0" 
 />
    <glyph glyph-name="nonmarkingreturn" horiz-adv-x="682" 
 />
    <glyph glyph-name="space" unicode=" " horiz-adv-x="268" 
 />
    <glyph glyph-name="comma" unicode="," horiz-adv-x="163" 
d="M61 326h82q-56 -267 -102 -545q-7 2 -27.5 6t-27.5 6q59 342 75 533z" />
    <glyph glyph-name="period" unicode="." horiz-adv-x="182" 
d="M92 139q64 0 64 -73q0 -34 -16.5 -54t-47.5 -20q-32 0 -48.5 20t-16.5 54q0 35 17 54t48 19z" />
    <glyph glyph-name="zero" unicode="0" horiz-adv-x="622" 
d="M563 772q0 -191 -10 -327.5t-28.5 -226t-50 -140.5t-69.5 -71.5t-92 -20.5q-67 0 -111.5 33t-78 119t-49 241.5t-15.5 392.5q0 191 11 328t31 224t52.5 137.5t70 69.5t89.5 19q66 0 109.5 -31.5t77 -115.5t48.5 -238.5t15 -392.5zM313 1483q-46 0 -77 -28t-56 -102.5
t-37 -218.5t-12 -364t12 -364.5t37 -220.5t56 -105t77 -29t76.5 28.5t55 105t36 221t11.5 364.5t-12 364t-36.5 218.5t-55 102.5t-75.5 28z" />
    <glyph glyph-name="one" unicode="1" horiz-adv-x="274" 
d="M135 0h-39q4 190 4 768q0 537 -4 715q30 26 45 53h19h16q-4 -246 -4 -768q0 -575 4 -768h-41z" />
    <glyph glyph-name="two" unicode="2" horiz-adv-x="550" 
d="M111 66h137q178 0 258 4v-70h-465v70q0 169 47 290t168 281q95 135 136.5 283t41.5 329q0 126 -34.5 181t-110.5 55q-56 0 -89 -32.5t-50 -113t-17 -221.5q0 -59 4 -219h-67q-7 164 -7 227q0 229 53.5 325.5t172.5 96.5q114 0 165.5 -72t51.5 -223q0 -194 -49 -353.5
t-152 -309.5q-116 -156 -155 -259.5t-39 -268.5z" />
    <glyph glyph-name="three" unicode="3" horiz-adv-x="575" 
d="M350 782v-6q34 -7 58 -20q65 -36 90.5 -126t25.5 -235q0 -212 -56.5 -311.5t-180.5 -99.5q-119 0 -174.5 82.5t-55.5 273.5q0 61 6 166q10 -2 35 -2t35 2q-4 -114 -4 -156q0 -173 36.5 -238t121.5 -65q90 0 128 81t38 275q0 134 -21 210.5t-59.5 105.5t-102.5 29
q-40 0 -86 -3v37v31q46 -4 86 -4q91 0 130.5 89.5t39.5 275.5q0 168 -37 241.5t-118 73.5q-79 0 -114.5 -62.5t-35.5 -224.5q0 -45 4 -155h-35h-34q-4 68 -4 163q0 185 53 263.5t168 78.5q119 0 172 -90.5t53 -281.5q0 -161 -22.5 -241t-73.5 -124q-26 -24 -66 -33z" />
    <glyph glyph-name="four" unicode="4" 
d="M492 766v-303q69 0 100 2v-35v-35l-100 2q0 -197 4 -397h-80q4 218 4 397h-129q-152 0 -238 -2q14 180 40.5 591.5t27.5 549.5h80q-65 -901 -72 -1071q63 -2 289 -2h4q0 108 -2 534.5t-2 538.5h76q-2 -221 -2 -770z" />
    <glyph glyph-name="five" unicode="5" horiz-adv-x="567" 
d="M326 1466h-179q-2 -76 -2 -362q0 -166 2 -242q26 54 71.5 86.5t103.5 32.5q51 0 85 -19.5t61 -71t39.5 -147.5t12.5 -241q0 -194 -26 -309t-75 -162t-130 -47q-119 0 -171 81.5t-52 274.5q0 24 4 164q12 -2 34 -2q25 0 35 2q-4 -110 -4 -150q0 -169 35 -238t119 -69
t122 101.5t38 349.5q0 166 -18 261t-48.5 128t-79.5 33q-55 0 -97 -44t-63 -128q-30 11 -65 14v325q0 419 -2 449q28 0 98 -1t115 -1t114.5 1t102.5 1v-33v-41q-39 4 -180 4z" />
    <glyph glyph-name="six" unicode="6" 
d="M311 47q88 0 127 99t39 337q0 142 -17.5 222.5t-50 111.5t-87.5 31q-91 0 -136 -82t-45 -274q0 -233 43 -339t127 -106zM125 743h10q21 81 74 123.5t127 42.5q115 0 164 -95t49 -329q0 -275 -54 -387t-184 -112q-71 0 -115.5 32t-77.5 120t-47 246.5t-14 408.5
q0 299 28 465.5t82 229t148 62.5q81 0 128 -32t72.5 -118.5t25.5 -240.5v-119h-39h-35q2 27 2 117q0 131 -15 202.5t-47.5 100.5t-91.5 29q-60 0 -98 -40t-61.5 -152.5t-24.5 -305.5q-5 -219 -6 -248z" />
    <glyph glyph-name="seven" unicode="7" horiz-adv-x="483" 
d="M10 1536h457q0 -5 -1 -18t-1 -19q0 -7 1 -17t1 -16q-75 -205 -148 -645.5t-83 -820.5h-35h-41q16 374 91 812.5t150 651.5q-262 0 -391 -2v39v35z" />
    <glyph glyph-name="eight" unicode="8" horiz-adv-x="610" 
d="M305 49q95 0 137.5 81t42.5 269q0 140 -19 216t-56.5 104.5t-104.5 28.5q-68 0 -105.5 -28.5t-56 -104.5t-18.5 -216q0 -189 42 -269.5t138 -80.5zM143 1171q0 -204 39 -283t123 -79q83 0 122.5 79.5t39.5 282.5q0 170 -38 244t-124 74q-87 0 -124.5 -73.5t-37.5 -244.5z
M389 782v-6q39 -10 60 -24q60 -38 84 -126t24 -231q0 -210 -61 -310.5t-191 -100.5q-133 0 -192.5 99.5t-59.5 311.5q0 146 23 232.5t84 124.5q21 14 59 24v6q-37 9 -63 35q-45 42 -64.5 121t-19.5 238q0 195 53.5 285.5t179.5 90.5q127 0 180.5 -90t53.5 -286
q0 -158 -19.5 -237.5t-66.5 -121.5q-26 -23 -64 -35z" />
    <glyph glyph-name="nine" unicode="9" horiz-adv-x="612" 
d="M293 686q90 0 135 82.5t45 275.5q0 231 -43.5 338t-128.5 107q-86 0 -126 -100.5t-40 -335.5q0 -142 18 -223.5t51 -112.5t89 -31zM487 805h-6q-18 -89 -71.5 -134.5t-133.5 -45.5q-114 0 -163.5 96t-49.5 330q0 274 54 386.5t182 112.5q72 0 117 -32.5t78 -121
t47 -246.5t14 -409q0 -301 -28 -466.5t-81.5 -227t-148.5 -61.5q-81 0 -128 31.5t-72 118t-25 241.5q0 39 1 76.5t1 40.5h37h34q-2 -27 -2 -117q0 -132 15 -203t47.5 -99t93.5 -28q45 0 76.5 21.5t56.5 75.5t37.5 153t13.5 246q0 74 4 262z" />
    <glyph glyph-name="A" unicode="A" 
d="M305 1477h-6q-3 -19 -18 -121t-29 -209q-14 -96 -45.5 -323t-46.5 -335h147h139q-73 490 -94 662q-33 242 -47 326zM598 0h-86q-5 93 -55 426q-28 0 -79 1t-71 1q-21 0 -76 -1t-81 -1q-50 -354 -56 -426h-86q33 191 134.5 845t107.5 691h104q11 -48 58 -352.5t104 -671.5
t82 -512z" />
    <glyph glyph-name="B" unicode="B" horiz-adv-x="638" 
d="M293 63q54 0 86.5 7t59 25.5t39.5 57.5t19.5 97.5t6.5 150.5q0 190 -43 267t-170 77q-15 0 -57 -1t-64 -1q0 -568 4 -677q22 0 61.5 -1.5t57.5 -1.5zM489 1143q0 141 -18.5 211.5t-56.5 94.5t-115 24q-52 0 -125 -3q-4 -294 -4 -663q43 -2 121 -2q114 0 156 71t42 267z
M371 780v-12q63 -3 102 -23q54 -32 78 -108t24 -238q0 -103 -8.5 -171t-26.5 -114t-51.5 -70.5t-75.5 -34t-108 -9.5h-211q6 180 6 768q0 604 -4 768h215q60 0 98.5 -9t70 -32t48 -67.5t25 -112t8.5 -168.5q0 -153 -21.5 -227t-74.5 -111q-33 -23 -94 -29z" />
    <glyph glyph-name="C" unicode="C" horiz-adv-x="641" 
d="M526 883h-37q5 195 5 235q0 140 -19.5 221.5t-55 112.5t-93.5 31q-48 0 -80.5 -27.5t-59.5 -101.5t-40 -217t-13 -361q0 -217 12.5 -361t39 -223t61 -110t84.5 -31q91 0 130.5 94t39.5 293q0 67 -4 219h34h37q4 -156 4 -211q0 -234 -56 -347t-183 -113q-56 0 -97 21
t-75.5 74t-56 142t-33 226.5t-11.5 326.5q0 237 16 390t52 237t83 115.5t120 31.5q126 0 180.5 -106t54.5 -326q0 -161 -4 -235h-35z" />
    <glyph glyph-name="D" unicode="D" horiz-adv-x="643" 
d="M270 66q47 0 77 8t59.5 33.5t46.5 72.5t30 125.5t18.5 192t4.5 272.5q0 157 -5.5 271.5t-19 191.5t-30 124.5t-44 72t-54.5 32.5t-68 8q-25 0 -61.5 -1t-51.5 -1q-4 -166 -4 -708q0 -602 2 -694h100zM92 1536h191q48 0 82.5 -7t67.5 -26t55 -54.5t41 -91t29 -137t16 -191
t6 -253.5q0 -169 -6.5 -289t-22.5 -208t-38 -141t-58.5 -84.5t-78 -42.5t-102.5 -11h-182q4 160 4 766q0 683 -4 770z" />
    <glyph glyph-name="E" unicode="E" horiz-adv-x="575" 
d="M96 1536h416v-33v-39q-121 6 -338 6q0 -103 -2 -336.5t-2 -328.5q228 0 332 2v-70q-104 4 -332 4q0 -597 2 -675q219 0 340 4v-35v-35h-420q6 115 6 768q0 96 1 300.5t0.5 311.5t-3.5 156z" />
    <glyph glyph-name="F" unicode="F" horiz-adv-x="550" 
d="M94 1536h416v-33v-39q-188 6 -338 6q-4 -414 -4 -688v-67q228 0 332 2v-68q-104 2 -332 2q0 -530 4 -651h-78q2 80 2 768q0 97 1 297t0.5 307t-3.5 164z" />
    <glyph glyph-name="G" unicode="G" horiz-adv-x="643" 
d="M301 752v34q55 -2 129 -2q88 0 133 2q8 -195 2.5 -334.5t-17 -230t-41.5 -142.5t-70.5 -72.5t-104.5 -20.5q-72 0 -120 32.5t-84 118.5t-52.5 243t-16.5 398q0 193 11.5 329t32 222.5t56 135.5t77 67t100.5 18q122 0 174.5 -101t52.5 -306q0 -158 -4 -232q-3 0 -16 1
t-19 1q-25 0 -37 -2q5 185 5 228q0 191 -38 267.5t-124 76.5q-40 0 -68.5 -16.5t-54.5 -61.5t-42 -123t-25 -204t-9 -300q0 -284 24 -446.5t66 -221.5t111 -59q73 0 109 57.5t48.5 199.5t4.5 415q-130 0 -193 -4v33z" />
    <glyph glyph-name="H" unicode="H" horiz-adv-x="679" 
d="M510 1536h78q-4 -116 -4 -768q0 -621 4 -768h-78q4 205 4 735q-53 2 -174 2t-174 -2q0 -530 4 -735h-78q4 147 4 768q0 652 -4 768h78q-4 -158 -4 -731q53 -2 174 -2t174 2q0 573 -4 731z" />
    <glyph glyph-name="I" unicode="I" horiz-adv-x="274" 
d="M176 0h-78q4 162 4 768q0 608 -4 768h78q-2 -158 -2 -768q0 -604 2 -768z" />
    <glyph glyph-name="J" unicode="J" horiz-adv-x="387" 
d="M215 1536h78q-2 -68 -2 -621q0 -20 1 -254.5t1 -445.5q0 -227 -164 -227q-70 0 -125 28q8 24 14 72q53 -31 105 -31q48 0 73 32.5t25 111.5q0 1130 -6 1335z" />
    <glyph glyph-name="K" unicode="K" horiz-adv-x="616" 
d="M489 1536h91q-12 -29 -137.5 -355t-176.5 -436q2 -5 31.5 -65.5t44.5 -95.5q48 -105 112.5 -245.5t102 -222.5t53.5 -116h-69q-17 0 -26.5 7.5t-16.5 29.5q-68 162 -295 678h-31q0 -407 4 -715h-78q4 162 4 768q0 608 -4 768h78q-4 -312 -4 -766v-2h33q13 25 29 65
t38.5 96t38.5 95q123 331 178 512z" />
    <glyph glyph-name="L" unicode="L" horiz-adv-x="456" 
d="M98 1536h82q-6 -174 -6 -768q0 -120 2 -368.5t2 -333.5q121 0 262 6v-37v-35h-338q2 80 2 768q0 667 -6 768z" />
    <glyph glyph-name="M" unicode="M" horiz-adv-x="870" 
d="M766 0h-76q4 387 4 1042q0 66 5 212.5t6 201.5h-9q-38 -348 -65 -518l-176 -938h-41l-181 946q-11 65 -22.5 150t-26.5 213.5t-18 150.5l-8 -2q1 -59 5.5 -206t4.5 -216q0 -647 2 -1036h-72q4 221 4 770q0 364 -4 766h105q9 -57 38 -218.5t75 -413.5t73 -400
q17 -88 41 -295h12q17 143 43 289q38 218 106 596.5t79 441.5h94v-766q0 -176 1 -424.5t1 -345.5z" />
    <glyph glyph-name="N" unicode="N" horiz-adv-x="679" 
d="M510 1536h72v-766v-770h-78q-25 122 -275 1106q-39 157 -69 346h-4q10 -232 10 -575q0 -732 2 -877h-70q2 186 2 768q0 612 -2 768h101q11 -58 111.5 -449.5t154.5 -629.5q1 -3 24.5 -124t34.5 -183h6q-12 254 -12 331q0 823 -8 1055z" />
    <glyph glyph-name="O" unicode="O" horiz-adv-x="653" 
d="M594 772q0 -191 -10.5 -327t-30 -225.5t-53 -141t-73.5 -72t-97 -20.5t-98 20.5t-75 72.5t-55 140.5t-32 225.5t-11 327q0 159 7.5 280t23.5 206.5t37.5 142.5t53.5 90t67 46t82 13q56 0 95.5 -19.5t73 -70t53.5 -138t31 -223.5t11 -327zM330 51q49 0 82 29t59.5 106
t38.5 221t12 363q0 220 -12 363t-38.5 218.5t-59 103.5t-82.5 28t-84 -28t-61 -103.5t-39.5 -218.5t-12.5 -363q0 -219 12.5 -363t39.5 -220.5t61 -106t84 -29.5z" />
    <glyph glyph-name="P" unicode="P" horiz-adv-x="602" 
d="M279 569q54 0 88 16.5t61 62.5t39 131.5t12 219.5q0 146 -11.5 240.5t-37 143.5t-56 67t-77.5 18q-90 0 -127 -2v-893q40 -4 109 -4zM96 1536h197q94 0 147 -43t81 -160.5t28 -331.5q0 -121 -12 -209t-33 -142.5t-54.5 -87t-71 -44.5t-87.5 -12q-68 0 -121 2
q5 -462 6 -508h-80q6 217 6 768q0 575 -6 768z" />
    <glyph glyph-name="Q" unicode="Q" horiz-adv-x="649" 
d="M131 772q0 -221 13 -365t40 -218t60 -101t82 -27q47 0 78.5 27t58 101t39 218t12.5 365q0 219 -12.5 362t-38.5 218t-58.5 103t-80.5 28t-81 -28t-59.5 -103t-39.5 -218.5t-13 -361.5zM408 55l2 -8q8 1 47.5 6t58.5 6q24 3 54.5 7t41.5 6v-72q-38 0 -134 -2t-152 -2
q-55 0 -94.5 19.5t-73.5 70.5t-55 137.5t-32.5 223t-11.5 325.5q0 237 17 393t53.5 239t82.5 114.5t114 31.5q67 0 112 -31.5t80 -115t51.5 -237.5t16.5 -390q0 -261 -16.5 -410t-55.5 -221q-38 -69 -106 -90z" />
    <glyph glyph-name="R" unicode="R" horiz-adv-x="655" 
d="M170 709h147q83 0 127.5 96t44.5 276q0 99 -7.5 167.5t-20.5 113t-37 69t-52 33.5t-69 9q-71 0 -133 -3v-761zM379 674v-2q79 -13 113 -77.5t65 -254.5q6 -34 17 -101t17 -101t15 -74.5t17 -63.5h-68q-13 0 -18.5 7t-8.5 28q-20 149 -34 239.5t-29.5 165t-28 110
t-31.5 60t-38 30t-50 5.5q-28 0 -72 -1t-75 -1q0 -455 8 -643h-82q4 442 4 768t-4 768h221q86 0 136.5 -37t78 -136.5t27.5 -275.5q0 -184 -42 -286.5t-138 -126.5z" />
    <glyph glyph-name="S" unicode="S" horiz-adv-x="589" 
d="M100 535h39q-4 -152 -4 -207q0 -150 39.5 -215.5t124.5 -65.5q154 0 154 215q0 138 -43.5 256t-141.5 230q-198 210 -198 520q0 146 53.5 214t163.5 68q119 0 171 -83t52 -281q0 -30 -4 -182h-35q-20 0 -35 -3q4 132 4 185q0 166 -36 232.5t-115 66.5q-74 0 -111 -51.5
t-37 -165.5q0 -134 38 -243.5t132 -211.5q211 -234 211 -547q0 -135 -55 -208.5t-166 -73.5q-124 0 -181 84t-57 249q0 44 1 77t2 71.5t2 69.5h32z" />
    <glyph glyph-name="T" unicode="T" horiz-adv-x="509" 
d="M18 1536h474v-33v-33q-105 3 -201 3q0 -1215 4 -1473h-39h-37q2 127 2 1473q-89 0 -203 -3v35v31z" />
    <glyph glyph-name="U" unicode="U" horiz-adv-x="677" 
d="M500 1536h78q-3 -129 -3 -614q0 -66 2.5 -281.5t2.5 -333.5q0 -158 -54.5 -239.5t-183.5 -81.5q-131 0 -187.5 82t-56.5 239q0 118 3 333.5t3 281.5q0 442 -2 614h80q-10 -218 -10 -1225q0 -136 41.5 -199t128.5 -63q86 0 126 63t40 199q0 1053 -8 1225z" />
    <glyph glyph-name="V" unicode="V" horiz-adv-x="612" 
d="M508 1536h84q-24 -155 -73.5 -480.5t-101 -670.5t-57.5 -385h-51h-51q-10 63 -59.5 407.5t-100 678.5t-75.5 450h88q16 -158 151 -1116q21 -121 45 -346h6q26 234 45 348q14 106 54.5 394.5t64.5 468t31 251.5z" />
    <glyph glyph-name="W" unicode="W" horiz-adv-x="899" 
d="M805 1536h74q-20 -145 -96 -791.5t-89 -744.5h-43h-51q-3 24 -113 1067q-6 59 -11.5 127t-11 142.5t-7.5 105.5h-8q-18 -224 -35 -377q-42 -364 -121 -1065h-47h-43q-13 87 -86 741t-97 795h84q14 -199 113 -1075q15 -140 31 -371h8q9 132 35 371q18 176 65 583t54 492
h49h49q22 -285 106 -1077q8 -84 19 -210.5t14 -160.5h10q3 44 33 369q17 170 63.5 583t51.5 496z" />
    <glyph glyph-name="X" unicode="X" horiz-adv-x="604" 
d="M481 1536h84q-55 -170 -213 -762q27 -95 109.5 -378.5t113.5 -395.5h-90q-15 61 -56 206t-67 255q-44 162 -63 278h-6q-11 -68 -66 -280q-98 -404 -110 -459h-88q21 71 95 346.5t118 429.5q-144 543 -205 760h88q18 -78 119 -483q41 -154 55 -242h2q15 91 53 231
q21 84 65 251.5t62 242.5z" />
    <glyph glyph-name="Y" unicode="Y" horiz-adv-x="552" 
d="M453 1536h82q-191 -913 -222 -1071q0 -119 1 -282.5t1 -182.5q-12 2 -36 2q-27 0 -39 -2q2 72 2 459q-170 885 -224 1077h88q5 -47 26.5 -167t53.5 -292t47 -260q28 -128 41 -233h11q24 154 39 233q16 97 47 262.5t54 290t28 166.5z" />
    <glyph glyph-name="Z" unicode="Z" horiz-adv-x="585" 
d="M66 1536h462v-31v-37q-8 -19 -28.5 -89t-52 -183t-60.5 -218.5t-68.5 -249t-60.5 -220.5q-16 -57 -42 -152t-46.5 -167t-36.5 -123q20 0 57.5 1t53.5 1q196 0 282 4q-2 -14 -2 -37q0 -21 2 -35h-469v31v37q12 25 62 207.5t116 427t101 360.5q87 301 123 410
q-102 -5 -150 -5q-196 0 -243 -2v37v33z" />
    <glyph glyph-name="a" unicode="a" horiz-adv-x="598" 
d="M264 51q54 0 94.5 43t58 100.5t17.5 116.5q0 218 2 320q-61 12 -139 12q-82 0 -122 -60.5t-40 -209.5q0 -126 14.5 -197.5t41.5 -98t73 -26.5zM127 854h-33q-9 234 39 336t172 102q102 0 152.5 -67t50.5 -187q0 -140 -2 -343.5t-2 -293.5q0 -342 12 -401h-59
q-14 0 -18.5 6t-4.5 25q0 13 1 50t1 56l-14 2q-40 -153 -182 -153q-88 0 -130 86.5t-42 287.5q0 179 52.5 257.5t162.5 78.5q92 0 153 -22q0 68 1 189t1 175q0 191 -133 191q-57 0 -88 -32t-45 -114t-10 -229h-35z" />
    <glyph glyph-name="b" unicode="b" horiz-adv-x="610" 
d="M160 969l-2 -832q30 -38 73 -61t88 -23q56 0 90 47.5t53 180t19 366.5t-16 360t-47.5 173t-89.5 47q-72 0 -120 -66t-48 -192zM158 1143l8 -2q52 151 186 151q74 0 116 -54.5t62.5 -195t20.5 -395.5q0 -259 -25.5 -406.5t-70 -201t-119.5 -53.5q-114 0 -172 96l-6 -4v-12
v-66h-72q2 79 2 754q0 692 -2 831h76q-4 -226 -4 -342v-100z" />
    <glyph glyph-name="c" unicode="c" horiz-adv-x="581" 
d="M485 512h33q2 -49 2 -135q0 -199 -48 -295t-167 -96q-63 0 -106 27.5t-76.5 98.5t-49.5 203t-16 332q0 184 16 310t49 199t78 104.5t109 31.5q108 0 157.5 -86.5t49.5 -277.5q0 -83 -4 -140h-31h-35q3 70 3 134q0 167 -34.5 237t-107.5 70q-41 0 -71.5 -25.5t-56 -88
t-39 -180.5t-13.5 -290q0 -186 12.5 -308t38 -182t55 -82t72.5 -22q77 0 111.5 77t34.5 253v131h34z" />
    <glyph glyph-name="d" unicode="d" 
d="M446 309l3 832q-30 37 -70.5 59.5t-81.5 22.5q-61 0 -96.5 -47t-55.5 -179.5t-20 -369.5q0 -233 18.5 -361t50.5 -172.5t89 -44.5q69 0 116 69t47 191zM446 1585h76q-4 -215 -4 -989q0 -483 4 -596h-76q0 13 1.5 40.5t1.5 43.5v51l-11 2q-25 -75 -70.5 -114t-105.5 -39
q-74 0 -117.5 52.5t-67.5 195t-24 395.5q0 197 14.5 328.5t45.5 204t70.5 101.5t97.5 29q105 0 161 -94l11 4q-2 23 -2 68q0 40 -5 317z" />
    <glyph glyph-name="e" unicode="e" horiz-adv-x="575" 
d="M299 1231q-39 0 -68 -25t-52.5 -84.5t-36.5 -168.5t-15 -267q237 0 303 2q4 63 4 225q0 171 -32 244.5t-103 73.5zM469 483h31q2 -126 -5 -211.5t-28 -153t-62.5 -100t-105.5 -32.5q-42 0 -72 9t-59 33.5t-48 70.5t-34 118t-22 178t-7 248q0 186 15.5 313.5t48 200.5
t75.5 104t103 31q110 0 155.5 -94.5t45.5 -282.5q0 -39 -1 -133t-1 -153h-183q-131 0 -188 2q0 -180 11.5 -298.5t35.5 -178.5t52.5 -82.5t70.5 -22.5q81 0 111.5 99.5t25.5 334.5h35z" />
    <glyph glyph-name="f" unicode="f" horiz-adv-x="403" 
d="M123 1268v121q0 105 40.5 155.5t131.5 50.5q61 0 106 -18q-9 -40 -12 -68q-43 19 -86 19q-59 0 -84.5 -32.5t-25.5 -109.5v-118q130 0 196 2q-3 -31 0 -70q-63 2 -196 2q0 -858 4 -1202h-37h-39q6 240 6 702q0 26 -1 194t-1 306l-100 -2v68h98z" />
    <glyph glyph-name="g" unicode="g" horiz-adv-x="593" 
d="M446 848q0 196 -35.5 281t-119.5 85q-88 0 -124 -84t-36 -280q0 -192 37 -269t123 -77q83 0 119 77t36 267zM154 172h-17v-12l17 10v2zM184 147h-10q-86 -80 -86 -182q0 -151 201 -151q217 0 217 180q0 86 -35.5 122t-108.5 36q-25 0 -88 -2.5t-90 -2.5zM137 154v-11h17
v7q-3 1 -9 2t-8 2zM571 1276v-70q-27 0 -180 15v-9q69 -32 96 -114.5t27 -263.5q0 -210 -53.5 -301t-171.5 -91q-47 0 -84 15q-68 -95 -68 -178q0 -70 72 -70q36 0 92.5 2t75.5 2q95 0 143.5 -51t48.5 -164q0 -117 -63.5 -181.5t-218.5 -64.5q-80 0 -134.5 15.5t-81.5 44.5
t-37.5 61.5t-10.5 75.5q0 64 30 117t78 90q-55 24 -55 106q0 93 94 215q-55 39 -79.5 130t-24.5 247q0 219 55 321.5t168 102.5q5 0 53 -0.5t114 -1t115 -0.5z" />
    <glyph glyph-name="h" unicode="h" horiz-adv-x="628" 
d="M547 0h-78q6 792 6 1040q0 92 -31.5 137.5t-101.5 45.5q-82 0 -133 -62.5t-51 -183.5q0 -645 4 -977h-74q2 180 2 641q0 772 -2 944h72v-317q0 -80 -2 -117h12q55 139 199 139q86 0 131 -56.5t45 -166.5q0 -181 -1 -373t-1 -262q0 -297 4 -432z" />
    <glyph glyph-name="i" unicode="i" horiz-adv-x="258" 
d="M193 1462q0 -28 -16 -44.5t-48 -16.5q-63 0 -63 61q0 62 63 62q64 0 64 -62zM166 0h-74q2 186 2 666q0 444 -2 610h74q-2 -166 -2 -614q0 -476 2 -662z" />
    <glyph glyph-name="j" unicode="j" horiz-adv-x="309" 
d="M152 -63q0 859 -7 1339h76q-2 -68 -2 -633q0 -35 1 -265.5t1 -428.5q0 -97 -33.5 -147t-109.5 -50q-58 0 -103 23q9 35 13 69q39 -22 84 -22q38 0 59 25.5t21 89.5zM248 1462q0 -28 -16 -44.5t-48 -16.5q-63 0 -63 61q0 62 63 62q64 0 64 -62z" />
    <glyph glyph-name="k" unicode="k" horiz-adv-x="567" 
d="M455 1276h88q-34 -64 -85.5 -172.5t-120.5 -258t-104 -222.5q267 -532 320 -623h-68q-24 0 -34 20q-171 367 -283 578h-8q0 -412 2 -598h-74q2 221 2 877q0 513 -2 708h76q-4 -195 -4 -784v-158h8q18 42 52 113.5t42 87.5q22 47 56.5 122.5t54.5 119t43 97t39 93.5z" />
    <glyph glyph-name="l" unicode="l" horiz-adv-x="249" 
d="M162 0h-76q4 233 4 836q0 536 -4 749h76q-2 -207 -2 -751q0 -713 2 -834z" />
    <glyph glyph-name="m" unicode="m" horiz-adv-x="927" 
d="M842 0h-78q6 369 6 1051q0 89 -26 131.5t-89 42.5q-72 0 -114.5 -62.5t-42.5 -183.5q0 -801 2 -979h-76q6 372 6 1047q0 92 -26.5 135t-90.5 43q-69 0 -112 -63t-43 -183q0 -813 2 -979h-72q2 176 2 618q0 502 -2 658h70q-1 -22 -1 -62t-1 -61h12q47 137 170 137
q131 0 154 -139l10 -2q49 141 174 141q164 0 164 -207q0 -165 -2 -372t-2 -287q0 -234 6 -424z" />
    <glyph glyph-name="n" unicode="n" horiz-adv-x="628" 
d="M547 0h-78q6 786 6 1036q0 95 -30.5 143t-102.5 48q-83 0 -133.5 -64.5t-50.5 -185.5q0 -645 4 -977h-74q2 174 2 618q0 513 -2 658h70v-125h12q56 139 199 139q176 0 176 -231q0 -184 -1 -375t-1 -262q0 -291 4 -422z" />
    <glyph glyph-name="o" unicode="o" horiz-adv-x="595" 
d="M469 643q0 182 -11.5 300.5t-35.5 179.5t-53 83.5t-72 22.5q-42 0 -71 -22.5t-52.5 -83.5t-35 -180t-11.5 -300q0 -182 11 -301.5t34.5 -183t52.5 -87.5t72 -24q44 0 73.5 24t53 87.5t34.5 183t11 301.5zM539 645q0 -199 -14.5 -329t-47 -202t-74.5 -100t-106 -28
q-63 0 -105 28t-74 100t-46.5 202t-14.5 329q0 197 15.5 327t48 199t74 95t102.5 26q62 0 103.5 -26t74.5 -95.5t48.5 -198.5t15.5 -327z" />
    <glyph glyph-name="p" unicode="p" 
d="M160 969l-2 -834q30 -37 73.5 -59.5t87.5 -22.5q56 0 90 47.5t53 180t19 366.5t-15.5 360.5t-47.5 174t-90 47.5q-72 0 -120 -67t-48 -193zM158 1141h8q52 151 186 151q75 0 117 -55.5t62 -195t20 -394.5q0 -258 -25.5 -405.5t-70 -201.5t-119.5 -54q-113 0 -170 94
l-10 -4q2 -18 2 -60v-249h-72q2 129 2 966q0 459 -2 543h74q0 -15 -1 -44.5t-1 -47.5v-43z" />
    <glyph glyph-name="q" unicode="q" 
d="M446 309l3 832q-30 37 -70.5 59.5t-81.5 22.5q-61 0 -96.5 -47t-55.5 -179.5t-20 -369.5q0 -233 18.5 -361t50.5 -172.5t89 -44.5q69 0 116 69t47 191zM449 1276h73q-4 -123 -4 -701q0 -615 4 -808h-76q0 42 1.5 129.5t1.5 134.5q0 73 2 104l-11 2q-26 -75 -72 -114
t-106 -39q-75 0 -118.5 53t-67 194.5t-23.5 395.5q0 198 14 329t43.5 203.5t69 101.5t96.5 29q108 0 164 -96l11 4v6q0 14 -1 37t-1 35z" />
    <glyph glyph-name="r" unicode="r" horiz-adv-x="428" 
d="M139 1075h15q19 115 63 163t117 48q48 0 88 -18q-13 -42 -19 -82q-36 20 -81 20q-74 0 -117 -81t-43 -248q0 -753 4 -877h-78q2 91 2 670q0 520 -2 606h64q0 -6 -5.5 -77t-7.5 -124z" />
    <glyph glyph-name="s" unicode="s" horiz-adv-x="546" 
d="M119 422v-131q0 -134 41 -189t123 -55q77 0 112 48t35 161q0 114 -41.5 199t-140.5 174q-94 84 -139.5 182.5t-45.5 232.5q0 250 209 250q109 0 157 -67t48 -221q0 -85 -2 -144h-35h-32q2 47 2 139q0 130 -31.5 181t-106.5 51q-72 0 -106.5 -45.5t-34.5 -143.5
q0 -117 36 -196t128 -162q102 -90 152.5 -191.5t50.5 -236.5q0 -137 -52 -204.5t-163 -67.5q-123 0 -177.5 72.5t-54.5 224.5q0 33 4 139h31h33z" />
    <glyph glyph-name="t" unicode="t" horiz-adv-x="450" 
d="M143 1497h41q-1 -35 -2 -109.5t-2 -113.5q156 0 242 2q-2 -23 -2 -70q-43 1 -240 6q-2 -291 -2 -1024q0 -69 28 -101t91 -32q53 0 109 27q9 -46 18 -66q-70 -28 -133 -28q-182 0 -182 202q0 105 1 446t1 576h-88v64l88 -2v223h32z" />
    <glyph glyph-name="u" unicode="u" horiz-adv-x="628" 
d="M469 1276h74q-4 -174 -4 -619q0 -512 4 -657h-72v125h-12q-53 -137 -197 -137q-178 0 -178 227q0 183 2 376t2 265q0 158 -4 420h76q-6 -786 -6 -1036q0 -94 31 -140.5t104 -46.5q82 0 132 63t50 183q0 811 -2 977z" />
    <glyph glyph-name="v" unicode="v" horiz-adv-x="514" 
d="M430 1276h78q-31 -135 -106 -602.5t-105 -673.5q-5 0 -17 1t-22 1q-13 0 -26.5 -1t-16.5 -1q-4 26 -52.5 338.5t-92 578.5t-64.5 359h84q6 -60 54 -374t67 -460q35 -247 41 -331h10q9 116 43 331q23 172 71 481.5t54 352.5z" />
    <glyph glyph-name="w" unicode="w" horiz-adv-x="800" 
d="M719 1276h72q-18 -125 -86.5 -660.5t-79.5 -615.5h-41h-49q-16 119 -103 895q-9 70 -26 307h-9q-27 -288 -30 -307q-24 -203 -66.5 -533.5t-46.5 -361.5h-39h-43q-11 68 -76.5 612.5t-87.5 663.5h80q4 -53 19 -189t41 -359.5t38 -328.5q21 -170 29 -321h6q17 205 31 321
q17 150 59.5 480t48.5 397h46h49q4 -50 96 -879q14 -129 29 -319h8q19 233 28 317q13 116 39 323.5t43 354.5t21 203z" />
    <glyph glyph-name="x" unicode="x" horiz-adv-x="530" 
d="M420 1276h80q-20 -58 -46 -146.5t-71 -250t-64 -230.5q21 -71 91.5 -313.5t99.5 -335.5h-86q-15 61 -53.5 200t-51.5 187q-33 114 -57 227h-2q-5 -19 -13.5 -59t-18.5 -81.5t-21 -84.5q-62 -236 -96 -389h-82q22 67 85 301.5t95 343.5q-29 102 -87.5 321.5t-86.5 309.5
h84q41 -173 102 -414q37 -155 43 -186q11 51 47 182q100 383 109 418z" />
    <glyph glyph-name="y" unicode="y" horiz-adv-x="514" 
d="M430 1276h80q-15 -91 -67.5 -398.5t-89 -536t-58.5 -402.5q-44 -185 -186 -185q-66 0 -119 23q8 29 14 69q45 -28 98 -28q45 0 75.5 29t47.5 96q2 17 8.5 67.5t8.5 79.5q-14 -2 -33 -2q-15 79 -93.5 554t-107.5 634h84q4 -47 22 -169t44.5 -296.5t40.5 -271.5
q47 -305 55 -387h8q27 207 57 380q38 273 111 744z" />
    <glyph glyph-name="z" unicode="z" horiz-adv-x="532" 
d="M63 1276h414v-27v-37q-15 -31 -52.5 -160.5t-89.5 -314t-83 -284.5q-55 -195 -119 -390q58 3 117 3q151 0 225 4v-37v-33h-418v29v32q14 25 56.5 167t101 343.5t82.5 280.5q21 64 61.5 197.5t51.5 167.5q-93 -5 -142 -5q-107 0 -205 -4v37v31z" />
    <glyph glyph-name="uni00A0" unicode="&#xa0;" horiz-adv-x="268" 
 />
  </font>
</defs>
</svg>
