<?xml version="1.0" standalone="no"?>
<!DOCTYPE svg PUBLIC "-//W3C//DTD SVG 1.1//EN" "http://www.w3.org/Graphics/SVG/1.1/DTD/svg11.dtd" >
<svg xmlns="http://www.w3.org/2000/svg" xmlns:xlink="http://www.w3.org/1999/xlink" version="1.1">
<metadata>
Created by FontForge 20170731 at Tue Nov 10 11:53:43 2020
 By Aleksey,,,
(c) Copyright OH no Type Company, LLC. 2015. All rights reserved.
</metadata>
<defs>
<font id="ObviouslyDemo-CompItalic" horiz-adv-x="370" >
  <font-face 
    font-family="Obviously Demo Comp"
    font-weight="240"
    font-style="italic"
    font-stretch="extra-condensed"
    units-per-em="2048"
    panose-1="4 13 5 3 5 4 3 11 3 6"
    ascent="1638"
    descent="-410"
    x-height="1300"
    cap-height="1536"
    bbox="-227 -229 764 1595"
    underline-thickness="102"
    underline-position="-307"
    slope="-14"
    unicode-range="U+0020-00A0"
  />
<missing-glyph horiz-adv-x="0" 
 />
    <glyph glyph-name=".notdef" horiz-adv-x="0" 
 />
    <glyph glyph-name=".null" horiz-adv-x="0" 
 />
    <glyph glyph-name="nonmarkingreturn" horiz-adv-x="682" 
 />
    <glyph glyph-name="space" unicode=" " horiz-adv-x="161" 
 />
    <glyph glyph-name="comma" unicode="," horiz-adv-x="126" 
d="M-35 322h86q-24 -56 -111.5 -269t-109.5 -264q-10 4 -57 16q144 364 192 517z" />
    <glyph glyph-name="period" unicode="." horiz-adv-x="147" 
d="M-51 137q63 0 39 -82q-14 -61 -64 -61q-34 0 -43.5 21t0.5 61q16 61 68 61z" />
    <glyph glyph-name="zero" unicode="0" horiz-adv-x="362" 
d="M360 766q-44 -176 -75.5 -294.5t-60 -209t-49.5 -141t-44 -82t-43 -41.5t-47 -10q-49 0 -70.5 28t-20.5 114.5t31.5 239t94.5 408.5q84 340 137.5 503.5t92 215t93.5 51.5q32 0 50 -10t29.5 -40t9.5 -82t-15.5 -140.5t-41 -211.5t-71.5 -298zM391 1479q-25 0 -48 -42.5
t-69.5 -198.5t-123.5 -466q-140 -562 -136 -669q3 -47 31 -48q25 0 49.5 47t69 201t123.5 469q138 548 137 655q-5 50 -33 52z" />
    <glyph glyph-name="one" unicode="1" horiz-adv-x="172" 
d="M-72 0h-39q67 245 195 768q133 525 174 707q33 26 61 61h19h16q-13 -50 -196 -768q-133 -543 -187 -768h-43z" />
    <glyph glyph-name="two" unicode="2" horiz-adv-x="315" 
d="M145 897h-36q33 173 55 260q59 234 101.5 312.5t119.5 78.5q72 0 89 -64t-21 -224q-84 -337 -279 -687q-92 -168 -139 -272t-78 -227h41q107 0 156 2q0 -1 -11 -39q-3 -12 -8 -37h-268l10 35q1 9 4 23t4 18q34 138 89 259.5t149 287.5q174 308 258 645q16 64 22.5 103.5
t5.5 63.5t-9 33t-25 9q-22 0 -39.5 -23.5t-41 -95t-58.5 -209.5q-17 -65 -56 -252h-35z" />
    <glyph glyph-name="three" unicode="3" horiz-adv-x="333" 
d="M168 1022h-37q9 42 22.5 99t20.5 87q52 200 94 270t113 70q81 0 94 -84t-37 -282q-41 -167 -74.5 -246.5t-76.5 -122.5q-24 -24 -62 -37l-2 -4q32 -11 43 -24q23 -25 26 -79t-7.5 -116t-34.5 -162q-59 -234 -106 -319.5t-119 -85.5q-85 0 -100 73.5t36 284.5q4 16 49 178
h37h37q-40 -148 -43 -162q-62 -243 -43 -287q7 -18 31 -18t42.5 25t43 99.5t61.5 221.5q21 85 32 145t13 98t-5 59t-20 28.5t-34 7.5q-33 0 -49 -2q5 22 10 39q2 7 4 17.5t4 17.5q12 -2 47 -2q49 0 90.5 84.5t91.5 284.5q62 241 41 286q-8 17 -28 17q-33 0 -58 -53.5
t-67 -221.5q-14 -51 -41 -184h-39z" />
    <glyph glyph-name="four" unicode="4" 
d="M463 1536h76q-74 -285 -195 -768l-78 -311h60q-8 -29 -9 -35q-9 -34 -10 -39l-57 2q-66 -259 -94 -385h-78q79 303 98 385h-45q-105 0 -160 -2q50 167 172 589t158 564h78q-45 -150 -160.5 -549.5t-150.5 -527.5q31 -2 127 -2q13 56 268 1079z" />
    <glyph glyph-name="five" unicode="5" horiz-adv-x="337" 
d="M272 1536h265q-1 -3 -9 -35q-10 -35 -12 -43q-9 0 -47 1t-47 1h-96q-31 -134 -86 -346l-56 -223q51 88 103 88q49 0 59 -52q18 -91 -63 -419q-53 -213 -92 -324t-75 -154.5t-85 -43.5q-54 0 -77.5 30t-20.5 110.5t38 223.5q13 52 54 185h71q-22 -71 -45 -162
q-24 -96 -36 -156.5t-13.5 -98t6.5 -51.5t27 -14q34 0 70 92.5t100 354.5q87 342 67 395q-6 16 -22 16q-49 0 -107 -149q-34 13 -59 16q13 44 76 307q95 366 112 451z" />
    <glyph glyph-name="six" unicode="6" horiz-adv-x="362" 
d="M240 831q-40 0 -77 -74.5t-85 -262.5q-101 -404 -41 -437q6 -4 14 -4q26 0 48 35.5t50 125t72 267.5q27 106 40 172.5t14.5 106.5t-7 55.5t-28.5 15.5zM147 791h7q53 112 125 112q68 0 72 -91.5t-54 -326.5q-50 -203 -85 -304t-73 -147t-92 -46q-67 0 -86 53
q-33 90 39 427q29 135 78 327q50 201 85 325.5t65.5 215t58 133.5t55 61t64.5 18q55 0 78.5 -34.5t19 -118t-40.5 -228.5q-28 -111 -35 -129h-39h-37q11 34 35 127q62 253 39 299q-8 17 -29 17q-25 0 -46.5 -31.5t-54 -127t-79.5 -278.5q-7 -27 -70 -253z" />
    <glyph glyph-name="seven" unicode="7" horiz-adv-x="284" 
d="M236 1536h268q-2 -5 -5 -18.5t-5 -18.5q-1 -7 -4.5 -18.5t-4.5 -18.5q-80 -184 -231.5 -637.5t-245.5 -824.5h-37h-39q100 362 250.5 809t237.5 649q-129 0 -203 -2q2 8 5 23t5 22q5 14 9 35z" />
    <glyph glyph-name="eight" unicode="8" horiz-adv-x="378" 
d="M397 1178q22 89 32.5 147t10 93t-11 49t-31.5 14q-39 0 -69 -63.5t-74 -239.5q-19 -77 -31.5 -133t-19.5 -97.5t-8 -68t3 -42.5t12.5 -22t22.5 -6q40 0 74.5 74.5t89.5 294.5zM209 395q28 111 41 177.5t12.5 104t-12 50t-35.5 12.5q-32 0 -54.5 -25t-48 -96.5
t-61.5 -216.5q-26 -105 -38 -170t-12 -105.5t12 -55.5t38 -15q41 0 75.5 72t82.5 268zM176 772l2 6q-26 18 -35 39q-22 38 -14 116.5t51 248.5q52 208 97.5 288t125.5 80q91 0 106 -86t-36 -282q-44 -179 -73 -257.5t-68 -115.5q-22 -22 -58 -33l-2 -6q26 -11 37 -22
q20 -26 21.5 -78.5t-10.5 -119t-37 -167.5q-55 -221 -108 -309t-130 -88q-95 0 -109.5 97.5t44.5 326.5q27 106 41 154t42 105.5t62 82.5q22 17 51 20z" />
    <glyph glyph-name="nine" unicode="9" horiz-adv-x="362" 
d="M362 1040q112 442 27 443q-26 0 -48.5 -36t-50 -125t-71.5 -267q-69 -277 -48 -329q8 -21 30 -21q40 0 76.5 73.5t84.5 261.5zM295 743l-8 2q-50 -112 -121 -112q-70 0 -75.5 91t52.5 327q74 296 123 396.5t127 100.5q66 0 86 -53q33 -90 -39 -426q-29 -136 -78 -330
q-42 -167 -71.5 -278t-58 -200t-50 -138t-46 -81.5t-47.5 -43t-54 -10.5q-82 0 -95 81t40 298q19 86 32 129h39h37q-9 -26 -35 -127q-62 -251 -39 -297q8 -17 29 -17q25 0 46.5 30.5t54 126t79.5 277.5q40 151 72 254z" />
    <glyph glyph-name="A" unicode="A" horiz-adv-x="362" 
d="M156 496h57q73 413 123 661q21 104 61 313h-8q-9 -32 -40.5 -133t-55.5 -180q-65 -213 -207 -659q25 -2 70 -2zM348 1536h119q-19 -93 -124 -693.5t-144 -842.5h-84q19 73 86 428h-64h-71q-98 -304 -127 -428h-86q90 269 282.5 865.5t212.5 670.5z" />
    <glyph glyph-name="B" unicode="B" horiz-adv-x="372" 
d="M387 1137q28 112 39.5 175t8.5 98.5t-16.5 45.5t-43.5 10q-23 0 -39 -2q-92 -346 -166 -655h35q60 0 95.5 66t86.5 262zM213 399q13 51 21 87.5t15 72.5t9.5 60t2 46t-5 35t-13.5 23t-22 14t-32 4q-24 0 -34 -2q-159 -638 -166 -669h39q47 0 72 20.5t50.5 88t63.5 220.5z
M274 1536h111q53 0 80 -12.5t39 -55t0.5 -120.5t-45.5 -211q-40 -161 -69 -231.5t-73 -104.5q-21 -16 -63 -23l-2 -10q33 -3 51 -18q19 -19 25 -55.5t-3.5 -109t-37.5 -188.5q-23 -92 -39.5 -149.5t-36 -105.5t-36.5 -73t-42 -42t-52 -22t-67 -5h-123q82 303 195 768
q126 501 188 768z" />
    <glyph glyph-name="C" unicode="C" horiz-adv-x="368" 
d="M350 881h-37q45 159 74 274q65 258 41 305q-10 17 -31 17q-28 0 -51.5 -42t-69 -193t-124.5 -466q-40 -162 -66.5 -274t-43 -194.5t-22.5 -129.5t-2.5 -75t12.5 -37t27 -9q36 0 69 79.5t81 277.5q14 55 57 241h35h37q-41 -184 -53 -227q-61 -248 -107.5 -344t-122.5 -96
q-54 0 -78 28.5t-23 116.5t30.5 237t93.5 404q53 214 90 346t67.5 222.5t57.5 132.5t52 57.5t60 15.5q55 0 79 -40t18 -128.5t-43 -236.5q-63 -231 -72 -262h-35z" />
    <glyph glyph-name="D" unicode="D" horiz-adv-x="374" 
d="M371 1466h-35q-67 -254 -178 -704q-44 -178 -84 -338.5t-60 -239t-28 -114.5h32q26 0 41 5t35 30.5t36.5 67.5t43.5 128.5t56.5 199t74.5 292.5q129 512 117 620q-5 47 -37 52q-6 1 -14 1zM274 1536h103q28 0 46 -4t35 -16.5t24.5 -35.5t10.5 -61.5t-3 -93.5t-19 -132
t-35.5 -176.5t-54.5 -228.5q-36 -143 -60.5 -238.5t-50.5 -183.5t-43.5 -140t-39 -97.5t-38 -67t-40 -37.5t-45 -20t-52.5 -4h-121q48 173 193 766q168 670 190 770z" />
    <glyph glyph-name="E" unicode="E" horiz-adv-x="313" 
d="M276 1536h240q-1 -5 -4 -17.5t-4 -17.5q-3 -19 -10 -41q-85 6 -158 6q-22 -90 -79.5 -317.5t-84.5 -337.5q101 0 154 2q-13 -42 -19 -74q-51 2 -153 2q-121 -484 -166 -671q101 0 160 4q-2 -10 -11 -37q0 -13 -8 -37h-244q54 181 197 768q170 675 190 768z" />
    <glyph glyph-name="F" unicode="F" horiz-adv-x="296" 
d="M274 1536h234q-7 -16 -10 -37q-1 -3 -5 -17.5t-6 -21.5q-86 6 -151 6q-166 -660 -168 -669l-21 -80q97 0 148 2q-4 -20 -16 -74q-51 2 -150 2q-99 -396 -156 -647h-82q30 108 195 768q158 627 188 768z" />
    <glyph glyph-name="G" unicode="G" horiz-adv-x="378" 
d="M412 1548q54 0 77 -39.5t17.5 -126.5t-41.5 -227q-35 -148 -64 -233q-8 2 -32 2q-25 0 -39 -2q27 93 63 235q63 253 40 300q-10 18 -32 18q-29 0 -55.5 -43.5t-74.5 -197t-124 -454.5q-132 -530 -130 -652q5 -68 42 -71q24 0 43 25t45.5 102.5t56.5 195.5t79 331
q-47 0 -84 -2q5 18 8 39q2 6 5 17t5 17q39 -2 86 -2q43 0 66 2q-31 -135 -53 -226t-44.5 -178t-39 -140.5t-34.5 -101.5t-33 -73t-34 -44t-37 -25t-41 -6q-68 0 -88 55q-35 93 40 443q27 124 69 294q85 342 140 504.5t96 213t102 50.5z" />
    <glyph glyph-name="H" unicode="H" horiz-adv-x="391" 
d="M494 1536h79q-22 -79 -50 -189t-72 -290t-72 -289q-25 -104 -93 -372.5t-96 -395.5h-79q1 4 186 735h-74h-71q-154 -608 -183 -735h-78q66 246 193 768q166 662 190 768h78q-61 -227 -184 -731h72h73q11 45 85 341.5t96 389.5z" />
    <glyph glyph-name="I" unicode="I" horiz-adv-x="174" 
d="M-29 0h-80q52 185 193 768q177 707 190 768h80q-45 -164 -194 -768q-120 -477 -189 -768z" />
    <glyph glyph-name="J" unicode="J" horiz-adv-x="210" 
d="M311 1536h80q-1 -2 -151 -598q-13 -49 -39.5 -157.5t-71.5 -292.5t-88 -357q-20 -77 -46 -109t-77 -32q-52 0 -74 10q3 8 25 74q26 -11 41 -11q20 0 34 17t25 65q276 1098 342 1391z" />
    <glyph glyph-name="K" unicode="K" horiz-adv-x="364" 
d="M494 1536h86q-24 -55 -96.5 -226t-138 -322.5t-107.5 -242.5q0 -25 -3 -82t-4 -77q-21 -451 -18 -586h-66q-10 0 -13 7.5t-3 29.5q4 70 13 217.5t15.5 264.5t10.5 194h-23q-103 -409 -176 -713h-80q52 185 193 768q177 707 190 768h80q-40 -143 -192 -762h22
q24 70 99 238q144 324 211 524z" />
    <glyph glyph-name="L" unicode="L" horiz-adv-x="262" 
d="M274 1536h82q-48 -173 -194 -766q-100 -393 -170 -700q51 0 125 6q-2 -4 -3.5 -10.5t-4 -15t-3.5 -13.5l-8 -37h-202q18 59 192 768q166 667 186 768z" />
    <glyph glyph-name="M" unicode="M" horiz-adv-x="514" 
d="M594 1536h100q-34 -134 -192 -766q-48 -191 -113.5 -457t-77.5 -313h-75q104 401 239 954q14 55 63 231.5t72 266.5h-6q-126 -404 -176 -551l-305 -901h-43l143 907q10 65 27.5 161t40 216t31.5 170h-9q-23 -92 -59 -259t-53 -237q-145 -574 -238 -958h-72
q53 207 195 770q137 550 188 766h109q-2 -11 -145 -942q-6 -37 -28.5 -138t-31.5 -147h8q82 270 86 281q64 193 183.5 538.5t138.5 407.5z" />
    <glyph glyph-name="N" unicode="N" horiz-adv-x="393" 
d="M506 1536h69q-92 -360 -192 -766q-30 -121 -98 -390.5t-95 -379.5h-81q21 132 133 1022q16 128 73 428h-10q-88 -406 -145 -635q-33 -134 -80.5 -324t-77 -311t-43.5 -180h-68q77 291 193 768q147 585 190 768h101q-11 -56 -31 -213t-49 -390t-53 -403q-9 -60 -31 -181.5
t-31 -176.5h8q62 301 86 397q184 754 232 967z" />
    <glyph glyph-name="O" unicode="O" horiz-adv-x="376" 
d="M377 778q-52 -210 -89 -343t-68 -226t-58.5 -138.5t-53.5 -64t-61 -18.5q-33 0 -52.5 11.5t-31.5 43.5t-10.5 86.5t14.5 143.5t40 212t69 293q83 336 138.5 502t95 217t93.5 51q64 0 83 -48q34 -83 -35 -407q-27 -130 -74 -315zM53 57q27 0 52 47t71 203t123 467
q135 537 134 646q-6 54 -36 57q-26 0 -50 -43t-71 -198t-124 -462q-136 -546 -134 -659q4 -56 35 -58z" />
    <glyph glyph-name="P" unicode="P" horiz-adv-x="356" 
d="M346 991q30 125 47 213t22 138.5t-1 78t-16 35.5t-29 8h-41q-214 -862 -226 -909q6 -2 31 -2q42 0 69.5 28.5t61.5 122.5t82 287zM272 1536h103q68 0 94 -41t14.5 -158.5t-67.5 -343.5q-55 -220 -97 -328t-83.5 -145t-106.5 -37q-31 0 -43 2q-68 -280 -115 -485h-82
q75 275 195 768q148 588 188 768z" />
    <glyph glyph-name="Q" unicode="Q" horiz-adv-x="372" 
d="M147 780q-135 -542 -133 -655q6 -56 37 -59q28 0 53.5 45.5t72 201.5t124.5 467q132 527 130 638q-4 57 -36 59q-28 0 -54 -46.5t-72.5 -199.5t-121.5 -451zM98 63l-2 -8q18 4 54 8q52 8 65 9l-18 -72q-27 0 -76 -1t-76 -1q-34 0 -54.5 12.5t-31.5 47.5t-9 90.5t17 147.5
t42.5 213t70.5 292q81 328 132.5 485t92 209.5t98.5 52.5q33 0 52 -10t31.5 -40t11 -83.5t-15 -142t-41 -213t-70.5 -299.5q-68 -276 -112 -422t-87 -209q-34 -51 -74 -66z" />
    <glyph glyph-name="R" unicode="R" horiz-adv-x="382" 
d="M141 705h45q48 0 94 87t97 285q25 102 38 173t16 113.5t-5.5 65.5t-21 30t-35.5 7h-39q-37 -154 -109.5 -442.5t-79.5 -318.5zM272 1536h109q37 0 60 -9t40 -36.5t19 -76.5t-9 -129.5t-38 -194.5q-50 -210 -101 -307t-125 -115l-2 -9q34 -8 48 -36t12 -92.5t-21 -188.5
q-5 -33 -14 -96t-14 -99.5t-9.5 -79t-5.5 -67.5h-71q-17 0 -11 29q70 437 74 514q4 73 -21 84q-8 4 -24 4h-45q-111 -444 -150 -631h-84q141 548 195 768q82 326 188 768z" />
    <glyph glyph-name="S" unicode="S" horiz-adv-x="327" 
d="M90 539l-61 -226q-15 -60 -23 -103.5t-10 -72.5t1.5 -46.5t12 -24.5t21.5 -7q31 0 52.5 39.5t45.5 134.5q54 219 37 510q-24 323 33 553q35 139 76 195.5t104 56.5q38 0 60 -16t32.5 -54.5t2.5 -107t-34 -170.5q-32 -126 -55 -205h-35h-37q6 23 28 103t30 114
q26 107 33 166t-1 79t-30 20q-32 0 -53 -40.5t-48 -148.5q-55 -218 -39 -481q7 -121 9 -184.5t-6.5 -179.5t-34.5 -218q-31 -123 -70 -180t-106 -57q-83 0 -98.5 84t24.5 233q28 110 63 234h33h43z" />
    <glyph glyph-name="T" unicode="T" horiz-adv-x="299" 
d="M238 1536h278q-2 -4 -4 -16.5t-4 -18.5q-2 -7 -8 -35h-105q-282 -1136 -360 -1466h-41h-39q54 189 371 1466h-105q5 28 8 35q5 15 9 35z" />
    <glyph glyph-name="U" unicode="U" horiz-adv-x="389" 
d="M489 1536h78q-57 -213 -155 -621q-30 -116 -168 -688q-31 -125 -69 -182t-112 -57q-94 0 -120 67.5t6 184.5q33 134 96.5 372t79.5 303q84 334 151 621h80q-54 -198 -331 -1311q-23 -92 -13.5 -132t54.5 -40q34 0 55.5 37.5t44.5 128.5q240 951 323 1317z" />
    <glyph glyph-name="V" unicode="V" horiz-adv-x="366" 
d="M494 1536h79q-53 -163 -159 -497.5t-207 -656t-121 -382.5q-8 0 -27 1t-30 1q-16 0 -33.5 -1t-22.5 -1q13 79 133 736t142 800h84q-92 -418 -221 -1128q-15 -84 -39 -200.5t-27 -131.5h8q42 154 97 330q32 104 124 403.5t146.5 477.5t73.5 249z" />
    <glyph glyph-name="W" unicode="W" horiz-adv-x="555" 
d="M694 1536h70q-33 -107 -233 -763.5t-238 -772.5q-6 0 -22 1t-23 1q-15 0 -31.5 -1t-21.5 -1q13 64 198 1008q23 111 92 409h-10q-107 -380 -117 -411q-220 -701 -309 -1006q-13 0 -29 1t-22 1q-8 0 -24 -1t-21 -1q14 78 141 735.5t152 800.5h78q-45 -197 -220 -1075
q-57 -267 -81 -365h12q40 147 102 365q309 1008 328 1075h49h49q-16 -65 -52 -240t-89 -440t-80 -395q-16 -79 -43 -204t-35 -165h8q15 50 51 177.5t54 191.5q39 131 117 392t130 437t70 246z" />
    <glyph glyph-name="X" unicode="X" horiz-adv-x="366" 
d="M492 1536h81q-75 -179 -305 -766q-51 -490 -73 -770h-82q8 56 23 193.5t30 242.5q23 187 47 301h-8q-17 -51 -54.5 -158.5t-50.5 -144.5q-151 -421 -155 -434h-84q33 85 141 365t162 419q11 101 29.5 265t31.5 282.5t21 204.5h80q-10 -66 -30 -223t-32 -238
q-13 -95 -45 -264h8q34 104 90 260q134 351 175 465z" />
    <glyph glyph-name="Y" unicode="Y" horiz-adv-x="352" 
d="M483 1536h76q-18 -49 -180.5 -500t-204.5 -571q-72 -293 -113 -465q-14 2 -38 2q-27 0 -39 -2q1 5 41.5 163t70.5 286q26 170 82.5 572t69.5 515h82q-15 -70 -125 -739q-1 -9 -41 -217h8q12 37 37 122t29 97q33 99 91.5 273.5t99 297t54.5 166.5z" />
    <glyph glyph-name="Z" unicode="Z" horiz-adv-x="311" 
d="M258 1536h258q-6 -17 -8 -33q-6 -19 -10 -37q-46 -108 -365 -948q-106 -274 -178 -448h57q88 0 138 4l-11 -37q-5 -14 -8 -37h-262q5 26 8 33q2 8 4.5 21.5t3.5 15.5q15 34 83.5 210.5t164 427t135.5 353.5q90 228 162 407q-27 -2 -90 -2q-75 0 -100 -2q2 5 5 18.5
t5 18.5q4 22 8 35z" />
    <glyph glyph-name="a" unicode="a" 
d="M154 256l237 944q-19 37 -55 37q-29 0 -54 -38.5t-67 -171t-106 -390.5q-62 -246 -85 -377.5t-17.5 -167t30.5 -35.5q29 0 60.5 49.5t56.5 149.5zM418 1300h74q-37 -126 -179 -704q-99 -396 -145 -596h-78q2 11 7.5 29.5t8.5 29.5l9 35l-6 2q-54 -110 -111 -110
q-26 0 -40.5 13t-21 53.5t1.5 112.5t32 193.5t67 292.5q71 283 119.5 427t82.5 188.5t78 44.5q59 0 78 -70l8 2q6 27 15 57z" />
    <glyph glyph-name="b" unicode="b" 
d="M225 1042l-235 -942q19 -39 57 -39q29 0 53 37.5t65.5 171t108.5 404.5q32 129 52.5 217t33.5 153t18 102t2 59t-10.5 29t-21.5 7q-72 0 -123 -199zM264 1204h4q50 109 115 109q25 0 40 -9.5t23 -36t6 -71t-14 -118t-34.5 -174.5t-57.5 -242q-46 -182 -80.5 -303
t-61 -195.5t-51 -112t-44.5 -49.5t-48 -12t-48.5 19t-30.5 48l-7 -2v-2q-2 -9 -5 -26.5t-5 -26.5h-76q51 186 193 764q75 298 203 821h77q-36 -133 -71 -278q-5 -22 -15.5 -60.5t-11.5 -42.5z" />
    <glyph glyph-name="c" unicode="c" horiz-adv-x="354" 
d="M256 516h33q-5 -26 -11 -51.5l-14 -59.5t-14 -59q-47 -196 -90.5 -277t-116.5 -81q-49 0 -72 23t-27 94t20.5 202t78.5 348q34 139 59 231t50 171t45.5 124.5t44.5 77.5t48.5 44t55.5 12q76 0 89.5 -77t-34.5 -275q-26 -113 -47 -175h-32h-37q35 124 45 173
q58 226 35 268q-8 16 -29 16q-28 0 -52 -40t-64.5 -169.5t-102.5 -382.5q-116 -472 -104 -558q10 -34 36 -36q32 0 60 62t69 227q39 166 39 168h39z" />
    <glyph glyph-name="d" unicode="d" 
d="M156 258l235 944q-19 37 -59 37q-29 0 -53 -39.5t-64.5 -170t-105.5 -390.5q-33 -134 -54 -222t-34 -156t-18 -105t-2 -60t11.5 -30t24.5 -7q30 0 61.5 48.5t57.5 150.5zM487 1585h76q-32 -119 -266 -1050q-66 -263 -129 -535h-78q2 12 8 32t8 27l11 37h-6
q-54 -110 -109 -110q-52 0 -65 48q-25 88 60 452q17 69 38 153q72 293 119 437.5t80 189.5t77 45q63 0 86 -70l9 2q7 41 14 64q62 259 67 278z" />
    <glyph glyph-name="e" unicode="e" horiz-adv-x="350" 
d="M324 948q17 70 26.5 121.5t13 85t0.5 54t-9.5 28.5t-18.5 8q-25 0 -50 -40.5t-65 -163t-98 -347.5q48 -3 133 2q23 91 68 252zM240 483h32q-61 -271 -112 -383t-123 -112q-23 0 -38 5t-29.5 20.5t-19.5 44t-4.5 77.5t11 118t31.5 168t53 226q68 272 117 415.5t91 197
t95 53.5q77 0 85 -87t-40 -270q-63 -247 -86 -331h-100h-97q-59 -239 -80.5 -367t-15 -163.5t32.5 -35.5q35 0 71.5 93.5t90.5 330.5h35z" />
    <glyph glyph-name="f" unicode="f" horiz-adv-x="247" 
d="M233 1300l37 152q20 76 54 109.5t92 33.5q32 0 65 -10q-13 -33 -24 -76q-21 9 -41 9q-29 0 -46.5 -17.5t-27.5 -60.5l-35 -140h99l-19 -73h-98q-249 -989 -303 -1227q-14 2 -39 2q-27 0 -39 -2q18 66 184 729q47 183 123 498h-55q2 13 9 37.5t9 35.5h55z" />
    <glyph glyph-name="g" unicode="g" horiz-adv-x="366" 
d="M205 455l186 747q-19 37 -55 37q-29 0 -52.5 -33.5t-60.5 -147t-92 -335.5q-40 -159 -59.5 -248.5t-24 -140.5t4 -65.5t30.5 -14.5q32 0 65 49.5t58 151.5zM418 1300h76q-31 -106 -181 -706q-134 -543 -149 -602q-28 -117 -71 -169t-111 -52q-155 0 -97 227q18 69 29 104
h33h37q-12 -49 -27 -100q-21 -94 -12.5 -129t45.5 -35q35 0 57.5 38.5t44.5 121.5q53 220 74 293l-6 2q-57 -111 -121 -111q-23 0 -37.5 8.5t-23 31t-7.5 60.5t10 98.5t28 144t48 198.5q64 254 109 382t78 167t80 39q58 0 71 -70l8 2q4 21 15 57z" />
    <glyph glyph-name="h" unicode="h" horiz-adv-x="382" 
d="M264 1204l6 -2q54 109 127 109q52 0 71 -42.5t-1 -127.5q-44 -172 -97 -380.5t-77 -303.5q-85 -349 -109 -457h-80q196 765 291 1147q12 49 3.5 72.5t-40.5 23.5q-38 0 -72 -45t-55 -131q-239 -960 -264 -1067h-76q63 246 162 637q53 219 132.5 537.5t101.5 410.5h73
q-21 -73 -55 -225q-7 -25 -20 -76.5t-21 -79.5z" />
    <glyph glyph-name="i" unicode="i" horiz-adv-x="167" 
d="M348 1462q-5 -23 -21 -37t-40 -14q-32 0 -43 20t-4 50q13 53 63 53q31 0 42 -20t3 -52zM-33 0h-78q28 104 88.5 345.5t83.5 332.5q24 96 78 313t76 309h76q-76 -293 -158 -624q-136 -547 -166 -676z" />
    <glyph glyph-name="j" unicode="j" horiz-adv-x="186" 
d="M-109 -90q96 388 175.5 707.5t118.5 476t51 206.5h75q-24 -82 -161 -634q-19 -77 -79 -321t-108 -437q-18 -72 -45.5 -104.5t-79.5 -32.5q-36 0 -63 12q15 23 26 72q18 -9 39 -9q16 0 28 13t23 51zM367 1462q-5 -22 -21.5 -36.5t-40.5 -14.5q-32 0 -43 20t-4 50
q13 53 64 53q31 0 42 -20t3 -52z" />
    <glyph glyph-name="k" unicode="k" horiz-adv-x="354" 
d="M438 1300h84q-32 -63 -325 -663q3 -97 0.5 -366.5t3.5 -270.5h-64q-19 0 -16 23q0 102 3 316.5t3 264.5h-8q-100 -391 -150 -604h-78q124 484 220 872q88 348 176 713h80q-54 -197 -199 -782l-35 -141h10q33 83 103 231l69 144t74.5 156t48.5 107z" />
    <glyph glyph-name="l" unicode="l" horiz-adv-x="169" 
d="M-33 0h-78q41 150 211 836q122 476 185 749h80q-91 -344 -191 -751q-95 -375 -207 -834z" />
    <glyph glyph-name="m" unicode="m" horiz-adv-x="575" 
d="M461 1206l8 -2q53 107 131 107q46 0 65.5 -36t2.5 -106q-43 -171 -102 -400t-85 -333q-54 -212 -104 -436h-78q166 646 291 1149q12 49 4 71.5t-39 22.5q-35 0 -66.5 -46t-54.5 -136q-253 -1013 -264 -1061h-78q156 599 293 1149q11 49 3.5 71.5t-36.5 22.5
q-36 0 -69 -46t-56 -136q-220 -883 -262 -1061h-76q24 90 162 637q25 101 62.5 249.5t61.5 245.5t40 168h72l-23 -90h4q53 101 123 101q79 0 70 -105z" />
    <glyph glyph-name="n" unicode="n" horiz-adv-x="382" 
d="M264 1204l6 -2q54 109 127 109q52 0 71 -42.5t-1 -127.5q-44 -172 -97 -380.5t-77 -303.5q-85 -349 -109 -457h-80q196 765 291 1147q12 49 3.5 72.5t-40.5 23.5q-38 0 -72 -45t-55 -131q-239 -960 -264 -1067h-76q63 246 162 637l164 663h72z" />
    <glyph glyph-name="o" unicode="o" horiz-adv-x="360" 
d="M260 655q117 467 104 555q-7 36 -36 37q-20 0 -35 -17.5t-39 -80.5t-55 -177.5t-82 -316.5q-117 -467 -106 -560q7 -41 36 -42q14 0 24.5 7t24 31t27.5 63t34.5 109t44.5 162t58 230zM336 662q-37 -151 -64 -251t-52 -180t-44.5 -123.5t-41.5 -72.5t-42.5 -38t-48.5 -9
q-49 0 -72.5 24t-27 96.5t21 204t78.5 349.5q72 290 118.5 428.5t82 181.5t88.5 43q32 0 51.5 -8.5t33.5 -33t15 -69.5t-7.5 -117.5t-30.5 -176.5t-58 -248z" />
    <glyph glyph-name="p" unicode="p" 
d="M225 1042l-235 -944q16 -37 55 -37q28 0 53 39t67 173t105 389q112 448 108 535q-5 42 -32 44q-70 0 -121 -199zM264 1202h4q54 111 115 111q49 0 61 -49q24 -96 -75 -506q-10 -46 -23 -96q-72 -288 -122.5 -436t-84.5 -192t-78 -44q-56 0 -79 65l-7 -2l-10 -43
q-9 -40 -27.5 -114.5t-27.5 -114.5h-76q40 153 238 938l141 581h78l-7 -24q-8 -24 -12 -39z" />
    <glyph glyph-name="q" unicode="q" 
d="M156 258l237 946q-24 35 -59 35q-27 0 -51.5 -38.5t-67.5 -172.5t-106 -389q-112 -455 -105 -541q4 -38 31 -39q31 0 63 48.5t58 150.5zM418 1300h74q-1 -5 -195 -765q-24 -98 -184 -754h-78q49 188 59 229l23 86h-6q-56 -110 -115 -110q-48 0 -60 53q-24 112 99 600
q54 219 93 352.5t71.5 203.5t57.5 93t58 23q27 0 48 -18.5t32 -49.5l11 2v2q3 25 12 53z" />
    <glyph glyph-name="r" unicode="r" horiz-adv-x="253" 
d="M229 1128h9q35 98 70.5 138.5t76.5 40.5q16 0 37 -7q-21 -45 -37 -96q-11 8 -31 8q-44 0 -79 -59t-68 -195q-199 -788 -236 -958h-80q42 160 175 686q31 131 81 329t70 285h66q-17 -48 -54 -172z" />
    <glyph glyph-name="s" unicode="s" horiz-adv-x="317" 
d="M10 426h35q-7 -26 -22 -80t-19 -72q-21 -85 -24.5 -134t7.5 -67t36 -18q35 0 59.5 41.5t50.5 145.5q17 68 21.5 135t-0.5 126t-19 134q-14 78 -19.5 138t0.5 146t29 173q30 115 67 168t101 53q48 0 72 -26t27 -88.5t-25 -166.5q-12 -54 -41 -151h-35h-35q42 154 43 157
q20 81 24.5 127.5t-4.5 65t-32 18.5q-29 0 -49.5 -35.5t-42.5 -121.5q-29 -119 -32 -213.5t16 -184.5q15 -81 22 -142.5t3 -148.5t-25 -169q-31 -131 -70.5 -189.5t-110.5 -58.5q-79 0 -99.5 68.5t15.5 213.5q8 32 43 156h33z" />
    <glyph glyph-name="t" unicode="t" horiz-adv-x="262" 
d="M403 1227l-114 2q-64 -243 -277 -1088q-10 -44 -2 -62t35 -18q23 0 55 19q-4 -42 4 -70q-46 -18 -88 -18q-114 0 -73 155q34 137 124 495t148 589h-51q11 48 18 69l49 -2l52 205h32h45q-13 -51 -55 -205q78 0 119 2q-19 -64 -21 -73z" />
    <glyph glyph-name="u" unicode="u" horiz-adv-x="382" 
d="M430 1300h76q-85 -329 -160 -636q-109 -430 -164 -664h-73l22 88h-6q-53 -98 -123 -98q-52 0 -71.5 42t1.5 136q50 206 105.5 419.5t66.5 256.5q15 62 53 219t58 237h78q-84 -321 -287 -1130q-15 -54 -8.5 -81.5t39.5 -27.5q87 0 129 172q173 695 264 1067z" />
    <glyph glyph-name="v" unicode="v" horiz-adv-x="325" 
d="M410 1300h77q-59 -167 -228.5 -674t-205.5 -626q-5 0 -19.5 1t-25.5 1q-14 0 -30 -1t-19 -1q119 681 217 1300h82q-12 -52 -35.5 -181t-59 -327.5t-54.5 -302.5q-12 -58 -29.5 -142.5t-29 -140t-19.5 -95.5h8q89 295 113 376q52 167 147.5 466t110.5 347z" />
    <glyph glyph-name="w" unicode="w" horiz-adv-x="509" 
d="M604 1300h68q-36 -112 -122 -387t-179.5 -577t-104.5 -336h-47h-51q8 52 70.5 377.5t93.5 499.5q14 69 42 187.5t36 158.5h-9q-11 -36 -45 -158t-55 -188q-109 -344 -278 -877h-43h-46q11 65 116 621.5t126 678.5h74q-43 -187 -174 -864q-13 -63 -80 -358h10
q80 275 105 356q51 164 153 486.5t119 379.5h45h49q-13 -53 -40.5 -192t-69.5 -357.5t-62 -318.5q-32 -168 -76 -354h13q37 137 98 354q263 864 264 868z" />
    <glyph glyph-name="x" unicode="x" horiz-adv-x="333" 
d="M408 1300h79q-21 -50 -108.5 -271t-147.5 -365q-7 -78 -22.5 -227t-25.5 -254t-15 -183h-82q9 61 25.5 198t21.5 179q7 55 18 135.5t15 110.5h-6q-10 -28 -38 -109.5t-48 -136.5q-56 -150 -133 -377h-82q25 62 114 294.5t142 364.5q9 83 35 315t34 326h82
q-33 -205 -61 -409q-7 -51 -18 -119t-13 -84h8q52 147 72 199q47 125 154 413z" />
    <glyph glyph-name="y" unicode="y" 
d="M430 1300h76q-50 -183 -148 -583q-35 -139 -178 -725q-29 -118 -73 -169.5t-111 -51.5q-82 0 -109 55t0 172q7 27 16.5 59t12.5 45h35h37q-18 -59 -27 -100q-40 -164 39 -164q37 0 61.5 39.5t44.5 120.5q59 239 76 297l-8 2q-55 -100 -127 -100q-107 0 -65 165
q38 156 80.5 322t54.5 213q21 85 53 217t45 186h78q-18 -71 -61 -236t-87 -337t-88 -350q-15 -59 -7.5 -84t42.5 -25q82 0 125 172q200 803 213 860z" />
    <glyph glyph-name="z" unicode="z" horiz-adv-x="305" 
d="M201 1300h250q-7 -22 -9 -32q-7 -26 -10 -39q-21 -45 -319 -789q-18 -43 -75 -179.5t-79 -190.5h64q72 0 118 4q-7 -26 -10 -39q-2 -5 -4 -17t-4 -18h-252q1 5 4 16.5t4 16.5q2 7 8 37q12 24 72.5 172t140 345.5t119.5 293.5q55 142 148 352q-25 -2 -88 -2q-68 0 -97 -2
q9 27 11 37q2 14 8 34z" />
    <glyph glyph-name="uni00A0" unicode="&#xa0;" horiz-adv-x="161" 
 />
  </font>
</defs>
</svg>
