<?xml version="1.0" standalone="no"?>
<!DOCTYPE svg PUBLIC "-//W3C//DTD SVG 1.1//EN" "http://www.w3.org/Graphics/SVG/1.1/DTD/svg11.dtd" >
<svg xmlns="http://www.w3.org/2000/svg" xmlns:xlink="http://www.w3.org/1999/xlink" version="1.1">
<metadata>
Created by FontForge 20170731 at Tue Nov 10 11:53:45 2020
 By Aleksey,,,
(c) Copyright OH no Type Company, LLC. 2015. All rights reserved.
</metadata>
<defs>
<font id="ObviouslyDemo-Cond" horiz-adv-x="626" >
  <font-face 
    font-family="Obviously Demo Cond"
    font-weight="340"
    font-stretch="condensed"
    units-per-em="2048"
    panose-1="4 13 5 10 5 4 3 4 3 6"
    ascent="1638"
    descent="-410"
    x-height="1282"
    cap-height="1536"
    bbox="-20 -250 895 1597"
    underline-thickness="102"
    underline-position="-307"
    unicode-range="U+0020-00A0"
  />
<missing-glyph horiz-adv-x="0" 
 />
    <glyph glyph-name=".notdef" horiz-adv-x="0" 
 />
    <glyph glyph-name=".null" horiz-adv-x="0" 
 />
    <glyph glyph-name="nonmarkingreturn" horiz-adv-x="682" 
 />
    <glyph glyph-name="space" unicode=" " horiz-adv-x="262" 
 />
    <glyph glyph-name="comma" unicode="," horiz-adv-x="192" 
d="M63 332h117q-77 -367 -110 -555q-49 15 -82 20q18 90 43 267t32 268z" />
    <glyph glyph-name="period" unicode="." horiz-adv-x="198" 
d="M100 176q37 0 56.5 -24t19.5 -68q0 -92 -76 -92q-39 0 -59.5 24.5t-20.5 67.5q0 44 21 68t59 24z" />
    <glyph glyph-name="zero" unicode="0" horiz-adv-x="641" 
d="M586 778q0 -315 -29 -489.5t-84 -239.5t-151 -65t-151.5 64.5t-85.5 240t-30 489.5q0 190 11.5 325.5t31.5 222t54 136.5t74 69t96 19t95.5 -19t73 -69t53.5 -136.5t31 -222t11 -325.5zM322 1454q-40 0 -67 -25.5t-49.5 -96t-33 -208.5t-10.5 -350q1 -214 11.5 -353
t32.5 -212t49 -100t67 -27t66.5 27t48 100t31 212t9.5 353q0 213 -10 350t-31.5 208t-47.5 96.5t-66 25.5z" />
    <glyph glyph-name="one" unicode="1" horiz-adv-x="292" 
d="M145 0h-57q4 188 4 768q0 530 -6 698q44 31 66 70h26h27q-6 -182 -6 -768q0 -483 6 -768h-60z" />
    <glyph glyph-name="two" unicode="2" horiz-adv-x="567" 
d="M143 98h131q172 0 248 4v-102h-483v90q0 160 49 283.5t158 271.5q93 135 134.5 275.5t41.5 318.5q0 119 -30.5 169t-96.5 50q-73 0 -105 -72.5t-32 -263.5q0 -55 4 -223h-101q-6 141 -6 231q0 225 57 323.5t183 98.5q122 0 176.5 -76.5t54.5 -234.5q0 -198 -51.5 -352.5
t-155.5 -313.5q-98 -137 -137 -239.5t-39 -237.5z" />
    <glyph glyph-name="three" unicode="3" horiz-adv-x="595" 
d="M371 780v-6q41 -7 63 -22q63 -39 89 -127t26 -230q0 -213 -61 -312t-193 -99q-129 0 -186.5 87t-57.5 294q0 59 6 151q16 -2 49 -2q38 0 52 2q0 -28 -1 -75.5t-1 -61.5q0 -122 15.5 -188.5t44.5 -90.5t81 -24q79 0 113 74t34 260q0 127 -19.5 198t-54.5 97t-96 26
q-55 0 -86 -2v51v45q20 -2 86 -2q86 0 123 80.5t37 261.5q0 159 -33 227t-104 68q-74 0 -105.5 -59.5t-31.5 -216.5q0 -18 1 -71t1 -83h-49h-52q-4 63 -4 160q0 194 56.5 279t183.5 85q129 0 185.5 -91.5t56.5 -286.5q0 -157 -23 -237t-76 -124q-29 -23 -69 -35z" />
    <glyph glyph-name="four" unicode="4" horiz-adv-x="632" 
d="M522 768v-283q67 0 96 2v-49v-51l-96 2q0 -177 4 -389h-112q4 208 4 389h-119q-160 0 -246 -2q14 190 38 602t24 547h112q0 -7 -29.5 -465.5t-33.5 -583.5q59 -2 254 -2q0 834 -2 1051h108q-2 -221 -2 -768z" />
    <glyph glyph-name="five" unicode="5" horiz-adv-x="593" 
d="M532 1487v-55q-78 4 -176 4q-117 0 -180 -2q-2 -74 -2 -338q0 -38 1 -111t1 -108q63 104 168 104q68 0 110.5 -39t67.5 -145t25 -289q0 -198 -27 -313.5t-79 -163t-138 -47.5q-128 0 -182.5 87.5t-54.5 295.5q0 92 4 153h51h49q-2 -47 -2 -129q0 -173 30.5 -245
t104.5 -72t106.5 96.5t32.5 331.5q0 155 -16 243.5t-43 119t-72 30.5q-101 0 -143 -152q-58 19 -92 21q1 38 1 90.5t-0.5 121t-0.5 103.5q0 391 -2 457q70 -2 229 -2q155 0 229 2v-49z" />
    <glyph glyph-name="six" unicode="6" 
d="M322 74q76 0 109.5 93.5t33.5 315.5q0 194 -31 267t-104 73q-79 0 -119.5 -77t-40.5 -254q0 -220 38 -319t114 -99zM154 756l8 -2q47 157 194 157q116 0 165.5 -96t49.5 -328q0 -276 -56.5 -389.5t-192.5 -113.5q-74 0 -121 32t-82.5 120t-50.5 247.5t-15 409.5
q0 298 29 463.5t86 229.5t158 64q85 0 135 -32.5t77 -121.5t27 -247q0 -89 -2 -109h-53h-51q2 27 2 107q0 177 -29.5 245t-107.5 68q-54 0 -88 -38t-54.5 -141.5t-21.5 -281.5q-5 -200 -6 -243z" />
    <glyph glyph-name="seven" unicode="7" horiz-adv-x="497" 
d="M14 1536h465v-51v-49q-71 -190 -138.5 -621.5t-74.5 -814.5h-53h-57q11 364 82 796.5t143 637.5q-246 0 -367 -2v55v49z" />
    <glyph glyph-name="eight" unicode="8" 
d="M311 78q86 0 124 74t38 258q0 129 -17.5 199.5t-51 96t-93.5 25.5q-59 0 -92 -26t-50 -96t-17 -199q0 -185 37 -258.5t122 -73.5zM311 1460q-77 0 -111 -67t-34 -230q0 -132 17 -207.5t47.5 -104t80.5 -28.5t81 28.5t48 104.5t17 207q0 163 -34 230t-112 67zM408 780v-6
q39 -9 61 -24q60 -41 84.5 -127.5t24.5 -227.5q0 -212 -64.5 -311.5t-202.5 -99.5t-201 99.5t-63 311.5q0 142 23.5 228t83.5 127q20 13 61 24v6q-37 12 -63 35q-50 42 -70.5 120.5t-20.5 235.5q0 200 57 291.5t193 91.5q137 0 194.5 -91t57.5 -292q0 -156 -20 -235.5
t-70 -120.5q-27 -24 -65 -35z" />
    <glyph glyph-name="nine" unicode="9" horiz-adv-x="630" 
d="M303 711q77 0 117.5 77.5t40.5 255.5q0 418 -150 418q-76 0 -111.5 -94.5t-35.5 -314.5q0 -194 32.5 -268t106.5 -74zM477 788h-6q-20 -81 -71 -124t-126 -43q-115 0 -165 98t-50 328q0 275 57 389t191 114q76 0 123.5 -32.5t82.5 -121t50 -247t15 -408.5
q0 -183 -10.5 -314t-31 -217t-54.5 -136t-75.5 -70t-99.5 -20q-87 0 -137.5 34t-77 122.5t-26.5 246.5q0 32 1 67.5t1 39.5h53h51q-2 -27 -2 -105q0 -181 29.5 -248t107.5 -67q55 0 89 37t54 140t21 284q5 189 6 253z" />
    <glyph glyph-name="A" unicode="A" horiz-adv-x="638" 
d="M319 1458h-6q-2 -16 -45 -323q-62 -490 -80 -619q45 -2 131 -2h125q-66 483 -82 625q-30 209 -43 319zM629 0h-123q-5 77 -49 424h-138h-143q-38 -287 -49 -424h-117q36 224 119 795.5t107 740.5h163q9 -48 102.5 -690.5t127.5 -845.5z" />
    <glyph glyph-name="B" unicode="B" horiz-adv-x="661" 
d="M311 94q59 0 91.5 10.5t56 44.5t31.5 95t8 166q0 179 -39 251t-148 72q-16 0 -54 -1t-58 -1q0 -552 2 -633q41 -4 110 -4zM485 1135q0 133 -16.5 199t-50.5 88t-103 22q-15 0 -52.5 -1t-61.5 -1q-2 -147 -2 -621q39 -2 110 -2q100 1 138 70t38 246zM406 780v-10
q67 -7 94 -22q55 -33 78.5 -111t23.5 -236q0 -166 -26.5 -252t-82.5 -117.5t-163 -31.5h-242q6 282 6 768q0 507 -6 768h246q60 0 100 -9.5t72 -33.5t49 -69.5t26 -113.5t9 -169q0 -146 -21 -219.5t-71 -112.5q-36 -23 -92 -29z" />
    <glyph glyph-name="C" unicode="C" horiz-adv-x="657" 
d="M532 889h-53q4 152 4 217q0 136 -17.5 213.5t-48 105t-81.5 27.5q-35 0 -59 -14t-46.5 -55.5t-36 -115t-21.5 -195.5t-9 -294q0 -216 11 -355t35 -212.5t54 -100t76 -26.5q81 0 115 87t34 284q0 54 -4 190h54h51q4 -126 4 -174q0 -247 -59.5 -366t-194.5 -119
q-60 0 -103 21t-79 73t-57.5 141.5t-33 227t-10.5 327.5q0 237 16 389t53 237t87 116.5t127 31.5q134 0 191 -106t57 -338q0 -145 -4 -217h-52z" />
    <glyph glyph-name="D" unicode="D" horiz-adv-x="665" 
d="M287 96q43 0 70.5 8t54 32.5t42 69.5t27.5 120t16.5 183.5t4.5 260.5q0 179 -8.5 301.5t-23.5 195.5t-42 111.5t-55.5 50t-73.5 11.5q-38 0 -100 -4q-2 -152 -2 -674q0 -614 2 -664q31 -2 88 -2zM86 1536h213q70 0 115.5 -15t85.5 -60t62 -129t34 -220t12 -336
q0 -199 -11 -333.5t-32 -223t-61 -136t-89 -65.5t-124 -18h-205q4 174 4 766q0 673 -4 770z" />
    <glyph glyph-name="E" unicode="E" horiz-adv-x="587" 
d="M88 1536h440v-47v-55q-179 6 -327 6q0 -98 -2 -312.5t-2 -304.5q221 0 321 2v-98q-100 2 -321 2q0 -477 2 -631q212 0 329 4v-51v-51h-442q6 166 6 768q0 682 -4 768z" />
    <glyph glyph-name="F" unicode="F" horiz-adv-x="563" 
d="M88 1536h436q-2 -14 -2 -49q0 -37 2 -53q-181 6 -325 6q-2 -190 -2 -643v-70q219 0 319 2q-2 -27 -2 -98q-46 0 -150.5 1t-166.5 1q0 -510 4 -633h-113q2 174 2 768q0 691 -2 768z" />
    <glyph glyph-name="G" unicode="G" horiz-adv-x="665" 
d="M444 788h144q3 -159 3.5 -280.5t-10.5 -210.5t-27.5 -149t-47 -96t-70 -51t-96.5 -15q-77 0 -128 35t-88 123t-54 243.5t-17 392.5t17 389t55.5 235.5t90 114.5t130.5 31q130 0 187 -102t57 -315q0 -134 -4 -195q-5 0 -22 1t-27 1q-40 0 -56 -2q4 126 4 190
q0 125 -16 196.5t-46 99.5t-81 28q-47 0 -77.5 -25.5t-55.5 -96t-36.5 -205.5t-12.5 -345q1 -279 22 -434t58.5 -210.5t101.5 -55.5q49 0 77.5 26.5t47 95.5t21 189t-0.5 307q-119 0 -176 -2q2 10 2 43q0 36 -2 52q82 -3 133 -3z" />
    <glyph glyph-name="H" unicode="H" horiz-adv-x="702" 
d="M502 1536h114q-4 -121 -4 -768q0 -621 4 -768h-114q4 197 4 719h-156h-155q0 -522 4 -719h-113q4 147 4 768q0 647 -4 768h113q-4 -160 -4 -717q49 -2 155 -2q107 0 156 2q0 557 -4 717z" />
    <glyph glyph-name="I" unicode="I" horiz-adv-x="292" 
d="M203 0h-113q4 170 4 768q0 600 -4 768h113q-4 -166 -4 -768q0 -596 4 -768z" />
    <glyph glyph-name="J" unicode="J" horiz-adv-x="403" 
d="M203 1536h114q-4 -143 -4 -573q0 -21 2 -264t2 -463q0 -248 -178 -248q-74 0 -133 26q13 37 19 107q47 -29 98 -29q43 0 65.5 30t22.5 101q0 1113 -8 1313z" />
    <glyph glyph-name="K" unicode="K" horiz-adv-x="643" 
d="M487 1536h127q-26 -66 -137 -367.5t-158 -418.5q43 -92 76 -172q66 -151 148.5 -352.5t93.5 -225.5h-105q-17 0 -26.5 8t-18.5 29q-45 121 -150 386t-110 279h-26q0 -544 4 -702h-115q4 170 4 768q0 600 -4 768h115q-4 -164 -4 -758h22q16 38 51.5 125.5t49.5 120.5
q102 290 163 512z" />
    <glyph glyph-name="L" unicode="L" horiz-adv-x="468" 
d="M90 1536h117q-6 -158 -6 -766q0 -360 4 -672q162 0 248 4q0 -6 -1 -23.5t-1 -27.5q0 -8 1 -25.5t1 -25.5h-361q4 76 4 768q0 665 -6 768z" />
    <glyph glyph-name="M" unicode="M" horiz-adv-x="886" 
d="M793 0h-111q2 133 6 954q-1 57 10 469h-8q-37 -364 -61 -503l-162 -920h-55l-166 930q-17 101 -64 495h-8q1 -59 4.5 -157t5.5 -176.5t2 -141.5q0 -238 4 -950h-100q4 221 4 770q0 364 -4 766h148q142 -811 165 -942q21 -129 37 -293h11q29 209 41 287q36 217 96 562.5
t67 385.5h136q-3 -301 -3 -766q0 -218 5 -770z" />
    <glyph glyph-name="N" unicode="N" horiz-adv-x="700" 
d="M512 1536h98q0 -58 -1 -320t-1 -446q0 -575 2 -770h-114q-41 203 -250 1020q-41 190 -70 401h-4q12 -243 12 -567q0 -719 4 -854h-98q2 190 2 768q0 604 -2 768h139q10 -55 101 -417.5t139 -583.5q26 -117 61 -342h7q-2 43 -6.5 126.5t-6.5 142.5t-2 113q-5 821 -10 961z
" />
    <glyph glyph-name="O" unicode="O" horiz-adv-x="677" 
d="M623 778q0 -236 -17 -391.5t-54 -244t-87 -123.5t-125 -35t-125 35t-87 123.5t-54 244t-17 391.5q0 235 17.5 388.5t55.5 237t87 115t123 31.5t123 -31.5t87 -115t55.5 -237t17.5 -388.5zM340 84q45 0 75 28t53 102.5t33.5 211.5t10.5 348t-10.5 346.5t-33.5 207.5
t-52.5 98t-75.5 26q-45 0 -75 -26t-54 -97t-35.5 -208t-11.5 -347t11 -348t35 -212t54.5 -102t75.5 -28z" />
    <glyph glyph-name="P" unicode="P" 
d="M289 578q41 0 68.5 9t51.5 35t37.5 72t21 119.5t7.5 179.5q0 138 -11 227.5t-34 136t-51.5 64t-71.5 17.5q-11 0 -51 -1t-59 -1v-854q36 -4 92 -4zM88 1536h223q98 0 153.5 -44.5t84.5 -163.5t29 -335q0 -154 -17.5 -256t-54 -157.5t-83.5 -77t-116 -21.5q-63 0 -110 2
q4 -344 8 -483h-117q6 217 6 768q0 571 -6 768z" />
    <glyph glyph-name="Q" unicode="Q" horiz-adv-x="675" 
d="M160 780q0 -214 11.5 -353t35.5 -211.5t54 -99t75 -26.5q43 0 72 27t52.5 99t34.5 211.5t11 352.5q0 207 -10.5 341.5t-34 205.5t-52.5 98t-73 27t-74 -27t-54.5 -98t-36 -206t-11.5 -341zM537 90l102 14v-104q-40 0 -140.5 -3t-162.5 -3q-73 0 -123 36.5t-87 124.5
t-54 241t-17 382q0 234 17.5 387.5t55.5 237t87.5 115.5t122.5 32q72 0 120.5 -32t85 -115.5t53.5 -234t17 -380.5q0 -248 -15 -398.5t-56 -219.5q-40 -62 -111 -86l2 -6q7 0 103 12z" />
    <glyph glyph-name="R" unicode="R" horiz-adv-x="673" 
d="M197 715q7 0 51 -1t80 -1q77 0 117 91.5t40 266.5q0 94 -7 159.5t-19.5 107t-34.5 64.5t-47.5 31.5t-63.5 8.5q-9 0 -52 -1t-64 -1q0 -83 -0.5 -234t-0.5 -270.5t1 -220.5zM408 659v-2q78 -15 112.5 -77t63.5 -242q6 -35 20 -123.5t23 -136t18 -78.5h-100q-11 0 -17 5.5
t-8.5 13t-7.5 30.5q-18 139 -30 223.5t-25.5 154t-24.5 103.5t-28 57t-34 28.5t-44 5.5q-26 0 -64 -1.5t-65 -1.5q0 -340 8 -618h-115q0 97 2 344t2 424q0 176 -2 423.5t-2 344.5h244q89 0 142 -37.5t82.5 -137.5t29.5 -276q0 -195 -41.5 -297.5t-138.5 -128.5z" />
    <glyph glyph-name="S" unicode="S" horiz-adv-x="608" 
d="M109 535h57q-2 -66 -2 -183q0 -152 34 -213t111 -61q72 0 104.5 50t32.5 153q0 130 -40.5 238.5t-131.5 209.5q-109 109 -160 235.5t-51 288.5q0 155 59 226t179 71q128 0 183 -83t55 -285q0 -109 -4 -181h-48h-53q4 126 4 185q0 151 -32 210.5t-105 59.5
q-67 0 -99.5 -48t-33.5 -155q0 -127 35.5 -228.5t126.5 -197.5q219 -229 219 -538q0 -307 -240 -307q-133 0 -192.5 90.5t-59.5 263.5q0 127 4 201q14 -2 48 -2z" />
    <glyph glyph-name="T" unicode="T" horiz-adv-x="520" 
d="M18 1536h484q-2 -12 -2 -49q0 -35 2 -49q-66 2 -189 2q0 -1190 4 -1440h-57h-55q4 123 4 1440q-121 0 -191 -2q2 16 2 51t-2 47z" />
    <glyph glyph-name="U" unicode="U" horiz-adv-x="698" 
d="M494 1536h112q-4 -162 -4 -571q0 -71 3 -300t3 -352q0 -162 -59.5 -245.5t-196.5 -83.5q-140 0 -201 83.5t-61 245.5q0 123 3 352t3 300q0 409 -4 571h115q-8 -229 -8 -1219q0 -124 37.5 -180.5t117.5 -56.5q77 0 111.5 56.5t34.5 180.5q0 1049 -6 1219z" />
    <glyph glyph-name="V" unicode="V" horiz-adv-x="624" 
d="M492 1536h116q-23 -158 -69.5 -489.5t-91.5 -658.5t-54 -388q-11 0 -37 1t-41 1q-23 0 -48 -1t-31 -1q-2 15 -94 692.5t-124 843.5h125q17 -223 131 -1104q17 -125 39 -334h9q10 130 38 334q16 135 49 401t55 449.5t28 253.5z" />
    <glyph glyph-name="W" unicode="W" horiz-adv-x="911" 
d="M795 1536h100q-21 -162 -92.5 -815t-79.5 -721q-7 0 -29 1t-32 1q-58 0 -74 -2q-7 59 -22.5 219t-38.5 404.5t-35 371.5q-19 204 -29 402h-8q-12 -238 -31 -404q-56 -518 -107 -993q-13 0 -34.5 1t-32.5 1q-14 0 -34.5 -1t-27.5 -1q-13 93 -81 740t-91 796h121
q12 -219 96 -1057q13 -155 27 -362h8q9 142 31 362q13 136 38 385.5t42.5 425.5t21.5 246h70h66q19 -287 94 -1059q7 -88 26 -364h13q4 95 26 362q13 145 37 390.5t41.5 424t20.5 246.5z" />
    <glyph glyph-name="X" unicode="X" horiz-adv-x="622" 
d="M473 1536h119q-65 -210 -203 -762q38 -144 112 -410.5t99 -363.5h-129q-14 60 -48.5 197.5t-57.5 236.5q-42 174 -58 289h-4q-11 -80 -61 -291q-16 -72 -49.5 -217t-47.5 -215h-120q23 83 93.5 359.5t108.5 418.5q-122 483 -196 758h127q28 -137 104 -459
q31 -132 49 -252h4q20 133 47 246q99 408 111 465z" />
    <glyph glyph-name="Y" unicode="Y" horiz-adv-x="575" 
d="M446 1536h115q-205 -989 -221 -1071q0 -125 2 -286t2 -179q-16 2 -55 2q-40 0 -56 -2q3 108 3 463q-34 189 -113 574t-109 499h125q4 -45 113 -702q27 -162 35 -228h10q33 205 37 228q15 97 42 259.5t46.5 282t23.5 160.5z" />
    <glyph glyph-name="Z" unicode="Z" horiz-adv-x="598" 
d="M63 1536h482q0 -8 -1 -22.5t-1 -22.5q0 -39 2 -53q-14 -35 -56 -184.5t-107 -385t-97 -348.5q-18 -63 -58 -212.5t-59 -211.5q39 2 108 2q177 0 267 4q-2 -18 -2 -53q0 -8 1 -24t1 -25h-488v45v51q12 32 60 203.5t111 402t98 347.5q84 299 116 393q-86 -4 -145 -4
q-187 0 -232 -2v51v49z" />
    <glyph glyph-name="a" unicode="a" horiz-adv-x="606" 
d="M418 330v301q-44 8 -117 8q-74 0 -108.5 -55t-34.5 -203q0 -123 12 -188.5t34.5 -89t63.5 -23.5q70 0 110 75.5t40 174.5zM420 137l-12 2q-40 -153 -179 -153q-89 0 -130.5 83.5t-41.5 292.5q0 191 55 271t171 80q85 0 135 -21q2 121 2 346q0 166 -115 166
q-48 0 -75 -27.5t-39.5 -103t-8.5 -211.5q-16 2 -49 2q-19 0 -51 -4q-11 232 40.5 335t182.5 103q217 0 217 -260q0 -136 -2 -339t-2 -298q0 -332 14 -401h-88q-17 0 -21.5 6.5t-4.5 28.5q0 14 1 49t1 53z" />
    <glyph glyph-name="b" unicode="b" 
d="M186 961l-2 -816q63 -63 142 -63q52 0 82 43t46.5 169t16.5 357q0 229 -14.5 349t-42.5 161t-80 41q-64 0 -106 -60t-42 -181zM184 1153l11 -2q46 147 182 147q74 0 114.5 -50t62 -192t21.5 -405q0 -265 -26 -414t-70.5 -200t-118.5 -51q-111 0 -167 96l-9 -4v-19
q0 -10 1 -29.5t1 -29.5h-106q4 143 4 760q0 477 -4 825h108q0 -47 -1 -144.5t-1 -158.5q0 -90 -2 -129z" />
    <glyph glyph-name="c" unicode="c" horiz-adv-x="595" 
d="M487 780h-49q2 49 2 135q0 162 -30 226.5t-97 64.5q-30 0 -52.5 -13.5t-43 -50t-33.5 -98t-20.5 -162t-7.5 -237.5q0 -145 7.5 -248t19.5 -164t33 -95t42.5 -45t52.5 -11q69 0 100 68.5t31 226.5q0 15 -1 61.5t-1 71.5q16 -2 52 -2q35 0 47 2q2 -49 2 -135
q0 -197 -51.5 -294t-180.5 -97q-67 0 -112 28t-79 101t-49.5 203.5t-15.5 330.5q0 246 29.5 391t85.5 203.5t147 58.5q117 0 169.5 -88t52.5 -292q0 -112 -2 -140h-48z" />
    <glyph glyph-name="d" unicode="d" 
d="M438 322l2 819q-58 61 -133 61q-55 0 -86.5 -43t-50 -170t-18.5 -358q0 -173 8.5 -283t27.5 -169t43 -80t62 -21q63 0 104 62t41 182zM438 1585h107q-2 -227 -2 -989q0 -475 2 -596h-107q0 13 1 39.5t1 42.5v55l-10 2q-23 -74 -68 -113.5t-106 -39.5q-55 0 -91 26.5
t-63.5 96t-40 197t-12.5 323.5q0 201 14.5 334.5t45.5 205t70 99.5t95 28q105 0 160 -94l8 2q-2 35 -2 101q0 182 -2 280z" />
    <glyph glyph-name="e" unicode="e" horiz-adv-x="587" 
d="M303 1212q-35 0 -60 -23t-45.5 -79.5t-32 -160.5t-13.5 -257q202 0 268 2q4 106 4 209q0 168 -28.5 238.5t-92.5 70.5zM473 465h45q2 -124 -6 -209t-31.5 -148.5t-67 -93.5t-110.5 -30q-53 0 -89 13.5t-68.5 53.5t-51.5 112t-30 190t-11 286q0 191 16 320.5t49.5 204
t78.5 105.5t108 31q117 0 165 -96.5t48 -298.5q0 -109 -4 -293h-184h-178q0 -168 10 -276.5t31 -164t46.5 -75.5t63.5 -20q70 0 97 87.5t22 301.5h51z" />
    <glyph glyph-name="f" unicode="f" horiz-adv-x="419" 
d="M115 1264v116q0 108 43.5 162.5t140.5 54.5q60 0 115 -18q-11 -75 -13 -100q-45 18 -84 18q-54 0 -77 -28t-23 -95v-110q31 0 92 1t90 1v-99q-29 0 -90 1t-92 1q0 -968 4 -1169q-20 2 -55 2t-53 -2q4 184 4 715q0 32 -1 184.5t-1 269.5l-90 -2q3 45 0 97h90z" />
    <glyph glyph-name="g" unicode="g" horiz-adv-x="612" 
d="M299 537q75 0 107 69.5t32 243.5q0 181 -32 262.5t-107 81.5q-78 0 -109.5 -80t-31.5 -262q0 -177 32 -246t109 -69zM197 147h-9q-69 -82 -69 -170q0 -66 40.5 -102.5t139.5 -36.5q199 0 199 168q0 78 -30 113t-93 35q-25 0 -89 -3.5t-89 -3.5zM592 1282v-96
q-30 0 -172 14v-10q65 -33 91 -112t26 -249q0 -203 -57 -291.5t-183 -88.5q-45 0 -82 12q-53 -92 -53 -158q0 -67 69 -67q36 0 90.5 3t73.5 3q98 0 147.5 -56t49.5 -176q0 -125 -66 -192.5t-229 -67.5q-84 0 -140.5 15.5t-83.5 44.5t-37.5 60.5t-10.5 74.5q0 128 110 213
q-63 24 -63 112q0 97 96 213q-107 74 -107 371q0 224 58 327t178 103q5 0 55.5 -0.5t119.5 -1t120 -0.5z" />
    <glyph glyph-name="h" unicode="h" horiz-adv-x="643" 
d="M184 1161h11q52 135 194 135q178 0 178 -233q0 -171 -2 -357.5t-2 -256.5q0 -310 4 -449h-108q4 524 4 1034q0 85 -27 125.5t-90 40.5q-73 0 -117.5 -55t-44.5 -166q0 -639 4 -979h-108q4 184 4 647q0 750 -4 938h108q-2 -80 -2 -297q0 -86 -2 -127z" />
    <glyph glyph-name="i" unicode="i" horiz-adv-x="276" 
d="M215 1470q0 -32 -18.5 -51.5t-57.5 -19.5q-80 0 -80 71q0 68 80 68q76 0 76 -68zM193 0h-109q4 186 4 668q0 446 -4 616h109q-5 -215 -5 -620q0 -434 5 -664z" />
    <glyph glyph-name="j" unicode="j" horiz-adv-x="321" 
d="M139 -39q0 1095 -6 1323h109q-2 -75 -2 -602q0 -58 1 -290t1 -423q0 -106 -38 -161.5t-124 -55.5q-53 0 -100 21q7 24 14 102q33 -20 76 -20q34 0 51.5 23.5t17.5 82.5zM264 1470q0 -32 -18.5 -51.5t-57.5 -19.5q-79 0 -79 71q0 68 79 68q76 0 76 -68z" />
    <glyph glyph-name="k" unicode="k" horiz-adv-x="585" 
d="M446 1284h121q-40 -84 -143.5 -334.5t-134.5 -322.5q37 -79 101 -224t113 -253.5t72 -149.5h-98q-26 0 -37 25q-178 424 -247 565h-7q0 -406 2 -590h-106q2 217 2 854q0 526 -2 731h108q-4 -199 -4 -786v-146h4q16 43 47.5 117t43.5 107q126 295 165 407z" />
    <glyph glyph-name="l" unicode="l" horiz-adv-x="268" 
d="M188 0h-108q2 112 2 823q0 545 -2 762h108q-2 -207 -2 -764q0 -701 2 -821z" />
    <glyph glyph-name="m" unicode="m" horiz-adv-x="948" 
d="M870 0h-108q6 363 6 1044q0 81 -23.5 119.5t-80.5 38.5q-63 0 -101.5 -56t-38.5 -167q0 -888 2 -979h-106q6 366 6 1042q0 83 -23 121.5t-81 38.5q-63 0 -101.5 -56t-38.5 -167q0 -809 2 -979h-104q4 178 4 625q0 491 -4 659h104q-2 -47 -2 -121l11 -2q49 135 169 135
q129 0 152 -141l12 -2q49 143 176 143q166 0 166 -213q0 -153 -2 -360.5t-2 -292.5q0 -240 6 -430z" />
    <glyph glyph-name="n" unicode="n" horiz-adv-x="643" 
d="M186 1161h9q56 135 194 135q178 0 178 -239q0 -175 -2 -361.5t-2 -255.5q0 -166 4 -440h-108q4 520 4 1032q0 87 -26.5 129.5t-90.5 42.5q-72 0 -117 -56.5t-45 -166.5q0 -641 4 -981h-106q2 178 2 627q0 505 -2 657h104v-123z" />
    <glyph glyph-name="o" unicode="o" horiz-adv-x="612" 
d="M457 647q0 175 -9.5 288t-31 171t-47 79t-64.5 21q-38 0 -63.5 -21t-46.5 -79t-31 -171t-10 -288t9.5 -289t30.5 -174.5t46.5 -83t64.5 -22.5t65.5 22.5t47 83t30 174.5t9.5 289zM561 653q0 -198 -15.5 -329.5t-49 -206t-79 -104t-112.5 -29.5t-112 29.5t-78 104
t-48.5 205.5t-15.5 330q0 159 11 273.5t31 186.5t53 114t70 57.5t89 15.5q66 0 110 -26t79 -95.5t51 -198.5t16 -327z" />
    <glyph glyph-name="p" unicode="p" 
d="M186 961l-2 -818q58 -61 142 -61q52 0 82 43t46.5 169t16.5 357q0 229 -14.5 350t-42 162t-78.5 41q-65 0 -107.5 -60t-42.5 -183zM186 1151h9q49 147 182 147q74 0 115 -52t62 -193.5t21 -401.5q0 -263 -26 -411.5t-70.5 -201t-118.5 -52.5q-115 0 -167 96l-11 -4
q2 -27 2 -82q0 -40 1 -114t1 -115h-106q4 242 4 946q0 363 -4 571h106v-88v-45z" />
    <glyph glyph-name="q" unicode="q" 
d="M438 322l2 817q-60 63 -133 63q-55 0 -86 -42.5t-49 -169.5t-18 -359q0 -230 16 -352t44 -161.5t79 -39.5q63 0 104 62t41 182zM438 1284h109q-4 -121 -4 -723q0 -575 4 -794h-109q0 38 1 117t1 124q0 90 2 125l-12 2q-51 -151 -174 -151q-74 0 -116.5 50t-66.5 193.5
t-24 403.5q0 202 14 334.5t43.5 204t67.5 99t94 27.5q106 0 162 -96l10 4v8q0 47 -2 72z" />
    <glyph glyph-name="r" unicode="r" horiz-adv-x="434" 
d="M164 1090l14 -3q18 111 59 158t109 47q38 0 82 -14q-13 -69 -16 -119q-39 17 -76 17q-148 0 -148 -293q0 -644 7 -883h-113q2 182 2 670q0 438 -2 614h92q-1 -18 -4.5 -83t-5.5 -111z" />
    <glyph glyph-name="s" unicode="s" horiz-adv-x="555" 
d="M96 424h49q-2 -45 -2 -125q0 -124 34 -173.5t108 -49.5q68 0 97.5 43.5t29.5 146.5q0 102 -38.5 182.5t-127.5 163.5q-98 85 -145.5 188t-47.5 240q0 260 223 260q117 0 168.5 -69t51.5 -230q0 -27 -4 -133h-50h-47q0 22 1 67.5t1 65.5q0 119 -27 165t-94 46
q-64 0 -93 -40.5t-29 -131.5q0 -110 33.5 -186t117.5 -152q102 -91 153.5 -194t51.5 -240q0 -143 -55 -213.5t-172 -70.5q-128 0 -183 74.5t-55 232.5q0 47 4 133h47z" />
    <glyph glyph-name="t" unicode="t" horiz-adv-x="452" 
d="M156 1499h55q-1 -34 -2 -107t-2 -110q69 -2 215 2q-2 -33 -2 -100q-122 4 -213 4q-2 -281 -2 -983q0 -62 24 -90.5t78 -28.5q51 0 101 27q7 -58 20 -97q-70 -28 -135 -28q-191 0 -191 217q0 107 1 434t1 549l-79 2v94l79 -2v217h52z" />
    <glyph glyph-name="u" unicode="u" horiz-adv-x="645" 
d="M459 1284h104q-2 -178 -2 -627q0 -505 2 -657h-104v121h-8q-52 -133 -195 -133q-176 0 -176 235q0 175 1 362.5t1 258.5q0 301 -4 440h110q-6 -786 -6 -1036q0 -86 26.5 -127t90.5 -41q74 0 118 55.5t44 165.5q0 383 -1 670.5t-1 312.5z" />
    <glyph glyph-name="v" unicode="v" horiz-adv-x="538" 
d="M424 1284h108q-30 -165 -102 -641.5t-94 -642.5q-8 0 -29 1t-37 1q-53 0 -65 -2q-5 32 -87 585t-110 699h117q5 -60 46.5 -361t57.5 -436q30 -258 37 -364h10q14 151 41 364q20 170 61.5 468.5t45.5 328.5z" />
    <glyph glyph-name="w" unicode="w" horiz-adv-x="819" 
d="M715 1282h94q-19 -139 -81 -671.5t-73 -610.5h-57h-72q-10 86 -90 850q-5 54 -9 112.5t-7.5 123.5t-5.5 92h-8q-15 -232 -27 -328q-21 -184 -56.5 -492t-41.5 -358h-60h-61q-7 54 -69 602.5t-83 679.5h111q9 -124 84 -842q19 -214 22 -336h8q16 210 29 336
q12 104 35.5 307.5t39 341.5t19.5 193h62h65q4 -56 84 -846q16 -152 25 -332h10q24 325 25 332q11 108 33.5 311.5t36.5 342t18 192.5z" />
    <glyph glyph-name="x" unicode="x" horiz-adv-x="555" 
d="M416 1284h112q-19 -61 -43 -151t-65.5 -252.5t-59.5 -229.5q34 -121 94 -345.5t83 -305.5h-121q-7 31 -92 373q-40 172 -52 233h-4q-15 -75 -47 -233q-60 -253 -84 -373h-112q16 55 168 649q-29 111 -84.5 329.5t-79.5 305.5h121q18 -90 90 -405q9 -44 20.5 -106.5
t15.5 -84.5h5q17 92 38 186q90 372 97 410z" />
    <glyph glyph-name="y" unicode="y" horiz-adv-x="540" 
d="M426 1284h109q-19 -127 -65.5 -417.5t-82.5 -525t-55 -384.5q-24 -104 -73.5 -154.5t-133.5 -50.5q-72 0 -129 25q14 62 18 96q52 -27 103 -27q44 0 72.5 27.5t43.5 91.5q1 10 7 52.5t8 68.5q-39 0 -49 -2q-13 74 -87.5 553.5t-103.5 646.5h119q4 -45 19 -158.5t38 -281
t35 -258.5q38 -281 47 -422h10q27 258 52 418q52 401 98 702z" />
    <glyph glyph-name="z" unicode="z" horiz-adv-x="538" 
d="M59 1284h428v-43v-51q-15 -32 -52.5 -163.5t-86.5 -309t-78 -271.5q-43 -158 -106 -354q39 2 115 2q132 0 206 4v-49v-49h-432q2 12 2 43v45q14 29 54.5 167t94 327t79.5 274q17 52 54 173.5t52 164.5q-78 -4 -135 -4q-93 0 -195 -4q2 16 2 51q0 29 -2 47z" />
    <glyph glyph-name="uni00A0" unicode="&#xa0;" horiz-adv-x="262" 
 />
  </font>
</defs>
</svg>
