<?xml version="1.0" standalone="no"?>
<!DOCTYPE svg PUBLIC "-//W3C//DTD SVG 1.1//EN" "http://www.w3.org/Graphics/SVG/1.1/DTD/svg11.dtd" >
<svg xmlns="http://www.w3.org/2000/svg" xmlns:xlink="http://www.w3.org/1999/xlink" version="1.1">
<metadata>
Created by FontForge 20170731 at Tue Nov 10 11:53:43 2020
 By Aleksey,,,
(c) Copyright OH no Type Company, LLC. 2015. All rights reserved.
</metadata>
<defs>
<font id="ObviouslyDemo-CompSemi" horiz-adv-x="419" >
  <font-face 
    font-family="Obviously Demo Comp Semi"
    font-weight="260"
    font-stretch="extra-condensed"
    units-per-em="2048"
    panose-1="4 13 7 3 5 4 3 4 3 6"
    ascent="1638"
    descent="-410"
    x-height="1319"
    cap-height="1536"
    bbox="-12 -231 598 1597"
    underline-thickness="102"
    underline-position="-307"
    unicode-range="U+0020-00A0"
  />
<missing-glyph horiz-adv-x="0" 
 />
    <glyph glyph-name=".notdef" horiz-adv-x="0" 
 />
    <glyph glyph-name=".null" horiz-adv-x="0" 
 />
    <glyph glyph-name="nonmarkingreturn" horiz-adv-x="682" 
 />
    <glyph glyph-name="space" unicode=" " horiz-adv-x="157" 
 />
    <glyph glyph-name="comma" unicode="," horiz-adv-x="182" 
d="M51 319h133q-17 -98 -98 -538q-45 18 -98 29q52 355 63 509z" />
    <glyph glyph-name="period" unicode="." horiz-adv-x="165" 
d="M86 203q72 0 72 -105q0 -104 -72 -104q-76 0 -76 104q0 105 76 105z" />
    <glyph glyph-name="zero" unicode="0" horiz-adv-x="407" 
d="M375 795q0 -130 -1.5 -225.5t-5 -180t-9.5 -142.5t-15.5 -105.5t-22 -76t-30.5 -47.5t-39 -26.5t-49 -7.5q-37 0 -62.5 13.5t-45 50.5t-31 92.5t-19 151t-10 212.5t-2.5 291q0 170 3 286.5t11.5 203.5t20 137t32 80.5t44 40t59.5 9.5q44 0 71 -16t48.5 -59t32 -130.5
t15.5 -217.5t5 -334zM205 1442q-10 0 -16.5 -7t-13.5 -30t-10.5 -67t-6.5 -117.5t-4.5 -181t-1.5 -257.5q1 -153 2 -260t4 -185.5t6.5 -124.5t10 -73t13.5 -36t17 -9q16 0 24.5 22.5t15 96.5t9 207t2.5 362q0 225 -2.5 357t-9.5 199t-15.5 85.5t-23.5 18.5z" />
    <glyph glyph-name="one" unicode="1" horiz-adv-x="206" 
d="M102 0h-63q4 178 4 768q0 524 -4 680q47 47 67 88h33h29q-6 -153 -6 -768q0 -498 6 -768h-66z" />
    <glyph glyph-name="two" unicode="2" horiz-adv-x="360" 
d="M135 123h43q113 0 160 2v-125h-318v106q0 237 99 510q56 156 83 296.5t27 332.5q0 77 -6 121t-14.5 57t-22.5 13q-17 0 -27.5 -20t-17 -86.5t-6.5 -186.5q0 -54 4 -266h-116q-5 255 -5 276q0 214 39 306.5t129 92.5q88 0 124 -70.5t36 -236.5q0 -115 -9 -210t-32.5 -191
t-40 -150t-53.5 -166q-31 -92 -53.5 -209t-22.5 -196z" />
    <glyph glyph-name="three" unicode="3" horiz-adv-x="382" 
d="M225 778v-4q37 -10 60 -33q46 -48 65 -131t19 -219q0 -225 -40 -316t-143 -91q-102 0 -136 88t-34 336q0 39 4 141h58h61q-2 -43 -2 -115q0 -152 5.5 -225.5t16 -94t31.5 -20.5t32 20.5t18.5 93.5t7.5 212q0 122 -13 188t-33.5 86.5t-56.5 20.5h-55v59v57h55
q36 0 56.5 24.5t31.5 98t11 211.5q0 113 -5.5 174t-16 82t-29.5 21q-22 0 -33.5 -20.5t-18 -80.5t-6.5 -172q0 -26 1 -88.5t1 -99.5h-59h-58q-2 66 -2 182q0 220 37.5 304.5t137.5 84.5t136 -82.5t36 -295.5q0 -157 -17.5 -237.5t-60.5 -125.5q-19 -19 -62 -33z" />
    <glyph glyph-name="four" unicode="4" horiz-adv-x="432" 
d="M375 494h55v-117l-53 2q0 -262 2 -379h-119q0 54 1 194t1 185h-57q-119 0 -174 -2q39 877 39 1159h118q-17 -335 -34 -1042h108v1042h115q0 -97 -1 -344.5t-1 -423.5v-274z" />
    <glyph glyph-name="five" unicode="5" horiz-adv-x="403" 
d="M262 1413h-98q-2 -70 -2 -321v-189q37 78 92 78q127 0 127 -453q0 -219 -17.5 -336t-53.5 -162.5t-103 -45.5q-97 0 -132.5 93t-35.5 345q0 45 4 151h57h58q-2 -37 -2 -106q0 -208 11 -292.5t40 -84.5q31 0 42 91t11 331q0 146 -7 226.5t-18 106t-30 25.5
q-25 0 -38.5 -26t-27.5 -86q-54 23 -94 28v277q0 410 -2 473q55 -2 164 -2q117 0 166 2v-55v-70q-13 0 -57.5 1t-53.5 1z" />
    <glyph glyph-name="six" unicode="6" horiz-adv-x="413" 
d="M209 90q34 0 46.5 87t12.5 308q0 182 -10.5 245t-40.5 63q-67 0 -67 -299q0 -223 13.5 -313.5t45.5 -90.5zM141 782l9 -2q23 133 106 133q71 0 101 -97.5t30 -319.5q0 -201 -16.5 -309.5t-54.5 -155.5t-109 -47q-75 0 -111 59.5t-52.5 230.5t-16.5 521q0 318 19.5 482.5
t57 219.5t109.5 55q64 0 99 -31t53 -120t18 -256q0 -82 -2 -107h-57h-60q2 33 2 105q0 160 -10.5 229.5t-42.5 69.5q-35 0 -48 -83.5t-18 -314.5q-1 -22 -3 -115t-3 -147z" />
    <glyph glyph-name="seven" unicode="7" horiz-adv-x="305" 
d="M10 1536h287v-57v-60q-32 -137 -66.5 -587.5t-29.5 -831.5h-62h-57q0 338 35 775.5t71 635.5q-112 0 -178 -2v72v55z" />
    <glyph glyph-name="eight" unicode="8" horiz-adv-x="417" 
d="M205 94q24 0 37 20.5t21.5 93.5t8.5 212q0 122 -8.5 188t-21.5 86.5t-37 20.5t-37.5 -20t-22 -86.5t-8.5 -188.5q0 -138 8.5 -211.5t22 -94t37.5 -20.5zM205 1442q-23 0 -36 -21t-20.5 -82.5t-7.5 -173.5q0 -137 7.5 -211.5t20.5 -98.5t36 -24t36 24.5t20 98t7 211.5
q0 113 -7 174t-20 82t-36 21zM272 780v-10q26 -10 45 -29q44 -45 60 -127t16 -223q0 -226 -40.5 -316.5t-147.5 -90.5t-148 90.5t-41 316.5q0 139 17 222t61 128q19 19 45 29v10q-24 8 -47 31q-41 42 -56.5 122.5t-15.5 240.5q0 213 39 295.5t146 82.5t145.5 -82.5
t38.5 -295.5q0 -162 -15 -241.5t-55 -121.5q-23 -23 -47 -31z" />
    <glyph glyph-name="nine" unicode="9" horiz-adv-x="413" 
d="M197 743q67 0 67 299q0 223 -13.5 313.5t-45.5 90.5q-34 0 -47 -87.5t-13 -307.5q0 -181 11 -244.5t41 -63.5zM270 754l-6 2q-17 -133 -106 -133q-71 0 -101 97.5t-30 319.5q0 200 16 309t52.5 156t103.5 47q40 0 66.5 -11.5t49 -45.5t35 -88.5t21.5 -148t12.5 -216.5
t3.5 -301q0 -321 -18 -483t-54 -218t-108 -56q-65 0 -101 31t-55.5 120t-19.5 256q0 82 2 107h57h60q-3 -49 -3 -105q0 -164 12.5 -231.5t45.5 -67.5q36 0 48.5 81.5t12.5 316.5q0 74 4 262z" />
    <glyph glyph-name="A" unicode="A" horiz-adv-x="413" 
d="M205 565h45q-5 110 -15 314t-12 247q-2 66 -8.5 183t-7.5 129h-8q-1 -41 -8 -148t-9 -164q-22 -472 -26 -561h49zM406 0h-134q0 45 -16 455h-51h-55q-19 -382 -19 -455h-123q24 313 60.5 873t37.5 663h197q5 -123 43 -695.5t60 -840.5z" />
    <glyph glyph-name="B" unicode="B" 
d="M195 115q35 0 52 22t24.5 84t7.5 191q0 168 -19.5 240.5t-62.5 72.5q-21 0 -33 -2q0 -436 2 -606q10 -2 29 -2zM274 1122q0 140 -7.5 201t-23.5 79.5t-55 18.5q-14 0 -22 -2q-2 -147 -2 -583h29q46 1 63.5 69t17.5 217zM272 780v-6q41 -7 56 -20q69 -58 69 -351
q0 -169 -17.5 -253.5t-58 -117t-120.5 -32.5h-160q4 205 4 768q0 571 -4 768h172q73 0 109 -31.5t52.5 -119.5t16.5 -265q0 -130 -13.5 -202t-45.5 -107q-18 -21 -60 -31z" />
    <glyph glyph-name="C" unicode="C" horiz-adv-x="413" 
d="M317 901h-59q6 135 6 223q0 135 -6.5 205.5t-15.5 88.5t-27 18q-13 0 -20.5 -7.5t-16 -42t-12.5 -103.5t-7 -194t-3 -311q0 -194 2.5 -323t6.5 -200.5t12.5 -106.5t16 -42.5t21.5 -7.5q15 0 24.5 15t16.5 55.5t9.5 111t2.5 183.5q0 41 -4 155h60h55q2 -35 2 -102
q0 -293 -33.5 -412.5t-134.5 -119.5q-39 0 -64.5 11t-47 44t-33 85.5t-19.5 145.5t-11 212t-3 296q0 255 9 407.5t32.5 234t54.5 107t84 25.5q64 0 98 -37.5t50 -135t16 -283.5q0 -51 -4 -195h-58z" />
    <glyph glyph-name="D" unicode="D" horiz-adv-x="428" 
d="M195 1421h-29q-2 -109 -2 -655q0 -594 2 -651h22q29 0 44.5 17.5t28 85t16.5 196t4 354.5q0 177 -4 297.5t-10 190.5t-18 107t-23.5 47.5t-30.5 10.5zM41 1536h158q46 0 74.5 -13.5t55.5 -57.5t41 -128t22.5 -223.5t8.5 -345.5q0 -326 -21.5 -492t-63.5 -221t-123 -55
h-152q4 209 4 766q0 592 -4 770z" />
    <glyph glyph-name="E" unicode="E" horiz-adv-x="352" 
d="M39 1536h289v-57v-60q-57 2 -160 2q0 -98 -1 -294.5t-1 -284.5q107 0 156 2v-119q-49 2 -156 2q0 -438 2 -612h160v-56v-59h-289q2 193 2 768q0 598 -2 768z" />
    <glyph glyph-name="F" unicode="F" horiz-adv-x="339" 
d="M41 1536h281q-3 -24 -3 -59v-58q-55 2 -155 2v-590v-100q106 0 151 2v-121q-45 2 -151 2q0 -238 4 -614h-127q4 414 4 768q0 551 -4 768z" />
    <glyph glyph-name="G" unicode="G" horiz-adv-x="428" 
d="M201 723v57q33 -2 90 -2q61 0 94 2q3 -234 0.5 -387.5t-21.5 -244t-53 -127.5t-94 -37q-73 0 -112 63.5t-58.5 238t-19.5 505.5q0 200 7.5 334.5t21 220t39.5 130.5t56 60.5t76 15.5q60 0 95.5 -36t54 -130.5t18.5 -261.5q0 -35 -4 -125q-40 5 -55 5q-40 0 -62 -5
q5 123 5 129q0 128 -6 195.5t-17 89t-31 21.5q-17 0 -27.5 -10.5t-21.5 -47.5t-17 -105.5t-10 -188t-4 -291.5q0 -229 3.5 -365t13 -209.5t22.5 -96t35 -22.5q19 0 29.5 21.5t17.5 83.5t7 173t-1 290q-48 0 -71 -2v59z" />
    <glyph glyph-name="H" unicode="H" horiz-adv-x="444" 
d="M279 1536h124q-2 -201 -2 -768q0 -547 2 -768h-124q2 195 2 711h-60h-59q0 -516 2 -711h-123q2 221 2 768q0 567 -2 768h123q-2 -174 -2 -711h59h60q0 537 -2 711z" />
    <glyph glyph-name="I" unicode="I" horiz-adv-x="206" 
d="M168 0h-129q4 178 4 768q0 592 -4 768h129q-6 -264 -6 -768q0 -498 6 -768z" />
    <glyph glyph-name="J" unicode="J" horiz-adv-x="249" 
d="M84 1536h127q0 -78 -1 -222.5t-1 -244.5q0 -26 2 -310t2 -548q0 -114 -27.5 -168.5t-99.5 -54.5q-46 0 -84 10q5 17 7.5 65.5t0.5 59.5q28 -12 47 -12q37 0 37 94q0 1145 -10 1331z" />
    <glyph glyph-name="K" unicode="K" 
d="M287 1536h131q-13 -72 -65 -356t-79 -428q17 -73 37 -177q11 -59 39.5 -217t45 -239.5t26.5 -118.5h-109q-10 0 -14.5 7.5t-9.5 29.5q-41 236 -105 655h-20q0 -530 2 -692h-125q2 180 2 768q0 592 -2 768h125q-2 -166 -2 -743h20q5 57 31 219q60 371 72 524z" />
    <glyph glyph-name="L" unicode="L" horiz-adv-x="282" 
d="M41 1536h125q-4 -121 -4 -760q0 -135 1 -387t1 -274q75 0 110 2v-54v-63h-233q0 11 0.5 136.5t1 306t0.5 325.5q0 698 -2 768z" />
    <glyph glyph-name="M" unicode="M" horiz-adv-x="561" 
d="M369 1536h151q-2 -201 -2 -766q0 -176 1 -424.5t1 -345.5h-123q4 276 4 725q0 112 7.5 353.5t9.5 326.5h-10q-18 -325 -31 -510l-74 -895h-59l-76 911q-6 77 -31 496h-8q1 -117 7.5 -343t6.5 -337q0 -175 4 -727h-106v770v766h166q36 -456 61 -731q6 -123 13 -301h8
q3 56 9.5 159t8.5 140q55 614 62 733z" />
    <glyph glyph-name="N" unicode="N" horiz-adv-x="444" 
d="M305 1536h101q0 -31 -1.5 -304t-1.5 -462v-770h-129q-46 407 -102 825q-20 168 -41 594h-12q14 -413 14 -600q4 -806 4 -819h-98q2 197 2 768q0 588 -2 768h154q4 -53 18.5 -179.5t38.5 -324.5t39 -330q12 -93 35 -469h12q-2 57 -8.5 174.5t-9.5 206.5t-3 177
q0 325 -10 745z" />
    <glyph glyph-name="O" unicode="O" horiz-adv-x="436" 
d="M403 795q0 -251 -8.5 -404.5t-31 -246.5t-56.5 -126.5t-90 -33.5t-89.5 33.5t-55.5 126.5t-30.5 246t-8.5 405q0 327 18.5 490t55 215t110.5 52q73 0 110 -51.5t56.5 -216t19.5 -489.5zM219 98q18 0 28.5 24t18 98t10.5 207.5t3 356.5q0 220 -3 351t-11 197.5t-18 86
t-28 19.5q-19 0 -29 -19t-18 -86.5t-11 -197t-3 -351.5t3 -356t11 -208t18.5 -98t28.5 -24z" />
    <glyph glyph-name="P" unicode="P" horiz-adv-x="407" 
d="M182 549q36 0 53.5 26.5t27 119t9.5 282.5q0 142 -4.5 231.5t-15 135.5t-23 61.5t-32.5 15.5q-25 0 -39 -2q0 -612 2 -868q4 -2 22 -2zM39 1536h172q70 0 106.5 -45t53 -164t16.5 -352q0 -228 -19.5 -345t-58 -156.5t-112.5 -39.5h-37q4 -305 8 -434h-129q4 219 4 768
q0 565 -4 768z" />
    <glyph glyph-name="Q" unicode="Q" horiz-adv-x="425" 
d="M145 799q0 -226 3 -361.5t12 -211t21 -100t32 -24.5t31.5 24.5t20 100t11.5 211t3 361.5q0 202 -3 325.5t-11.5 194t-20.5 95t-31 24.5q-20 0 -31.5 -24.5t-20.5 -94.5t-12.5 -194.5t-3.5 -325.5zM281 100l55 6q67 8 72 9v-115q-29 0 -89.5 -3t-105.5 -3t-76 27.5
t-53 83.5t-34 154t-17.5 225.5t-5.5 310.5q0 245 8.5 391t32.5 229t57 110t90 27q74 0 110.5 -55.5t54 -216.5t17.5 -483q0 -26 0.5 -91t0.5 -106t-1 -103.5t-3.5 -106t-7 -90.5t-12 -80.5t-18.5 -53.5q-22 -41 -75 -60v-6z" />
    <glyph glyph-name="R" unicode="R" horiz-adv-x="428" 
d="M188 1421l-30 -2v-710q8 -2 35 -2q44 0 65 85.5t21 266.5q0 157 -11 237t-28.5 102.5t-51.5 22.5zM266 641v-6q40 -9 62.5 -36t37 -86.5t23.5 -168.5q4 -44 10.5 -119.5t12 -133.5t10.5 -91h-111q-16 0 -19 31v4l-1 6q-25 371 -41 460t-60 89q-8 0 -18 -1t-12 -1
q0 -314 8 -588h-127q0 97 1 344t1 424q0 176 -1 423.5t-1 344.5h168q50 0 81.5 -17t57 -65t36.5 -137.5t11 -229.5q0 -223 -28.5 -324t-100.5 -122z" />
    <glyph glyph-name="S" unicode="S" horiz-adv-x="378" 
d="M76 553h69q-2 -61 -2 -172q0 -169 10.5 -226t39.5 -57q28 0 38.5 40.5t10.5 146.5q0 111 -23.5 206t-68.5 214q-40 105 -61 168t-41.5 169.5t-20.5 210.5q0 167 41.5 233t128.5 66q60 0 93 -29t50.5 -110.5t17.5 -232.5q0 -127 -2 -201h-53h-63q4 156 4 240
q0 88 -5.5 136.5t-15.5 65.5t-28 17q-27 0 -39.5 -41.5t-12.5 -143.5q0 -110 19.5 -199t62.5 -210q6 -16 29 -79t31.5 -88t25.5 -82t24.5 -94.5t14 -90t6.5 -101.5q0 -176 -37.5 -250.5t-128.5 -74.5q-52 0 -86 26.5t-52 80t-25 119t-7 159.5q0 71 5 184h51z" />
    <glyph glyph-name="T" unicode="T" horiz-adv-x="317" 
d="M10 1536h297v-57v-60h-88q0 -1300 4 -1419h-63h-64q4 117 4 1419h-90v60v57z" />
    <glyph glyph-name="U" unicode="U" horiz-adv-x="436" 
d="M274 1536h123q-2 -139 -2 -487q0 -91 1 -380t1 -444q0 -129 -39.5 -185t-138.5 -56q-100 0 -139 55.5t-39 185.5q0 155 1 444t1 380q0 209 -4 487h125q-2 -144 -2 -1315q0 -71 13 -100t48 -29q29 0 42.5 30t13.5 99q0 964 -5 1315z" />
    <glyph glyph-name="V" unicode="V" horiz-adv-x="389" 
d="M262 1536h121q-12 -167 -33 -501t-40.5 -660t-22.5 -375q-50 4 -92 4q-57 0 -93 -4q-1 23 -22.5 386t-42 688t-31.5 462h129q2 -161 14 -508.5t29 -613.5q12 -180 15 -312h10q5 218 10 310q47 935 49 1124z" />
    <glyph glyph-name="W" unicode="W" horiz-adv-x="563" 
d="M465 1536h94q-9 -155 -42.5 -796t-39.5 -740q-28 4 -67 4q-48 0 -76 -4q-1 22 -7.5 182.5t-14 342t-11.5 317.5q-7 237 -10 497h-10q-5 -350 -13 -499q-38 -675 -41 -840q-50 4 -71 4q-40 0 -68 -4q-6 97 -40.5 738.5t-43.5 797.5h129q0 -284 35 -1044q4 -137 4 -365h12
q0 157 9 365q7 182 24 574t19 470h63h68q0 -243 34 -1044q8 -307 11 -373h8q0 173 8 373q5 148 14 387t15.5 414.5t7.5 242.5z" />
    <glyph glyph-name="X" unicode="X" horiz-adv-x="397" 
d="M266 1536h123q-72 -474 -110 -768q21 -159 112 -768h-139q-30 336 -33 379q-3 36 -8.5 105.5t-9.5 125.5t-6 105h-9q-2 -48 -6 -104.5t-9.5 -126t-8.5 -107.5q-5 -64 -16.5 -190t-14.5 -187h-125q34 242 105 782q-35 289 -103 754h133q4 -50 17.5 -188t19.5 -215
q14 -174 19 -310h8q7 120 22 305q7 76 20.5 212t18.5 196z" />
    <glyph glyph-name="Y" unicode="Y" horiz-adv-x="370" 
d="M254 1536h113q-8 -73 -59 -507.5t-62 -549.5q0 -148 1 -306t1 -173q-16 2 -60 2q-45 0 -63 -2q2 72 2 471q-11 117 -64 562t-59 503h131q4 -217 41 -719q10 -164 12 -219h9q3 115 10 221q8 139 26.5 404.5t20.5 312.5z" />
    <glyph glyph-name="Z" unicode="Z" horiz-adv-x="337" 
d="M27 1536h290v-55v-60q-3 -19 -127 -874q-47 -335 -61 -434q20 2 57 2h131v-56v-59h-297v59v56q9 56 59.5 411t72.5 500q13 105 61 397q-27 -2 -82 -2h-104v58v57z" />
    <glyph glyph-name="a" unicode="a" horiz-adv-x="391" 
d="M178 113q29 0 40 52t11 161v350q-6 2 -20 2q-28 0 -42 -15.5t-23 -76t-9 -180.5q0 -106 1.5 -162.5t7 -87t12.5 -37t22 -6.5zM238 115h-13q-15 -125 -94 -125q-30 0 -48.5 14t-34.5 54.5t-23 121t-7 207.5q0 154 20.5 240.5t54 115.5t89.5 29q34 0 49 -10v364
q0 91 -36 91q-22 0 -31 -16.5t-14.5 -81.5t0.5 -195q-18 4 -54 4q-25 0 -61 -4q-7 157 6.5 245.5t50 127t103.5 38.5q78 0 115.5 -49.5t37.5 -159.5q0 -146 -2 -371t-2 -337q0 -364 12 -418h-98q-17 0 -21 6t-4 27q0 14 5 82z" />
    <glyph glyph-name="b" unicode="b" 
d="M162 1034v-925q27 -9 43 -9q27 0 40.5 33.5t22 160.5t8.5 382q0 246 -7 364t-17.5 145t-32.5 27q-57 0 -57 -178zM158 1212l10 -2q19 121 104 121q36 0 55.5 -17t37 -81.5t24 -199t6.5 -361.5q0 -182 -6 -306.5t-15.5 -199.5t-28 -114.5t-37.5 -51.5t-50 -12
q-62 0 -90 71h-8q0 -6 1 -17.5t1 -16.5v-25h-121q4 152 4 782q0 110 -2 386t-2 417h123q0 -23 -1 -74t-1 -94q0 -99 -4 -205z" />
    <glyph glyph-name="c" unicode="c" horiz-adv-x="395" 
d="M315 512h56q2 -61 2 -176q0 -182 -35 -267t-133 -85q-46 0 -74.5 16t-50.5 55t-32.5 118.5t-15.5 192t-5 289.5q0 207 7.5 331t29 206t56.5 112.5t93 30.5q63 0 97 -35.5t48.5 -118.5t14.5 -237q0 -112 -2 -178h-54h-59q2 72 2 182q0 114 -6 176t-16 80.5t-27 18.5
q-13 0 -21 -8.5t-17 -41t-13.5 -92.5t-7.5 -166.5t-2 -259.5q1 -155 3.5 -258t6.5 -162.5t11.5 -89.5t15 -37.5t20.5 -7.5q28 0 39.5 53t11.5 179q0 26 -1 86t-1 94h59z" />
    <glyph glyph-name="d" unicode="d" 
d="M258 285v925q-27 9 -43 9q-27 0 -41 -33.5t-22.5 -161t-8.5 -381.5q0 -150 2.5 -250t6.5 -157.5t12 -86t15.5 -36t21.5 -7.5q57 0 57 179zM258 1585h121q-4 -536 -4 -1048q0 -135 2 -315.5t2 -221.5h-123q0 8 1 25t1 32q0 38 2 52h-10q-12 -57 -39 -89t-64 -32
q-36 0 -55.5 17t-36.5 81.5t-23.5 199t-6.5 361.5q0 182 6 306.5t15.5 199.5t28 114.5t37.5 51.5t50 12q63 0 92 -74l8 3q0 32 -2 85t-2 76v164z" />
    <glyph glyph-name="e" unicode="e" horiz-adv-x="387" 
d="M201 1223q-21 0 -33 -36.5t-19 -151t-8 -328.5h103q4 74 4 213q0 117 -5.5 184.5t-15.5 93t-26 25.5zM297 436h53q2 -174 -11.5 -270t-47 -139t-94.5 -43q-50 0 -78.5 19.5t-51.5 86t-31.5 196.5t-8.5 349q0 287 19.5 441t55 206.5t99.5 52.5q86 0 117.5 -87t31.5 -318
q0 -203 -6 -338q-35 2 -113 2h-90q0 -214 7 -323.5t18 -140t33 -30.5q13 0 21 14t13.5 51.5t7.5 102.5t1 168h55z" />
    <glyph glyph-name="f" unicode="f" horiz-adv-x="286" 
d="M57 1319v92q0 186 142 186q41 0 82 -14q-1 -13 -3 -38t-4.5 -51.5t-3.5 -33.5q-28 8 -47 8q-26 0 -36.5 -12t-10.5 -43v-94h92v-117q-16 0 -46 1t-46 1q0 -1003 6 -1204q-25 4 -61 4q-41 0 -64 -4q4 496 4 768q0 90 -4 434h-43v117h43z" />
    <glyph glyph-name="g" unicode="g" horiz-adv-x="415" 
d="M205 588q33 0 46 59t13 219q0 171 -13.5 255.5t-45.5 84.5q-35 0 -47.5 -80t-12.5 -260q0 -113 6 -172.5t18.5 -82.5t35.5 -23zM240 180q-26 0 -80 -4q-41 -105 -41 -172q0 -124 88 -121q53 0 75.5 35t22.5 121q0 141 -65 141zM414 1319v-119q-37 0 -109 14v-8
q44 -31 61 -108t17 -256q0 -203 -42 -284t-138 -81q-25 0 -37 2q-29 -76 -29 -114q0 -41 14.5 -55.5t43.5 -14.5q15 0 37 2t30 2q79 0 115.5 -62t36.5 -196q0 -63 -8.5 -108.5t-30.5 -84.5t-64.5 -59t-105.5 -20q-58 0 -97.5 14.5t-59 41.5t-27 56.5t-7.5 67.5q0 119 86 233
q-61 17 -61 127q0 69 65 197q-40 34 -58.5 120t-18.5 248q0 245 42 346t134 101q4 0 41 -0.5t86.5 -1t83.5 -0.5z" />
    <glyph glyph-name="h" unicode="h" horiz-adv-x="428" 
d="M389 0h-123q0 117 1 483.5t1 634.5q0 54 -9.5 77.5t-35.5 23.5q-63 0 -63 -127q0 -422 1 -740t1 -352h-121q0 83 1 293.5t1 361.5q0 218 -1 527t-1 403h121v-215l-4 -139h10q24 100 115 100q53 0 78.5 -48t25.5 -155q0 -172 -1 -361.5t-1 -260.5q0 -348 4 -506z" />
    <glyph glyph-name="i" unicode="i" horiz-adv-x="206" 
d="M176 1499q0 -34 -18 -58t-54 -24q-38 0 -56.5 23.5t-18.5 58.5q0 37 19 58.5t56 21.5q72 0 72 -80zM164 0h-121q2 186 2 684q0 459 -2 635h121q-2 -182 -2 -637q0 -506 2 -682z" />
    <glyph glyph-name="j" unicode="j" horiz-adv-x="221" 
d="M63 -51q0 1190 -4 1370h119q-2 -178 -2 -549q0 -119 1 -370t1 -447q0 -182 -125 -182q-41 0 -63 10q3 27 10 123q16 -8 35 -8q28 0 28 53zM186 1499q0 -34 -17.5 -58t-53.5 -24q-38 0 -57 24t-19 58q0 37 19.5 58.5t56.5 21.5q71 0 71 -80z" />
    <glyph glyph-name="k" unicode="k" horiz-adv-x="395" 
d="M268 1319h129q-6 -30 -57.5 -288t-79.5 -390q27 -110 75.5 -354t61.5 -287h-104q-12 0 -16 6t-9 25q-13 67 -49 280.5t-51 280.5h-8q0 -412 2 -592h-123q2 102 2 807q0 561 -2 778h125q-4 -197 -4 -782v-119h8q8 66 26 167.5t23 135.5q43 256 51 332z" />
    <glyph glyph-name="l" unicode="l" horiz-adv-x="202" 
d="M162 0h-123q2 102 2 807q0 561 -2 778h125q-4 -197 -4 -782q0 -572 2 -803z" />
    <glyph glyph-name="m" unicode="m" horiz-adv-x="636" 
d="M367 1212h6q34 119 116 119q57 0 83 -42t26 -136q0 -134 -2 -362.5t-2 -331.5q0 -330 4 -459h-121q4 248 4 1124q0 50 -10.5 72.5t-36.5 22.5q-57 0 -57 -144q0 -971 2 -1075h-123q4 256 4 1124q0 52 -9 73.5t-34 21.5q-61 0 -61 -144q0 -876 2 -1075h-119q2 188 2 655
q0 474 -2 664h119q0 -61 -2 -92h10q27 104 106 104q78 0 95 -119z" />
    <glyph glyph-name="n" unicode="n" horiz-adv-x="428" 
d="M389 0h-123q0 117 1 483.5t1 634.5q0 54 -9.5 77.5t-35.5 23.5q-63 0 -63 -127q0 -422 1 -740t1 -352h-121q0 83 1 293.5t1 361.5q0 156 -1 376.5t-1 287.5h121q0 -59 -2 -88h8q24 100 115 100q53 0 78.5 -48t25.5 -155q0 -172 -1 -361.5t-1 -260.5q0 -348 4 -506z" />
    <glyph glyph-name="o" unicode="o" horiz-adv-x="409" 
d="M262 670q0 188 -3 299t-10.5 168t-17 73.5t-26.5 16.5q-22 0 -33 -33t-18 -156.5t-7 -367.5q-1 -245 5.5 -372.5t18.5 -165.5t34 -38q17 0 27 19t17.5 81t10 174t2.5 302zM385 686q0 -288 -17.5 -438.5t-54.5 -207t-108 -56.5t-108 56.5t-54.5 207t-17.5 438.5
q0 214 9 343t33 196.5t54.5 88.5t83.5 21t83.5 -21t54.5 -88.5t33 -196.5t9 -343z" />
    <glyph glyph-name="p" unicode="p" 
d="M162 1034v-925q27 -9 43 -9q27 0 40.5 33.5t22 160.5t8.5 382q0 246 -7 364t-17.5 145t-32.5 27q-57 0 -57 -178zM162 1210h6q19 121 104 121q36 0 55.5 -17t37 -81.5t24 -199t6.5 -361.5q0 -182 -6 -306.5t-15.5 -199.5t-28 -114.5t-37.5 -51.5t-50 -12q-71 0 -90 71
h-10q4 -66 4 -122v-156h-121q4 414 4 895q0 155 -2 371.5t-2 271.5h123q0 -8 -1 -29t-1 -39v-41z" />
    <glyph glyph-name="q" unicode="q" 
d="M262 1217v-9q10 -2 21 -10l-19 21l2 -7zM258 1319h121q-4 -152 -4 -782q0 -109 2 -348.5t2 -407.5h-123q0 22 1 71.5t1 90.5q0 48 1 100.5t1 62.5l-10 3q-12 -57 -39 -89t-64 -32q-36 0 -55.5 17t-36.5 81.5t-23.5 199t-6.5 361.5q0 182 6 306.5t15.5 199.5t28 114.5
t37.5 51.5t50 12q59 0 90 -71h6v8v51z" />
    <glyph glyph-name="r" unicode="r" horiz-adv-x="274" 
d="M143 1165h9q19 162 86 162q20 0 36 -8q-6 -39 -10 -154q-12 6 -28 6q-38 0 -55 -32.5t-17 -124.5q0 -74 -0.5 -243.5t-0.5 -280t1 -251.5t4 -239h-127q2 186 2 686q0 453 -2 633h104q-2 -43 -2 -154z" />
    <glyph glyph-name="s" unicode="s" horiz-adv-x="344" 
d="M70 436h59q-1 -19 -3.5 -69.5t-2.5 -71.5q0 -118 11 -159.5t40 -41.5q25 0 35 39t10 129q0 79 -22.5 156t-67.5 184q-36 83 -57 141.5t-39.5 151t-18.5 184.5q0 256 160 256q82 0 118 -67t36 -240q0 -39 -4 -133h-54h-57q4 90 4 158q0 102 -9.5 141t-33.5 39
q-25 0 -36 -31.5t-11 -118.5q0 -178 74 -346q3 -6 24.5 -56t27 -64.5t23 -59t23.5 -70t16 -66t13.5 -78.5t3.5 -77q0 -282 -164 -282q-87 0 -121.5 72.5t-34.5 238.5q0 81 6 141h52z" />
    <glyph glyph-name="t" unicode="t" horiz-adv-x="286" 
d="M182 1501l-2 -184q61 0 92 2q-2 -41 -2 -117q-13 0 -44 1t-48 1q-6 -430 -6 -1030q0 -68 45 -68q25 0 47 19q2 -43 17 -119q-50 -16 -95 -16q-70 0 -100.5 47t-30.5 141q0 148 2.5 489t3.5 539h-38v113h38v182h62h59z" />
    <glyph glyph-name="u" unicode="u" horiz-adv-x="428" 
d="M266 1319h121q0 -83 -1 -293.5t-1 -361.5q0 -156 1 -376.5t1 -287.5h-121q0 59 2 88h-8q-24 -100 -115 -100q-53 0 -78.5 47.5t-25.5 154.5q0 172 1 362t1 261q0 348 -4 506h123q0 -117 -1 -484t-1 -634q0 -54 9.5 -77.5t35.5 -23.5q63 0 63 127q0 422 -1 740t-1 352z
" />
    <glyph glyph-name="v" unicode="v" horiz-adv-x="382" 
d="M260 1319h117q-22 -254 -59 -726t-44 -593q-7 0 -33.5 2t-47.5 2q-56 0 -84 -4q-20 279 -103 1319h131q1 -43 6.5 -160.5t13.5 -288t13 -282.5q17 -421 18 -486h15q4 245 16 484q13 266 41 733z" />
    <glyph glyph-name="w" unicode="w" horiz-adv-x="546" 
d="M446 1319h97q-33 -467 -74 -1319h-68h-79q-17 288 -39 782q-4 70 -5 139t0 169.5t1 115.5h-11q-6 -343 -10 -424q-10 -206 -43 -782h-65h-72q-8 158 -35 649t-39 670h117q3 -148 24 -793q9 -387 9 -426h12q5 280 12 424q38 613 41 795h62h67q1 -44 7 -175.5t14.5 -318.5
t13.5 -303q10 -213 10 -420h13q0 193 8 420q29 601 32 797z" />
    <glyph glyph-name="x" unicode="x" horiz-adv-x="382" 
d="M254 1319h123q-10 -64 -24.5 -164.5t-35.5 -245.5t-34 -237q88 -621 96 -672h-135q-4 59 -18 172t-19 174q-4 44 -8.5 92.5t-8.5 98.5t-6 71h-8q-9 -149 -18 -262q-22 -201 -31 -346h-123q3 20 92 666q-69 508 -92 653h135q2 -28 37 -395q3 -44 6.5 -117t5.5 -96h9
q8 109 18 215q6 61 15.5 146.5t15 144.5t8.5 102z" />
    <glyph glyph-name="y" unicode="y" horiz-adv-x="382" 
d="M266 1319h117q-19 -191 -43.5 -465t-49.5 -573t-28 -332q-6 -89 -43 -133.5t-113 -44.5q-55 0 -104 16q2 14 7 62.5t5 50.5q36 -19 74 -19q56 0 64 88q0 6 3.5 34.5t4.5 47.5q-9 -1 -20.5 -1.5t-18 -1t-10.5 -1.5q-5 63 -45 576t-54 696h131q0 -44 29 -619
q14 -321 14 -555h15q3 228 20 553q6 108 16 240.5t18.5 245.5t10.5 135z" />
    <glyph glyph-name="z" unicode="z" horiz-adv-x="331" 
d="M29 1319h280v-57v-64q-9 -38 -33 -189t-53.5 -342.5t-40.5 -256.5q-16 -111 -47 -297q25 2 72 2h102q-2 -18 -2 -58q0 -34 2 -57h-284q2 16 2 59v54q6 29 53 339t74 455q30 182 55 297h-78q-65 0 -102 -2q2 20 2 60q0 34 -2 57z" />
    <glyph glyph-name="uni00A0" unicode="&#xa0;" horiz-adv-x="157" 
 />
  </font>
</defs>
</svg>
