<?xml version="1.0" standalone="no"?>
<!DOCTYPE svg PUBLIC "-//W3C//DTD SVG 1.1//EN" "http://www.w3.org/Graphics/SVG/1.1/DTD/svg11.dtd" >
<svg xmlns="http://www.w3.org/2000/svg" xmlns:xlink="http://www.w3.org/1999/xlink" version="1.1">
<metadata>
Created by FontForge 20170731 at Tue Nov 10 11:53:43 2020
 By Aleksey,,,
(c) Copyright OH no Type Company, LLC. 2015. All rights reserved.
</metadata>
<defs>
<font id="ObviouslyDemo-CompMedi" horiz-adv-x="405" >
  <font-face 
    font-family="Obviously Demo Comp Medi"
    font-weight="250"
    font-stretch="extra-condensed"
    units-per-em="2048"
    panose-1="4 13 6 3 5 4 3 4 3 6"
    ascent="1638"
    descent="-410"
    x-height="1309"
    cap-height="1536"
    bbox="-18 -229 563 1595"
    underline-thickness="102"
    underline-position="-307"
    unicode-range="U+0020-00A0"
  />
<missing-glyph horiz-adv-x="0" 
 />
    <glyph glyph-name=".notdef" horiz-adv-x="0" 
 />
    <glyph glyph-name=".null" horiz-adv-x="0" 
 />
    <glyph glyph-name="nonmarkingreturn" horiz-adv-x="682" 
 />
    <glyph glyph-name="space" unicode=" " horiz-adv-x="159" 
 />
    <glyph glyph-name="comma" unicode="," horiz-adv-x="153" 
d="M45 319h109q-11 -69 -49 -284t-44 -250q-10 4 -79 22q52 355 63 512z" />
    <glyph glyph-name="period" unicode="." horiz-adv-x="157" 
d="M80 170q63 0 63 -88t-63 -88q-66 0 -66 88q0 42 17 65t49 23z" />
    <glyph glyph-name="zero" unicode="0" horiz-adv-x="385" 
d="M348 786q0 -176 -2 -293t-9 -211.5t-17 -147.5t-28.5 -88.5t-41.5 -47.5t-57 -12q-25 0 -44 6.5t-35 24.5t-27.5 45t-21 73t-15 103.5t-9 140.5t-5 180t-1.5 227q0 171 3 289.5t11 206t18.5 138t30 81t41 40t54.5 9.5t55 -9.5t40.5 -40t29 -80.5t18 -138.5t10 -205.5
t2.5 -290zM193 1460q-23 0 -35 -39.5t-19.5 -191t-7.5 -451.5q1 -231 4.5 -370.5t11.5 -213.5t18 -97t28 -23t28.5 23t18.5 97.5t11 212.5t3 371q0 155 -1.5 265.5t-5 186t-8 121t-12 70t-15 32t-19.5 7.5z" />
    <glyph glyph-name="one" unicode="1" horiz-adv-x="190" 
d="M94 0h-51q2 89 2 768q0 613 -2 694q33 29 55 74h27h22q-6 -153 -6 -768q0 -498 6 -768h-53z" />
    <glyph glyph-name="two" unicode="2" horiz-adv-x="337" 
d="M115 98h41q110 0 157 2v-100h-290v90q0 226 100 528q52 155 77 306.5t25 341.5q0 77 -6 120t-16 57.5t-27 14.5q-20 0 -31.5 -22t-18.5 -92t-7 -199q0 -58 4 -258h-92q-6 156 -6 268q0 221 34 309t117 88q79 0 111 -66t32 -220q0 -206 -29.5 -364.5t-90.5 -350.5
q-87 -269 -84 -453z" />
    <glyph glyph-name="three" unicode="3" horiz-adv-x="358" 
d="M205 776v-2q30 -9 53 -29q45 -42 62.5 -127t17.5 -227q0 -223 -35.5 -314t-128.5 -91q-61 0 -92.5 35.5t-44 117t-12.5 236.5q0 36 4 162h47h47q-2 -53 -2 -142q0 -142 5.5 -210.5t17 -89.5t34.5 -21q22 0 34.5 24.5t20 100t7.5 213.5q0 129 -13 200t-33 93t-55 22h-51
v49v45q12 -2 51 -2q34 0 54 30.5t30 108t10 213.5q0 170 -12.5 230.5t-42.5 60.5q-23 0 -35 -20t-18 -79.5t-6 -174.5q0 -22 1 -85t1 -99h-47h-47q-2 70 -2 182q0 209 32.5 287.5t120.5 78.5q89 0 121.5 -83.5t32.5 -290.5q0 -164 -15.5 -244t-54.5 -123q-16 -21 -57 -35z
" />
    <glyph glyph-name="four" unicode="4" horiz-adv-x="401" 
d="M340 475h57v-94l-57 2q1 -67 2 -195.5t2 -187.5h-96q0 53 1 194t1 189h-53q-111 0 -166 -2q7 123 24 567.5t17 587.5h98q-28 -598 -39 -1059q29 -2 119 -2q0 78 -1 512t-1 549h94q0 -97 -1 -344.5t-1 -423.5v-293z" />
    <glyph glyph-name="five" unicode="5" horiz-adv-x="370" 
d="M238 1438h-97q-2 -70 -2 -334v-209q32 86 90 86q38 0 62.5 -37.5t39.5 -142t15 -283.5q0 -215 -15.5 -329.5t-48 -158.5t-92.5 -44t-92 36t-45.5 120t-13.5 243q0 73 6 168h45h47q-4 -94 -4 -133q0 -198 12.5 -273t44.5 -75q33 0 45.5 93t12.5 341q0 157 -7 243.5
t-18 114t-30 27.5q-26 0 -41.5 -31.5t-28.5 -99.5q-44 19 -78 22v293q0 433 -2 461q53 -2 152 -2q102 0 145 2v-45v-55q-12 0 -53 1t-49 1z" />
    <glyph glyph-name="six" unicode="6" horiz-adv-x="387" 
d="M199 72q36 0 49.5 89.5t13.5 321.5q0 196 -11.5 263t-45.5 67q-76 0 -76 -319q0 -232 16.5 -327t53.5 -95zM123 786l8 -2q25 123 105 123q68 0 95 -93.5t27 -324.5q0 -199 -14.5 -305t-48.5 -152t-98 -46q-52 0 -81 28t-49.5 117t-28 244t-7.5 420q0 319 17.5 482
t51.5 218t101 55q59 0 90 -29.5t47 -114.5t16 -249q0 -96 -2 -119h-47h-49q2 31 2 117q0 175 -11.5 241t-45.5 66q-25 0 -39 -33.5t-22.5 -125.5t-10.5 -259q0 -120 -6 -258z" />
    <glyph glyph-name="seven" unicode="7" horiz-adv-x="294" 
d="M10 1536h277v-47v-47q-34 -159 -70 -611.5t-35 -830.5h-49h-47q3 350 40.5 793t74.5 643q-121 0 -191 -2v57v45z" />
    <glyph glyph-name="eight" unicode="8" horiz-adv-x="397" 
d="M197 74q27 0 42 25t23 99t8 214q0 132 -8 201t-23 91.5t-42 22.5q-28 0 -43 -22.5t-23 -91t-8 -201.5q0 -139 8.5 -213.5t23.5 -99.5t42 -25zM197 1462q-38 0 -53 -60.5t-15 -230.5q0 -146 7 -222.5t21 -103t40 -26.5q25 0 38.5 26.5t21 103.5t7.5 222q0 171 -14.5 231
t-52.5 60zM254 778v-6q27 -10 43 -29q40 -40 55 -124t15 -228q0 -224 -36.5 -314.5t-133.5 -90.5q-99 0 -135.5 90t-36.5 315q0 146 14.5 229t56.5 123q22 22 43 27v8q-25 11 -47 33q-35 41 -48 120.5t-13 246.5q0 209 34.5 291.5t131.5 82.5q96 0 129.5 -82.5t33.5 -291.5
q0 -169 -12 -248t-47 -119q-22 -22 -47 -33z" />
    <glyph glyph-name="nine" unicode="9" horiz-adv-x="389" 
d="M184 723q38 0 57 72t19 247q0 231 -15.5 326.5t-51.5 95.5q-37 0 -51.5 -91t-14.5 -320q0 -195 12 -262.5t45 -67.5zM266 756l-6 2q-19 -131 -104 -131q-69 0 -97 94.5t-28 322.5q0 199 14.5 306.5t47.5 153.5t95 46q43 0 70 -18.5t48 -65.5t31.5 -141.5t15.5 -232
t5 -351.5q0 -196 -5.5 -325.5t-16 -216.5t-31 -132.5t-46.5 -63t-66 -17.5q-59 0 -91 29t-49.5 115t-17.5 249q0 34 1 73t1 46h47h49q-2 -33 -2 -117q0 -177 13.5 -242t48.5 -65q25 0 38.5 32t21 123.5t7.5 262.5q0 53 3 150t3 114z" />
    <glyph glyph-name="A" unicode="A" horiz-adv-x="387" 
d="M195 530h51q-32 552 -35 613q-5 183 -16 311h-9q-1 -37 -7 -140.5t-9 -170.5q-11 -211 -35 -613h60zM379 0h-109q0 107 -20 442h-55h-64q-20 -328 -20 -442h-103q24 284 65 865t42 671h155q5 -107 46.5 -693.5t62.5 -842.5z" />
    <glyph glyph-name="B" unicode="B" horiz-adv-x="395" 
d="M174 92q43 0 62.5 21.5t28.5 87t9 205.5q0 183 -19.5 255t-76.5 72q-23 0 -35 -2q0 -553 2 -637q10 -2 29 -2zM266 1130q0 146 -7.5 209.5t-24.5 84t-58 20.5h-31q-2 -150 -2 -623h31q54 1 73 68.5t19 240.5zM244 780v-8q45 -8 57 -20q38 -30 53 -111t15 -242
q0 -173 -16.5 -255.5t-55 -113t-119.5 -30.5h-135q4 193 4 768q0 586 -2 768h148q70 0 103.5 -30t48.5 -115t15 -263q0 -144 -13 -215t-48 -106q-21 -21 -55 -27z" />
    <glyph glyph-name="C" unicode="C" horiz-adv-x="391" 
d="M301 891h-47q4 184 4 250q0 133 -7 204t-18 91t-30 20q-16 0 -25.5 -10t-19 -46.5t-14.5 -109.5t-8 -199t-3 -315q0 -193 3 -320.5t7.5 -203.5t14 -114t19 -49t26.5 -11q35 0 48 75t13 285q0 55 -4 199h47h45q4 -114 4 -160q0 -270 -30.5 -380.5t-122.5 -110.5
q-36 0 -59.5 11t-43.5 44t-31 85.5t-19 144.5t-10.5 211t-2.5 294q0 340 17 506.5t49.5 217t99.5 50.5q59 0 90.5 -39.5t45 -130.5t13.5 -260q0 -73 -4 -229h-47z" />
    <glyph glyph-name="D" unicode="D" horiz-adv-x="401" 
d="M145 92h27q34 0 50 16t29 86t17 201t4 373q0 187 -4 312.5t-10.5 198t-19 109.5t-25 46.5t-33.5 9.5h-33q-4 -123 -4 -680q0 -622 2 -672zM45 1536h137q38 0 61.5 -8t47 -34.5t37 -77t24.5 -136t15 -210t4 -300.5q0 -207 -6 -340t-18.5 -221.5t-37 -132.5t-55 -60
t-80.5 -16h-129q2 186 2 766q0 614 -2 770z" />
    <glyph glyph-name="E" unicode="E" horiz-adv-x="331" 
d="M45 1536h262v-45v-49q-57 2 -157 2q0 -106 -2.5 -316t-2.5 -303q105 0 156 2v-94q-51 2 -156 2q0 -421 5 -643h157v-45v-47h-264q4 174 4 768q0 627 -2 768z" />
    <glyph glyph-name="F" unicode="F" horiz-adv-x="317" 
d="M45 1536h254v-47v-47q-57 2 -154 2q0 -92 -1 -310.5t-1 -320.5v-90q101 0 150 2v-96q-49 2 -150 2q0 -434 4 -631h-102q2 184 2 768q0 681 -2 768z" />
    <glyph glyph-name="G" unicode="G" horiz-adv-x="401" 
d="M188 780h168q3 -242 1.5 -396t-19 -242.5t-48 -122t-85.5 -33.5q-68 0 -103.5 59.5t-53 231t-17.5 507.5q0 333 19 499t54.5 216.5t106.5 50.5q83 0 117 -90t34 -319q0 -121 -4 -180q-6 0 -21 1t-24 1q-33 0 -47 -2q0 34 1 99t1 83q0 129 -6.5 198t-18.5 92t-34 23
q-18 0 -29.5 -12t-22.5 -51t-17 -111.5t-9.5 -195.5t-3.5 -300q0 -235 3.5 -370t13.5 -213t24 -101.5t39 -23.5q23 0 35 24t19.5 90.5t7.5 186t-1 309.5q-51 0 -80 -2v94z" />
    <glyph glyph-name="H" unicode="H" horiz-adv-x="417" 
d="M272 1536h101q-2 -188 -2 -768q0 -547 2 -768h-101q2 199 2 723h-65h-68q0 -524 2 -723h-100q2 110 2 768q0 674 -2 768h100q-2 -166 -2 -721h68h65q0 555 -2 721z" />
    <glyph glyph-name="I" unicode="I" horiz-adv-x="190" 
d="M145 0h-102q4 166 4 768q0 604 -4 768h102q-4 -328 -4 -768q0 -432 4 -768z" />
    <glyph glyph-name="J" unicode="J" horiz-adv-x="229" 
d="M84 1536h102q-2 -150 -2 -535q0 -24 2 -295t2 -522q0 -101 -24.5 -148.5t-87.5 -47.5q-38 0 -76 10q5 13 7.5 51t0.5 49q21 -12 47 -12q37 0 37 88q0 1141 -8 1362z" />
    <glyph glyph-name="K" unicode="K" horiz-adv-x="391" 
d="M276 1536h107q-3 -16 -60.5 -332.5t-84.5 -455.5q13 -54 36 -166q93 -481 121 -582h-88q-10 0 -14.5 7.5t-9.5 29.5q-84 469 -117 665h-23q0 -546 2 -702h-100q2 168 2 768q0 604 -2 768h100q-2 -156 -2 -752h23q7 76 35 228q62 361 75 524z" />
    <glyph glyph-name="L" unicode="L" horiz-adv-x="272" 
d="M43 1536h104q-4 -145 -4 -762q0 -129 1 -381.5t1 -300.5q76 0 119 2v-43v-51h-219q2 53 2 768q0 675 -4 768z" />
    <glyph glyph-name="M" unicode="M" horiz-adv-x="536" 
d="M369 1536h125q-2 -201 -2 -766q0 -176 1 -424.5t1 -345.5h-101q4 319 4 842q0 99 7 313.5t8 274.5h-11q-25 -438 -34 -533l-76 -897h-51l-80 909q-12 134 -35 523h-8q0 -108 6 -304t6 -282q0 -208 4 -846h-88v770v766h137q6 -97 74 -840q3 -47 12 -293h8q11 188 19 291
q12 151 41 462.5t33 379.5z" />
    <glyph glyph-name="N" unicode="N" horiz-adv-x="417" 
d="M293 1536h82v-766v-770h-105q-33 296 -114 926q-16 150 -37 510h-10q12 -302 12 -619q1 -147 1.5 -342.5t1 -308t1.5 -166.5h-82q2 193 2 768q0 600 -2 768h127q3 -54 20.5 -197.5t43 -356t42.5 -368.5q9 -73 33 -411h10q-18 383 -18 475q0 514 -8 858z" />
    <glyph glyph-name="O" unicode="O" 
d="M371 786q0 -338 -15.5 -506.5t-49.5 -231t-103 -62.5q-68 0 -102 62t-50 232t-16 506q0 333 17 497t50.5 215.5t100.5 51.5t100.5 -51.5t50.5 -215.5t17 -497zM205 78q20 0 31 23.5t19.5 99t11.5 211.5t3 366q0 228 -3 363.5t-12 205.5t-20 90.5t-30 20.5q-20 0 -32 -21
t-21.5 -90t-13 -205.5t-3.5 -363.5t4 -366t13 -212.5t21 -97.5t32 -24z" />
    <glyph glyph-name="P" unicode="P" horiz-adv-x="380" 
d="M166 551q38 0 57 27.5t29 121.5t10 285q0 147 -5 240t-16.5 140t-25 63t-35.5 16q-27 0 -43 -2q0 -625 2 -889q6 -2 27 -2zM43 1536h141q69 0 104 -44t50.5 -160.5t15.5 -348.5q0 -220 -19 -334.5t-54.5 -152t-102.5 -37.5q-10 0 -22 1t-17 1q3 -284 6 -461h-102
q4 217 4 768q0 569 -4 768z" />
    <glyph glyph-name="Q" unicode="Q" horiz-adv-x="399" 
d="M127 788q0 -232 3.5 -369.5t13 -212.5t22.5 -98.5t35 -23.5q21 0 32.5 23.5t20.5 98.5t12.5 213t3.5 369q0 215 -3.5 345.5t-12 203.5t-21 97t-32.5 24q-21 0 -34 -24.5t-22.5 -96.5t-13.5 -203.5t-4 -345.5zM258 84v-6q9 1 26.5 3t26.5 3q12 2 34.5 4t33.5 4v-92
q-26 0 -82.5 -2t-95.5 -2q-51 0 -83 35.5t-52 129t-27.5 240.5t-7.5 385q0 250 8 397.5t29.5 230.5t51.5 109.5t83 26.5q67 0 99.5 -54.5t48.5 -216.5t16 -491v-60q0 -165 -1 -250.5t-11 -188t-29 -142.5q-20 -43 -68 -63z" />
    <glyph glyph-name="R" unicode="R" 
d="M174 1444h-35v-737q8 -2 39 -2q92 0 92 364q0 163 -11 246t-30 106t-55 23zM240 653v-4q38 -8 60 -36t36 -90t24 -179q4 -40 12 -122t14.5 -135.5t12.5 -86.5h-90q-17 0 -20 35q-17 212 -26.5 314.5t-22.5 168.5t-26 80t-38 14q-10 0 -22 -1t-15 -1q4 -457 8 -610h-104
q0 97 1 344t1 424q0 176 -1 423.5t-1 344.5h150q63 0 98 -33t54.5 -132t19.5 -284q0 -212 -27.5 -312.5t-97.5 -121.5z" />
    <glyph glyph-name="S" unicode="S" horiz-adv-x="352" 
d="M72 545h55q-2 -72 -2 -199q0 -160 12 -215t43 -55q30 0 41.5 41.5t11.5 142.5q0 116 -23.5 223.5t-68.5 237.5q-54 152 -83 279t-29 272q0 154 36 216t115 62q55 0 85.5 -29t46.5 -108t16 -223q0 -47 -4 -203h-43h-52q4 156 4 230q0 98 -6 151t-16.5 71.5t-30.5 18.5
q-30 0 -42.5 -42t-12.5 -146q0 -115 19.5 -214.5t60.5 -226.5q4 -11 23.5 -69.5t25.5 -78l22 -71.5t22 -82t15 -76t12 -88t3 -85q0 -155 -33.5 -225t-116.5 -70q-46 0 -76.5 23.5t-46.5 72t-22 109t-6 147.5q0 77 4 209h41z" />
    <glyph glyph-name="T" unicode="T" horiz-adv-x="307" 
d="M10 1536h287v-45v-47h-94q0 -1323 4 -1444h-51h-52q5 149 5 1444h-99v47v45z" />
    <glyph glyph-name="U" unicode="U" horiz-adv-x="411" 
d="M268 1536h101q-2 -79 -2 -557q0 -82 1 -347.5t1 -408.5q0 -125 -34.5 -181t-125.5 -56q-94 0 -130 56.5t-36 180.5q0 143 2 408.5t2 347.5q0 399 -2 557h102q-6 -335 -6 -1315q0 -80 15.5 -114.5t54.5 -34.5q34 0 47.5 34.5t13.5 114.5q0 1096 -4 1315z" />
    <glyph glyph-name="V" unicode="V" horiz-adv-x="376" 
d="M266 1536h99q-17 -219 -58.5 -856.5t-44.5 -679.5q-18 2 -72 2q-59 0 -73 -2q-6 75 -47.5 727t-55.5 809h105q4 -163 19.5 -513t33.5 -611q4 -59 7 -120t5.5 -120.5t3.5 -83.5h9q5 214 12 322q50 858 57 1126z" />
    <glyph glyph-name="W" unicode="W" horiz-adv-x="559" 
d="M467 1536h80q-5 -94 -25 -459.5t-37 -676t-22 -400.5q-14 2 -55 2q-52 0 -66 -2q-22 424 -43 928q-7 222 -10 450h-8q-12 -405 -15 -452q-42 -652 -51 -926q-23 2 -59 2q-44 0 -58 -2q-4 70 -40 723.5t-46 812.5h105q3 -228 41 -1061q6 -206 6 -364h12q5 251 10 364
q7 143 20 393t21.5 425t10.5 243h57h57q2 -134 41 -1061q3 -78 7 -203t6 -168h10q0 171 8 371q5 148 16 393t18.5 422.5t8.5 245.5z" />
    <glyph glyph-name="X" unicode="X" horiz-adv-x="380" 
d="M266 1536h101q-40 -254 -113 -766q41 -300 117 -770h-113q-5 46 -20.5 178t-24.5 230q-26 294 -27 319h-8q-1 -32 -26 -321q-8 -82 -21 -213.5t-18 -192.5h-101q89 660 105 778q-60 471 -105 758h109q35 -332 45 -432q14 -143 20 -287h9q8 123 24 281q6 59 16.5 153
t18 162t12.5 123z" />
    <glyph glyph-name="Y" unicode="Y" horiz-adv-x="362" 
d="M256 1536h92q-10 -99 -59 -527.5t-60 -537.5q0 -138 1 -296t1 -175q-14 2 -49 2t-49 -2q2 74 2 463q-94 841 -123 1073h107q9 -244 51 -729q10 -163 12 -219h8q3 89 11 221q9 129 31 403t24 324z" />
    <glyph glyph-name="Z" unicode="Z" horiz-adv-x="325" 
d="M29 1536h274v-43v-49q-7 -41 -131 -912q-32 -219 -61 -442q11 0 30 1t27 1h133v-45v-47h-278v47v45q7 40 31 209t55.5 396.5t48.5 344.5q9 73 59 406q-54 -4 -88 -4h-100v47v45z" />
    <glyph glyph-name="a" unicode="a" horiz-adv-x="372" 
d="M170 88q61 0 61 215v363q-10 4 -30 4q-28 0 -44 -17.5t-26 -79t-10 -176.5q0 -108 2 -167.5t8 -92t14.5 -41t24.5 -8.5zM236 106l-11 3q-17 -119 -94 -119q-38 0 -59 29t-33 116t-12 248q0 142 18 223.5t50 111.5t85 30q24 0 53 -11v389q0 105 -45 105q-25 0 -36 -20.5
t-17 -93t0 -212.5q-16 4 -45 4q-19 0 -47 -4q-7 161 4.5 251t44.5 129.5t96 39.5q70 0 105 -48.5t35 -152.5q0 -152 -2 -378t-2 -332q0 -358 10 -414h-80q-13 0 -17 5.5t-4 23.5q0 11 1.5 37t1.5 40z" />
    <glyph glyph-name="b" unicode="b" horiz-adv-x="395" 
d="M141 1038l-2 -936q29 -22 56 -22q28 0 42 36.5t22.5 165.5t8.5 386q0 130 -1 219t-4.5 152.5t-7.5 99.5t-11.5 56t-15.5 26t-21 6q-66 0 -66 -189zM137 1208l8 -2q25 117 103 117q47 0 69.5 -40t35 -182t12.5 -435q0 -222 -7.5 -358.5t-26 -206t-40.5 -91.5t-58 -22
q-62 0 -86 71l-8 -2v-20v-37h-96q4 204 4 774q0 141 -2 423t-2 388h98q0 -35 -1 -105.5t-1 -117.5q0 -111 -2 -154z" />
    <glyph glyph-name="c" unicode="c" horiz-adv-x="372" 
d="M299 514h45q2 -61 2 -172q0 -188 -31 -272t-120 -84q-41 0 -67 15.5t-46.5 54.5t-30.5 116.5t-15 192t-5 290.5q0 204 7.5 328t27.5 203.5t51.5 109t83.5 29.5q83 0 113 -79t30 -292q0 -108 -2 -176h-43h-49q4 68 4 176q0 113 -7 176t-18 84t-30 21q-14 0 -23.5 -10.5
t-19 -45.5t-15.5 -97t-9.5 -170t-2.5 -259q1 -158 4 -265t8 -168t14 -92.5t17.5 -39.5t22.5 -8q32 0 44.5 57t12.5 203q0 111 -2 174h49z" />
    <glyph glyph-name="d" unicode="d" horiz-adv-x="393" 
d="M252 270v938q-24 21 -53 21q-28 0 -43 -36t-24 -166.5t-9 -385.5q0 -192 3 -302.5t11.5 -168t18.5 -73t30 -15.5q66 0 66 188zM252 1585h98q-4 -504 -4 -1048q0 -136 2 -320t2 -217h-100q2 18 2 59v43h-8q-27 -114 -99 -114q-47 0 -70 40t-35.5 182t-12.5 433
q0 221 8 358.5t26 206.5t40.5 91t58.5 22q57 0 88 -70l8 2q0 20 -1 56t-1 53q0 39 -1 111.5t-1 111.5z" />
    <glyph glyph-name="e" unicode="e" horiz-adv-x="368" 
d="M193 1235q-24 0 -38 -38.5t-22.5 -157.5t-9.5 -339q40 -2 119 2q4 94 4 232q0 116 -6 183t-17.5 92.5t-29.5 25.5zM287 461h41q5 -262 -25 -368.5t-115 -106.5q-47 0 -72.5 18t-47 84t-29.5 198t-8 355q0 278 18 428t51 203t93 53q78 0 106.5 -85t28.5 -296
q0 -55 -2 -177.5t-2 -158.5q-35 2 -107 2h-94q0 -230 8.5 -349t21 -150t35.5 -31q22 0 34 33t16.5 115.5t1.5 232.5h47z" />
    <glyph glyph-name="f" unicode="f" horiz-adv-x="266" 
d="M61 1309v112q0 87 30 130.5t99 43.5q41 0 72 -10q-2 -29 -10 -98q-28 8 -43 8q-28 0 -40.5 -16.5t-12.5 -55.5v-114h96v-95q-15 0 -47 1.5t-49 1.5q0 -994 6 -1217q-20 2 -51 2q-34 0 -52 -2q4 209 4 748q0 40 -1 197.5t-1 268.5h-49v95h49z" />
    <glyph glyph-name="g" unicode="g" horiz-adv-x="389" 
d="M190 -139q59 0 84 39.5t25 124.5q0 77 -19.5 113t-62.5 36q-10 0 -35 -1t-37 -1q-51 -93 -51 -180q0 -131 96 -131zM193 1219q-40 0 -54 -80t-14 -273q0 -124 7 -190.5t21 -91.5t40 -25q35 0 49 65t14 242q0 185 -14.5 269t-48.5 84zM274 1227v-8q44 -31 61 -109t17 -262
q0 -212 -37.5 -295.5t-124.5 -83.5q-16 0 -36 4q-37 -85 -37 -139q0 -40 13 -54t42 -14q13 0 35.5 1t30.5 1q76 0 112.5 -58t36.5 -181q0 -125 -43 -191.5t-156 -66.5q-54 0 -90.5 14.5t-55 41.5t-25.5 56.5t-7 67.5q0 121 84 225q-57 18 -57 119q0 77 67 201
q-38 35 -55.5 123t-17.5 253q0 240 37 339.5t122 99.5q3 0 37 -0.5t79 -1t77 -0.5v-97q-32 0 -109 15z" />
    <glyph glyph-name="h" unicode="h" 
d="M137 1223l10 -2q27 100 115 100q51 0 75.5 -43t24.5 -141q0 -185 -2 -385t-2 -273q0 -179 4 -479h-98q0 116 1 483.5t1 636.5q0 59 -10 84t-41 25q-35 0 -55.5 -37.5t-20.5 -112.5q0 -423 1 -736.5t1 -342.5h-98q2 184 2 645q0 737 -2 940h98v-246z" />
    <glyph glyph-name="i" unicode="i" horiz-adv-x="186" 
d="M158 1485q0 -30 -16 -51t-48 -21q-33 0 -50 21t-17 51q0 33 17 52t50 19q31 0 47.5 -19t16.5 -52zM141 0h-96q2 184 2 680q0 461 -2 629h96q-2 -174 -2 -631q0 -500 2 -678z" />
    <glyph glyph-name="j" unicode="j" horiz-adv-x="204" 
d="M66 -72q0 1181 -5 1381h99q-2 -79 -2 -592q0 -90 1 -334.5t1 -443.5q0 -168 -113 -168q-36 0 -59 10q5 34 10 98q17 -10 37 -10q31 0 31 59zM172 1485q0 -31 -15.5 -51.5t-47.5 -20.5q-33 0 -50.5 21t-17.5 51q0 33 17.5 52t50.5 19q63 0 63 -71z" />
    <glyph glyph-name="k" unicode="k" horiz-adv-x="374" 
d="M268 1309h107q-33 -145 -152 -670q30 -112 84.5 -355t67.5 -284h-82q-18 0 -23 27q-14 66 -59 285t-61 286h-9q0 -416 2 -598h-100q2 102 2 842q0 542 -2 743h102q-4 -188 -4 -782v-131h9q8 57 25 146t22 122q60 290 71 369z" />
    <glyph glyph-name="l" unicode="l" horiz-adv-x="186" 
d="M141 0h-98q2 211 2 821q0 555 -2 764h100q-4 -390 -4 -766q0 -586 2 -819z" />
    <glyph glyph-name="m" unicode="m" horiz-adv-x="606" 
d="M344 1208h6q32 113 111 113q53 0 77.5 -39.5t24.5 -126.5q0 -158 -2 -385.5t-2 -323.5q0 -188 4 -446h-98q4 258 4 1126q0 56 -11.5 80.5t-39.5 24.5q-68 0 -68 -164q0 -968 2 -1067h-100q4 262 4 1126q0 57 -10 81t-39 24q-32 0 -51 -41t-19 -123q0 -874 2 -1067h-96
q2 184 2 645q0 490 -2 664h94v-90h8q28 102 105 102t94 -113z" />
    <glyph glyph-name="n" unicode="n" 
d="M139 1223l8 -2q27 100 115 100q51 0 75.5 -43t24.5 -141q0 -185 -2 -385t-2 -273q0 -179 4 -479h-98q0 116 1 483.5t1 636.5q0 60 -10 85.5t-41 25.5q-35 0 -55.5 -38t-20.5 -114q0 -423 1 -736.5t1 -342.5h-98q2 184 2 645q0 508 -2 664h96v-86z" />
    <glyph glyph-name="o" unicode="o" horiz-adv-x="385" 
d="M256 662q0 195 -3 308.5t-11 173t-19 76.5t-30 17q-25 0 -37.5 -34t-20.5 -161t-8 -380q0 -193 3.5 -309.5t12 -178t20 -81t30.5 -19.5t30 19t19 81.5t11 177.5t3 310zM354 674q0 -291 -15 -436.5t-47.5 -198.5t-98.5 -53t-99 52.5t-49 199t-16 436.5q0 216 8 344.5
t30 196.5t49.5 89t76.5 21q65 0 96.5 -42.5t48 -182.5t16.5 -426z" />
    <glyph glyph-name="p" unicode="p" horiz-adv-x="393" 
d="M141 1038l-2 -936q29 -22 56 -22q28 0 42 36.5t22.5 165.5t8.5 386q0 130 -1 219t-4.5 152.5t-7.5 99.5t-11.5 56t-15.5 26t-21 6q-66 0 -66 -189zM139 1206h6q25 117 103 117q47 0 69.5 -40t35 -182t12.5 -435q0 -222 -7.5 -358.5t-26 -206t-40.5 -91.5t-58 -22
q-63 0 -88 69h-8q0 -14 1 -43t1 -41v-192h-96q4 414 4 917q0 150 -2 359t-2 252h98q0 -9 -1 -29t-1 -37v-37z" />
    <glyph glyph-name="q" unicode="q" horiz-adv-x="393" 
d="M252 270v938q-24 21 -53 21q-28 0 -43 -36t-24 -166.5t-9 -385.5q0 -192 3 -302.5t11.5 -168t18.5 -73t30 -15.5q66 0 66 188zM252 1309h98q-4 -192 -4 -772q0 -135 2 -383.5t2 -372.5h-100q0 29 1 91t1 105q0 96 2 125h-10q-27 -114 -99 -114q-47 0 -70 40t-35.5 182
t-12.5 433q0 221 8 358.5t26 206.5t40.5 91t58.5 22q56 0 88 -70l6 2q0 10 -1 28.5t-1 27.5z" />
    <glyph glyph-name="r" unicode="r" horiz-adv-x="264" 
d="M123 1147h8q11 92 34.5 131t59.5 39q17 0 37 -8q-7 -54 -10 -123q-12 6 -31 6q-40 0 -59 -46t-19 -161q0 -73 -0.5 -241.5t-0.5 -277t1 -243.5t4 -223h-104q2 93 2 686q0 535 -2 623h86q-3 -56 -6 -162z" />
    <glyph glyph-name="s" unicode="s" horiz-adv-x="329" 
d="M63 430h48q0 -30 -2.5 -80t-2.5 -65q0 -120 15 -165.5t49 -45.5q29 0 41 40.5t12 137.5q0 88 -22.5 168.5t-69.5 195.5q-53 122 -82 228.5t-29 236.5q0 125 36 184.5t110 59.5q76 0 107.5 -65t31.5 -230q0 -88 -2 -141h-45h-45q2 47 2 158q0 113 -10.5 153.5t-38.5 40.5
t-40.5 -34.5t-12.5 -123.5q0 -107 18.5 -189t58.5 -173q3 -8 21 -50.5t23 -55t20 -51.5t20.5 -58.5t15.5 -56t14 -63t7.5 -61.5t3.5 -69q0 -139 -36.5 -204.5t-112.5 -65.5q-83 0 -115.5 69.5t-32.5 227.5q0 59 5 147h40z" />
    <glyph glyph-name="t" unicode="t" horiz-adv-x="274" 
d="M262 1214l-106 3q-4 -590 -4 -1059q0 -74 49 -74q25 0 49 18q2 -32 16 -94q-44 -18 -88 -18q-64 0 -92.5 43t-28.5 129q0 148 2.5 502t3.5 555h-47v90h47v192h48h49l-2 -194q18 0 52 1t52 1v-95z" />
    <glyph glyph-name="u" unicode="u" 
d="M264 1309h96q0 -81 -1 -289t-1 -356q0 -157 1 -379.5t1 -284.5h-96q0 59 2 88h-8q-27 -100 -115 -100q-51 0 -75.5 44t-24.5 140q0 184 1 384t1 273q0 330 -4 480h100q0 -116 -1 -483.5t-1 -637.5q0 -59 10 -83.5t39 -24.5q78 0 78 149q0 423 -1 737.5t-1 342.5z" />
    <glyph glyph-name="v" unicode="v" horiz-adv-x="352" 
d="M250 1309h96q-21 -233 -59.5 -714.5t-44.5 -594.5q-6 0 -27.5 2t-38.5 2q-39 0 -63 -4q-46 626 -107 1309h107q2 -47 18.5 -331.5t24.5 -440.5q10 -220 18 -431h10q3 133 19 429q10 176 28 468.5t19 305.5z" />
    <glyph glyph-name="w" unicode="w" horiz-adv-x="528" 
d="M442 1309h80q-11 -164 -78 -1309h-55h-67q-1 22 -10 178.5t-19 333.5t-17 319q-5 83 -5.5 231t-0.5 152h-10q-1 -23 -4 -164.5t-8 -218.5q-10 -190 -29.5 -492t-21.5 -339h-56h-57q-2 36 -19.5 338t-34 583t-24.5 388h94q7 -204 35 -830q8 -208 8 -391h13q4 180 12 389
q47 710 49 832h53h58q1 -47 8 -185t17.5 -334.5t15.5 -314.5q7 -127 12 -385h10q6 280 10 385q36 684 41 834z" />
    <glyph glyph-name="x" unicode="x" horiz-adv-x="358" 
d="M248 1309h98q-62 -432 -94 -641q81 -566 98 -668h-110q-4 60 -19.5 183.5t-21.5 178.5q-20 168 -25 254h-8q-4 -45 -21 -254q-25 -209 -36 -362h-101q14 81 47 323t47 339q-11 77 -43.5 314.5t-48.5 332.5h109q15 -161 41 -402q1 -11 16 -209h6q2 32 10 103t11 104
q38 313 45 404z" />
    <glyph glyph-name="y" unicode="y" horiz-adv-x="354" 
d="M254 1309h98q-19 -189 -42 -447.5t-48 -559t-31 -372.5q-15 -159 -137 -159q-48 0 -94 14q2 8 4.5 27.5t4.5 40t3 24.5q36 -18 66 -18q55 0 63 88q1 13 5.5 54t5.5 67l-41 -2q-42 545 -101 1243h107q2 -91 39 -670q12 -250 16 -492h12q3 152 21 490q8 134 27.5 380.5
t21.5 291.5z" />
    <glyph glyph-name="z" unicode="z" horiz-adv-x="319" 
d="M31 1309h264v-45v-50q-10 -48 -125 -788q-43 -266 -55 -336q23 2 69 2h109v-47v-45h-268q2 12 2 47v43q6 31 56 350.5t73 452.5q35 217 57 326q-12 0 -40 -1t-44 -1q-49 0 -98 -3v50v45z" />
    <glyph glyph-name="uni00A0" unicode="&#xa0;" horiz-adv-x="159" 
 />
  </font>
</defs>
</svg>
