<?xml version="1.0" standalone="no"?>
<!DOCTYPE svg PUBLIC "-//W3C//DTD SVG 1.1//EN" "http://www.w3.org/Graphics/SVG/1.1/DTD/svg11.dtd" >
<svg xmlns="http://www.w3.org/2000/svg" xmlns:xlink="http://www.w3.org/1999/xlink" version="1.1">
<metadata>
Created by FontForge 20170731 at Tue Nov 10 11:53:44 2020
 By Aleksey,,,
(c) Copyright OH no Type Company, LLC. 2015. All rights reserved.
</metadata>
<defs>
<font id="ObviouslyDemo-CondMediItalic" horiz-adv-x="647" >
  <font-face 
    font-family="Obviously Demo Cond Medi"
    font-weight="350"
    font-style="italic"
    font-stretch="condensed"
    units-per-em="2048"
    panose-1="4 13 6 10 5 4 3 11 3 6"
    ascent="1638"
    descent="-410"
    x-height="1290"
    cap-height="1536"
    bbox="-225 -248 1141 1597"
    underline-thickness="102"
    underline-position="-307"
    slope="-28"
    unicode-range="U+0020-00A0"
  />
<missing-glyph horiz-adv-x="0" 
 />
    <glyph glyph-name=".notdef" horiz-adv-x="0" 
 />
    <glyph glyph-name=".null" horiz-adv-x="0" 
 />
    <glyph glyph-name="nonmarkingreturn" horiz-adv-x="682" 
 />
    <glyph glyph-name="space" unicode=" " horiz-adv-x="256" 
 />
    <glyph glyph-name="comma" unicode="," horiz-adv-x="225" 
d="M-6 338h158q-169 -372 -261 -565q-6 2 -104 34q42 98 109.5 270.5t97.5 260.5z" />
    <glyph glyph-name="period" unicode="." horiz-adv-x="215" 
d="M-2 219q100 0 70 -129q-27 -98 -107 -98q-101 0 -70 129q11 45 39 71.5t68 26.5z" />
    <glyph glyph-name="zero" unicode="0" horiz-adv-x="661" 
d="M641 754q-78 -311 -145.5 -478.5t-134.5 -229.5t-160 -62q-111 0 -159 70t-37.5 250t89.5 497q47 187 89 317.5t82 216t84 133t87.5 66t100.5 18.5q80 0 124.5 -32.5t64 -118.5t-2 -245t-82.5 -402zM522 1419q-26 0 -47 -12.5t-47 -50t-52.5 -106t-61 -182t-74.5 -275.5
q-68 -277 -88 -428.5t-2.5 -199.5t67.5 -48q30 0 56.5 24.5t60 92t74 199t90.5 333.5q42 167 65 285t30 189.5t-1 111.5t-24.5 53.5t-45.5 13.5z" />
    <glyph glyph-name="one" unicode="1" horiz-adv-x="313" 
d="M2 0h-78q70 254 195 768q96 377 164 678q66 42 106 90h39h35q-43 -154 -199 -768q-123 -500 -184 -768h-78z" />
    <glyph glyph-name="two" unicode="2" horiz-adv-x="587" 
d="M385 0h-504q1 2 15 49q2 14 8 37.5t6 24.5q38 154 120 281.5t210 260.5q125 138 199.5 263t113.5 282q30 129 16 177t-71 48q-61 0 -103.5 -65t-85.5 -236q-9 -36 -27.5 -120t-23.5 -107q-18 2 -65 2q-49 0 -72 -2q28 143 51 235q57 226 132 324t206 98q137 0 180.5 -91
t-2.5 -275q-20 -80 -50 -154t-61 -131t-78.5 -123.5t-84.5 -111.5t-97 -115q-108 -117 -171 -214.5t-91 -201.5h129q164 0 236 4q-9 -35 -21 -78q-3 -13 -7.5 -33t-6.5 -28z" />
    <glyph glyph-name="three" unicode="3" horiz-adv-x="616" 
d="M432 780l-4 -10q31 -6 53 -25q60 -45 67 -138.5t-30 -227.5q-55 -215 -129 -306t-203 -91q-161 0 -207 98t9 313q7 29 20 74.5t17 58.5q25 -2 67 -2q52 0 72 2q-21 -75 -31 -114q-43 -188 -29 -247t89 -59q63 0 102.5 61.5t83.5 242.5q30 120 29.5 187t-26.5 91.5
t-81 24.5t-88 -2q2 7 18 67q1 6 7 28t8 34q18 -2 86 -2q79 0 130 69.5t93 243.5q38 157 24.5 216.5t-79.5 59.5q-62 0 -101.5 -56t-76.5 -206q-15 -63 -35 -153q-6 0 -30 1t-40 1q-13 0 -35 -1t-35 -1q5 29 39 170q53 203 126.5 286.5t203.5 83.5q146 0 190.5 -97t-6.5 -302
q-36 -144 -79 -220.5t-107 -119.5q-39 -22 -82 -33z" />
    <glyph glyph-name="four" unicode="4" horiz-adv-x="661" 
d="M592 768l-64 -258q63 0 90 2q-2 -8 -16 -66q-12 -43 -16 -69l-88 2q-58 -238 -90 -379h-152q55 212 100 381h-106q-172 0 -260 -2q37 107 174 560.5t174 596.5h149q-10 -31 -61 -196l-93.5 -302.5t-89.5 -294.5t-67 -231q49 -2 211 -2q137 541 254 1026h145
q-33 -129 -194 -768z" />
    <glyph glyph-name="five" unicode="5" horiz-adv-x="622" 
d="M115 541h69q-7 -22 -16.5 -61t-11.5 -46q-44 -177 -34 -253.5t79 -76.5q39 0 69 33.5t62.5 120t70.5 240.5q22 88 33.5 153t12.5 106.5t-8 66.5t-24.5 34.5t-39.5 9.5q-81 0 -154 -127q-71 23 -114 23q10 37 22.5 88.5t28 117.5t24.5 101q94 369 113 465q80 -2 250 -2
q166 0 244 2q-2 -6 -4 -15t-6 -24t-7 -27q-3 -15 -9.5 -40t-8.5 -33q-39 2 -172 2h-181q-12 -43 -42.5 -165.5t-36.5 -146.5l-48 -194q76 90 166 90q55 0 89 -24.5t50 -80t7.5 -150.5t-41.5 -230q-49 -198 -100 -310.5t-110.5 -159t-141.5 -46.5q-151 0 -196 101.5t9 324.5
l39 133h68z" />
    <glyph glyph-name="six" unicode="6" 
d="M373 797q-127 0 -201 -299q-100 -396 43 -396q61 0 104.5 79t96.5 294q43 181 32 251.5t-75 70.5zM219 768l8 -2q82 149 215 149q120 0 147.5 -107t-30.5 -333q-68 -272 -145.5 -381.5t-206.5 -109.5q-67 0 -109.5 22.5t-69 77.5t-27 149.5t22 237.5t72.5 342
q73 295 138 453.5t136.5 222t174.5 63.5q143 0 185 -104t-11 -311q-15 -60 -27 -99q-25 2 -69 2q-54 0 -70 -2q18 61 25 97q41 155 30.5 226t-78.5 71q-69 0 -125.5 -93t-117.5 -327q-18 -72 -68 -244z" />
    <glyph glyph-name="seven" unicode="7" horiz-adv-x="516" 
d="M246 1536h477q-3 -8 -6 -20t-6.5 -27t-5.5 -23q-3 -15 -9 -35t-8 -28q-113 -176 -279 -597t-262 -806h-73h-78q95 354 266 778t289 621q-114 0 -340 -4q2 8 5.5 23t6.5 27.5t6 24.5q13 44 17 66z" />
    <glyph glyph-name="eight" unicode="8" horiz-adv-x="645" 
d="M578 1147q38 163 21 221.5t-87 58.5q-61 0 -104 -58.5t-80 -207.5q-44 -193 -31.5 -258t80.5 -65q65 0 111 66t90 243zM403 406q31 123 31.5 191t-23 92t-75.5 24q-71 0 -116 -58.5t-87 -226.5q-30 -123 -31.5 -192.5t23 -97t78.5 -27.5q68 0 112.5 62.5t87.5 232.5z
M250 774l2 10q-22 10 -47 35q-45 42 -49.5 124.5t32.5 240.5q50 197 127 283.5t213 86.5q154 0 201 -97t-6 -302q-37 -150 -76.5 -227t-99.5 -117q-37 -23 -78 -31l-2 -10q26 -9 49 -25q55 -43 58.5 -137t-35.5 -239q-51 -202 -134 -294.5t-215 -92.5q-158 0 -207 105.5
t9 340.5q30 123 72 202.5t110 119.5q35 18 76 24z" />
    <glyph glyph-name="nine" unicode="9" 
d="M551 1038q99 396 -39 396q-41 0 -73 -33t-64 -114.5t-68 -225.5q-30 -121 -34 -193t15 -101.5t60 -29.5q129 0 203 301zM502 764l-8 2q-83 -150 -215 -150q-116 0 -144.5 106.5t29.5 338.5q68 271 146.5 381t205.5 110q84 0 131.5 -35t67 -125.5t-2.5 -253.5t-85 -411
q-46 -184 -86 -310t-79 -212t-82.5 -133.5t-89.5 -67.5t-106 -20q-146 0 -189 105t11 310q10 47 25 97q25 -2 69 -2q54 0 70 2q-5 -15 -13.5 -49t-11.5 -44q-27 -107 -30.5 -172t17.5 -96t69 -31q43 0 78.5 35.5t74.5 128.5t82 254q27 107 66 242z" />
    <glyph glyph-name="A" unicode="A" horiz-adv-x="673" 
d="M545 1436h-8q-22 -62 -117 -316q-6 -16 -213 -577q41 -2 112 -2q70 0 109 2q56 442 76 579q36 278 41 314zM449 1536h227q-3 -29 -76 -673.5t-92 -862.5h-160q15 75 64 422h-123h-125q-119 -320 -150 -422h-159q64 161 196 502t260.5 676t137.5 358z" />
    <glyph glyph-name="B" unicode="B" horiz-adv-x="686" 
d="M604 1118q30 124 29.5 188t-24.5 84.5t-79 20.5q-28 0 -102 -4q-65 -238 -145 -569q37 -2 106 -2q81 1 128.5 65t86.5 217zM438 414q43 173 25 240t-107 67q-15 0 -50 -1t-54 -1q-90 -357 -143 -588q39 -2 104 -2q62 0 98 20t66 81t61 184zM307 1536h260q61 0 101.5 -12
t68 -40t36.5 -76t2 -119t-32 -169q-34 -134 -69.5 -204t-89.5 -105q-40 -24 -99 -33l-2 -10q46 -6 68 -20q50 -30 56.5 -112.5t-32.5 -244.5q-40 -159 -84.5 -242t-106 -116t-163.5 -33h-297q77 274 197 768q135 537 186 768z" />
    <glyph glyph-name="C" unicode="C" horiz-adv-x="675" 
d="M547 633h71q-13 -62 -34 -150q-67 -269 -147 -384t-218 -115q-67 0 -111.5 22t-72 77t-29.5 147.5t19.5 233t70.5 333.5q58 233 110 381.5t108 230.5t111 112.5t130 30.5q148 0 190.5 -114.5t-16.5 -352.5q-22 -85 -51 -188q-23 2 -70 2q-46 0 -71 -2q50 185 53 199
q33 129 35 201t-19 96t-67 24q-37 0 -65 -20.5t-64 -83.5t-77 -193.5t-93 -337.5q-43 -172 -65.5 -293t-28 -193t5.5 -112t30 -52.5t51 -12.5q65 0 111.5 79.5t95.5 274.5q19 75 37 160h70z" />
    <glyph glyph-name="D" unicode="D" horiz-adv-x="692" 
d="M530 766q42 165 62.5 281.5t23.5 185.5t-12 107.5t-37.5 50.5t-60.5 12q-55 0 -80 -2q-60 -224 -164 -639q-48 -196 -100 -402t-56 -223q58 -4 82 -4q45 0 74.5 11t62.5 46.5t62.5 105.5t64.5 183.5t78 286.5zM307 1536h217q59 0 100 -12t74 -43t46 -87.5t12.5 -142.5
t-22 -210t-62.5 -289q-60 -239 -109 -382t-107 -227.5t-119.5 -113.5t-152.5 -29h-260q66 240 195 766q156 621 188 770z" />
    <glyph glyph-name="E" unicode="E" horiz-adv-x="602" 
d="M307 1536h467q-15 -58 -16 -63q-2 -15 -10 -45l-7 -29q-115 4 -317 4q-118 -474 -139 -559q213 0 309 2q-19 -62 -35 -133q-94 2 -307 2q-84 -327 -146 -580q207 0 320 2q-4 -11 -18 -69q-2 -11 -8.5 -36t-8.5 -32h-469q74 271 195 768q156 619 190 768z" />
    <glyph glyph-name="F" unicode="F" horiz-adv-x="577" 
d="M307 1536h461q-14 -41 -18 -66q-17 -70 -17 -71q-113 4 -309 4q-113 -440 -150 -590l-18 -74q117 0 305 4q-21 -72 -35 -135q-92 2 -303 2q-88 -355 -145 -610h-154q84 313 195 768q148 588 188 768z" />
    <glyph glyph-name="G" unicode="G" horiz-adv-x="688" 
d="M565 1552q288 0 178 -436q-6 -26 -41 -149q-7 0 -29.5 1t-37.5 1q-51 0 -74 -2q5 17 14.5 50.5t16 58t10.5 40.5q42 178 28 240.5t-85 62.5q-39 0 -70 -23t-69 -87.5t-80.5 -193.5t-92.5 -329q-34 -138 -55.5 -241.5t-30.5 -178t-8 -123t14 -77t32.5 -40t50.5 -11.5
q51 0 87.5 46t75 164t90.5 347q-106 0 -153 -2q2 5 4.5 15.5t5.5 23.5t4 18q3 11 17 66q53 -2 137 -2q98 0 153 2q-36 -164 -64.5 -275.5t-60.5 -208t-62.5 -154t-68.5 -98.5t-81 -57t-99 -16q-119 0 -171.5 72t-44 252.5t86.5 494.5q46 184 90 314t86 215t90 133.5
t96.5 67.5t110.5 19z" />
    <glyph glyph-name="H" unicode="H" horiz-adv-x="727" 
d="M721 1536h153q-59 -222 -196 -768q-163 -668 -186 -768h-154q25 93 178 698q-39 2 -133 2t-137 -2q-114 -452 -170 -698h-152q89 333 195 768q148 588 188 768h152q-15 -55 -180 -700q21 0 66.5 -1t68.5 -1q24 0 69.5 1t65.5 1q120 468 172 700z" />
    <glyph glyph-name="I" unicode="I" horiz-adv-x="315" 
d="M78 0h-154q54 198 197 768q139 557 186 768h154q-18 -63 -197 -768q-154 -628 -186 -768z" />
    <glyph glyph-name="J" unicode="J" horiz-adv-x="421" 
d="M418 1536h153q-49 -185 -133 -520q-3 -12 -69 -285t-125 -512q-31 -122 -84.5 -176.5t-141.5 -54.5q-96 0 -155 35q30 63 51 133q45 -25 88 -25q74 0 104 119q283 1130 312 1286z" />
    <glyph glyph-name="K" unicode="K" horiz-adv-x="673" 
d="M700 1536h181q-62 -100 -238 -402.5t-231 -394.5q1 -5 22 -172q23 -143 48 -341.5t30 -225.5h-131q-18 0 -26 8.5t-13 30.5q-67 581 -72 651h-22q-27 -110 -88 -355t-82 -335h-152q74 271 195 768q133 533 188 768h152q-29 -106 -191 -748h13q26 41 79 126.5t68 109.5
q148 253 270 512z" />
    <glyph glyph-name="L" unicode="L" horiz-adv-x="481" 
d="M309 1536h154q-57 -192 -197 -764q-32 -128 -91.5 -371.5t-65.5 -267.5q118 0 235 6q-3 -11 -8.5 -34.5t-7.5 -32.5q-10 -43 -19 -72h-381q3 11 37 145.5t77.5 306t78.5 316.5q152 605 188 768z" />
    <glyph glyph-name="M" unicode="M" horiz-adv-x="903" 
d="M862 1536h185q-102 -402 -193 -766q-47 -187 -109.5 -443t-80.5 -327h-146q83 312 219 854q22 87 74.5 273.5t71.5 256.5h-6q-117 -332 -179 -483l-372 -901h-70l76 913q5 57 15.5 136.5t25 183.5t20.5 153h-8q-22 -91 -60 -269.5t-59 -264.5q-17 -67 -209 -852h-131
q53 207 195 770q137 550 188 766h191q-3 -40 -15.5 -192t-26.5 -329.5t-24 -320.5q-9 -86 -41 -288h10q64 178 109 284q286 689 350 846z" />
    <glyph glyph-name="N" unicode="N" horiz-adv-x="722" 
d="M739 1536h131q-13 -52 -80 -317t-112 -449q-179 -710 -193 -770h-153q10 194 14 924q13 245 41 460h-4q-68 -322 -125 -555q-38 -157 -86.5 -352.5t-76 -309t-40.5 -167.5h-129q15 59 50 199t71 281.5t72 287.5q143 568 190 768h180q-5 -62 -10 -394t-12 -519
q-7 -204 -29 -383h6q61 310 95 444q141 573 200 852z" />
    <glyph glyph-name="O" unicode="O" horiz-adv-x="706" 
d="M686 764q-78 -309 -149.5 -479.5t-145 -235.5t-174.5 -65q-112 0 -163 70t-43.5 251.5t85.5 493.5q46 185 91 317t87 216.5t89 133.5t93.5 67.5t104.5 18.5q65 0 108 -21t70.5 -73.5t30.5 -141.5t-17 -226.5t-67 -325.5zM231 119q37 0 68.5 26t69 95.5t79 200.5t91.5 331
q40 160 62 274t28 186t-3.5 113t-28.5 56.5t-52 15.5q-37 0 -67.5 -24t-67.5 -89.5t-79 -195t-91 -328.5q-117 -473 -86 -596q16 -65 77 -65z" />
    <glyph glyph-name="P" unicode="P" horiz-adv-x="653" 
d="M559 977q43 173 46.5 268.5t-21.5 126.5t-80 31t-84 -2q-166 -668 -201 -811q6 0 31.5 -1t44.5 -1q65 0 105 27t78.5 111t80.5 251zM307 1536h230q76 0 123 -26.5t71.5 -89.5t16 -174.5t-49.5 -274.5q-52 -211 -110 -324.5t-125 -153.5t-170 -40q-29 0 -107 4
q-71 -297 -104 -457h-158q102 380 197 768q128 508 186 768z" />
    <glyph glyph-name="Q" unicode="Q" horiz-adv-x="704" 
d="M236 797q-41 -167 -63.5 -286t-29 -194.5t3.5 -118.5t29.5 -59t52.5 -16q51 0 92.5 48t96 195t121.5 414q38 152 59 263.5t27 183t-3.5 114t-29 59.5t-51.5 17q-51 0 -92.5 -45.5t-95 -185t-117.5 -389.5zM336 119l-2 -8q60 7 104 14q69 9 111 16q-11 -37 -35 -141
q-45 0 -146.5 -3t-162.5 -3q-109 0 -157 75.5t-38 257t86 486.5q45 179 88 307t84.5 212t88 132.5t93 68t105.5 19.5q66 0 109 -21t70.5 -73.5t30.5 -140.5t-17 -223t-66 -320q-114 -464 -215 -575q-51 -54 -131 -80z" />
    <glyph glyph-name="R" unicode="R" horiz-adv-x="696" 
d="M586 1049q23 91 32 154.5t6.5 103.5t-18 62t-37.5 30t-57 8q-59 0 -92 -2q-151 -606 -170 -684q6 0 44.5 -1t67.5 -1q141 0 224 330zM309 1536h244q71 0 117 -22t73 -73.5t24 -144t-36 -227.5q-50 -202 -115.5 -300.5t-169.5 -121.5l-2 -8q69 -17 88 -77t7 -224
q-3 -41 -10.5 -122t-11 -132.5t-3.5 -83.5h-131q-20 0 -24 18q-1 7 -3 45q43 358 38 441q-3 71 -37 85q-14 5 -38 5q-12 0 -102 -4q-98 -410 -137 -590h-154q26 103 89 349.5t106 418.5q46 184 107 435t81 333z" />
    <glyph glyph-name="S" unicode="S" horiz-adv-x="628" 
d="M598 999h-72q37 128 49 187q32 135 16.5 186t-81.5 51q-59 0 -96 -43.5t-62 -142.5q-32 -109 -21.5 -209t72.5 -190q170 -235 93 -551q-40 -157 -109.5 -231t-198.5 -74q-105 0 -161.5 48t-63 132t20.5 198q35 131 49 179q16 -2 63 -2q57 0 80 2q-40 -146 -43 -160
q-24 -101 -24.5 -159.5t21.5 -82.5t69 -24q62 0 98 42t61 140q62 251 -53 420q-89 109 -111 240.5t19 301.5q39 155 114.5 226t196.5 71q145 0 190 -90t-5 -293q-9 -33 -23.5 -88.5t-21.5 -83.5h-66z" />
    <glyph glyph-name="T" unicode="T" horiz-adv-x="532" 
d="M248 1536h491q-1 -5 -7 -29t-9 -37q-9 -36 -16 -69q-59 2 -175 2q-301 -1202 -346 -1403h-75h-74q6 22 352 1403q-115 0 -176 -2l18 69q2 8 5.5 22.5t6 25.5t5.5 18z" />
    <glyph glyph-name="U" unicode="U" horiz-adv-x="718" 
d="M715 1536h151q-54 -197 -135 -526q-20 -78 -48.5 -195t-66 -271t-59.5 -243q-40 -160 -111.5 -238.5t-195.5 -78.5q-85 0 -142.5 27t-83 75t-29.5 114.5t17 145.5q32 132 94 369t76 295q79 321 127 526h152q-87 -321 -305 -1206q-54 -215 98 -215q60 0 98 47t66 153
q267 1087 297 1221z" />
    <glyph glyph-name="V" unicode="V" horiz-adv-x="638" 
d="M694 1536h160q-63 -162 -188.5 -494.5t-246.5 -655t-145 -386.5q-29 2 -108 2q-88 0 -111 -2q4 33 51 394.5t86.5 685.5t49.5 456h161q-59 -328 -165 -1092q-15 -122 -45 -319h8q96 277 112 319q339 958 381 1092z" />
    <glyph glyph-name="W" unicode="W" horiz-adv-x="925" 
d="M1004 1536h137q-59 -161 -283 -799.5t-260 -736.5q-20 2 -82 2q-78 0 -98 -2q11 73 149 913q1 8 33 182.5t47 250.5h-8q-87 -302 -133 -435q-58 -167 -175 -504t-141 -407q-29 2 -90 2q-64 0 -82 -2q11 86 107.5 729t114.5 807h151q-9 -46 -180 -1038q-54 -293 -66 -353
h11q95 309 110 353q33 100 125 372t146 433.5t75 232.5h90h86q-35 -168 -182 -1040q-28 -158 -63 -357h10q45 154 111 357q45 137 126 381t137.5 417t76.5 242z" />
    <glyph glyph-name="X" unicode="X" 
d="M684 1536h164q-181 -346 -383 -768q0 -126 1.5 -267t3.5 -290t3 -211h-164q10 289 15 406q12 226 22 301h-4q-45 -118 -127 -304q-153 -337 -180 -403h-172q38 76 98.5 198t148.5 300t138 280q7 484 4 758h162q-4 -72 -19 -430q-8 -133 -24 -266h4q72 183 108 260
q175 377 201 436z" />
    <glyph glyph-name="Y" unicode="Y" horiz-adv-x="600" 
d="M664 1536h153q-355 -776 -483 -1071q-101 -404 -115 -465q-20 2 -72 2q-55 0 -75 -2q5 20 24 94t43.5 170.5t48.5 196.5q14 209 32.5 583t15.5 492h161q-3 -24 -75 -682q-5 -57 -25 -223h12q46 131 84 221q50 130 152.5 385t118.5 299z" />
    <glyph glyph-name="Z" unicode="Z" horiz-adv-x="612" 
d="M287 1536h501q-1 -5 -16 -63q-2 -12 -8.5 -38.5t-7.5 -31.5q-24 -39 -100.5 -187t-182.5 -353t-172 -328q-40 -75 -111 -216t-96 -188q74 4 103 4q196 0 243 2q-4 -13 -10.5 -39t-9.5 -35l-14 -63h-510q2 8 5.5 21t6 22.5t4.5 17.5q2 10 6 25.5t6.5 26.5t3.5 18
q23 37 105.5 195t195 374.5t174.5 331.5q136 265 199 375q-41 -4 -133 -4q-170 0 -217 -2q2 8 6 23t7 26.5t5 19.5q1 6 8 29.5t9 36.5z" />
    <glyph glyph-name="a" unicode="a" 
d="M356 334l201 805q-46 39 -106 39q-47 0 -82.5 -37.5t-81 -157.5t-101.5 -344q-34 -136 -52 -232t-22.5 -153t4 -89.5t23 -43t39.5 -10.5q54 0 102.5 54.5t75.5 168.5zM596 1290h143q-55 -202 -161 -635q-98 -384 -160 -655h-146q2 9 10 34.5t11 43.5q2 8 5.5 21t6 22.5
t4.5 17.5h-10q-41 -72 -91.5 -113.5t-101.5 -41.5q-41 0 -68 16t-45 60.5t-18 118.5t19.5 196t60.5 287q39 159 75.5 272.5t69.5 185t68.5 113t69 57t74.5 15.5q107 0 155 -97h8l3 11q5 17 18 71z" />
    <glyph glyph-name="b" unicode="b" 
d="M299 952l-201 -798q46 -43 109 -43q47 0 81.5 37t79 158t101.5 351q95 376 72 467q-16 48 -66 50q-55 0 -101 -52t-75 -170zM348 1161l8 -2q77 148 191 148q57 0 89 -27.5t45 -99t-6 -204.5t-69 -335q-68 -272 -127 -417t-110 -191.5t-123 -46.5q-114 0 -158 98l-8 -2
l-6 -25q-2 -10 -6.5 -28.5t-6.5 -28.5h-143q57 208 195 766q56 223 200 819h146q-37 -136 -66 -258q-19 -76 -45 -166z" />
    <glyph glyph-name="c" unicode="c" horiz-adv-x="610" 
d="M532 772h-67q26 86 37 137q37 158 25.5 214.5t-74.5 56.5q-47 0 -81.5 -35.5t-79 -153t-99.5 -340.5q-34 -139 -52 -237t-21.5 -156t7 -90.5t27.5 -42.5t45 -10q56 0 95 60t73 196q5 21 16 67t16 68q18 -2 68 -2q14 0 36 1t29 1q-5 -27 -30 -135q-54 -199 -123.5 -293
t-194.5 -94q-77 0 -122 30t-65.5 105t-5.5 209t66 336q61 246 120.5 384.5t129 199.5t166.5 61q260 0 162 -398q-21 -87 -39 -139h-64z" />
    <glyph glyph-name="d" unicode="d" 
d="M358 336l199 805q-46 39 -108 39q-47 0 -82 -38t-80 -157.5t-101 -343.5q-97 -387 -73 -480q16 -47 65 -48q56 0 103.5 53.5t76.5 169.5zM668 1585h145q-75 -280 -256 -1003q-38 -153 -88 -365.5t-51 -216.5h-146q2 8 10 35t11 45q2 9 8 29t8 30l-10 2q-39 -73 -88 -114
t-102 -41q-42 0 -70 16t-46 59.5t-18.5 117.5t18.5 194t60 284q66 264 125 408.5t111 192t121 47.5q104 0 159 -97l11 4q19 92 30 136q2 8 58 237z" />
    <glyph glyph-name="e" unicode="e" horiz-adv-x="600" 
d="M479 891q40 164 31 231.5t-66 67.5q-40 0 -74 -39t-76 -148t-93 -303q83 -2 229 2q3 11 19.5 74t29.5 115zM338 594h-164q-30 -121 -45.5 -209t-18 -142t7 -85t26 -42.5t42.5 -11.5q56 0 95.5 75t85.5 267q18 -2 65 -2q44 0 62 2q-58 -251 -127 -356.5t-193 -105.5
q-57 0 -94.5 15.5t-64.5 58.5t-31.5 116.5t12 191.5t57.5 281q64 257 127.5 403t128 202.5t150.5 56.5q131 0 165.5 -107t-20.5 -311q-6 -25 -78 -297h-188z" />
    <glyph glyph-name="f" unicode="f" horiz-adv-x="438" 
d="M262 1260l33 129q27 107 83.5 157.5t158.5 50.5q71 0 129 -18q-6 -16 -24 -66t-24 -67q-40 16 -77 16q-48 0 -74 -22t-39 -74l-27 -106q29 0 86 1t86 1q-14 -47 -34 -134q-55 2 -168 2q-227 -905 -277 -1130q-29 2 -74 2q-46 0 -73 -2q33 123 99 384t87 343
q13 52 47.5 195.5t50.5 207.5l-79 -2q28 115 32 132h78z" />
    <glyph glyph-name="g" unicode="g" horiz-adv-x="641" 
d="M403 516l156 623q-44 47 -108 47q-44 0 -75 -31.5t-70.5 -134t-88.5 -297.5q-45 -179 -54.5 -273t6.5 -122.5t60 -28.5q54 0 100 52.5t74 164.5zM596 1290h143q-21 -68 -172 -665q-32 -130 -79 -325t-60 -249q-39 -159 -108.5 -229t-200.5 -70q-138 0 -188.5 66
t-16.5 202q4 19 23 82q11 0 32 -1t35 -1q15 0 38 1t30 1q-12 -38 -21 -75q-21 -85 -2 -121.5t80 -36.5q60 0 97 42.5t61 133.5q12 47 35 136.5t36 135.5l-12 2q-77 -139 -188 -139q-54 0 -85.5 25t-46 85.5t-1 170.5t54.5 272q46 179 86 292.5t82 175t82 83t94 21.5
q109 0 141 -95l13 2l4 25q3 9 7 26.5t7 26.5z" />
    <glyph glyph-name="h" unicode="h" horiz-adv-x="659" 
d="M346 1155l8 -2q85 152 207 152q90 0 127 -69t8 -185q-38 -152 -83.5 -328.5t-65.5 -255.5q-81 -337 -111 -467h-147q101 394 264 1047q36 131 -72 131q-60 0 -106.5 -51t-71.5 -154q-70 -280 -120 -481.5t-79.5 -320t-42.5 -171.5h-143q112 432 164 641
q37 152 87.5 356.5t85 345.5t58.5 242h142l-33.5 -134t-26.5 -108q-7 -28 -23.5 -90t-25.5 -98z" />
    <glyph glyph-name="i" unicode="i" horiz-adv-x="296" 
d="M453 1470q-15 -71 -105 -71q-52 0 -70 24.5t-8 61.5q16 69 105 69q99 0 78 -84zM66 0h-144q12 47 168 670q109 430 154 620h143q-62 -234 -158 -622q-110 -433 -163 -668z" />
    <glyph glyph-name="j" unicode="j" horiz-adv-x="337" 
d="M-31 -12q279 1123 320 1302h141q-64 -240 -143 -565q-25 -102 -86.5 -351.5t-100.5 -408.5q-28 -112 -76 -162.5t-133 -50.5q-64 0 -116 23q6 13 47 133q34 -17 61 -17q62 0 86 97zM496 1470q-19 -71 -107 -71q-97 0 -78 86q16 69 107 69q99 0 78 -84z" />
    <glyph glyph-name="k" unicode="k" horiz-adv-x="606" 
d="M598 1290h164q-47 -73 -196.5 -316.5t-219.5 -352.5q13 -76 33.5 -219t37 -250.5t29.5 -151.5h-129q-15 0 -21 6t-9 23q-8 54 -25.5 183t-31 222.5t-23.5 147.5h-2q-107 -433 -142 -582h-145q31 116 207 827q105 407 188 758h146q-20 -73 -201 -790l-33 -127h4
q28 53 81 140t63 105q120 188 225 377z" />
    <glyph glyph-name="l" unicode="l" horiz-adv-x="290" 
d="M61 0h-145q71 261 205 811q103 398 190 774h148q-44 -166 -199 -778q-133 -533 -199 -807z" />
    <glyph glyph-name="m" unicode="m" horiz-adv-x="970" 
d="M672 1151l12 -2q81 156 205 156q83 0 118 -56t11 -153q-156 -609 -168 -660q-55 -219 -105 -436h-141q120 458 268 1053q30 125 -67 125q-112 0 -162 -199q-220 -885 -242 -979h-141q80 299 268 1053q28 125 -63 125q-53 0 -97 -49.5t-69 -149.5q-204 -818 -242 -979
h-139q89 346 160 635q75 300 162 655h139q-21 -87 -33 -127l8 -2q78 144 195 144q59 0 92.5 -40t30.5 -114z" />
    <glyph glyph-name="n" unicode="n" horiz-adv-x="659" 
d="M346 1155l8 -2q82 152 207 152q91 0 127.5 -69t7.5 -187q-101 -390 -149 -586q-51 -200 -111 -463h-147q39 150 131.5 519t132.5 525q36 134 -72 134q-59 0 -106 -51.5t-72 -153.5q-70 -280 -120 -481.5t-79.5 -320t-42.5 -171.5h-143q21 79 44.5 172.5t57.5 226.5
t60 236q12 48 162 655h141q-7 -30 -20.5 -76.5t-16.5 -58.5z" />
    <glyph glyph-name="o" unicode="o" horiz-adv-x="630" 
d="M449 643q34 136 52 233.5t22 156.5t-6 92.5t-27 45t-44 11.5q-44 0 -76.5 -35.5t-76 -151.5t-98.5 -336q-35 -136 -53 -233.5t-22 -158t6 -95.5t28 -48t47 -13q42 0 75 39.5t76 157t97 335.5zM592 647q-65 -259 -125.5 -402.5t-125.5 -202t-155 -58.5q-77 0 -122.5 33
t-65 111t-4.5 213.5t65 334.5q39 156 75.5 265.5t71.5 181t75.5 112t81.5 56.5t94 16q60 0 100 -16.5t67.5 -59.5t32.5 -117t-10.5 -190t-54.5 -277z" />
    <glyph glyph-name="p" unicode="p" 
d="M299 952l-201 -798q41 -41 109 -41q46 0 80 36.5t78.5 154t99.5 339.5q99 392 72 487q-13 50 -66 50q-52 0 -97.5 -54.5t-74.5 -173.5zM348 1159l8 -2q80 150 197 150q43 0 70.5 -15.5t45 -58.5t17 -116t-19 -190t-58.5 -278q-67 -268 -127 -415t-113.5 -197.5
t-125.5 -50.5q-57 0 -96.5 27t-57.5 71l-10 -4q-3 -18 -12.5 -55t-12.5 -52q-22 -97 -51 -206h-143q97 367 235 923q39 160 91.5 376.5t54.5 223.5h145q-17 -56 -23 -84z" />
    <glyph glyph-name="q" unicode="q" 
d="M358 336l201 805q-45 39 -110 39q-46 0 -81 -37.5t-80.5 -158t-101.5 -343.5q-34 -136 -52.5 -231.5t-23.5 -153.5t3 -90t22.5 -42.5t40.5 -10.5q56 0 104.5 54t77.5 169zM596 1290h143q-24 -82 -182 -712q-85 -340 -199 -811h-145q6 23 17.5 64.5t21 79.5t18.5 77
q11 41 25.5 95t15.5 56l-12 2q-39 -72 -90.5 -113.5t-104.5 -41.5q-40 0 -67 16t-44.5 60t-18 117t18.5 193.5t60 284.5q66 264 125 408.5t111 192t121 47.5q103 0 157 -95l11 2l4 17q6 34 14 61z" />
    <glyph glyph-name="r" unicode="r" horiz-adv-x="440" 
d="M309 1104l13 -2q46 106 95.5 152t108.5 46q34 0 74 -12q-19 -42 -55 -160q-29 13 -62 13q-69 0 -115.5 -56.5t-80.5 -195.5q-174 -695 -217 -889h-152q27 99 83.5 323.5t88.5 346.5q33 138 82.5 337t69.5 283h123q-18 -61 -56 -186z" />
    <glyph glyph-name="s" unicode="s" horiz-adv-x="563" 
d="M63 426h66q-4 -15 -12 -40.5t-13 -44t-8 -32.5q-28 -110 -11 -156.5t81 -46.5q53 0 85.5 40t57.5 133q48 184 -63 323q-157 174 -78 457q34 127 101 188.5t175 61.5q259 0 177 -316q-4 -16 -35 -121q-18 2 -68 2h-63q1 4 14 50.5t20 74.5q27 103 13.5 147t-72.5 44
q-51 0 -81 -33.5t-52 -112.5q-29 -104 -18.5 -183t67.5 -146q165 -186 92 -461q-37 -139 -101.5 -204.5t-180.5 -65.5q-275 0 -193 321q9 34 20.5 73t14.5 48h65z" />
    <glyph glyph-name="t" unicode="t" horiz-adv-x="452" 
d="M461 1501l-58 -213q124 0 185 2q-27 -96 -35 -133q-98 4 -182 4q-80 -305 -236 -934q-26 -106 62 -106q47 0 94 24q-10 -68 -10 -133q-67 -24 -131 -24q-107 0 -144 63.5t-10 173.5q33 133 113.5 449.5t123.5 488.5h-71q21 88 31 127l73 -2l53 213q11 0 33.5 -1t36.5 -1
q49 0 72 2z" />
    <glyph glyph-name="u" unicode="u" horiz-adv-x="661" 
d="M612 1290h144q-89 -341 -162 -635q-20 -79 -162 -655h-141q3 13 31 117l-9 2q-75 -131 -196 -131q-90 0 -128.5 70.5t-8.5 191.5q41 165 86 338.5t61 240.5q83 341 111 461h147q-49 -189 -262 -1028q-19 -74 -3 -112.5t70 -38.5q60 0 107.5 48.5t71.5 145.5
q72 286 121 485.5t80 327.5t42 172z" />
    <glyph glyph-name="v" unicode="v" horiz-adv-x="569" 
d="M580 1290h149q-174 -421 -508 -1290q-9 0 -38 2t-52 2q-62 0 -94 -4q6 54 36 329.5t59.5 554.5t41.5 406h152q-9 -54 -45.5 -331t-57.5 -420q-62 -385 -65 -402h10q57 176 137 402q57 164 160 441t115 310z" />
    <glyph glyph-name="w" unicode="w" horiz-adv-x="839" 
d="M866 1290h131q-60 -161 -248.5 -691.5t-213.5 -598.5h-80h-95q8 56 55 352.5t70 448.5q10 65 68 348h-6q-86 -273 -113 -348q-128 -380 -280 -801h-80h-82q7 55 86.5 601t95.5 689h139q-7 -31 -137 -805q-27 -150 -67 -352h8q69 224 112 352q45 131 152.5 437t128.5 368
h82h82q-30 -149 -131 -809q-15 -83 -39 -207t-27 -141h10q42 143 107 348q268 795 272 809z" />
    <glyph glyph-name="x" unicode="x" horiz-adv-x="581" 
d="M571 1290h156q-41 -77 -153 -305t-164 -332q2 -240 2 -653h-154q3 57 6 175t6 181q0 5 15 238h-6q-85 -207 -99 -238q-97 -203 -157 -356h-160q13 26 319 653q1 86 3 223.5t3 239.5t0 174h154q-15 -208 -23 -395q-2 -46 -9 -117.5t-7 -75.5h4q81 187 84 193
q68 150 180 395z" />
    <glyph glyph-name="y" unicode="y" horiz-adv-x="651" 
d="M610 1290h142q-60 -217 -140 -542q-38 -151 -95 -383t-77 -314q-39 -157 -112 -228t-199 -71q-145 0 -193 65.5t-16 198.5q18 68 25 86q11 0 32.5 -1t34.5 -1t36.5 1t31.5 1q-13 -45 -21 -77q-20 -86 -0.5 -121t78.5 -35t99 43.5t65 136.5q11 41 24 93.5t23 91.5t21 77
h-9q-77 -125 -196 -125q-200 0 -137 250q35 145 76.5 305.5t46.5 178.5q61 245 88 370h145q-17 -68 -89 -349t-126 -497q-19 -72 -3.5 -104.5t71.5 -32.5q59 0 106.5 48t69.5 141z" />
    <glyph glyph-name="z" unicode="z" horiz-adv-x="546" 
d="M223 1290h443q-11 -36 -15 -57q-3 -11 -16 -68q-25 -34 -92 -165t-154 -304.5t-131 -255.5q-54 -104 -174 -313q37 2 109 2q143 0 182 2q-8 -23 -17 -65q-4 -12 -16 -66h-446q2 9 7 29.5t7 29.5q12 46 16 60q24 33 92 161.5t163 316.5t136 265q32 57 90.5 164t77.5 141
q-70 -4 -118 -4q-126 0 -179 -2q11 27 21 68q11 49 14 61z" />
    <glyph glyph-name="uni00A0" unicode="&#xa0;" horiz-adv-x="256" 
 />
  </font>
</defs>
</svg>
