<?xml version="1.0" standalone="no"?>
<!DOCTYPE svg PUBLIC "-//W3C//DTD SVG 1.1//EN" "http://www.w3.org/Graphics/SVG/1.1/DTD/svg11.dtd" >
<svg xmlns="http://www.w3.org/2000/svg" xmlns:xlink="http://www.w3.org/1999/xlink" version="1.1">
<metadata>
Created by FontForge 20170731 at Tue Nov 10 11:53:45 2020
 By Aleksey,,,
(c) Copyright OH no Type Company, LLC. 2015. All rights reserved.
</metadata>
<defs>
<font id="ObviouslyDemo-CondSemi" horiz-adv-x="667" >
  <font-face 
    font-family="Obviously Demo Cond Semi"
    font-weight="360"
    font-stretch="condensed"
    units-per-em="2048"
    panose-1="4 13 7 10 5 4 3 4 3 6"
    ascent="1638"
    descent="-410"
    x-height="1298"
    cap-height="1536"
    bbox="-8 -252 936 1599"
    underline-thickness="102"
    underline-position="-307"
    unicode-range="U+0020-00A0"
  />
<missing-glyph horiz-adv-x="0" 
 />
    <glyph glyph-name=".notdef" horiz-adv-x="0" 
 />
    <glyph glyph-name=".null" horiz-adv-x="0" 
 />
    <glyph glyph-name="nonmarkingreturn" horiz-adv-x="682" 
 />
    <glyph glyph-name="space" unicode=" " horiz-adv-x="247" 
 />
    <glyph glyph-name="comma" unicode="," horiz-adv-x="260" 
d="M70 346q16 0 49 -1t51 -1q17 0 48 1t46 1q-15 -69 -66 -299t-61 -276q-94 27 -141 36q17 91 41 266t33 273z" />
    <glyph glyph-name="period" unicode="." horiz-adv-x="235" 
d="M119 262q106 0 106 -135t-106 -135q-107 0 -107 135t107 135z" />
    <glyph glyph-name="zero" unicode="0" horiz-adv-x="681" 
d="M635 795q0 -316 -30 -492t-92.5 -248.5t-174.5 -72.5q-110 0 -172 73t-90.5 248t-28.5 492q0 234 16 383t54 232t90 113.5t133 30.5t133 -30.5t90.5 -113.5t55 -232t16.5 -383zM340 1382q-29 0 -46.5 -19t-32.5 -79.5t-21.5 -182.5t-6.5 -319q1 -264 14 -403.5t34 -182
t59 -42.5q39 0 60 43.5t33.5 182t12.5 402.5q0 197 -6 319t-21 182.5t-32.5 79.5t-46.5 19z" />
    <glyph glyph-name="one" unicode="1" horiz-adv-x="333" 
d="M223 1536h45q-6 -172 -6 -768q0 -489 6 -768q-43 2 -98 2q-13 0 -45.5 -1t-54.5 -1q4 184 4 768q0 442 -6 657q72 58 106 111h49z" />
    <glyph glyph-name="two" unicode="2" horiz-adv-x="608" 
d="M219 172h119q157 0 223 4v-176h-526q2 10 2 55v78q0 245 186 522q89 138 130.5 256.5t41.5 288.5q0 105 -22 145.5t-66 40.5q-32 0 -51.5 -22t-30 -80.5t-10.5 -161.5q0 -139 4 -231q-25 2 -86 2q-63 0 -90 -2q-6 135 -6 239q0 214 65.5 319t206.5 105q139 0 200.5 -87
t61.5 -261q0 -53 -3 -101t-12.5 -94.5t-16 -80t-24 -78t-26 -67t-33 -68t-32.5 -60.5t-37.5 -65.5t-36.5 -63.5q-125 -202 -131 -356z" />
    <glyph glyph-name="three" unicode="3" horiz-adv-x="638" 
d="M418 778v-6q45 -13 74 -31q62 -46 87 -127.5t25 -218.5q0 -215 -69.5 -314t-217.5 -99q-156 0 -218 98.5t-62 341.5q0 31 4 117q33 -2 88 -2q65 0 90 2v-95q0 -130 9.5 -195.5t29.5 -87.5t59 -22t60 21.5t33 85t12 182.5q0 107 -15.5 165t-44 78.5t-79.5 20.5h-88
q2 23 2 84q0 51 -2 78q8 0 38.5 -1t49.5 -1q49 0 77 24t42 87.5t14 179.5q0 142 -22.5 197t-69.5 55q-61 0 -85 -54t-24 -202q0 -20 1 -69.5t1 -78.5q-20 2 -90 2q-55 0 -86 -2q-2 55 -2 152q0 218 63.5 314.5t221.5 96.5q147 0 211.5 -93t64.5 -298q0 -147 -24 -227
t-80 -123q-34 -24 -78 -35z" />
    <glyph glyph-name="four" unicode="4" horiz-adv-x="694" 
d="M412 1536h184q-4 -442 -4 -766v-233q19 0 47 1t39 1q-2 -29 -2 -82q0 -61 2 -88l-84 2q2 -150 6 -371h-190q0 52 2 186t2 185h-92q-185 0 -271 -2q9 122 31 577t22 590h189q-45 -855 -49 -997q41 -2 170 -2q0 794 -2 999z" />
    <glyph glyph-name="five" unicode="5" horiz-adv-x="653" 
d="M424 1362h-178q-2 -72 -2 -283q0 -20 -0.5 -56t-0.5 -65.5t1 -54.5q63 80 151 80q215 0 215 -459q0 -206 -29.5 -325t-88 -168t-156.5 -49q-148 0 -210.5 102.5t-62.5 345.5q0 62 3 133q31 -2 88 -2q63 0 88 2q-2 -31 -2 -88q0 -181 22 -259.5t72 -78.5q53 0 74.5 83.5
t21.5 293.5q0 129 -12 201.5t-32.5 98.5t-55.5 26q-72 0 -105 -105q-79 28 -155 31v297q0 397 -2 473q88 -2 272 -2q174 0 256 2q-2 -18 -2 -82q0 -71 2 -94q-22 0 -89 1t-83 1z" />
    <glyph glyph-name="six" unicode="6" horiz-adv-x="669" 
d="M340 135q54 0 76 79.5t22 272.5q0 160 -20 219.5t-70 59.5q-108 0 -108 -270q0 -194 24 -277.5t76 -83.5zM217 780l8 -4q53 142 176 142q119 0 170.5 -99t51.5 -321q0 -281 -64.5 -398.5t-214.5 -117.5q-54 0 -93.5 13.5t-74.5 47t-58.5 92.5t-40.5 149t-24.5 216
t-7.5 295q0 296 31 461t94.5 231.5t175.5 66.5q72 0 120.5 -19.5t84 -67.5t51.5 -131t16 -208q0 -69 -2 -92q-31 2 -86 2q-70 0 -90 -2v86q0 143 -21 210t-75 67q-61 0 -88.5 -84t-30.5 -293q-2 -41 -4 -120.5t-4 -121.5z" />
    <glyph glyph-name="seven" unicode="7" horiz-adv-x="532" 
d="M23 1536h487v-88v-82q-66 -159 -121 -568t-49 -798q-18 0 -49 1t-45 1q-16 0 -49 -1t-50 -1q0 341 60 754.5t127 605.5q-207 0 -311 -2v94v84z" />
    <glyph glyph-name="eight" unicode="8" horiz-adv-x="663" 
d="M328 143q43 0 66 21t35.5 84.5t12.5 183.5q0 106 -13 163.5t-36.5 78t-64.5 20.5q-61 0 -87 -54t-26 -208q0 -120 12.5 -183.5t35.5 -84.5t65 -21zM330 1395q-37 0 -59.5 -19.5t-36 -75.5t-13.5 -155q0 -116 12.5 -180.5t34.5 -87.5t60 -23q39 0 61.5 23t34.5 87.5
t12 180.5q0 144 -25.5 197t-80.5 53zM455 780v-10q36 -9 61 -29q62 -44 85.5 -125.5t23.5 -220.5q0 -216 -70.5 -314.5t-224.5 -98.5q-155 0 -226 98t-71 315q0 139 23.5 220.5t84.5 125.5q36 22 64 29v10q-39 16 -68 33q-55 41 -77.5 121t-22.5 229q0 209 66 300t227 91
q159 0 225 -91.5t66 -299.5q0 -148 -22.5 -228.5t-76.5 -121.5q-31 -19 -67 -33z" />
    <glyph glyph-name="nine" unicode="9" horiz-adv-x="669" 
d="M326 768q106 0 106 276q0 189 -24 273t-74 84q-53 0 -78 -81.5t-25 -268.5q0 -160 22.5 -221.5t72.5 -61.5zM455 750l-9 2q-47 -140 -176 -140q-117 0 -170 102.5t-53 323.5q0 278 64.5 397t210.5 119q85 0 139 -33t93.5 -122t56 -247.5t16.5 -408.5q0 -186 -12 -318
t-34 -218t-59.5 -136t-82.5 -69.5t-109 -19.5q-100 0 -158.5 38t-88.5 132t-30 258q0 66 2 86q14 0 42 -1t44 -1q21 0 51.5 1t38.5 1q-2 -25 -2 -80q0 -153 21 -216t80 -63q41 0 65 33t36.5 114.5t14.5 229.5q3 102 9 236z" />
    <glyph glyph-name="A" unicode="A" horiz-adv-x="710" 
d="M350 571h90q0 3 -53 537q-26 217 -33 305h-10q-3 -45 -16 -155.5t-17 -151.5q-8 -86 -26.5 -269t-26.5 -266h92zM698 0h-206q-2 70 -35 418h-107h-108q-37 -376 -39 -418h-191q36 256 106.5 820.5t86.5 715.5h297q133 -1117 196 -1536z" />
    <glyph glyph-name="B" unicode="B" horiz-adv-x="710" 
d="M356 166q51 0 76.5 19.5t38 76.5t12.5 170q0 150 -29.5 212.5t-97.5 62.5q-12 0 -44 -1t-50 -1q0 -379 2 -535q37 -4 92 -4zM475 1116q0 116 -12 171t-36 72t-75 17q-57 0 -88 -2q-2 -141 -2 -520q15 -1 31 -1t33.5 0.5t25.5 0.5q66 1 94.5 64t28.5 198zM487 780v-10
q49 -3 74 -20q56 -33 80.5 -116.5t24.5 -225.5q0 -158 -28.5 -246.5t-88 -125t-164.5 -36.5h-313q6 207 6 768q0 569 -6 768h315q76 0 124 -17.5t82 -64t48 -126.5t14 -206q0 -128 -19.5 -200.5t-64.5 -110.5q-26 -21 -84 -31z" />
    <glyph glyph-name="C" unicode="C" horiz-adv-x="694" 
d="M547 907h-90q4 70 4 172q0 126 -13 193.5t-34 87.5t-58 20q-33 0 -51.5 -16.5t-35.5 -74.5t-24 -182t-7 -327q0 -212 7 -340.5t24.5 -189t37 -77.5t53.5 -17q57 0 81 73t24 265q0 79 -2 124h90h90q2 -31 2 -90q0 -279 -68 -412.5t-219 -133.5q-86 0 -141 33.5
t-94.5 121.5t-56.5 243t-17 396q0 189 12 323t34.5 223t61.5 140t87 71.5t116 20.5q155 0 218 -109.5t63 -369.5q0 -46 -4 -168h-90z" />
    <glyph glyph-name="D" unicode="D" horiz-adv-x="718" 
d="M328 172q32 0 53 6.5t40.5 28.5t31 61.5t20.5 106.5t12.5 164t3.5 233q0 199 -9 319.5t-30.5 179.5t-46.5 76t-69 17q-48 0 -68 -2q-4 -141 -4 -598q0 -532 2 -590q20 -2 64 -2zM74 1536h260q63 0 107 -10.5t85 -40t67 -82.5t46 -137t28.5 -205.5t8.5 -286.5
q0 -238 -18 -388t-62 -236t-106.5 -118t-161.5 -32h-254q4 209 4 766q0 588 -4 770z" />
    <glyph glyph-name="E" unicode="E" horiz-adv-x="618" 
d="M72 1536h495q-2 -18 -2 -82q0 -70 2 -90q-111 2 -305 2v-502q207 0 295 4v-170q-88 4 -295 4v-528h305q-2 -20 -2 -88q0 -63 2 -86h-495q2 195 2 768q0 594 -2 768z" />
    <glyph glyph-name="F" unicode="F" horiz-adv-x="591" 
d="M72 1536h485q-2 -23 -2 -84v-88q-104 2 -293 2q-2 -160 -2 -537v-75q117 0 289 4q-2 -43 -2 -170h-287q4 -420 8 -588h-194q2 207 2 768q0 553 -4 768z" />
    <glyph glyph-name="G" unicode="G" horiz-adv-x="714" 
d="M338 713v84q51 -2 141 -2q107 0 164 2q7 -179 2.5 -315t-20 -231t-49.5 -155t-86 -87t-130 -27q-115 0 -182.5 74t-101 250.5t-33.5 481.5q0 303 36 471.5t104.5 231.5t187.5 63q152 0 217 -106t65 -338q0 -74 -2 -115q-46 4 -88 4q-67 0 -94 -4q4 82 4 109
q0 162 -24.5 220t-79.5 58q-37 0 -60.5 -20t-43 -80t-28 -181.5t-8.5 -314.5q0 -267 14.5 -405t42.5 -184.5t81 -46.5q34 0 54 19.5t32 76.5t15 149.5t1 249.5q-21 -1 -66 -2t-65 -2v72z" />
    <glyph glyph-name="H" unicode="H" horiz-adv-x="751" 
d="M485 1536h195q-4 -203 -4 -768q0 -547 4 -768h-195q4 184 4 678q-35 2 -114 2h-113q0 -496 2 -680h-190q2 221 2 768q0 565 -2 768h190q-2 -168 -2 -684h113q79 0 114 2q0 514 -4 682z" />
    <glyph glyph-name="I" unicode="I" horiz-adv-x="337" 
d="M266 0h-194q4 188 4 768q0 582 -4 768h194q-6 -186 -6 -768q0 -578 6 -768z" />
    <glyph glyph-name="J" unicode="J" horiz-adv-x="440" 
d="M178 1536h195q-4 -324 -4 -463q0 -25 3 -286t3 -500q0 -301 -213 -301q-84 0 -148 24q7 25 15 91.5t8 93.5q52 -23 90 -23q63 0 63 104q0 1082 -12 1260z" />
    <glyph glyph-name="K" unicode="K" horiz-adv-x="706" 
d="M479 1536h215q-158 -472 -252 -778q35 -84 76 -193q52 -139 112 -339.5t70 -225.5h-188q-18 0 -28 8.5t-19 32.5q-74 255 -189 635h-14q0 -506 4 -676h-192q2 190 2 768q0 582 -2 768h192q-4 -176 -4 -737h4q11 30 40.5 104.5t45.5 120.5q79 253 127 512z" />
    <glyph glyph-name="L" unicode="L" horiz-adv-x="495" 
d="M72 1536h194q-8 -161 -8 -762q0 -364 4 -602q147 0 217 4v-84v-92h-405l1 286q1 285 1 482q0 673 -4 768z" />
    <glyph glyph-name="M" unicode="M" horiz-adv-x="921" 
d="M625 1536h225q-4 -402 -4 -766q0 -328 4 -770h-186q6 418 6 750q0 93 6.5 298.5t7.5 297.5h-4q-29 -308 -53 -467l-133 -879h-84l-136 895q-16 96 -53 451h-4q1 -109 7 -307t7 -289q0 -52 5 -750h-162v770v766h245q11 -61 51.5 -324t65.5 -413q16 -120 29 -283h8
q4 35 11 97t12.5 107t9.5 77q22 132 64.5 400t54.5 339z" />
    <glyph glyph-name="N" unicode="N" horiz-adv-x="747" 
d="M516 1536h162q-4 -250 -4 -766q0 -575 2 -770h-199q-86 406 -190 821q-37 181 -72 525h-4q12 -255 16 -543q4 -791 4 -803h-159q0 83 1 335.5t1 432.5q0 584 -2 768h229q8 -52 36.5 -179.5t73 -318t72.5 -323.5q32 -150 62 -422h4q-21 361 -21 506q0 417 -12 737z" />
    <glyph glyph-name="O" unicode="O" horiz-adv-x="735" 
d="M686 795q0 -308 -37 -488.5t-105 -252.5t-179 -72t-178 72t-102.5 252t-35.5 489q0 230 20 381t62.5 233t97.5 113.5t136 31.5q64 0 111.5 -19t88.5 -69t66.5 -134.5t40 -218.5t14.5 -318zM367 156q46 0 72 48.5t40.5 187t14.5 390.5q0 190 -7.5 310t-25 182.5t-39 84
t-55.5 21.5t-55.5 -21.5t-39 -83.5t-25 -182t-7.5 -311q0 -251 15 -390.5t41 -187.5t71 -48z" />
    <glyph glyph-name="P" unicode="P" horiz-adv-x="681" 
d="M317 596q44 0 69.5 13t45 53.5t26.5 115t7 199.5q0 161 -15.5 247t-43 114t-76.5 28q-18 0 -72 -4v-764q14 -2 59 -2zM72 1536h284q106 0 167 -47.5t92.5 -171t31.5 -344.5q0 -131 -12 -225t-34.5 -156.5t-60 -99.5t-84.5 -52.5t-112 -15.5q-55 0 -84 2q4 -304 10 -426
h-198q4 219 4 768q0 563 -4 768z" />
    <glyph glyph-name="Q" unicode="Q" horiz-adv-x="733" 
d="M229 797q0 -259 15.5 -400t42.5 -189t75 -48q47 0 73.5 48t41.5 189t15 400q0 236 -15.5 366t-42 173.5t-72.5 43.5q-35 0 -58 -23.5t-41 -86.5t-26 -178.5t-8 -294.5zM489 156v-9q19 2 52.5 7.5t46.5 7.5q86 14 112 20v-182q-48 0 -157.5 -4t-182.5 -4
q-168 0 -241.5 187t-73.5 614q0 227 19 376t60.5 233.5t99 118t143.5 33.5q111 0 177 -63t101 -226t35 -448q0 -99 -1.5 -165.5t-8 -161t-23 -160.5t-41.5 -101q-37 -50 -117 -73z" />
    <glyph glyph-name="R" unicode="R" horiz-adv-x="718" 
d="M352 725q121 0 121 319q0 140 -15.5 212.5t-42.5 93.5t-77 20q-16 2 -82 -2v-641q53 0 96 -2zM473 631v-8q78 -15 113.5 -73t58.5 -212q9 -57 26.5 -178t24.5 -160h-178q-20 0 -26.5 14.5t-16.5 67.5q-12 116 -19.5 185.5t-17 129t-17.5 88t-20 49.5t-24.5 26t-32.5 5
q-53 0 -86 -2q0 -341 10 -563h-194q0 97 1 344t1 424q0 176 -1 423.5t-1 344.5h297q72 0 122 -21t88 -71.5t56 -140t18 -222.5q0 -218 -41 -322t-141 -128z" />
    <glyph glyph-name="S" unicode="S" horiz-adv-x="649" 
d="M229 539v-133q0 -155 22 -208t83 -53q56 0 78 39.5t22 137.5q0 216 -145 364q-126 114 -183 239t-57 296q0 172 69.5 252.5t211.5 80.5q151 0 214.5 -85t63.5 -300q0 -48 -4 -170h-82q-65 0 -92 -2q4 126 4 191q0 116 -22 158.5t-78 42.5q-55 0 -79 -39.5t-24 -130.5
q0 -108 30.5 -189.5t109.5 -163.5q115 -113 177 -239.5t62 -284.5q0 -185 -65.5 -272.5t-212.5 -87.5q-159 0 -225 101t-66 296q0 76 4 162q46 -4 84 -4q21 0 54.5 1t45.5 1z" />
    <glyph glyph-name="T" unicode="T" horiz-adv-x="544" 
d="M20 1536h504v-86v-88q-55 2 -159 2q0 -1245 4 -1364q-27 2 -97 2q-67 0 -96 -2q6 117 6 1364q-107 0 -162 -2v88v86z" />
    <glyph glyph-name="U" unicode="U" horiz-adv-x="741" 
d="M481 1536h191q-4 -270 -4 -475q0 -82 2 -338.5t2 -392.5q0 -174 -70 -261t-229 -87t-229 87t-70 261q0 136 1 392.5t1 338.5q0 205 -4 475h192q-4 -180 -4 -1208q0 -94 27 -136t90 -42q58 0 83 42t25 136q0 944 -4 1208z" />
    <glyph glyph-name="V" unicode="V" horiz-adv-x="653" 
d="M451 1536h194q-27 -208 -96 -829.5t-80 -706.5q-70 4 -141 4q-92 0 -142 -4q-7 58 -43.5 397.5t-74.5 669.5t-60 469h209q6 -131 31.5 -468t50.5 -609q25 -253 29 -305h10q12 162 24 303q77 846 89 1079z" />
    <glyph glyph-name="W" unicode="W" horiz-adv-x="942" 
d="M774 1536h160q-21 -180 -80.5 -819.5t-67.5 -716.5q-50 4 -104 4q-77 0 -123 -4q-49 691 -57 827q-16 222 -23 465h-6q-13 -305 -27 -467q-50 -532 -69 -825q-66 4 -117 4q-62 0 -102 -4q-9 81 -68.5 720t-81.5 816h203q9 -287 61 -1018q8 -126 17 -342h10q10 238 18 344
q8 116 26.5 368.5t29.5 415t14 232.5h111h106q19 -450 64 -1018q12 -210 18 -350h10q3 156 17 350q55 862 61 1018z" />
    <glyph glyph-name="X" unicode="X" horiz-adv-x="669" 
d="M453 1536h198q-91 -363 -180 -770q58 -247 188 -766h-223q-4 25 -65 375q-33 193 -45 311h-4q-10 -102 -46 -313q-43 -250 -61 -373h-203q19 80 47.5 203t69 299t64.5 278q-27 124 -175 756h215q23 -141 70 -399q27 -162 37 -283h6q10 119 37 279q39 201 70 403z" />
    <glyph glyph-name="Y" unicode="Y" horiz-adv-x="624" 
d="M436 1536h187q-36 -156 -110.5 -522.5t-106.5 -540.5q0 -329 4 -473q-27 2 -95 2q-69 0 -96 -2q4 140 4 471q-39 212 -112.5 577t-106.5 488h211q19 -234 76 -662q16 -112 26 -217h11q10 108 26 215q16 137 47 381t35 283z" />
    <glyph glyph-name="Z" unicode="Z" horiz-adv-x="628" 
d="M580 1536v-80v-88q-15 -46 -99.5 -354t-132.5 -463q-23 -74 -57 -215.5t-41 -167.5q74 4 106 4q59 0 133 1t93 1q-2 -31 -2 -92q0 -51 2 -82h-535q2 29 2 80v86q15 43 56.5 189.5t97.5 343.5t92 317q92 328 100 354q-43 -4 -135 -4q-160 0 -205 -2v88v84h525z" />
    <glyph glyph-name="a" unicode="a" horiz-adv-x="624" 
d="M377 371v258q-27 6 -62 6q-39 0 -59.5 -16t-32.5 -69t-12 -155q0 -114 6.5 -166.5t20 -68t43.5 -15.5q96 0 96 226zM385 137h-12q-30 -149 -162 -149q-46 0 -76 15t-54 55.5t-35 117t-11 193.5q0 112 15.5 187t48.5 117.5t76.5 59.5t107.5 17q52 0 96 -13v301
q0 111 -70 111q-33 0 -49.5 -17t-25.5 -77t-5 -176q-25 4 -77 4q-43 0 -97 -4q-12 228 47 332t205 104q128 0 189 -68.5t61 -206.5q0 -130 -2 -331.5t-2 -302.5q0 -343 16 -406h-151q-25 0 -31 7.5t-6 37.5t4 92z" />
    <glyph glyph-name="b" unicode="b" 
d="M248 944v-778q48 -23 90 -23q43 0 64.5 34t34 148t12.5 339q0 214 -11.5 320.5t-30.5 133.5t-57 27q-102 0 -102 -201zM246 1171l10 -2q44 144 174 144q36 0 61 -8.5t49.5 -32.5t39.5 -69t27 -117t17 -177.5t5 -249.5q0 -170 -9 -290.5t-25 -195t-43.5 -116.5
t-58.5 -56.5t-75 -14.5q-113 0 -162 100l-8 -2q2 -14 2 -41v-43h-184q6 164 6 774q0 134 -2 410t-2 401h184q0 -29 -1 -94t-1 -117q0 -93 -4 -203z" />
    <glyph glyph-name="c" unicode="c" horiz-adv-x="626" 
d="M504 502h84q2 -45 2 -133q0 -195 -58 -291t-210 -96q-106 0 -164.5 55.5t-87.5 199.5t-29 410q0 253 29.5 398.5t91 208.5t168.5 63q137 0 197.5 -92.5t60.5 -323.5q0 -13 0.5 -40.5t0.5 -51.5t-1 -47q-23 2 -84 2t-84 -2q1 24 1 49t-0.5 51.5t-0.5 38.5q0 104 -9.5 158
t-28 73t-54.5 19q-30 0 -48 -15.5t-33 -66t-21.5 -153t-6.5 -269.5q1 -169 7 -269.5t21 -150t32 -63.5t47 -14q52 0 73 50t21 167q0 19 -1 64t-1 71h86z" />
    <glyph glyph-name="d" unicode="d" 
d="M420 350v785q-42 20 -90 20q-31 0 -50.5 -17.5t-35 -70.5t-22.5 -158t-7 -274q0 -162 6 -262t20 -148.5t29.5 -63t42.5 -14.5q107 0 107 203zM418 1585h184q-4 -254 -4 -989q0 -318 4 -596h-184v78q0 45 2 63l-10 2q-21 -72 -63 -114.5t-103 -42.5q-34 0 -59.5 9
t-50 33.5t-41 70.5t-29.5 117t-19 176.5t-6 246.5q0 167 11 288t29 195t47.5 117.5t61.5 58.5t76 15q105 0 150 -99l8 3q-4 126 -4 169q0 4 1 101t-1 98z" />
    <glyph glyph-name="e" unicode="e" horiz-adv-x="614" 
d="M315 1165q-36 0 -56 -33t-32.5 -133.5t-15.5 -289.5q63 -4 186 0q4 70 4 172q0 160 -20 222t-66 62zM479 424h82q3 -244 -49.5 -343t-196.5 -99q-58 0 -98.5 15t-76 56t-56 113.5t-32 187t-11.5 277.5q0 202 17.5 337.5t54.5 211t86 106.5t120 31q134 0 188 -100t54 -334
q0 -216 -8 -310q-51 2 -191 2q-108 0 -151 -2q1 -186 13 -282t33 -125t60 -29q48 0 64.5 59t15.5 228h82z" />
    <glyph glyph-name="f" unicode="f" horiz-adv-x="458" 
d="M444 1579l-16 -170q-40 14 -80 14q-42 0 -59 -16t-17 -57v-95q26 0 77 1t77 1v-167q-26 0 -77 1t-77 1q0 -791 7 -1092q-35 4 -95 4q-59 0 -94 -4q6 366 6 741q0 39 -1 157.5t-1 191.5h-67v165h65v109q0 235 215 235q73 0 137 -20z" />
    <glyph glyph-name="g" unicode="g" horiz-adv-x="657" 
d="M324 -104q83 0 118 32t35 109q0 60 -17.5 89.5t-58.5 29.5q-24 0 -86 -4.5t-88 -4.5q-41 -77 -41 -137t31.5 -87.5t106.5 -26.5zM319 1149q-56 0 -79 -72t-23 -221q0 -142 22.5 -194t79.5 -52t81 54.5t24 191.5q0 293 -105 293zM485 1149v-10q58 -30 81.5 -99t23.5 -221
q0 -190 -65.5 -272t-209.5 -82q-27 0 -67 4q-27 -73 -27 -109t15 -49.5t47 -13.5q34 0 86.5 4t70.5 4q105 0 153 -64.5t48 -201.5q0 -69 -14.5 -119t-49.5 -90.5t-99.5 -61t-158.5 -20.5q-91 0 -152 14.5t-90 43t-39.5 59t-10.5 72.5q0 136 118 221q-82 30 -82 135
q0 92 103 207q-60 37 -87.5 122t-27.5 236q0 235 64 338.5t200 103.5q7 0 63.5 -0.5t132 -1t128.5 -0.5v-161q-36 0 -154 12z" />
    <glyph glyph-name="h" unicode="h" horiz-adv-x="675" 
d="M616 0h-186q4 520 4 1022q0 69 -17.5 99t-62.5 30q-50 0 -79 -41.5t-29 -128.5q0 -625 4 -981h-184q4 380 4 659q0 480 -4 926h184v-250q-1 -25 -2 -73.5t-2 -73.5l10 -2q44 127 182 127q87 0 131.5 -61.5t44.5 -194.5q0 -155 -1 -330t-1 -242q0 -333 4 -485z" />
    <glyph glyph-name="i" unicode="i" horiz-adv-x="319" 
d="M268 1487q0 -90 -106 -90q-61 0 -87 25.5t-26 64.5q0 86 113 86q58 0 82 -22.5t24 -63.5zM252 0h-182q2 188 2 674q0 446 -2 624h182q-4 -184 -4 -628q0 -490 4 -670z" />
    <glyph glyph-name="j" unicode="j" horiz-adv-x="352" 
d="M115 16q0 1018 -6 1282h178q-2 -174 -2 -526q0 -108 1 -343t1 -409q0 -130 -45.5 -198t-155.5 -68q-53 0 -94 15q7 49 14 176q35 -15 57 -15q52 0 52 86zM303 1487q0 -90 -108 -90q-111 0 -111 90q0 86 111 86q59 0 83.5 -22.5t24.5 -63.5z" />
    <glyph glyph-name="k" unicode="k" horiz-adv-x="626" 
d="M428 1298h197q-24 -71 -102 -312t-115 -349q26 -69 106.5 -322t114.5 -315h-170q-18 0 -26.5 7t-16.5 28q-11 38 -40 134t-46.5 155t-41.5 131.5t-40 115.5h-2q0 -393 4 -571h-184q2 104 2 801q0 559 -2 784h186q-6 -209 -6 -794v-109q14 55 43.5 147.5t38.5 124.5
q66 191 100 344z" />
    <glyph glyph-name="l" unicode="l" horiz-adv-x="315" 
d="M250 0h-184q2 104 2 799q0 559 -2 786h186q-6 -209 -6 -794q0 -558 4 -791z" />
    <glyph glyph-name="m" unicode="m" horiz-adv-x="995" 
d="M571 1169l11 -2q48 146 180 146q82 0 128 -56.5t46 -169.5q0 -126 -2 -336t-2 -307q0 -317 4 -444h-178q4 231 4 1032q0 62 -18.5 90.5t-59.5 28.5q-44 0 -71 -42t-27 -130q0 -850 4 -979h-180q6 238 6 1030q0 63 -17 92t-57 29q-46 0 -74 -42t-28 -130q0 -797 2 -979
h-176q2 184 2 645q0 467 -2 653h178q0 -77 -2 -116l10 -2q47 133 164 133q120 0 155 -144z" />
    <glyph glyph-name="n" unicode="n" horiz-adv-x="675" 
d="M616 0h-186q4 516 4 1022q0 68 -17.5 98.5t-62.5 30.5q-50 0 -79 -40t-29 -124q0 -631 4 -987h-184q4 368 4 643q0 327 -4 655h184q0 -36 -4 -110l12 -2q44 127 180 127q89 0 132.5 -62.5t43.5 -201.5q0 -154 -1 -326t-1 -238q0 -333 4 -485z" />
    <glyph glyph-name="o" unicode="o" horiz-adv-x="649" 
d="M430 659q0 209 -13 319.5t-34 143.5t-59 33q-28 0 -46 -17.5t-33 -68t-21.5 -151t-6.5 -259.5q-1 -210 12 -325t35 -152t60 -37q39 0 60.5 37.5t33.5 151t12 325.5zM612 674q0 -262 -32 -414.5t-93 -215t-163 -62.5t-162.5 62.5t-91.5 215t-31 414.5q0 158 12 270.5
t34 184.5t58 114t78.5 58t102.5 16t102.5 -16t79.5 -58t59 -114t34.5 -185t12.5 -270z" />
    <glyph glyph-name="p" unicode="p" 
d="M248 944v-778q44 -21 90 -21q43 0 65 33.5t35 147t13 336.5q0 162 -6 262t-19.5 148.5t-29 63.5t-42.5 15q-106 0 -106 -207zM248 1174l10 -3q42 142 172 142q55 0 89 -23.5t60.5 -92.5t38 -199.5t11.5 -338.5q0 -206 -13.5 -341t-42 -206.5t-65 -98.5t-90.5 -27
q-118 0 -164 98h-8q4 -82 4 -133v-184h-184q6 307 6 899q0 147 -2 358.5t-2 273.5h184q0 -12 -1 -34.5t-1 -38.5q0 -35 -2 -51z" />
    <glyph glyph-name="q" unicode="q" 
d="M420 352v778q-45 25 -90 25q-43 0 -64.5 -33t-34 -146.5t-12.5 -338.5q0 -218 11.5 -326.5t29 -136t53.5 -27.5q107 0 107 205zM418 1298h184q-4 -212 -4 -770q0 -199 4 -761h-186q2 59 2 190q0 96 4 174l-12 2q-48 -147 -168 -147q-42 0 -71 13t-56 52.5t-42.5 111
t-24.5 189.5t-9 287q0 170 9.5 290.5t25.5 195t43.5 116.5t58 57t74.5 15q111 0 162 -101h6v23v63z" />
    <glyph glyph-name="r" unicode="r" horiz-adv-x="448" 
d="M219 1118h10q20 102 57 146.5t93 44.5q30 0 63 -11q-10 -60 -14 -200q-24 8 -59 8q-64 0 -89.5 -43t-25.5 -168q0 -731 4 -895h-190q2 182 2 672q0 448 -2 626h155q-4 -106 -4 -180z" />
    <glyph glyph-name="s" unicode="s" horiz-adv-x="573" 
d="M446 881h-81q4 66 4 123q0 92 -17.5 127.5t-62.5 35.5t-64.5 -29.5t-19.5 -105.5q0 -93 28 -161.5t95 -129.5q215 -188 215 -450q0 -156 -62.5 -232.5t-195.5 -76.5q-141 0 -197.5 78.5t-56.5 248.5q0 81 4 121q16 -2 84 -2q64 0 84 2q-4 -86 -4 -111q0 -103 19.5 -141.5
t70.5 -38.5q44 0 63 35.5t19 114.5q0 157 -135 286q-104 87 -153.5 197t-49.5 258t63.5 217.5t192.5 69.5q133 0 190.5 -73t57.5 -249q0 -11 -5 -114h-86z" />
    <glyph glyph-name="t" unicode="t" horiz-adv-x="452" 
d="M420 1130l-150 3q-6 -384 -6 -889q0 -46 17 -66t53 -20q42 0 80 24q2 -58 22 -170q-84 -24 -137 -24q-113 0 -162 64t-49 186q0 138 2.5 450t3.5 447l-65 2v161h65v205q14 0 44.5 -1t47.5 -1q59 0 90 2q-4 -126 -4 -207q101 0 150 2q-4 -111 -2 -168z" />
    <glyph glyph-name="u" unicode="u" horiz-adv-x="679" 
d="M432 1298h182q0 -80 -1 -285t-1 -358q0 -154 1 -370t1 -285h-182q0 76 2 113l-8 2q-43 -129 -180 -129q-178 0 -178 256q0 157 1 331t1 240q0 333 -4 485h184q-2 -260 -2 -1028q0 -68 17.5 -97.5t60.5 -29.5q108 0 108 168q0 377 -1 666.5t-1 320.5z" />
    <glyph glyph-name="v" unicode="v" horiz-adv-x="600" 
d="M412 1298h180q-102 -723 -170 -1298q-12 0 -51 2t-68 2q-85 0 -121 -4q-12 83 -81 604t-93 694h197q4 -46 27.5 -303t35.5 -403q29 -375 33 -440h12q12 227 31 440q13 141 38.5 399.5t29.5 306.5z" />
    <glyph glyph-name="w" unicode="w" horiz-adv-x="860" 
d="M702 1298h150q-28 -255 -125 -1298q-13 0 -47 1t-53 1q-32 0 -71.5 -1t-49.5 -1q-23 241 -57 750q-10 139 -19 370h-4q-10 -261 -20 -372q-44 -523 -64 -748q-12 0 -48 1t-56 1q-30 0 -63 -1t-42 -1q-6 55 -31.5 338t-52 562.5t-41.5 397.5h182q2 -44 9.5 -166t19.5 -307
t19 -293q4 -72 16 -368h8q8 181 23 368q53 586 59 766h102h103q2 -46 11 -170t23 -311t21 -289q11 -136 21 -364h8q1 27 3.5 96t5.5 136t7 132q37 451 53 770z" />
    <glyph glyph-name="x" unicode="x" horiz-adv-x="610" 
d="M408 1298h186q-20 -83 -71.5 -315t-73.5 -326q26 -114 78.5 -340t72.5 -317h-207q-9 64 -32 183.5t-29 156.5q-17 99 -35 242h-8q-21 -164 -33 -244q-38 -194 -55 -338h-191q4 17 150 657q-108 489 -146 641h205q18 -144 64 -385q14 -87 22 -196h8q5 46 29 198
q10 58 25 141t25 141t16 101z" />
    <glyph glyph-name="y" unicode="y" horiz-adv-x="600" 
d="M416 1298h180q-29 -206 -176 -1296q-28 -133 -84 -193.5t-170 -60.5q-60 0 -154 23q22 119 25 168q53 -23 117 -23q40 0 64 23.5t34 78.5q1 6 4 27.5t4 34.5q-15 -1 -34.5 -1.5t-31.5 -1t-18 -1.5q-14 90 -80 598t-82 624h197q3 -63 57 -602q20 -232 33 -499h6
q19 295 39 497q13 127 39.5 346.5t30.5 257.5z" />
    <glyph glyph-name="z" unicode="z" horiz-adv-x="555" 
d="M348 164h164q-4 -23 -4 -78q0 -20 4 -86h-465q2 23 2 76v74q18 38 52.5 162.5t79.5 297.5t69 256q10 31 40.5 131t45.5 142q-39 -2 -119 -2q-115 0 -166 -2q2 25 2 84q0 50 -2 79h459v-71v-86q-20 -45 -95.5 -337.5t-101.5 -375.5q-56 -192 -80 -264l3 -2q39 2 112 2z
" />
    <glyph glyph-name="uni00A0" unicode="&#xa0;" horiz-adv-x="247" 
 />
  </font>
</defs>
</svg>
