<?xml version="1.0" standalone="no"?>
<!DOCTYPE svg PUBLIC "-//W3C//DTD SVG 1.1//EN" "http://www.w3.org/Graphics/SVG/1.1/DTD/svg11.dtd" >
<svg xmlns="http://www.w3.org/2000/svg" xmlns:xlink="http://www.w3.org/1999/xlink" version="1.1">
<metadata>
Created by FontForge 20170731 at Tue Nov 10 11:53:44 2020
 By Aleksey,,,
(c) Copyright OH no Type Company, LLC. 2015. All rights reserved.
</metadata>
<defs>
<font id="ObviouslyDemo-CondBold" horiz-adv-x="675" >
  <font-face 
    font-family="Obviously Demo Cond Bold"
    font-weight="370"
    font-stretch="condensed"
    units-per-em="2048"
    panose-1="4 13 8 10 5 4 3 4 3 6"
    ascent="1638"
    descent="-410"
    x-height="1315"
    cap-height="1536"
    bbox="-4 -246 936 1602"
    underline-thickness="102"
    underline-position="-307"
    unicode-range="U+0020-00A0"
  />
<missing-glyph horiz-adv-x="0" 
 />
    <glyph glyph-name=".notdef" horiz-adv-x="0" 
 />
    <glyph glyph-name=".null" horiz-adv-x="0" 
 />
    <glyph glyph-name="nonmarkingreturn" horiz-adv-x="682" 
 />
    <glyph glyph-name="space" unicode=" " horiz-adv-x="231" 
 />
    <glyph glyph-name="comma" unicode="," horiz-adv-x="272" 
d="M59 397q14 0 50.5 -1t58.5 -1q16 0 52 1t56 1q-89 -470 -112 -608q-113 26 -166 33q15 93 35 284t26 291z" />
    <glyph glyph-name="period" unicode="." horiz-adv-x="253" 
d="M127 346q117 0 117 -178q0 -180 -117 -180q-61 0 -89 44t-28 136q0 178 117 178z" />
    <glyph glyph-name="zero" unicode="0" horiz-adv-x="673" 
d="M637 799q0 -320 -29.5 -496t-93 -248.5t-178.5 -72.5t-178.5 73t-92 248t-28.5 496q0 233 16.5 381.5t55.5 231t91.5 112.5t135.5 30q66 0 112 -18.5t84 -67t60 -134t33.5 -217t11.5 -318.5zM336 1292q-24 0 -37.5 -15t-25.5 -65t-16.5 -150.5t-4.5 -266.5
q0 -224 10 -340.5t26.5 -151.5t47.5 -35q32 0 48.5 35t26 150.5t9.5 341.5q0 217 -10 327t-26 140t-48 30z" />
    <glyph glyph-name="one" unicode="1" horiz-adv-x="358" 
d="M248 1536h55q-6 -423 -6 -768q0 -177 6 -768q-53 2 -123 2q-16 0 -55.5 -1t-65.5 -1q4 195 4 768q0 437 -10 645q83 58 135 123h60z" />
    <glyph glyph-name="two" unicode="2" horiz-adv-x="598" 
d="M240 264h94q135 0 223 8q0 -22 -1 -69t-1 -72q0 -90 2 -131h-528v90v119q0 161 46.5 276.5t135.5 223.5q85 113 120.5 210.5t35.5 249.5q0 84 -17 117t-51 33q-40 0 -58 -46.5t-18 -166.5q0 -81 6 -201h-92q-71 0 -102 -2q-6 129 -6 230q0 218 64 319.5t210 101.5
q145 0 205.5 -89t60.5 -285q0 -119 -14 -212.5t-45 -169.5t-63.5 -129.5t-84.5 -123.5q-116 -149 -122 -281z" />
    <glyph glyph-name="three" unicode="3" horiz-adv-x="628" 
d="M420 776v-10q41 -9 72 -27q61 -40 84.5 -118t23.5 -215q0 -226 -68 -325t-223 -99q-159 0 -219.5 94.5t-60.5 331.5q0 65 6 145q33 -2 100 -2h98q-2 -39 -2 -102q0 -99 8 -150t24 -68.5t46 -17.5t46.5 16t26 67.5t9.5 147.5q1 93 -12.5 143t-39.5 67.5t-75 17.5
q-14 0 -44 -1t-44 -1q0 14 1 49t1 55q0 63 -2 90h90q68 0 94.5 48.5t26.5 189.5q0 128 -17.5 174.5t-56.5 46.5q-47 0 -65.5 -44t-18.5 -161q0 -35 4 -145q-25 2 -98 2q-67 0 -100 -2q-4 61 -4 170q0 221 63.5 316t222.5 95q153 0 216 -91.5t63 -305.5q0 -148 -22.5 -229.5
t-77.5 -122.5q-27 -19 -76 -29z" />
    <glyph glyph-name="four" unicode="4" horiz-adv-x="688" 
d="M674 565v-110v-125l-72 2q2 -142 6 -332h-239q0 126 4 334h-54q-100 0 -280 -4q9 161 28 625t19 581h215q-10 -152 -26 -488t-19 -485h139q0 102 -1 488.5t-1 484.5h211q-6 -663 -6 -768v-205q15 0 40 1t36 1z" />
    <glyph glyph-name="five" unicode="5" horiz-adv-x="641" 
d="M403 1001q103 0 153 -115.5t50 -365.5q0 -205 -29 -322t-88.5 -166.5t-162.5 -49.5q-154 0 -216.5 98t-62.5 334q0 72 6 161q62 -4 99 -4q22 0 53.5 1t44.5 1q-2 -31 -2 -88q0 -147 17.5 -210.5t56.5 -63.5q42 0 58.5 66t16.5 241q0 115 -8.5 178.5t-24 87t-42.5 23.5
q-32 0 -51 -24.5t-33 -77.5q-79 28 -183 32q2 86 2 348q0 363 -4 451q90 -2 271 -2q180 0 268 2q-2 -29 -2 -131q0 -98 2 -131q-86 4 -207 4q-84 0 -135 -2v-199v-155q60 79 153 79z" />
    <glyph glyph-name="six" unicode="6" horiz-adv-x="663" 
d="M336 209q43 0 61.5 67t18.5 236q0 139 -16.5 189.5t-57.5 50.5q-86 0 -86 -236q0 -169 19.5 -238t60.5 -69zM240 801l10 -4q41 139 166 139q116 0 162.5 -95t46.5 -311q0 -208 -28.5 -326.5t-90 -170t-168.5 -51.5q-87 0 -142 34.5t-92.5 126t-53 248t-15.5 404.5
q0 303 30 465.5t95 228t184 65.5q150 0 213.5 -88t63.5 -315q0 -65 -3 -117q-31 2 -102 2q-75 0 -100 -2q2 25 2 80q0 116 -16.5 170.5t-59.5 54.5q-49 0 -71 -71.5t-23 -251.5q-3 -131 -8 -215z" />
    <glyph glyph-name="seven" unicode="7" horiz-adv-x="534" 
d="M18 1536h498q-2 -39 -2 -135q0 -86 2 -125q-58 -130 -103 -494.5t-44 -781.5q-23 0 -65 1t-62 1q-22 0 -68 -1t-68 -1q6 301 58.5 673.5t114.5 588.5q-46 0 -261 -5q2 47 2 144q0 90 -2 135z" />
    <glyph glyph-name="eight" unicode="8" horiz-adv-x="663" 
d="M330 207q49 0 69.5 48.5t20.5 188.5q0 131 -21 178.5t-69 47.5t-69 -47.5t-21 -178.5q0 -141 20 -189t70 -48zM330 1333q-44 0 -65 -45.5t-21 -167.5q0 -140 20 -193t66 -53t65 52.5t19 193.5q0 123 -20 168t-64 45zM465 776v-12q38 -9 65 -27q58 -40 80.5 -117.5
t22.5 -213.5q0 -224 -70.5 -324t-232.5 -100t-232.5 100t-70.5 324q0 136 23 213.5t81 117.5q27 18 64 27v14q-39 11 -68 31q-53 41 -74.5 120.5t-21.5 227.5q0 213 67 305t232 92t232 -92t67 -305q0 -150 -20.5 -229t-73.5 -119q-25 -20 -70 -33z" />
    <glyph glyph-name="nine" unicode="9" horiz-adv-x="663" 
d="M324 788q84 0 84 240q0 165 -18.5 235t-59.5 70q-42 0 -61 -68.5t-19 -232.5q0 -140 17 -192t57 -52zM426 721l-10 2q-44 -139 -166 -139q-115 0 -163 101t-48 327q0 203 28.5 320.5t90 169.5t166.5 52q118 0 181.5 -65.5t93.5 -236t30 -492.5q0 -193 -10.5 -326
t-32 -222.5t-59 -139.5t-85 -70t-116.5 -20q-102 0 -162 39t-89.5 131.5t-29.5 253.5q0 35 4 81q29 -2 96 -2q76 0 103 2q-2 -20 -2 -69q0 -117 17 -165t63 -48q49 0 69 67t23 254q4 133 8 195z" />
    <glyph glyph-name="A" unicode="A" horiz-adv-x="706" 
d="M346 592h72q-27 337 -43 514q-6 52 -23 276h-10q-7 -94 -27 -276q-18 -202 -43 -514h74zM698 0h-243q0 73 -21 367h-88h-92q-4 -60 -9.5 -145t-9 -138t-4.5 -84h-223q32 261 90 822t70 714h364q18 -199 75.5 -741t90.5 -795z" />
    <glyph glyph-name="B" unicode="B" horiz-adv-x="708" 
d="M354 215q40 0 61 17.5t31.5 68.5t10.5 150q0 137 -24 191t-79 54h-73q0 -334 4 -479q27 -2 69 -2zM451 1106q0 101 -10.5 149.5t-30 63t-60.5 14.5q-42 0 -67 -2q-2 -129 -2 -465q25 -2 67 -2q56 2 79.5 57.5t23.5 184.5zM500 776v-8q53 -7 73 -20q101 -61 101 -342
q0 -159 -26.5 -245.5t-86 -123.5t-168.5 -37h-336q6 211 6 768q0 563 -6 768h334q75 0 123.5 -17t84.5 -61t51.5 -122.5t15.5 -200.5q0 -148 -19 -219.5t-67 -108.5q-28 -21 -80 -31z" />
    <glyph glyph-name="C" unicode="C" horiz-adv-x="690" 
d="M535 881h-105q6 120 6 192q0 101 -10.5 156t-27 71.5t-44.5 16.5q-35 0 -52 -28t-28.5 -145.5t-11.5 -355.5q0 -188 5.5 -300.5t18.5 -166t28 -68.5t42 -15q44 0 63 60.5t19 215.5q0 40 -4 150h105h108q2 -45 2 -158q0 -276 -69 -400t-226 -124q-90 0 -146.5 33.5
t-96 124t-56 245.5t-16.5 401q0 190 12 322.5t34.5 220t62 137t88.5 69t120 19.5q107 0 169.5 -43.5t93 -146t30.5 -279.5q0 -105 -6 -204h-108z" />
    <glyph glyph-name="D" unicode="D" horiz-adv-x="718" 
d="M334 250q38 0 59 15t38.5 68.5t23.5 159t6 285.5q0 235 -14.5 351.5t-38 146t-70.5 29.5q-35 0 -51 -2q-4 -278 -4 -539q0 -401 2 -512q16 -2 49 -2zM59 1536h289q62 0 105 -10.5t83.5 -39t66 -80t45 -133t28 -199t8.5 -277.5q0 -249 -17.5 -404t-61 -242.5t-104.5 -119
t-159 -31.5h-283q4 426 4 766q0 384 -4 770z" />
    <glyph glyph-name="E" unicode="E" horiz-adv-x="602" 
d="M57 1536h504q-2 -31 -2 -129q0 -104 2 -139q-196 4 -280 4v-367q114 0 270 4v-243q-78 2 -270 2v-383q38 0 134 1t146 1q-2 -35 -2 -144q0 -104 2 -143h-504q2 203 2 768q0 580 -2 768z" />
    <glyph glyph-name="F" unicode="F" horiz-adv-x="577" 
d="M57 1536h492q-2 -43 -2 -162v-155q-92 2 -266 2v-373v-72q184 0 260 4q-2 -70 -2 -288q-148 4 -256 4q2 -80 5 -247t5 -249h-234q2 211 2 768q0 553 -4 768z" />
    <glyph glyph-name="G" unicode="G" horiz-adv-x="708" 
d="M346 713v106q49 -2 137 -2q111 0 172 4q6 -190 0.5 -332t-21 -238.5t-51 -156.5t-89.5 -86t-136 -26q-123 0 -191 71t-100 245t-32 490q-1 234 16.5 382.5t59.5 234t102 117.5t154 32q162 0 228.5 -101t66.5 -349q0 -71 -5 -127q-27 2 -104 2q-82 0 -111 -2q0 23 1 61
t1 52q0 136 -18 183.5t-61 47.5q-41 0 -62.5 -35t-35 -153.5t-13.5 -344.5q0 -238 12 -360t34.5 -162.5t66.5 -40.5q36 0 54.5 31t26 111.5t5.5 238.5q-76 0 -107 -2v109z" />
    <glyph glyph-name="H" unicode="H" horiz-adv-x="741" 
d="M455 1536h229q-4 -209 -4 -768q0 -547 4 -768h-229q4 172 4 641q-14 0 -43 1t-45 1t-45 -1t-43 -1q0 -469 4 -641h-228q2 221 2 768q0 559 -2 768h228q-4 -164 -4 -645q14 0 43 -1t45 -1t45 1t43 1q0 481 -4 645z" />
    <glyph glyph-name="I" unicode="I" horiz-adv-x="348" 
d="M291 0h-234q4 199 4 768q0 571 -4 768h234q-4 -197 -4 -768q0 -567 4 -768z" />
    <glyph glyph-name="J" unicode="J" horiz-adv-x="444" 
d="M152 1536h237q-4 -364 -4 -498q0 -22 2 -265t2 -466q0 -158 -49 -238.5t-170 -80.5q-86 0 -160 22q6 30 12.5 137t6.5 146q40 -21 75 -21q60 0 60 99q0 987 -12 1165z" />
    <glyph glyph-name="K" unicode="K" horiz-adv-x="710" 
d="M459 1536h243q-17 -59 -57 -228t-80 -312t-80 -232q48 -66 86 -211q34 -126 79.5 -321.5t56.5 -231.5h-215q-22 0 -32 9.5t-16 35.5q-77 416 -141 619h-18q0 -490 4 -664h-230q2 201 2 768q0 571 -2 768h230q-4 -178 -4 -707h10q40 114 65 205q79 363 99 502z" />
    <glyph glyph-name="L" unicode="L" horiz-adv-x="481" 
d="M57 1536h238q-6 -175 -6 -760q0 -84 1 -264t1 -242q64 0 178 4q0 -18 -1 -61.5t-1 -67.5q0 -25 1 -75t1 -70h-412q0 10 2 291.5t2 476.5q0 625 -4 768z" />
    <glyph glyph-name="M" unicode="M" horiz-adv-x="919" 
d="M590 1536h270q-4 -402 -4 -766q0 -328 4 -770h-223q8 476 8 637q0 86 6.5 274.5t7.5 241.5h-8q-33 -330 -47 -426l-108 -727h-97l-110 737q-24 180 -47 416h-9q1 -66 8 -245.5t7 -270.5q0 -144 3 -362t3 -275h-195q0 97 1 345.5t1 424.5q0 185 -1 433.5t-1 332.5h293
q9 -60 39 -279t49 -342q14 -111 25 -301h10q26 276 29 299q78 560 86 623z" />
    <glyph glyph-name="N" unicode="N" horiz-adv-x="743" 
d="M496 1536h190q0 -23 -2 -299t-2 -467q0 -575 4 -770h-237q-54 278 -146 659q-33 174 -67 486h-7q15 -365 17 -504q4 -633 4 -641h-193q2 203 2 768q0 573 -2 768h265q7 -47 29 -155t56 -270.5t56 -276.5q30 -147 55 -396h6q-18 365 -18 457q0 256 -10 641z" />
    <glyph glyph-name="O" unicode="O" horiz-adv-x="722" 
d="M684 799q0 -314 -35 -493.5t-103.5 -251.5t-185.5 -72t-185.5 72t-103 251t-34.5 494q0 185 13.5 317.5t38 217.5t65.5 134t89.5 67.5t116.5 18.5q67 0 115 -18.5t89.5 -68t66.5 -134t39 -217t14 -317.5zM360 238q27 0 44.5 21t30.5 80.5t18.5 170t5.5 285.5
q0 224 -11.5 339t-31 149t-56.5 34q-36 0 -55.5 -34t-31 -149.5t-11.5 -338.5q0 -232 11 -354.5t30.5 -162.5t56.5 -40z" />
    <glyph glyph-name="P" unicode="P" horiz-adv-x="681" 
d="M319 608q49 0 73 24t36 97t12 223q0 152 -12.5 231t-34.5 103.5t-63 24.5q-33 0 -56 -2q0 -486 2 -699q12 -2 43 -2zM57 1536h301q112 0 173 -45.5t91.5 -169.5t30.5 -356q0 -238 -30 -363.5t-93 -173t-182 -47.5q-15 0 -36 1t-33 1q3 -188 10 -383h-232q4 221 4 768
q0 559 -4 768z" />
    <glyph glyph-name="Q" unicode="Q" horiz-adv-x="722" 
d="M356 240q38 0 58.5 40t32.5 164.5t12 360.5q0 213 -12 326t-32.5 149.5t-58.5 36.5q-37 0 -57.5 -36.5t-32.5 -150t-12 -325.5q0 -236 11.5 -360.5t32 -164.5t58.5 -40zM487 219l2 -10q32 3 105 16q58 11 102 25v-250q-50 0 -155.5 -4t-182.5 -4q-180 0 -251.5 184.5
t-71.5 622.5q0 228 18.5 376t61 231.5t100 115.5t145.5 32q86 0 143.5 -33t99 -115.5t60.5 -227.5t19 -365q0 -424 -76 -522q-22 -29 -50 -44.5t-69 -27.5z" />
    <glyph glyph-name="R" unicode="R" horiz-adv-x="712" 
d="M346 745q55 0 79 65.5t24 217.5q0 122 -12.5 185t-34 81.5t-62.5 18.5q-39 0 -66 -2v-563q7 0 31 -1.5t41 -1.5zM485 625v-11q55 -9 86.5 -35.5t51 -82t32.5 -156.5q8 -56 21.5 -178.5t19.5 -161.5h-202q-22 0 -29.5 14t-15.5 60q-12 169 -20.5 253t-21 138t-26.5 66
t-41 12q-41 0 -64 -2q3 -321 13 -541h-230q0 97 1 344t1 424q0 176 -1 423.5t-1 344.5h314q78 0 129.5 -19t90 -69t56 -139.5t17.5 -227.5q0 -227 -40.5 -329t-140.5 -127z" />
    <glyph glyph-name="S" unicode="S" horiz-adv-x="641" 
d="M315 207q45 0 62.5 32.5t17.5 112.5q0 105 -30 179t-101 141q-123 100 -175 219t-52 305q0 190 69.5 274t219.5 84q157 0 218.5 -83.5t61.5 -294.5q0 -117 -2 -185q-12 0 -47 1t-55 1q-65 0 -90 -2q2 61 2 176q0 93 -17.5 128.5t-60.5 35.5t-61.5 -32.5t-18.5 -106.5
q-2 -101 25.5 -171.5t101.5 -143.5q75 -69 123 -138t77 -165.5t29 -215.5q0 -196 -67 -286t-219 -90q-163 0 -228 94.5t-65 288.5q0 101 6 184q54 -4 102 -4q72 0 97 2q-2 -49 -2 -135q0 -121 16.5 -163t62.5 -42z" />
    <glyph glyph-name="T" unicode="T" horiz-adv-x="536" 
d="M16 1536h504v-133v-139h-135q0 -1149 4 -1264q-33 2 -119 2q-87 0 -120 -2q6 170 6 1264h-140q2 37 2 139q0 98 -2 133z" />
    <glyph glyph-name="U" unicode="U" horiz-adv-x="733" 
d="M453 1536h225q-4 -286 -4 -502q0 -77 1 -316.5t1 -363.5q0 -193 -69 -282.5t-238 -89.5q-172 0 -241 89t-69 283q0 124 1 363.5t1 316.5q0 216 -4 502h230q-4 -289 -4 -1153q0 -74 21.5 -106.5t70.5 -32.5q44 0 63 32.5t19 106.5q0 868 -4 1153z" />
    <glyph glyph-name="V" unicode="V" horiz-adv-x="659" 
d="M428 1536h225q-25 -215 -83.5 -838t-67.5 -698q-82 4 -170 4q-116 0 -174 -4q-4 38 -36 385t-64.5 673.5t-51.5 477.5h240q22 -544 61 -1006q19 -253 21 -292h12q5 93 20 290q56 706 68 1008z" />
    <glyph glyph-name="W" unicode="W" horiz-adv-x="942" 
d="M762 1536h174q-19 -200 -73 -845.5t-58 -690.5q-58 4 -123 4q-95 0 -141 -4q-1 20 -10 156t-18 286t-15 271q-12 213 -19 485h-8q-16 -397 -22 -487q-20 -237 -56 -711q-70 4 -131 4q-83 0 -123 -4q-6 58 -59.5 698.5t-73.5 837.5h234q15 -464 45 -913q1 -15 14 -353h10
q8 204 15 353q55 787 57 913q19 0 63 -1t60 -1q17 0 59.5 1t61.5 1q14 -431 47 -913q5 -88 16 -359h8q8 212 17 359q45 823 49 913z" />
    <glyph glyph-name="X" unicode="X" horiz-adv-x="679" 
d="M440 1536h228q-63 -290 -156 -770q72 -375 162 -766h-256q-8 57 -25.5 172.5t-25.5 173.5q-21 153 -37 326h-4q-11 -122 -39 -330q-8 -59 -24 -172.5t-23 -169.5h-232q39 181 156 780q-61 333 -152 756h250l53 -371q20 -133 33 -301h4q11 135 35 299q14 85 32.5 222
t20.5 151z" />
    <glyph glyph-name="Y" unicode="Y" horiz-adv-x="634" 
d="M420 1536h215q-56 -273 -189 -1051q0 -320 5 -485q-37 2 -129 2q-95 0 -134 -2q5 165 5 483q-154 879 -191 1053h244q10 -150 55 -643q13 -114 23 -229h12q12 146 22 227q59 596 62 645z" />
    <glyph glyph-name="Z" unicode="Z" horiz-adv-x="618" 
d="M575 1536v-127v-139q-17 -46 -89.5 -314.5t-112.5 -392.5q-16 -52 -43.5 -155.5t-40.5 -145.5q74 4 104 4q49 0 109.5 1t75.5 1q0 -24 -1.5 -72.5t-1.5 -64.5q0 -19 1.5 -62.5t1.5 -68.5h-537q2 45 2 131v131q16 42 95 321.5t118 399.5q6 21 38 132t48 159
q-39 -4 -125 -4q-52 0 -104.5 -1t-67.5 -1q2 45 2 135v133h528z" />
    <glyph glyph-name="a" unicode="a" horiz-adv-x="630" 
d="M367 444v177q-14 4 -48 4t-52 -13.5t-28 -58t-10 -131.5q0 -98 6 -144.5t17.5 -59.5t36.5 -13q41 0 59.5 55t18.5 184zM369 752v245q0 111 -60 111q-28 0 -42 -17.5t-20.5 -71.5t-2.5 -157q-25 4 -92 4q-53 0 -107 -4q-12 252 48.5 360.5t219.5 108.5q138 0 201.5 -70
t63.5 -217q0 -130 -2.5 -330t-2.5 -302q0 -345 17 -412h-172q-29 0 -37 9t-8 42q0 35 4 109h-10q-29 -170 -166 -170q-45 0 -74.5 14.5t-53.5 55.5t-35 120.5t-11 202.5q0 112 15 187t47.5 117.5t77 59.5t109.5 17q52 0 93 -12z" />
    <glyph glyph-name="b" unicode="b" 
d="M270 901v-661q43 -13 68 -13q36 0 54 29t28 126.5t10 291.5q0 188 -9.5 282t-24 118t-44.5 24q-82 0 -82 -197zM268 1178h13q40 151 172 151q35 0 58.5 -8t47 -32t37.5 -69t25.5 -117.5t16.5 -179.5t5 -253q0 -210 -12 -345t-38.5 -209t-61.5 -101t-89 -27
q-117 0 -163 137l-9 -2q0 -9 1 -27t1 -26v-70h-219q4 147 4 786q0 315 -4 799h221q0 -30 -1 -96.5t-1 -114.5q0 -82 -4 -196z" />
    <glyph glyph-name="c" unicode="c" horiz-adv-x="626" 
d="M594 555q4 -49 4 -141q0 -227 -62 -329.5t-217 -102.5q-110 0 -169.5 57t-88 204.5t-28.5 422.5q0 262 30 406.5t92 202.5t173 58q99 0 155 -37.5t84.5 -132.5t28.5 -264q0 -94 -2 -149q-23 2 -100 2q-74 0 -97 -2q2 66 2 159q0 123 -15.5 165t-55.5 42q-32 0 -48.5 -26
t-26.5 -125.5t-9 -296.5q0 -202 9.5 -300t25.5 -123.5t49 -25.5q39 0 55 44t16 145q0 22 -1 71t-1 76q27 -2 95 -2q73 0 102 2z" />
    <glyph glyph-name="d" unicode="d" 
d="M403 412v680q-30 12 -65 12t-53.5 -28.5t-29.5 -129t-11 -295.5q0 -183 9.5 -277.5t25 -120.5t43.5 -26q81 0 81 185zM401 1585h222q-5 -305 -5 -923q0 -242 5 -662h-222q0 15 1 45t1 49q0 34 3 68h-13q-43 -174 -164 -174q-52 0 -86 25.5t-61 95.5t-39 203t-12 339
q0 141 7 249.5t21 182t31.5 123t43 76t51.5 37t59 10.5q110 0 153 -123l9 2q0 32 -1.5 89t-1.5 87q0 135 -2 201z" />
    <glyph glyph-name="e" unicode="e" horiz-adv-x="616" 
d="M319 1128q-29 0 -44.5 -28.5t-25.5 -117t-13 -257.5q41 -2 149 2q4 74 4 158q0 140 -16 191.5t-54 51.5zM473 457q69 0 98 2q5 -262 -49.5 -369.5t-206.5 -107.5q-78 0 -127.5 26t-86 96.5t-52.5 198t-16 326.5q0 213 17 351t54.5 215.5t88.5 107.5t129 30q143 0 197 -99
t54 -341q0 -168 -6 -315q-70 2 -207 2h-124q0 -161 9 -243.5t25 -108t47 -25.5q38 0 51.5 52t12.5 204q27 -2 92 -2z" />
    <glyph glyph-name="f" unicode="f" horiz-adv-x="460" 
d="M80 1169v158q0 136 51 204t172 68q71 0 146 -20q-13 -221 -15 -276q-33 10 -72 10q-38 0 -53.5 -15.5t-15.5 -54.5v-67q49 0 139 4q0 -199 2 -297q-47 2 -141 2q0 -574 8 -885q-43 4 -111 4q-71 0 -114 -4q8 344 8 752v133l-64 -2q3 141 0 286h60z" />
    <glyph glyph-name="g" unicode="g" horiz-adv-x="661" 
d="M328 -63q84 0 116.5 24.5t32.5 85.5q0 46 -16.5 69t-57.5 23q-31 0 -94 -4t-86 -4q-28 -58 -28 -102q0 -49 29.5 -70.5t103.5 -21.5zM322 1112q-46 0 -65 -59.5t-19 -184.5q0 -119 19 -166t65 -47t66 48.5t20 164.5q0 244 -86 244zM504 1108v-10q59 -34 81.5 -98
t22.5 -197q0 -181 -66.5 -258.5t-222.5 -77.5q-39 0 -77 6q-19 -52 -19 -82q0 -31 15.5 -43t48.5 -12q36 0 91 5t75 5q103 0 149.5 -63.5t46.5 -214.5q0 -79 -14.5 -134.5t-50 -97.5t-100 -62t-160.5 -20q-76 0 -131.5 9t-88 24.5t-52 39.5t-26 49t-6.5 58q0 133 117 203v4
q-49 16 -68.5 53.5t-19.5 96.5q0 113 111 209q-65 37 -94 126t-29 253q0 240 68.5 339t222.5 99q7 0 62 -0.5t129 -1t126 -0.5v-223q-51 6 -141 16z" />
    <glyph glyph-name="h" unicode="h" horiz-adv-x="684" 
d="M635 0h-219q0 104 1 426t1 555q0 55 -14 79.5t-48 24.5q-86 0 -86 -149q0 -588 4 -936h-221q2 193 2 672q0 682 -2 913h221q-2 -100 -2 -260q0 -43 -4 -149l15 -2q43 155 180 155q83 0 126.5 -57.5t43.5 -186.5q0 -164 -1 -355.5t-1 -266.5q0 -318 4 -463z" />
    <glyph glyph-name="i" unicode="i" horiz-adv-x="329" 
d="M293 1501q0 -104 -127 -104q-129 0 -129 104q0 48 29 74.5t100 26.5q70 0 98.5 -26.5t28.5 -74.5zM274 0h-219q4 190 4 680q0 267 -4 635h219q-4 -184 -4 -639q0 -490 4 -676z" />
    <glyph glyph-name="j" unicode="j" horiz-adv-x="356" 
d="M98 131q0 967 -10 1184h215q-2 -199 -2 -522q0 -83 2 -320t2 -426q0 -145 -47 -217t-168 -72q-50 0 -94 13q1 24 5 150t5 147q26 -11 47 -11q45 0 45 74zM322 1501q0 -104 -125 -104q-131 0 -131 104q0 48 29.5 74.5t101.5 26.5q69 0 97 -26.5t28 -74.5z" />
    <glyph glyph-name="k" unicode="k" horiz-adv-x="643" 
d="M414 1315h227q-5 -19 -27.5 -115t-36 -148t-37 -135t-48 -145.5t-50.5 -109.5q44 -71 79 -179.5t74 -274.5t50 -208h-196q-20 0 -28.5 9t-14.5 34q-92 413 -134 528h-4q0 -395 4 -571h-219v846v739h221q-6 -217 -6 -801v-71h2q10 46 34 130t34 130q56 208 76 342z" />
    <glyph glyph-name="l" unicode="l" horiz-adv-x="325" 
d="M272 0h-219q2 112 2 807q0 561 -2 778h221q-4 -213 -4 -790q0 -562 2 -795z" />
    <glyph glyph-name="m" unicode="m" horiz-adv-x="974" 
d="M575 1161l11 -2q47 170 178 170q162 0 162 -225q0 -140 -2 -355.5t-2 -312.5q0 -309 4 -436h-205q6 238 6 983q0 54 -14.5 77t-46.5 23q-78 0 -78 -147q0 -813 4 -936h-205q6 242 6 983q0 53 -13.5 76.5t-45.5 23.5q-80 0 -80 -147q0 -756 2 -936h-203q2 190 2 657
q0 470 -2 658h205q0 -95 -2 -144l10 -2q21 85 61 122.5t101 37.5q124 0 147 -168z" />
    <glyph glyph-name="n" unicode="n" horiz-adv-x="684" 
d="M635 0h-219q0 104 1 426t1 555q0 55 -14 79.5t-48 24.5q-86 0 -86 -145q0 -592 4 -940h-221q2 188 2 657q0 486 -2 658h219q0 -94 -2 -139l13 -2q45 153 180 153q85 0 127.5 -57.5t42.5 -188.5q0 -164 -1 -353.5t-1 -262.5q0 -320 4 -465z" />
    <glyph glyph-name="o" unicode="o" horiz-adv-x="657" 
d="M412 676q0 190 -10 286.5t-26 124t-48 27.5q-22 0 -35.5 -14t-25 -58.5t-16.5 -133.5t-5 -232q-1 -191 9 -293t26.5 -133t46.5 -31q31 0 48 31.5t26.5 132.5t9.5 293zM629 686q0 -275 -31 -428t-94.5 -214.5t-175.5 -61.5q-111 0 -173.5 61.5t-93 214.5t-30.5 428
q0 200 17 328t56 198t91 95.5t133 25.5q82 0 134.5 -25.5t92 -95.5t57 -198t17.5 -328z" />
    <glyph glyph-name="p" unicode="p" 
d="M270 901v-661q34 -15 68 -15q36 0 54.5 29.5t29 129t10.5 294.5q0 138 -4.5 222.5t-15.5 125.5t-23 53.5t-33 12.5q-86 0 -86 -191zM272 1169l15 -2q42 162 164 162q72 0 111.5 -48.5t61 -194.5t21.5 -422q0 -206 -13.5 -342t-42 -208t-64 -100t-87.5 -28
q-65 0 -102.5 33t-56.5 102h-9q2 -51 2 -156q0 -128 2 -196h-221q4 211 4 860q0 160 -1 386t-1 300h219q0 -15 -1 -47t-1 -54v-45z" />
    <glyph glyph-name="q" unicode="q" 
d="M403 412v675q-38 17 -67 17q-34 0 -51.5 -28.5t-28 -128t-10.5 -294.5q0 -186 9 -281t24 -121t43 -26q81 0 81 187zM403 1315h220q-5 -156 -5 -715q0 -124 5 -831h-222q0 37 1 112t1 121q0 90 3 143l-15 2q-20 -74 -61 -117.5t-103 -43.5q-41 0 -70 15.5t-54.5 57.5
t-40 116t-23 192t-8.5 284q0 170 9 291t24.5 196t42 118t55.5 58t71 15q114 0 164 -123h6v37v72z" />
    <glyph glyph-name="r" unicode="r" horiz-adv-x="446" 
d="M221 1094h10q20 123 58 177t96 52q34 0 55 -8q-11 -136 -14 -340q-27 10 -53 10q-53 0 -75 -36t-22 -134q0 -533 11 -815h-234q4 184 4 676q0 457 -4 639h172q-4 -140 -4 -221z" />
    <glyph glyph-name="s" unicode="s" horiz-adv-x="577" 
d="M125 438h86q-4 -78 -4 -104q0 -83 16 -115.5t56 -32.5q35 0 50 28.5t15 96.5q0 74 -30.5 134t-94.5 120q-102 79 -147 186.5t-45 266.5q0 171 63.5 243t200.5 72q141 0 198.5 -70.5t57.5 -242.5q0 -39 -4 -137q-27 2 -101 2h-82q5 87 5 116q0 75 -14.5 104.5t-51.5 29.5
q-35 0 -50.5 -25t-15.5 -86q0 -84 24 -141t87 -113q108 -95 158.5 -198t50.5 -255q0 -180 -63 -257.5t-203 -77.5q-147 0 -204.5 77.5t-57.5 247.5q0 34 6 133q20 -2 94 -2z" />
    <glyph glyph-name="t" unicode="t" horiz-adv-x="464" 
d="M80 1315v198q35 -2 106 -2q72 0 109 2q-3 -89 -6 -200q100 0 147 2q-4 -104 -4 -307q-74 4 -147 4q-4 -386 -4 -617q0 -45 15.5 -63.5t49.5 -18.5q42 0 82 21q4 -169 21 -322q-81 -24 -146 -24q-126 0 -177.5 71.5t-51.5 219.5q0 103 2.5 357.5t3.5 379.5l-57 2v297h57z
" />
    <glyph glyph-name="u" unicode="u" horiz-adv-x="686" 
d="M416 1315h217q0 -82 -1 -292.5t-1 -365.5q0 -153 1 -368t1 -289h-217q1 26 2 72t2 71l-10 2q-46 -157 -185 -157q-172 0 -172 245q0 165 2 354t2 263q0 320 -4 465h219q-2 -252 -2 -985q0 -55 13.5 -79t48.5 -24q86 0 86 142q0 362 -1 638.5t-1 307.5z" />
    <glyph glyph-name="v" unicode="v" horiz-adv-x="616" 
d="M399 1315h213q-74 -581 -153 -1315q-12 0 -61 2t-87 2q-103 0 -149 -4q-6 49 -38 321t-66 558t-52 436h232q2 -45 19.5 -289.5t25.5 -382.5q13 -184 26 -416h13q12 225 26 414q10 156 29.5 401.5t21.5 272.5z" />
    <glyph glyph-name="w" unicode="w" horiz-adv-x="876" 
d="M698 1315h172q-15 -146 -38.5 -427.5t-46 -568.5t-25.5 -319q-16 0 -57.5 1t-67.5 1q-41 0 -85.5 -1t-51.5 -1q-14 179 -47 694q-9 140 -13 353h-6q-10 -251 -18 -353q-33 -475 -54 -694q-12 0 -53 1t-65 1q-38 0 -77 -1t-48 -1q-4 48 -26.5 334.5t-47 568.5t-39.5 412
h211q1 -54 35 -754q3 -68 6.5 -175t5.5 -142h10q9 199 19 315q42 512 51 756h117h114q2 -115 43 -758q12 -183 15 -313h12q4 154 14 313q39 610 41 758z" />
    <glyph glyph-name="x" unicode="x" horiz-adv-x="634" 
d="M403 1315h220q-104 -522 -129 -653q17 -86 46 -229t50 -248.5t37 -184.5h-244q-7 65 -24.5 176.5t-22.5 149.5q-20 148 -25 235h-12q-1 -13 -27 -235q-35 -235 -45 -326h-219q43 202 133 668q-17 84 -45 226.5t-49 244.5t-37 176h242q8 -81 49 -381q11 -98 18 -184h11
q3 31 11.5 98.5t10.5 87.5q40 272 51 379z" />
    <glyph glyph-name="y" unicode="y" horiz-adv-x="616" 
d="M403 1315h211q-20 -153 -50.5 -407t-62 -525.5t-38.5 -327.5q-26 -158 -90 -229.5t-199 -71.5q-77 0 -166 21q5 26 13 121t10 139q82 -23 151 -23q41 0 62 19.5t30 68.5q5 30 5 43q-89 0 -129 -4q-11 83 -67.5 564t-72.5 612h232q1 -48 43 -561q6 -81 24 -424h8
q17 247 31 422q11 124 31.5 327t23.5 236z" />
    <glyph glyph-name="z" unicode="z" horiz-adv-x="550" 
d="M43 1315h469q-2 -45 -2 -129q0 -105 2 -148q-17 -34 -47.5 -136.5t-67 -231t-55.5 -187.5q-17 -52 -70 -204l2 -5q44 5 99 5q106 0 139 2q-2 -43 -2 -138q0 -86 2 -143h-471q2 39 2 139q0 94 -2 129q17 32 46.5 130t68 233.5t61.5 206.5q61 170 72 198l-2 2
q-33 -2 -99 -2q-98 0 -145 -2q2 43 2 133q0 95 -2 148z" />
    <glyph glyph-name="uni00A0" unicode="&#xa0;" horiz-adv-x="231" 
 />
  </font>
</defs>
</svg>
