<?xml version="1.0" standalone="no"?>
<!DOCTYPE svg PUBLIC "-//W3C//DTD SVG 1.1//EN" "http://www.w3.org/Graphics/SVG/1.1/DTD/svg11.dtd" >
<svg xmlns="http://www.w3.org/2000/svg" xmlns:xlink="http://www.w3.org/1999/xlink" version="1.1">
<metadata>
Created by FontForge 20170731 at Tue Nov 10 11:53:45 2020
 By Aleksey,,,
(c) Copyright OH no Type Company, LLC. 2015. All rights reserved.
</metadata>
<defs>
<font id="ObviouslyDemo-CompSemiItalic" horiz-adv-x="419" >
  <font-face 
    font-family="Obviously Demo Comp Semi"
    font-weight="260"
    font-style="italic"
    font-stretch="extra-condensed"
    units-per-em="2048"
    panose-1="4 13 7 3 5 4 3 11 3 6"
    ascent="1638"
    descent="-410"
    x-height="1319"
    cap-height="1536"
    bbox="-219 -231 786 1597"
    underline-thickness="102"
    underline-position="-307"
    slope="-14"
    unicode-range="U+0020-00A0"
  />
<missing-glyph horiz-adv-x="0" 
 />
    <glyph glyph-name=".notdef" horiz-adv-x="0" 
 />
    <glyph glyph-name=".null" horiz-adv-x="0" 
 />
    <glyph glyph-name="nonmarkingreturn" horiz-adv-x="682" 
 />
    <glyph glyph-name="space" unicode=" " horiz-adv-x="157" 
 />
    <glyph glyph-name="comma" unicode="," horiz-adv-x="182" 
d="M-25 319h134q-121 -293 -234 -538q-32 16 -90 29q137 348 190 509z" />
    <glyph glyph-name="period" unicode="." horiz-adv-x="165" 
d="M-29 203q46 0 57.5 -29.5t-5.5 -89.5q-21 -90 -84 -90q-49 0 -61 29.5t5 89.5q10 41 32 65.5t56 24.5z" />
    <glyph glyph-name="zero" unicode="0" horiz-adv-x="407" 
d="M412 768q-44 -174 -75.5 -291.5t-61.5 -209t-52.5 -143.5t-48.5 -85t-50 -44t-56 -11q-41 0 -66.5 13.5t-39 50.5t-13 93t15.5 150.5t41.5 213t69.5 290.5q43 174 73 287t59.5 203t51 138t48 79t51 40.5t59.5 9.5q36 0 58.5 -10.5t38 -40t16 -83.5t-10.5 -141t-38 -212
t-70 -297zM403 1442q-15 0 -27 -18t-35.5 -86.5t-58.5 -198.5t-92 -357q-56 -230 -86 -362.5t-41 -207t-6 -96.5t23 -22q13 0 26.5 22.5t37.5 96t59 207.5t92 362q135 535 132 624q-2 35 -24 36z" />
    <glyph glyph-name="one" unicode="1" horiz-adv-x="206" 
d="M-53 0h-64q67 245 195 768q109 424 166 680q59 46 90 88h33h28q-24 -84 -198 -768q-140 -571 -185 -768h-65z" />
    <glyph glyph-name="two" unicode="2" horiz-adv-x="360" 
d="M150 877h-60q30 153 60 276q57 227 107.5 313t143.5 86q60 0 89.5 -32t30 -113.5t-33.5 -218.5q-31 -123 -82.5 -245.5t-92 -196.5t-124.5 -218q-53 -91 -105 -208.5t-73 -196.5h43q113 0 160 2q-4 -18 -16 -68q-2 -9 -7.5 -28.5t-7.5 -28.5h-317q1 3 10 39q3 15 8.5 37
l7.5 30q63 248 222 510q98 160 159.5 293.5t102.5 298.5q48 192 31 219q-7 9 -19 9q-17 0 -32 -20t-38 -86t-53 -187q-10 -43 -30 -138.5t-27 -127.5h-57z" />
    <glyph glyph-name="three" unicode="3" horiz-adv-x="382" 
d="M166 981h-57q7 31 45 182q56 224 107.5 306.5t146.5 82.5q100 0 122.5 -82t-28.5 -296q-40 -158 -77 -238.5t-91 -124.5q-24 -19 -70 -33l-2 -8q33 -10 51 -33q34 -54 32.5 -131.5t-34.5 -214.5q-60 -233 -111.5 -320t-144.5 -87q-77 0 -109.5 39t-28.5 130t46 255
q6 25 21.5 78.5t17.5 62.5h57h62q-26 -93 -31 -115q-70 -274 -54 -321q6 -19 30 -19q20 0 35 21.5t37.5 91.5t58.5 213q31 124 36 188.5t-10.5 85.5t-54.5 21h-55q7 26 14 59q11 43 14 57h56q36 0 62.5 24.5t56 98t63.5 211.5q22 87 32.5 140t11 84t-7 42t-24.5 11
q-28 0 -54 -55.5t-67 -217.5q-19 -86 -45 -188h-59z" />
    <glyph glyph-name="four" unicode="4" horiz-adv-x="432" 
d="M489 1536h115q-30 -119 -94 -371.5t-100 -396.5l-68 -274h55l-12 -54q-8 -27 -16 -63l-56 2q-89 -377 -90 -379h-119q9 33 46 179.5t51 199.5h-58q-119 0 -174 -2q39 130 166 573.5t162 585.5h119q-223 -771 -295 -1042h108q103 393 260 1042z" />
    <glyph glyph-name="five" unicode="5" horiz-adv-x="403" 
d="M88 573h57q-9 -28 -28 -106q-27 -105 -42 -175t-19.5 -116t1.5 -66t23 -20q19 0 36.5 31.5t44.5 123t70 267.5q77 306 53 348q-6 10 -18 10q-25 0 -45 -26t-49 -86q-47 23 -86 28q3 12 68 277q90 356 116 473q55 -2 164 -2q117 0 166 2q-5 -24 -14 -55q-2 -12 -9 -37.5
t-8 -32.5q-13 0 -57 1t-53 1h-99q-6 -21 -81 -321q-8 -32 -24.5 -94.5t-23.5 -92.5q53 76 105 76q26 0 43 -13.5t25.5 -46t6.5 -84t-15.5 -129t-39.5 -180.5q-56 -223 -97.5 -336.5t-84 -160.5t-102.5 -47q-68 0 -99 37.5t-29 134t44 266.5q14 56 43 151h57z" />
    <glyph glyph-name="six" unicode="6" horiz-adv-x="413" 
d="M258 793q-67 0 -141 -299q-28 -114 -43.5 -189.5t-19 -124t4.5 -69.5t27 -21q33 0 59.5 74t87.5 321q23 94 35 152.5t14.5 93.5t-3.5 48.5t-21 13.5zM182 782l6 -2q58 133 140 133q71 0 76.5 -98.5t-50.5 -318.5q-32 -128 -54.5 -205.5t-47 -143t-49.5 -97.5t-55.5 -49
t-71.5 -17q-39 0 -64 12t-41.5 44.5t-18 89.5t9.5 147t37.5 217.5t70.5 300.5q42 166 72.5 278.5t60.5 201t53.5 139t51 83.5t54.5 44t62 11q104 0 122.5 -104.5t-34.5 -302.5q-10 -49 -29 -107h-57h-59q15 51 28 105t21.5 91t15.5 73.5t8.5 59.5t-0.5 41t-9.5 26t-20.5 8
q-29 0 -62.5 -85t-95.5 -313q-30 -115 -70 -262z" />
    <glyph glyph-name="seven" unicode="7" horiz-adv-x="305" 
d="M238 1536h286q0 -1 -5 -23t-9 -34q-2 -10 -7 -30t-7 -30q-67 -137 -214 -587.5t-237 -831.5h-61h-58q83 334 227.5 771t231.5 640q-112 0 -178 -2q3 19 16 72q8 25 15 55z" />
    <glyph glyph-name="eight" unicode="8" horiz-adv-x="417" 
d="M403 1165q27 110 34 173t-1.5 83.5t-29.5 20.5q-32 0 -61 -57.5t-69 -219.5q-67 -270 -47 -317q8 -17 27 -17q35 0 66 67t81 267zM217 403q20 79 31 135.5t14.5 90.5t-1 53.5t-12.5 26t-22 6.5q-24 0 -42.5 -20.5t-43 -86.5t-55.5 -188q-64 -257 -43 -306q9 -20 37 -20
q21 0 37.5 20t41.5 89.5t58 199.5zM176 774l2 8q-22 15 -37 37q-29 40 -25 120.5t42 234.5q54 217 107 297.5t153 80.5q105 0 131.5 -84.5t-23.5 -293.5q-42 -170 -74 -249t-81 -118q-26 -20 -60 -29l-2 -8q20 -9 37 -29q24 -29 28.5 -80t-6 -117.5t-36.5 -170.5
q-53 -211 -113 -300t-153 -89q-71 0 -106 41t-34 141.5t43 267.5q30 119 62 195t84 116q25 20 61 29z" />
    <glyph glyph-name="nine" unicode="9" horiz-adv-x="413" 
d="M371 1042q80 322 57 383q-8 21 -27 21q-33 0 -59.5 -74t-87.5 -321q-23 -94 -35 -152.5t-14.5 -93.5t3.5 -48.5t21 -13.5q68 0 142 299zM305 754l-6 2q-58 -133 -139 -133q-71 0 -77 98.5t50 318.5q32 127 54.5 205.5t47.5 143.5t50 97t55.5 49t71.5 17q39 0 64 -12
t41.5 -44.5t18 -89.5t-9.5 -147t-37.5 -217.5t-70.5 -300.5q-41 -166 -72 -279t-61 -201t-54 -139t-51.5 -83.5t-54.5 -43.5t-62 -11q-104 0 -122.5 104.5t34.5 302.5q10 49 29 107h57h60q-20 -65 -29 -105q-13 -53 -21.5 -91t-15.5 -74t-8.5 -59t0.5 -41t10 -26t21 -8
q29 0 62.5 85t95.5 313q55 212 69 262z" />
    <glyph glyph-name="A" unicode="A" horiz-adv-x="413" 
d="M195 565h45q21 99 58.5 290.5t53.5 270.5q19 93 62 312h-8q-16 -56 -95 -312q-10 -35 -72 -243t-96 -318h52zM334 1536h196q-27 -132 -132 -704t-148 -832h-129q28 116 96 455h-51h-55q-116 -396 -131 -455h-127q101 308 277 870t204 666z" />
    <glyph glyph-name="B" unicode="B" 
d="M399 1122q26 104 36.5 162.5t7 89.5t-15.5 39t-40 8q-14 0 -22 -2q-53 -201 -150 -583h31q45 1 79.5 69t73.5 217zM225 412q23 93 33.5 153.5t9 96t-13 49.5t-33.5 14q-21 0 -33 -2q-81 -323 -149 -606q10 -2 29 -2q35 0 57 22t45 84t55 191zM268 1536h156q59 0 89.5 -15
t43.5 -60.5t2 -126t-45 -214.5q-32 -129 -63.5 -201.5t-71.5 -107.5q-24 -21 -68 -31l-2 -8q32 -7 45 -18q62 -49 -12 -351q-31 -129 -56.5 -204t-59.5 -121.5t-72.5 -62t-98.5 -15.5h-170q85 315 195 768q137 544 188 768z" />
    <glyph glyph-name="C" unicode="C" horiz-adv-x="413" 
d="M387 901h-59q39 129 61 223q66 266 48 302q-6 10 -19 10t-22.5 -7.5t-26.5 -42t-38 -103.5t-55.5 -194t-80.5 -311q-138 -554 -135 -643q8 -35 28 -37q27 0 56 74t83 291q14 53 35 155h60h55q-6 -34 -31 -133q-25 -103 -42.5 -167.5t-38.5 -127t-39 -97t-41 -61.5
t-49 -37.5t-60 -10.5q-41 0 -66 12t-40.5 45.5t-16 88t12 145t39 211.5t69.5 292q65 261 108.5 409t85 232t76 108.5t86.5 24.5q61 0 89.5 -36t25 -138t-48.5 -282q-7 -28 -25 -93t-27 -102h-57z" />
    <glyph glyph-name="D" unicode="D" horiz-adv-x="428" 
d="M387 1421h-22q-41 -145 -166 -655q-145 -580 -160 -649q10 -2 29 -2q29 0 47.5 17t46.5 86.5t62 194.5t91 355q44 175 70 297t36.5 191.5t7 107t-13 47.5t-28.5 10zM268 1536h138q48 0 75.5 -13.5t46 -58t14 -127.5t-29.5 -223.5t-76 -345.5q-51 -204 -88 -332.5
t-71 -219.5t-67.5 -135.5t-68 -62.5t-82.5 -18h-174q104 396 195 766q126 502 188 770z" />
    <glyph glyph-name="E" unicode="E" horiz-adv-x="352" 
d="M266 1536h289q-2 -6 -6.5 -26t-7.5 -31l-15 -60q-57 2 -159 2q-27 -111 -79.5 -317t-66.5 -262q107 0 156 2q-1 -5 -13.5 -52t-17.5 -67q-47 2 -153 2q-83 -324 -154 -612h162q-1 -5 -6.5 -25t-8.5 -31q-3 -15 -14 -59h-289q145 569 193 768q116 461 190 768z" />
    <glyph glyph-name="F" unicode="F" horiz-adv-x="339" 
d="M268 1536h281q-11 -30 -17 -59q-4 -12 -8.5 -34t-5.5 -24q-55 2 -156 2q-25 -95 -77.5 -309.5t-69.5 -280.5l-25 -100q107 0 152 2q-3 -16 -14.5 -60.5t-14.5 -60.5q-45 2 -151 2q-80 -322 -150 -614h-127q127 497 195 768q114 454 188 768z" />
    <glyph glyph-name="G" unicode="G" horiz-adv-x="428" 
d="M444 1552q60 0 89.5 -35.5t28 -132t-43.5 -260.5q-8 -37 -35 -125q-35 5 -53 5q-36 0 -61 -5q25 88 34 129q62 243 47 287q-7 18 -28 19q-15 0 -27 -10.5t-32 -47.5t-43 -105t-57 -188.5t-77 -291.5q-131 -522 -130 -632q5 -58 36 -61q18 0 33 19.5t37.5 87.5t48.5 169.5
t72 291.5q-49 0 -72 -2q1 9 14 59q13 52 15 57q33 -2 90 -2q61 0 94 2q-39 -168 -65.5 -276.5t-55 -205.5t-51.5 -151t-51 -94t-56 -54.5t-65 -14.5q-42 0 -69 13.5t-43 48.5t-17.5 92t11 149t38.5 213.5t68 290.5q82 329 143 494t110.5 216t122.5 51z" />
    <glyph glyph-name="H" unicode="H" horiz-adv-x="444" 
d="M506 1536h125q-16 -65 -51.5 -202.5t-71.5 -279.5t-72 -286q-31 -128 -94.5 -386.5t-93.5 -381.5h-125q135 538 180 711h-59h-60q-109 -422 -176 -711h-123q105 405 193 768q148 588 190 768h123q-25 -96 -93.5 -369t-86.5 -342h59h60q9 33 176 711z" />
    <glyph glyph-name="I" unicode="I" horiz-adv-x="206" 
d="M12 0h-129q67 245 195 768q157 627 188 768h129q-48 -173 -196 -768q-128 -508 -187 -768z" />
    <glyph glyph-name="J" unicode="J" horiz-adv-x="249" 
d="M311 1536h127q-23 -93 -62 -245t-57 -222q-13 -53 -85 -350.5t-134 -546.5q-27 -106 -61 -145t-96 -39q-63 0 -95 16q26 74 37 119q24 -12 43 -12q39 0 62 94q282 1133 321 1331z" />
    <glyph glyph-name="K" unicode="K" 
d="M514 1536h131q-36 -83 -154.5 -369.5t-177.5 -423.5q-2 -49 -10 -168q-5 -85 -15.5 -223t-16.5 -227t-5 -125h-108q-10 0 -13.5 7.5t-3.5 29.5q19 214 60 655h-19q-120 -477 -172 -692h-125q86 330 193 768q163 651 190 768h125q-36 -133 -186 -743h18q18 53 86 219
q145 349 203 524z" />
    <glyph glyph-name="L" unicode="L" horiz-adv-x="282" 
d="M268 1536h125q-29 -102 -194 -760q-21 -84 -162 -661q75 0 110 2l-12 -54q-6 -23 -16 -63h-234q4 17 34.5 137.5t77.5 305t81 325.5q155 618 190 768z" />
    <glyph glyph-name="M" unicode="M" horiz-adv-x="561" 
d="M592 1536h156q-102 -402 -193 -766q-47 -187 -109.5 -443t-80.5 -327h-121q55 211 184 725q27 105 92 340t92 340h-8l-158 -510l-296 -895h-60l152 911q14 88 94 496h-10q-28 -116 -77 -342.5t-77 -337.5q-42 -164 -100 -405t-78 -322h-109q64 256 193 770
q131 525 190 766h162q-7 -43 -50.5 -309t-68.5 -422q-4 -19 -63 -301h10q73 243 92 299q181 541 242 733z" />
    <glyph glyph-name="N" unicode="N" horiz-adv-x="444" 
d="M532 1536h101q-187 -742 -193 -766q-173 -693 -192 -770h-129q40 276 102 825q26 186 109 594h-13q-92 -426 -135 -600q-42 -171 -89.5 -365t-73.5 -300t-37 -154h-99q29 113 193 768q130 517 190 768h154q-10 -53 -26.5 -179.5t-41.5 -324.5t-43 -330q-14 -120 -84 -469
h13q14 67 36 176.5t41.5 202t40.5 179.5q104 417 176 745z" />
    <glyph glyph-name="O" unicode="O" horiz-adv-x="436" 
d="M446 795q-44 -175 -74.5 -289.5t-62 -212t-56 -151.5t-53.5 -92.5t-58 -52t-66 -13.5q-58 0 -85.5 34t-30.5 125t25.5 247.5t90.5 404.5q62 249 106.5 396t86 228.5t77 107t86.5 25.5q44 0 69.5 -15.5t40.5 -61.5t9 -129.5t-31 -219.5t-74 -331zM90 98q23 0 46.5 48
t66 196t114.5 442q37 150 62 253.5t40 178t21.5 117t5 66.5t-8 31.5t-19.5 7.5q-23 0 -44 -39t-63 -182t-114 -433q-55 -224 -85 -356.5t-40.5 -207.5t-5.5 -98.5t24 -23.5z" />
    <glyph glyph-name="P" unicode="P" horiz-adv-x="407" 
d="M360 977q28 113 44.5 194t21.5 129t1 75.5t-13 36.5t-25 9q-21 0 -33 -2q-121 -472 -215 -868q4 -2 23 -2q36 0 60 26.5t56 118.5t80 283zM266 1536h148q54 0 83 -23t40.5 -84t-4 -172t-58.5 -282q-58 -232 -103.5 -346.5t-92 -154.5t-119.5 -40h-47q-72 -301 -101 -434
h-129q81 301 195 768q128 509 188 768z" />
    <glyph glyph-name="Q" unicode="Q" horiz-adv-x="425" 
d="M188 799q-135 -536 -135 -643q0 -54 29 -54q26 0 51.5 49.5t69.5 199t119 448.5q34 136 57 233.5t37.5 170t21 117t5.5 71.5t-7.5 37t-19.5 10q-26 0 -52 -47.5t-68 -187t-108 -404.5zM150 100l57 6q73 9 74 9q-7 -22 -29 -115q-30 0 -89.5 -3t-99.5 -3q-39 0 -64 18
t-36 59.5t-10 101.5t15.5 153t39 204.5t62.5 264.5q49 199 86 327.5t69.5 217t64.5 133t63.5 62t74.5 17.5q58 0 86 -28t33.5 -109.5t-21 -229t-86.5 -388.5q-6 -25 -22 -91t-26 -106t-26.5 -103t-29.5 -106.5t-29.5 -91t-32.5 -80.5t-32 -53q-33 -41 -90 -60z" />
    <glyph glyph-name="R" unicode="R" horiz-adv-x="428" 
d="M381 1421l-25 -2q-33 -133 -93.5 -372.5t-84.5 -337.5q8 -2 35 -2q44 0 86 85t88 267q24 95 36 161t14.5 105.5t-5 61t-19.5 28t-32 6.5zM268 1536h148q50 0 80.5 -17.5t48 -64t9 -138t-43.5 -229.5q-55 -223 -108.5 -324t-131.5 -122l-2 -6q37 -9 53 -36t16 -86
t-18 -169q-6 -42 -19.5 -119t-22 -134t-11.5 -91h-112q-19 0 -11 41q74 401 77 478q2 62 -24 69l-14 2q-16 0 -32 -4q-106 -434 -138 -586h-127q15 60 81 318.5t112 449.5q47 189 110.5 447t79.5 321z" />
    <glyph glyph-name="S" unicode="S" horiz-adv-x="378" 
d="M57 553h70q-43 -165 -45 -172q-17 -68 -26.5 -118t-13 -81.5t-1 -50.5t9 -26t17.5 -7q25 0 43 35.5t45 142.5q50 202 18 437q-14 100 -20 170.5t0 178.5t32 212q40 159 90 218.5t132 59.5q43 0 70 -16t43 -55.5t10.5 -114.5t-33.5 -186q-11 -41 -54 -201h-53h-63
q30 103 63 240q22 87 27 136.5t-2 66t-25 16.5q-26 0 -44.5 -39.5t-45.5 -145.5q-49 -190 -25 -424q1 -11 7 -68t7.5 -77.5t5.5 -73t2.5 -84.5t-4 -80.5t-10 -93.5t-18.5 -92q-40 -156 -84 -216t-129 -60q-193 0 -96 385q1 6 49 184h51z" />
    <glyph glyph-name="T" unicode="T" horiz-adv-x="317" 
d="M238 1536h297q-1 -5 -6.5 -25.5t-8.5 -31.5q-4 -20 -14 -60h-88q-67 -264 -198 -795.5t-152 -623.5h-64h-63q14 51 81.5 319t155 617t121.5 483h-90q10 40 14 60q3 11 8 31.5t7 25.5z" />
    <glyph glyph-name="U" unicode="U" horiz-adv-x="436" 
d="M502 1536h123q-41 -152 -123 -487q-40 -155 -201 -807q-36 -142 -79 -200t-130 -58q-208 0 -141 284q29 121 66.5 267.5t77 299.5t55.5 214q10 43 116 487h125q-100 -374 -328 -1303q-34 -141 33 -141q27 0 46 29.5t36 99.5q250 1001 324 1315z" />
    <glyph glyph-name="V" unicode="V" horiz-adv-x="389" 
d="M487 1536h123q-53 -166 -158 -502t-204.5 -657.5t-116.5 -376.5q-46 4 -90 4q-58 0 -94 -4q1 5 128 678.5t158 857.5h127q-132 -571 -237 -1122q-6 -31 -62 -312h9q3 9 34.5 123.5t53.5 186.5q272 901 329 1124z" />
    <glyph glyph-name="W" unicode="W" horiz-adv-x="563" 
d="M684 1536h102q-49 -158 -241.5 -798.5t-222.5 -737.5q-28 4 -66 4q-46 0 -78 -4q9 43 74.5 358t101.5 484q67 293 117 497h-10q-130 -477 -137 -499q-221 -720 -252 -840q-50 4 -70 4q-42 0 -70 -4q14 75 140.5 719.5t158.5 816.5h121q-62 -258 -227 -1044
q-50 -221 -86 -365h12q57 215 99 365q264 891 305 1044h63h68q-41 -163 -228 -1044q-42 -198 -82 -373h9q59 224 102 373q50 180 163 572t134 472z" />
    <glyph glyph-name="X" unicode="X" horiz-adv-x="397" 
d="M487 1536h129q-173 -427 -303 -768q-18 -157 -43 -421t-34 -347h-134q38 239 62 379q38 236 59 336h-8q-21 -68 -109 -338q-24 -76 -65 -197.5t-59 -179.5h-132q38 98 145 376.5t155 403.5q16 127 32 265.5t31.5 282.5t22.5 208h126q-6 -38 -27.5 -180.5t-35.5 -222.5
q-25 -159 -59 -310h8q68 219 98 305q25 74 73 210.5t68 197.5z" />
    <glyph glyph-name="Y" unicode="Y" horiz-adv-x="370" 
d="M477 1536h117q-34 -97 -190 -522t-193 -533q-74 -296 -119 -481q-16 2 -59 2q-46 0 -64 -2q4 14 43.5 167t75.5 296q13 85 43 310.5t61.5 467.5t38.5 295h127q-47 -204 -139 -719q-5 -34 -20.5 -110.5t-20.5 -108.5h6q19 68 68 221q45 147 128.5 411t96.5 306z" />
    <glyph glyph-name="Z" unicode="Z" horiz-adv-x="337" 
d="M254 1536h291q-7 -30 -15 -55q-2 -9 -7 -30t-7 -30q-22 -52 -81 -203.5t-138 -357.5t-121 -313q-30 -77 -97.5 -248.5t-72.5 -185.5q20 2 53 2h131q-7 -31 -14 -56q-8 -36 -14 -59h-297q2 11 7.5 31.5t6.5 27.5q10 40 15 56q18 45 152.5 395t201.5 516q37 100 160 397
q-25 -2 -78 -2h-105q3 10 15 58t14 57z" />
    <glyph glyph-name="a" unicode="a" 
d="M172 283l231 925q-27 9 -41 9q-27 0 -49 -34t-62 -160.5t-104 -381.5q-112 -444 -101 -513q4 -24 26 -24q56 0 100 179zM432 1319h121q-59 -217 -164 -641q-2 -7 -166 -678h-123q2 8 8 24t9 31q6 30 12 51h-8q-26 -57 -58 -88.5t-63 -31.5q-26 0 -40.5 9t-24.5 46.5
t-3.5 106t30.5 193.5t69 304q75 301 125.5 450.5t84.5 191.5t81 42q34 0 56.5 -21.5t29.5 -50.5h10l2 13z" />
    <glyph glyph-name="b" unicode="b" 
d="M264 1034l-231 -925q27 -9 41 -9q27 0 49.5 33.5t62.5 161t103 381.5q111 442 99 511q-6 25 -28 25q-52 0 -96 -178zM303 1212l10 -2q48 121 117 121q54 0 70 -42q31 -84 -49 -439q-19 -80 -43 -178q-57 -226 -99.5 -365t-78 -208t-62 -90t-62.5 -21q-61 0 -79 71h-7
l-6 -24q-1 -6 -4 -17.5t-4 -17.5h-121q81 307 199 782q18 72 88 359.5t109 443.5h122q-35 -133 -43 -168q-24 -94 -57 -205z" />
    <glyph glyph-name="c" unicode="c" horiz-adv-x="395" 
d="M287 512h55q-7 -36 -22.5 -99.5t-18.5 -76.5q-19 -75 -33 -123t-34 -96t-41.5 -74.5t-52 -42.5t-68.5 -16q-61 0 -91 24.5t-37.5 98t15 203.5t76.5 345q35 143 60 235.5t52 175.5t50 129t51 80.5t57.5 47t67.5 12.5q61 0 90 -34t28 -121t-38 -236q-21 -91 -47 -178h-54
h-59q27 98 47 182q56 225 37 262q-7 13 -25 13q-21 0 -39 -31t-55.5 -157.5t-99.5 -379.5q-110 -445 -104 -521q8 -32 30 -34q43 0 100 232q8 31 22.5 93.5t20.5 86.5h60z" />
    <glyph glyph-name="d" unicode="d" 
d="M174 285l229 925q-27 9 -41 9q-27 0 -49 -34t-62 -160.5t-104 -381.5q-109 -442 -101 -511q6 -25 26 -26q26 0 50.5 38t51.5 141zM498 1585h120q-93 -357 -266 -1048q-31 -125 -73 -304.5t-56 -232.5h-123q2 8 8 25t9 32q3 9 7.5 26t6.5 23l-10 3q-56 -121 -119 -121
q-18 0 -29.5 4t-23 19.5t-15 42.5t-2 76t12.5 117.5t32.5 169.5t53.5 230q76 303 126 451.5t83 190.5t79 42q34 0 57.5 -20t33.5 -51h10q35 153 37 161z" />
    <glyph glyph-name="e" unicode="e" horiz-adv-x="387" 
d="M322 920q28 115 38.5 184t5.5 94t-22 25q-16 0 -29.5 -18.5t-34.5 -75.5t-48.5 -156t-69.5 -266h104q26 98 56 213zM250 436h53q-62 -262 -111.5 -357t-132.5 -95q-40 0 -64 11.5t-40 49t-13 108t23.5 190t63.5 292.5q73 294 125 442.5t97.5 203t108.5 54.5
q89 0 105.5 -87.5t-39.5 -317.5q-59 -239 -90 -338q-35 2 -113 2h-90q-98 -396 -88 -465q4 -29 27 -29q15 0 30 26.5t37.5 100.5t55.5 209h55z" />
    <glyph glyph-name="f" unicode="f" horiz-adv-x="286" 
d="M231 1319l27 111q23 89 60.5 128t109.5 39q51 0 92 -14q-5 -15 -21 -63.5t-20 -59.5q-28 8 -45 8q-26 0 -40 -12t-21 -43l-23 -94h92l-30 -117q-14 0 -44 1t-46 1q-251 -1003 -295 -1204q-25 4 -62 4q-40 0 -63 -4q62 232 194 768q88 357 107 434h-45q15 56 30 117h43z
" />
    <glyph glyph-name="g" unicode="g" horiz-adv-x="413" 
d="M410 1223l-4 -13q16 -8 22 -12l-12 19v-5l-2 5l-4 -9l2 11zM434 1319h121q-18 -58 -201 -782q-34 -140 -78 -325.5t-51 -213.5q-31 -121 -81 -175t-132 -54q-190 0 -129 243q8 32 25 88h57h60q-15 -49 -23 -86q-19 -74 -13 -105.5t38 -31.5q28 0 44 29t35 100
q64 251 74 285l-10 2q-56 -121 -129 -121q-26 0 -41.5 11t-24.5 44t-4.5 91t23 156t53.5 235q53 209 91.5 333t72 188t59.5 82.5t64 18.5q65 0 80 -71h4l2 8q3 9 7 25.5t7 25.5z" />
    <glyph glyph-name="h" unicode="h" horiz-adv-x="428" 
d="M311 1231h8q46 100 121 100q61 0 79.5 -52.5t-7.5 -150.5q-80 -312 -156 -622q-92 -367 -123 -506h-122q32 128 126 501.5t160 641.5q11 40 5 58t-31 18q-63 0 -95 -127q-106 -424 -184.5 -745t-85.5 -347h-121q22 89 75.5 299t90.5 356q50 201 126 509.5t104 420.5h120
q-10 -38 -25 -99.5t-22 -88.5q-27 -108 -43 -166z" />
    <glyph glyph-name="i" unicode="i" horiz-adv-x="206" 
d="M393 1489q-7 -29 -29 -50.5t-55 -21.5q-41 0 -54 26t-5 64q17 72 84 72q79 0 59 -90zM8 0h-121q20 74 172 684l78.5 314t79.5 321h121q-52 -192 -162 -637q-119 -470 -168 -682z" />
    <glyph glyph-name="j" unicode="j" horiz-adv-x="221" 
d="M-104 -51q314 1269 337 1370h119q-65 -248 -139 -549q-28 -111 -94.5 -381t-116.5 -471q-20 -79 -50 -113t-91 -34q-50 0 -80 18q16 32 39 115q16 -8 33 -8q29 0 43 53zM403 1489q-7 -29 -29 -50.5t-55 -21.5q-41 0 -54 26t-5 64q17 72 84 72q79 0 59 -90z" />
    <glyph glyph-name="k" unicode="k" horiz-adv-x="395" 
d="M442 1319h129q-30 -65 -137 -310t-164 -368q0 -112 -15.5 -355.5t-12.5 -285.5h-105q-8 0 -11.5 3t-4 8t-0.5 20q4 76 20.5 286t18.5 275h-8q-144 -582 -146 -592h-123q38 142 203 807q127 496 193 778h124q-48 -179 -198 -782l-31 -119h10q18 52 39 103.5t46 110
t38 89.5q76 177 135 332z" />
    <glyph glyph-name="l" unicode="l" horiz-adv-x="202" 
d="M6 0h-123q38 142 203 807q127 496 193 778h124q-48 -179 -198 -782q-147 -584 -199 -803z" />
    <glyph glyph-name="m" unicode="m" horiz-adv-x="636" 
d="M512 1212h6q58 119 148 119q51 0 69.5 -40t1.5 -107q-127 -491 -184 -725q-70 -276 -111 -459h-120q44 164 290 1147q16 72 -30 72q-58 0 -93 -144q-228 -909 -266 -1075h-123q106 396 291 1147q9 40 3 56t-29 16q-28 0 -53.5 -35.5t-43.5 -108.5q-219 -876 -266 -1075
h-119q44 171 166 655l164 664h119q-5 -20 -13.5 -50.5t-11.5 -41.5h6q53 104 127 104q81 0 72 -119z" />
    <glyph glyph-name="n" unicode="n" horiz-adv-x="428" 
d="M311 1231h8q46 100 121 100q61 0 79.5 -52.5t-7.5 -150.5q-80 -312 -156 -622q-92 -367 -123 -506h-122q32 128 126 501.5t160 641.5q11 40 5 58t-31 18q-63 0 -95 -127q-106 -424 -184.5 -745t-85.5 -347h-121q22 89 75.5 299t90.5 356q26 104 83.5 337.5t80.5 326.5
h121q-5 -21 -14 -51.5t-11 -36.5z" />
    <glyph glyph-name="o" unicode="o" horiz-adv-x="409" 
d="M274 670q114 459 100 532q-5 25 -26 25q-16 0 -28.5 -16t-33.5 -75t-49.5 -166.5t-76.5 -299.5q-121 -472 -103 -551q6 -25 27 -25q16 0 28 17.5t34.5 84.5t49.5 170t78 304zM401 686q-45 -179 -77.5 -294t-63 -199.5t-59 -127.5t-58.5 -62t-69 -19q-77 0 -106 55.5
t-13.5 209.5t86.5 437q43 175 76 288t60.5 187.5t56.5 111t56 49.5t66 13q45 0 71.5 -12.5t44 -51t14.5 -109.5t-23 -188.5t-62 -287.5z" />
    <glyph glyph-name="p" unicode="p" 
d="M264 1034l-231 -925q27 -9 41 -9q27 0 49.5 33.5t62.5 161t103 381.5q61 242 82.5 363t16.5 147t-28 26q-25 0 -47.5 -37t-48.5 -141zM307 1210h6q51 121 121 121q25 0 40 -9t25.5 -46.5t5.5 -105.5t-28.5 -194t-68.5 -304q-57 -226 -99.5 -365t-78 -208t-62 -90
t-62.5 -21q-56 0 -81 71l-9 -2q-16 -84 -26 -120q-7 -32 -21 -86t-18 -70h-121q176 688 227 895q37 147 89 362.5t69 280.5h123q-1 -2 -8.5 -25t-12.5 -43q-8 -29 -10 -41z" />
    <glyph glyph-name="q" unicode="q" 
d="M174 285l229 925q-27 9 -41 9q-27 0 -49 -34t-62 -160.5t-104 -381.5q-109 -442 -101 -511q6 -25 26 -26q26 0 50.5 38t51.5 141zM432 1319h121q-18 -58 -201 -782q-22 -89 -80.5 -333t-103.5 -423h-123q34 123 43 162q16 68 45 163l-12 3q-26 -57 -58 -89t-63 -32
q-25 0 -39 9t-24 46.5t-4 105.5t29.5 194t68.5 304q77 305 125 451t81 189.5t80 43.5q69 0 93 -71h10q0 2 4 22q1 6 4 18.5t4 18.5z" />
    <glyph glyph-name="r" unicode="r" horiz-adv-x="274" 
d="M276 1165h11q60 162 127 162q19 0 35 -8q-17 -37 -50 -154q-12 6 -26 6q-38 0 -64 -32.5t-49 -124.5q-22 -91 -79 -317t-99.5 -399t-69.5 -298h-127q18 68 174 686q29 117 81 326t75 307h104q-4 -14 -12 -43.5t-16 -57t-15 -53.5z" />
    <glyph glyph-name="s" unicode="s" horiz-adv-x="344" 
d="M23 436h59l-41 -141q-15 -60 -22 -98t-6.5 -61.5t7.5 -32.5t21 -9q26 0 45 38t43 130q35 140 -2 354q-14 84 -20.5 145.5t-1.5 157.5t30 187q32 119 75.5 174t117.5 55q41 0 68 -14.5t43.5 -48t13.5 -95t-25 -149.5q-12 -48 -37 -133h-53h-57q21 67 43 158
q26 104 24.5 142t-31.5 38q-22 0 -36 -26.5t-33 -100.5q-53 -205 -23 -375q57 -302 8 -491q-34 -135 -78 -195.5t-124 -60.5q-178 0 -101 311q5 21 41 141h52z" />
    <glyph glyph-name="t" unicode="t" horiz-adv-x="286" 
d="M401 1501l-49 -184q61 0 94 2q-16 -55 -32 -117q-12 0 -42.5 1t-49.5 1q-90 -342 -263 -1030q-16 -68 29 -68q26 0 51 19q-12 -74 -12 -119q-53 -16 -98 -16q-70 0 -89.5 48.5t5.5 139.5q5 19 262 1028h-39q19 79 29 113h36l48 182h61h59z" />
    <glyph glyph-name="u" unicode="u" horiz-adv-x="428" 
d="M440 1319h121q-22 -89 -75.5 -299t-90.5 -356q-42 -165 -98 -394t-66 -270h-120q1 6 24 88h-8q-49 -100 -121 -100q-49 0 -74 51t-2 143q46 189 95 377t65 254q66 263 123 506h123q-138 -547 -283 -1118q-9 -36 -10 -57t6 -32.5t25 -11.5q64 0 96 127q106 424 184.5 745
t85.5 347z" />
    <glyph glyph-name="v" unicode="v" horiz-adv-x="382" 
d="M430 1319h121q-347 -1037 -432 -1319q-7 0 -34 2t-48 2q-56 0 -84 -4q15 86 107 623t120 696h127q-10 -44 -33 -158t-58.5 -293t-55.5 -280q-66 -318 -103 -486h13q105 378 137 484q45 150 127 418t96 315z" />
    <glyph glyph-name="w" unicode="w" horiz-adv-x="546" 
d="M614 1319h103q-70 -219 -213.5 -689t-190.5 -630h-67h-80q10 50 67 336t89 446q14 69 32 144.5t39.5 158t30.5 121.5h-10q-102 -374 -117 -424q-109 -369 -238 -782h-65h-72q209 1066 256 1319h111q-24 -100 -174 -793q-43 -201 -97 -426h11q59 221 118 424
q188 611 240 795h62h67q-20 -80 -164 -797q-35 -169 -94 -420h10q46 181 115 420q181 616 231 797z" />
    <glyph glyph-name="x" unicode="x" horiz-adv-x="382" 
d="M422 1319h127q-152 -391 -256 -653q-35 -319 -70 -666h-129q10 60 25 173.5t24 172.5q12 89 43 262h-10q-43 -146 -82 -262q-54 -153 -117 -346h-129q35 89 129.5 336t128.5 334q48 403 72 649h129q-8 -44 -63 -395q-10 -63 -41 -213h8q8 23 33 96t41 119q19 53 68.5 195
t68.5 198z" />
    <glyph glyph-name="y" unicode="y" 
d="M440 1319h121q-12 -49 -37.5 -146.5t-49.5 -191.5t-48 -195l-197 -788q-30 -120 -81.5 -174.5t-129.5 -54.5q-103 0 -134 60t1 183q8 32 25 88h57h60q-15 -49 -23 -86q-19 -75 -13.5 -106t36.5 -31q50 0 84 129q44 181 69 266h-8q-50 -100 -129 -100q-60 0 -75 47t12 156
q33 134 77 306t64 255q52 206 92 383h123q-22 -88 -103 -403.5t-137 -544.5q-12 -51 -7 -68.5t32 -17.5q62 0 94 127q171 693 225 907z" />
    <glyph glyph-name="z" unicode="z" horiz-adv-x="331" 
d="M203 1319h280q-5 -17 -14 -57q-7 -23 -16 -64q-18 -37 -79.5 -190t-136 -340t-104.5 -258l-123 -297q27 2 70 2h102q-6 -18 -16 -58q-7 -27 -12 -57h-285q7 19 16 59q3 12 8.5 31t6.5 23q9 21 130.5 333t186.5 461q79 185 131 297h-72q-65 0 -104 -2q3 7 18 60q1 3 6 23
t7 34z" />
    <glyph glyph-name="uni00A0" unicode="&#xa0;" horiz-adv-x="157" 
 />
  </font>
</defs>
</svg>
